<svg width="216" height="241" viewBox="0 0 216 241" fill="none" xmlns="http://www.w3.org/2000/svg">
<path d="M26.9421 120.451C-3.09356 111.344 -7.03416 66.5817 28.0545 55.9687C38.1157 52.9256 47.7947 55.5377 54.8704 59.1022" stroke="#8826C9" stroke-width="6.0559" stroke-miterlimit="10" stroke-linecap="round" stroke-linejoin="round"/>
<path d="M102.515 23.5938C97.801 30.6971 94.5318 39.2647 92.8321 48.6578C87.7796 76.5794 96.1068 107.768 55.2117 119.679C44.14 122.904 34.6533 122.789 26.9421 120.451" stroke="#FFC361" stroke-width="6.056" stroke-miterlimit="10" stroke-linecap="round" stroke-linejoin="round"/>
<path d="M157.769 88.0904C157.769 88.0904 184.048 76.4802 186.763 52.6892C189.727 26.7194 174.077 6.80973 146.334 3.56218C126.736 1.26807 111.814 9.58084 102.515 23.5921" stroke="#9936DB" stroke-width="6.0559" stroke-miterlimit="10" stroke-linecap="round" stroke-linejoin="round"/>
<path d="M148.856 170.155C148.862 170.311 148.862 170.467 148.856 170.617C148.736 173.895 146.316 176.561 143.297 176.693C143.218 176.705 143.146 176.705 143.068 176.705L97.5405 176.483L52.0128 176.26H52.0067C51.0223 176.26 50.1093 175.996 49.3049 175.528C47.8877 174.087 47.1437 171.896 47.5697 169.62L56.9539 119.542L66.3381 69.4637C66.7946 67.0438 68.4877 65.1347 70.6909 64.5647L105.153 56.1832L139.615 47.8017C141.062 47.4294 142.479 47.6754 143.674 48.3779C143.944 48.6538 144.196 48.9601 144.412 49.3025C145.067 50.2809 145.469 51.482 145.505 52.8088L147.18 111.482L148.856 170.155Z" fill="#AAC3F3"/>
<path d="M154.542 45.1306C154.493 43.6354 153.995 42.2725 153.191 41.1679C151.564 38.9042 148.67 37.6616 145.698 38.3641L62.2979 58.0748C59.5722 58.723 57.4709 60.8847 56.9063 63.6226L33.6716 176.946C33.0289 180.086 34.5303 183.076 37.0515 184.571C38.1263 185.207 39.3811 185.574 40.7317 185.574L151.527 185.333C155.574 185.321 158.816 181.965 158.684 177.924L154.542 45.1306ZM148.856 170.618C148.7 173.878 146.304 176.519 143.297 176.693C143.218 176.706 143.146 176.706 143.068 176.706L52.0134 176.261H52.0073L50.8245 176.255C49.8279 176.255 48.8971 175.991 48.0806 175.517C47.9902 175.469 47.9066 175.415 47.8224 175.361C45.7571 174.021 44.5322 171.344 45.0546 168.54L64.0507 67.1582C64.5128 64.7084 66.2362 62.7694 68.4633 62.1933L138.235 45.2265C140.252 44.704 142.233 45.3888 143.608 46.7993C143.884 47.0813 144.136 47.3937 144.359 47.7361C145.019 48.7266 145.427 49.9454 145.463 51.2845L145.505 52.8096L148.855 170.156C148.862 170.312 148.862 170.468 148.856 170.618Z" fill="#BC6CF2"/>
<path d="M160.858 179.901C160.984 183.953 157.742 187.303 153.695 187.309L42.899 187.561C40.4614 187.567 38.354 186.366 37.051 184.571C38.1258 185.208 39.3806 185.574 40.7313 185.574L151.527 185.334C155.573 185.322 158.816 181.965 158.683 177.925L154.541 45.1307C154.492 43.6355 153.994 42.2726 153.19 41.168C155.213 42.3629 156.63 44.5363 156.708 47.1179L160.858 179.901Z" fill="#AAC3F3"/>
<path d="M145.506 52.8087C145.47 51.4819 145.068 50.2808 144.413 49.3025C144.197 48.9601 143.945 48.6543 143.675 48.3778C142.48 47.6754 141.063 47.4294 139.616 47.8017L70.6915 64.5646C68.4882 65.1352 66.7952 67.0443 66.3387 69.4636L47.5703 169.62C47.1443 171.895 47.8883 174.087 49.3054 175.528C50.1098 175.996 51.0228 176.26 52.0073 176.26L50.8245 176.254C49.8278 176.254 48.8971 175.99 48.0805 175.516C47.9902 175.468 47.9066 175.414 47.8224 175.36C45.757 174.021 44.5322 171.343 45.0546 168.539L64.0507 67.1573C64.5127 64.7075 66.2362 62.7685 68.4633 62.1924L138.235 45.2256C140.252 44.7031 142.233 45.3879 143.608 46.7984C143.884 47.0804 144.136 47.3928 144.359 47.7352C145.019 48.7257 145.427 49.9445 145.463 51.2836L145.506 52.8087Z" fill="#1C211C"/>
<path d="M69.4644 56.382C68.4279 57.1975 67.28 57.4828 66.1349 57.7769L64.4264 58.2329C63.8585 58.3863 63.3156 58.5387 62.7333 58.7093C61.6098 59.0212 60.5395 59.3509 59.668 59.9697C58.7911 60.5719 58.1512 61.4472 57.811 62.4749C57.7158 62.7269 57.6604 62.9951 57.6077 63.2643C57.5473 63.5192 57.5041 63.8333 57.4537 64.1225L57.1474 65.8842C56.944 67.0581 56.7363 68.2298 56.5069 69.3965C56.282 70.5644 56.0283 71.7261 55.7518 72.8823C55.62 73.4618 55.4637 74.0357 55.3175 74.6119C55.1734 75.1881 55.0798 75.7775 54.3236 76.2146C53.8311 75.4944 53.9968 74.926 54.1098 74.3443C54.2211 73.7621 54.3186 73.1776 54.4383 72.5976C54.6654 71.4347 54.9037 70.2746 55.1579 69.119L55.9047 65.6493L56.2399 63.9097C56.2964 63.6156 56.3374 63.3413 56.4161 63.0194C56.4826 62.707 56.5568 62.3962 56.6715 62.0921C57.0471 60.8572 57.8609 59.7087 58.9229 58.9387C59.9739 58.1409 61.2093 57.7254 62.3555 57.3891C62.9139 57.234 63.5095 57.0518 64.0945 56.9221C64.679 56.7853 65.2607 56.6556 65.8468 56.5443C67.0135 56.3 68.1819 56.069 69.4644 56.382Z" fill="#1C211C"/>
<path d="M52.1397 86.8711C52.1707 89.5818 51.6666 92.1828 51.1635 94.7844C50.6749 97.3888 50.153 99.9859 49.6118 102.58L46.3426 118.137L43.2319 133.726C42.7006 136.321 42.1871 138.92 41.6231 141.509L40.7727 145.392C40.4913 146.686 40.2614 147.991 39.3689 149.161C39.0082 147.735 39.3107 146.444 39.5611 145.144L40.3073 141.24C40.8076 138.637 41.3583 136.046 41.8912 133.451L45.1659 117.896L48.2827 102.308C48.8057 99.7106 49.3481 97.1173 49.9237 94.5307C50.4843 91.9407 51.0444 89.3514 52.1397 86.8711Z" fill="#1C211C"/>
<path d="M148.549 159.418C149.136 159.769 149.176 160.135 149.213 160.502C149.268 160.867 149.287 161.235 149.299 161.602C149.304 162.336 149.251 163.073 149.275 163.807C149.292 164.542 149.376 165.274 149.426 166.008C149.452 166.375 149.455 166.742 149.441 167.11C149.44 167.294 149.415 167.478 149.403 167.662C149.393 167.846 149.435 168.029 148.801 168.23C148.157 168.065 148.188 167.88 148.167 167.698C148.145 167.514 148.109 167.332 148.098 167.148C148.063 166.782 148.045 166.415 148.05 166.048C148.058 165.313 148.1 164.576 148.075 163.842C148.057 163.108 147.963 162.376 147.926 161.642C147.916 161.274 147.914 160.907 147.948 160.539C147.964 160.17 147.983 159.802 148.549 159.418Z" fill="#1C211C"/>
<path d="M148.481 172.547C148.634 173.127 148.557 173.778 148.316 174.363C148.077 174.953 147.66 175.47 147.173 175.881C146.178 176.706 144.945 177.083 143.759 177.292C143.16 177.421 142.56 177.444 141.961 177.5L140.219 177.56C139.063 177.59 137.906 177.594 136.752 177.602C134.443 177.624 132.135 177.604 129.827 177.588L122.904 177.552L109.059 177.596C106.752 177.587 104.445 177.595 102.138 177.551L98.6768 177.479C97.5234 177.457 96.3694 177.487 95.2198 176.84C96.3772 176.208 97.5306 176.251 98.684 176.243L102.144 176.208C104.451 176.187 106.758 176.217 109.065 176.227L115.985 176.305L122.905 176.351L129.824 176.316L136.741 176.245L140.195 176.208L141.912 176.181C142.461 176.135 143.021 176.143 143.555 176.043C144.636 175.894 145.67 175.574 146.555 175.043C147.434 174.511 148.165 173.698 148.481 172.547Z" fill="#1C211C"/>
<path d="M70.4949 70.8277L140.831 54.0664" stroke="#8826C9" stroke-miterlimit="10"/>
<path d="M69.7957 75.4113L140.831 59.793" stroke="#8826C9" stroke-miterlimit="10"/>
<path d="M69.097 79.9944L140.831 65.5195" stroke="#8826C9" stroke-miterlimit="10"/>
<path d="M68.3979 84.5815L140.831 71.25" stroke="#8826C9" stroke-miterlimit="10"/>
<path d="M67.6989 89.1651L140.831 76.9766" stroke="#8826C9" stroke-miterlimit="10"/>
<path d="M67.0002 93.7488L140.831 82.7031" stroke="#8826C9" stroke-miterlimit="10"/>
<path d="M66.301 98.3319L140.831 88.4297" stroke="#8826C9" stroke-miterlimit="10"/>
<path d="M65.6019 102.915L140.831 94.1562" stroke="#8826C9" stroke-miterlimit="10"/>
<path d="M64.9033 107.503L140.831 99.8867" stroke="#8826C9" stroke-miterlimit="10"/>
<path d="M64.2042 112.086L140.831 105.613" stroke="#8826C9" stroke-miterlimit="10"/>
<path d="M62.8125 117.603L140.831 112.617" stroke="#8826C9" stroke-miterlimit="10"/>
<path d="M62.8125 122.606L140.831 120.113" stroke="#8826C9" stroke-miterlimit="10"/>
<path d="M62.0951 127.988L140.831 128.244" stroke="#8826C9" stroke-miterlimit="10"/>
<path d="M24.2724 62.0099C20.2941 64.2807 16.0687 64.5184 14.3613 62.6946C14.2018 62.5323 14.0743 62.35 13.9624 62.1578C12.5979 59.7678 15.0023 55.8294 19.3346 53.3636C23.5533 50.9515 28.0518 50.8307 29.5343 53.0406C29.5736 53.096 29.6135 53.1597 29.6445 53.2162C31.009 55.6056 28.5963 59.5451 24.2724 62.0099Z" fill="#1C211C"/>
<path d="M55.8365 106.773C52.8532 108.566 49.9303 108.882 48.0894 107.782C47.6955 107.558 47.3443 107.253 47.0639 106.891L14.3613 62.6964C16.0688 64.5201 20.2941 64.2825 24.2724 62.0116C28.5958 59.5469 31.009 55.6079 29.6445 53.2174C29.6246 53.1853 29.6035 53.1454 29.5836 53.1133C30.9298 55.1415 59.6841 98.3197 59.7766 98.4887C59.9084 98.713 60.0082 98.9573 60.0841 99.2205C60.7018 101.328 59.5877 104.516 55.8365 106.773Z" fill="#8826C9"/>
<path d="M81.3261 140.559C81.3261 140.559 82.2047 142.688 82.3116 142.998C82.4346 143.355 81.9704 143.806 81.4596 143.245C80.9488 142.685 79.8369 141.688 79.8369 141.688L81.3261 140.559Z" fill="#1C211C"/>
<path d="M80.9676 141.786C80.2535 142.244 79.4585 141.934 79.4585 141.934L72.1961 137.548C72.1961 137.548 70.5524 136.902 68.666 134.577C69.8449 135.749 72.641 135.439 75.1877 133.775C77.8153 132.064 79.2369 129.538 78.5023 127.988C78.8524 128.615 79.8225 130.528 80.2673 133.209C80.813 136.504 81.6213 140.411 81.6213 140.411C81.6213 140.411 81.6889 141.341 80.9676 141.786Z" fill="#D65151"/>
<path d="M75.1878 133.772C72.641 135.436 70.2123 136.182 69.0334 135.009C68.7182 135.117 67.9963 134.763 67.7082 134.414C67.7082 134.414 51.8295 116.553 47.1892 109.378C46.5028 108.317 47.1847 107.035 47.1847 107.035C49.024 108.133 52.8549 108.563 55.8393 106.771C59.5849 104.514 60.3971 100.596 59.7771 98.4869C59.7771 98.4869 60.868 98.2309 61.6901 98.9894C63.2513 100.429 78.4098 127.184 78.4098 127.184C78.4098 127.184 78.8946 127.808 78.6951 128.347C78.7018 128.354 78.7018 128.354 78.7018 128.354C78.94 130.064 77.8148 132.061 75.1878 133.772Z" fill="#FFC361"/>
<path d="M33.9409 94.1848C33.332 94.4552 31.4013 94.4856 30.0518 94.6158C29.0706 94.7106 28.2103 94.038 27.7333 93.4746C27.2186 92.8724 16.5347 79.1831 16.0926 78.1936C15.6594 77.2114 15.4711 76.5061 15.5436 75.7627C15.6467 74.7056 17.9624 67.5624 17.9624 67.5624C17.9624 67.5624 21.8875 68.5125 25.991 65.7812C25.991 65.7812 19.436 74.1561 19.5391 76.279C19.6327 78.2163 28.8524 90.7234 31.2501 93.3865C31.2501 93.3865 31.2506 93.3948 31.2595 93.3943C31.4872 93.6513 31.6556 93.8131 31.7448 93.8635C32.5132 94.2967 33.3442 94.4031 33.9409 94.1848Z" fill="#8826C9"/>
<path d="M35.3446 88.3398C35.2504 88.5016 33.7347 91.0888 33.4649 91.2905C33.1818 91.5126 32.8317 91.4317 32.4882 91.0816C32.4749 91.0616 32.4206 91.0074 32.3669 90.9065C32.3669 90.9065 32.3669 90.8999 32.3602 90.8999L33.6333 88.7443C34.7723 88.6495 35.2842 88.3731 35.3446 88.3398Z" fill="#1C211C"/>
<path d="M36.5711 90.3877C36.5711 90.3877 35.0216 93.1228 34.5297 93.7831C34.4288 93.9111 34.3141 94.0053 34.1657 94.0862C34.1657 94.0862 34.159 94.0862 34.1452 94.0995C34.1114 94.1128 34.0377 94.1399 33.943 94.1804C33.3435 94.4025 32.5148 94.295 31.7403 93.8635C31.6527 93.8097 31.4843 93.648 31.255 93.392C31.2483 93.392 31.2483 93.3854 31.2483 93.3854C28.85 90.724 19.6337 78.2135 19.5395 76.2801C19.4315 74.1577 25.987 65.7773 25.987 65.7773L28.9176 70.3722L24.2757 76.0851C24.2757 76.0851 23.7837 76.577 24.1543 77.5338C24.4978 78.4296 31.2821 89.3506 32.3602 90.9001C32.3668 90.9001 32.3668 90.9068 32.3668 90.9068C32.4206 91.0076 32.4749 91.0619 32.4882 91.0818C32.8316 91.432 33.1823 91.5129 33.4649 91.2907C33.7347 91.0885 35.2504 88.5013 35.3446 88.3401C35.3512 88.3334 35.3512 88.3335 35.3512 88.3335L36.5711 90.3877Z" fill="#1C211C"/>
<path d="M18.7036 53.7004C16.2156 55.1214 13.5708 55.1524 12.7902 53.784C12.4755 53.2428 12.5093 52.5525 12.8118 51.8439C12.8328 51.9807 12.8833 52.1071 12.9481 52.2167C13.5785 53.3137 15.6915 53.2876 17.682 52.1541C19.6725 51.0201 20.78 49.2152 20.1573 48.1171C20.0465 47.9271 19.8919 47.7643 19.6958 47.6523C20.6636 47.6828 21.4287 48.0102 21.7921 48.6545C22.5722 50.0235 21.1922 52.2871 18.7036 53.7004Z" fill="#1C211C"/>
<path d="M17.682 52.1549C15.6915 53.2884 13.5786 53.315 12.9481 52.2175C12.8833 52.1078 12.8329 51.9815 12.8118 51.8446L12.8113 51.8369C12.5742 50.7405 13.645 49.1932 15.4234 48.1805C17.0549 47.2437 18.7895 47.0609 19.6958 47.6531C19.8919 47.7655 20.0465 47.9279 20.1573 48.1179C20.7806 49.2159 19.6731 51.0208 17.682 52.1549Z" fill="#FFC361"/>
<path d="M23.1167 60.0005C20.2404 61.6365 17.1718 61.6775 16.2621 60.0903L12.7902 53.7857C13.5707 55.1541 16.2155 55.1231 18.7036 53.7021C21.1921 52.2888 22.5721 50.0246 21.7916 48.6562L26.1715 53.5686L26.1798 53.5752L26.6906 54.1514C27.593 55.7397 25.9925 58.3568 23.1167 60.0005Z" fill="#8826C9"/>
<path d="M59.1761 103.188C59.5013 103.958 59.2038 104.477 58.8902 104.921C58.5939 105.392 58.2182 105.807 57.821 106.199C56.9978 106.958 56.0094 107.526 54.984 107.967C53.9591 108.399 52.8588 108.745 51.7309 108.785C51.1658 108.855 50.6102 108.757 50.0578 108.689C49.7775 108.672 49.521 108.549 49.254 108.482C49.1243 108.432 48.9831 108.432 48.87 108.316C48.757 108.203 48.6662 108.006 48.6329 107.64C48.8529 107.329 49.0152 107.185 49.1554 107.126C49.2955 107.064 49.4074 107.119 49.531 107.123C49.7736 107.144 50.0135 107.196 50.2528 107.195C50.7326 107.197 51.2063 107.274 51.6772 107.241C52.6228 107.272 53.5746 107.105 54.4477 106.73C55.3258 106.36 56.0831 105.751 56.759 105.082C57.0992 104.746 57.4338 104.405 57.7656 104.052C57.9374 103.879 58.0725 103.682 58.2875 103.533C58.5085 103.385 58.7623 103.264 59.1761 103.188Z" fill="#D69C3F"/>
<path d="M74.4304 134.241C74.1501 134.707 73.7839 135.08 73.3689 135.395C73.1623 135.554 72.9302 135.679 72.7019 135.81C72.4582 135.916 72.2177 136.03 71.9524 136.098C71.4349 136.254 70.8643 136.328 70.2688 136.287C69.9707 136.266 69.6649 136.201 69.3657 136.086C69.2156 136.03 69.0677 135.957 68.922 135.872C68.8489 135.824 68.7774 135.782 68.7043 135.724C68.625 135.661 68.5752 135.628 68.4583 135.502L69.2156 135.744C68.7048 135.866 68.3004 135.713 68.0162 135.572C67.7237 135.421 67.4921 135.247 67.2855 135.068C67.0805 134.887 66.8954 134.701 66.7232 134.509C66.5503 134.311 66.4007 134.125 66.2356 133.895L66.2755 133.947L62.6258 129.51C61.4147 128.027 60.1422 126.596 58.8962 125.142C57.6365 123.7 56.3639 122.268 55.1396 120.796C54.5263 120.061 53.9197 119.32 53.3263 118.568L52.4377 117.439C52.148 117.057 51.9375 116.608 52.0261 115.906C52.733 115.936 53.1407 116.218 53.4687 116.567L54.4338 117.631C55.0764 118.342 55.7058 119.063 56.3285 119.79C57.5766 121.242 58.776 122.735 59.9882 124.218C61.2142 125.689 62.4136 127.182 63.6745 128.623L67.4411 132.961L67.4511 132.972L67.4816 133.012C67.5907 133.158 67.7353 133.333 67.8722 133.482C68.0101 133.636 68.153 133.781 68.2965 133.909C68.4395 134.036 68.5863 134.138 68.7065 134.202C68.83 134.27 68.9009 134.267 68.8516 134.275L69.6089 134.518C69.5746 134.481 69.6173 134.526 69.6339 134.538C69.6544 134.557 69.6887 134.577 69.7142 134.598C69.7779 134.637 69.8449 134.675 69.922 134.707C70.0737 134.771 70.2444 134.819 70.4289 134.846C70.7984 134.897 71.2117 134.886 71.631 134.789C71.841 134.757 72.0543 134.69 72.2737 134.654C72.4909 134.594 72.7158 134.55 72.9457 134.498C73.4083 134.396 73.8803 134.279 74.4304 134.241Z" fill="#D69C3F"/>
<path d="M34.7546 60.8828C35.7973 61.8706 36.5911 63.024 37.3739 64.1847C38.1651 65.3397 38.9589 66.4932 39.7262 67.6643L44.3444 74.6813L49.0379 81.6478C49.8135 82.8135 50.6007 83.9713 51.3547 85.1513L52.4965 86.9142C52.8793 87.5003 53.2826 88.0726 53.3735 88.8532C52.6882 88.4681 52.3159 87.8754 51.9231 87.2959L50.7375 85.5624C49.9398 84.4117 49.1753 83.2384 48.3997 82.0733L43.7843 75.0547L39.0936 68.0859C38.3091 66.9264 37.5518 65.7486 36.7911 64.573C36.0216 63.4035 35.2632 62.2263 34.7546 60.8828Z" fill="#1C211C"/>
<path d="M21.2032 67.6122C20.9799 67.8266 20.7074 67.9485 20.4315 68.0382C20.1534 68.1202 19.8636 68.1623 19.5739 68.1623C18.9938 68.1767 18.4083 68.0947 17.846 67.9263L18.3285 67.6726C17.964 68.8886 17.5612 70.093 17.1828 71.3046C16.795 72.5134 16.4482 73.735 16.0959 74.9543L16.0953 74.9554L16.0726 75.012C15.9552 75.3061 15.8986 75.7322 15.9075 76.1094C15.9153 76.4994 15.9956 76.8889 16.1153 77.2678C16.2272 77.6512 16.41 78.0152 16.5995 78.3764C16.6975 78.5564 16.8183 78.7243 16.9208 78.9038C17.0283 79.0833 17.0986 79.2883 17.0587 79.6074C16.749 79.5886 16.5474 79.4573 16.3867 79.2977C16.251 79.1171 16.1136 78.9365 15.9889 78.7459C15.7435 78.3614 15.5286 77.9515 15.379 77.5088C15.2344 77.0656 15.1458 76.5986 15.138 76.1227C15.1358 75.6385 15.189 75.1859 15.4117 74.6829L15.389 74.7399C15.7762 73.5311 16.1695 72.324 16.5213 71.104C16.8825 69.8869 17.2194 68.6626 17.595 67.4499L17.7097 67.0781L18.0775 67.1961C18.5617 67.3512 19.0686 67.4493 19.5844 67.477C20.1035 67.5019 20.6099 67.5091 21.2032 67.6122Z" fill="#1C211C"/>
<path d="M19.1302 51.0685C19.3944 51.7227 19.1745 51.9515 18.9745 52.1537C18.7756 52.3681 18.5485 52.5526 18.2986 52.7044C17.7945 53.0047 17.2311 53.1958 16.6721 53.3941C16.107 53.5786 15.5092 53.7526 14.8721 53.777C14.553 53.7819 14.2328 53.7448 13.9298 53.6346C13.7758 53.5925 13.629 53.531 13.4932 53.4451C13.429 53.3941 13.3431 53.3969 13.3071 53.2811C13.2683 53.1736 13.2727 52.9692 13.3503 52.6462C13.552 52.3709 13.6805 52.213 13.7658 52.1526C13.8539 52.0839 13.8921 52.1338 13.9519 52.1299C14.0611 52.1515 14.1697 52.1598 14.2782 52.1632C14.3863 52.167 14.4882 52.1936 14.594 52.2014C14.7004 52.2036 14.8051 52.2158 14.9115 52.2324C15.3353 52.2679 15.7984 52.2695 16.2416 52.1172C16.6859 51.9654 17.0782 51.6778 17.4687 51.4064C17.6676 51.2751 17.8737 51.1504 18.0903 51.0341C18.3069 50.9089 18.4909 50.7903 19.1302 51.0685Z" fill="#D69C3F"/>
<path d="M26.1948 78.6875C26.7638 78.9146 27.0868 79.324 27.4103 79.7335C27.7405 80.1373 28.0546 80.5534 28.3604 80.9755L30.1847 83.5156L32.0822 86.0014C32.3924 86.4202 32.711 86.833 33.0063 87.2629C33.1586 87.4745 33.2999 87.6939 33.4472 87.9094C33.5952 88.1243 33.7669 88.3216 33.6334 88.7443C33.1902 88.7481 33.0517 88.5265 32.8894 88.3221C32.7265 88.1188 32.5581 87.9188 32.4007 87.7116C32.0761 87.3033 31.7747 86.8784 31.465 86.459L29.6429 83.9173L27.7482 81.4292C27.4341 81.0132 27.1289 80.591 26.8391 80.1573C26.5427 79.7268 26.2458 79.298 26.1948 78.6875Z" fill="#1C211C"/>
<path d="M34.2738 88.6622C34.4273 88.4384 34.5674 88.2744 34.702 88.1326C34.8361 87.9924 34.9597 87.8766 35.066 87.7808L35.3896 87.4883L35.881 88.0179C36.1181 88.2738 36.2859 88.5714 36.3895 88.9071C36.4865 89.2472 36.5286 89.6201 36.3989 90.096C35.9181 89.9863 35.6089 89.7735 35.3547 89.5276C35.107 89.2777 34.9242 88.9896 34.8101 88.66L35.6245 88.8971C35.3945 88.9664 35.1663 88.9808 34.9408 88.9459C34.7159 88.9093 34.4904 88.8295 34.2738 88.6622Z" fill="#D69C3F"/>
<path d="M127.982 60.8717C127.943 61.0268 127.849 61.2263 127.699 61.4645C126.104 64.0905 118.614 71.3756 118.614 71.3756C118.614 71.3756 117.423 72.7218 114.963 72.1567C115.223 71.9794 115.45 71.7523 115.644 71.4864C116.741 69.9795 115.506 68.6333 113.783 67.3868C112.06 66.1347 110.503 65.4533 109.406 66.9657C109.201 67.2427 109.057 67.5474 108.957 67.8632C107.561 65.6417 108.498 64.0406 108.498 64.0406C108.498 64.0406 113.085 54.6725 115.09 52.329C115.279 52.113 115.439 51.9579 115.572 51.8748C116.736 51.1435 119.057 51.0438 121.4 51.8803C122.292 52.2016 123.195 52.6559 124.032 53.2653C124.879 53.8802 125.594 54.5949 126.176 55.3539C127.688 57.315 128.309 59.5421 127.982 60.8717Z" fill="#8826C9"/>
<path d="M113.466 54.8961C113.644 54.4634 114.013 54.1848 114.388 54.0103C114.769 53.8341 115.179 53.787 115.58 53.7394C116.386 53.6563 117.19 53.7216 117.968 53.879C119.523 54.2158 120.977 54.9044 122.249 55.8368C123.532 56.7526 124.627 57.9337 125.44 59.2971C125.844 59.9813 126.159 60.7253 126.348 61.5148C126.445 61.9092 126.497 62.3181 126.515 62.7341C126.513 62.9424 126.54 63.1568 126.457 63.3662C126.416 63.4709 126.345 63.5723 126.259 63.6643C126.214 63.7103 126.159 63.754 126.089 63.7917C126.023 63.8299 125.965 63.8676 125.876 63.8936C125.636 63.6443 125.512 63.477 125.452 63.3114C125.416 63.2277 125.405 63.1479 125.403 63.0676L125.377 62.8222C125.334 62.4926 125.242 62.1646 125.151 61.8355C124.95 61.1796 124.667 60.5397 124.335 59.9226C124.002 59.3076 123.603 58.7154 123.149 58.1763C122.687 57.6423 122.167 57.1575 121.599 56.7343C120.448 55.9105 119.096 55.3764 117.719 55.1221C117.031 54.982 116.334 54.9116 115.645 54.9066C115.3 54.905 114.965 54.9521 114.619 54.951C114.266 54.9499 113.925 54.9354 113.466 54.8961Z" fill="#1C211C"/>
<path d="M111.532 58.1469C111.776 57.7824 112.122 57.5841 112.472 57.46C112.827 57.3375 113.195 57.3287 113.558 57.312C114.286 57.2888 115.009 57.3846 115.71 57.5508C117.107 57.9154 118.409 58.563 119.565 59.4095C120.731 60.2372 121.748 61.2848 122.539 62.4875C122.931 63.0925 123.249 63.749 123.474 64.4431C123.59 64.7894 123.667 65.1495 123.728 65.5135C123.748 65.6968 123.801 65.8786 123.754 66.0713C123.704 66.2641 123.575 66.4647 123.29 66.6403C122.694 66.3245 122.69 66.058 122.611 65.7473C122.53 65.447 122.416 65.1539 122.307 64.8598C122.073 64.2747 121.784 63.708 121.461 63.159C121.131 62.6144 120.762 62.0837 120.338 61.6033C119.909 61.1263 119.432 60.692 118.916 60.3075C117.87 59.5618 116.653 59.0627 115.412 58.7829C114.792 58.6344 114.163 58.5364 113.532 58.4799C113.216 58.4511 112.905 58.4671 112.584 58.4212C112.26 58.3746 111.937 58.3048 111.532 58.1469Z" fill="#1C211C"/>
<path d="M109.718 61.5362C110.259 60.9169 110.962 60.8847 111.602 60.9196C112.254 60.9379 112.897 61.0554 113.521 61.231C114.766 61.6083 115.918 62.2165 116.959 62.9788C118.008 63.7229 118.944 64.6431 119.698 65.6946C120.072 66.2242 120.388 66.7976 120.627 67.4053C120.753 67.7067 120.843 68.0225 120.927 68.3399C121.01 68.6501 121.13 68.9892 120.603 69.4008C119.97 69.2102 119.939 68.9554 119.838 68.6828C119.737 68.4169 119.61 68.161 119.491 67.9017C119.243 67.3876 118.955 66.8918 118.646 66.4076C118.029 65.4336 117.245 64.5649 116.309 63.8769C115.368 63.2065 114.282 62.7412 113.174 62.4498C112.622 62.293 112.06 62.175 111.494 62.0825C110.916 62.0082 110.388 61.9767 109.718 61.5362Z" fill="#1C211C"/>
<path d="M115.644 71.4881C115.45 71.754 115.223 71.9812 114.963 72.1584C113.761 73.0282 111.96 72.9894 110.542 71.9645C109.135 70.9452 108.536 69.2666 108.957 67.8649C109.057 67.5492 109.201 67.2444 109.406 66.9674C110.503 65.455 112.06 66.1365 113.783 67.3885C115.506 68.635 116.741 69.9812 115.644 71.4881Z" fill="#1C211C"/>
<path d="M162.479 47.5975C157.632 54.2787 150.363 58.1623 142.751 58.9213C142.751 58.9213 142.729 58.9213 142.685 58.9268C142.463 58.9324 141.666 58.9711 140.558 59.0542H140.53C137.361 59.2814 131.688 59.8354 129.356 61.0098C128.829 61.2758 128.27 61.4198 127.699 61.4641C127.849 61.2259 127.943 61.0265 127.982 60.8713C128.309 59.5417 127.688 57.3147 126.176 55.3535C125.594 54.5945 124.879 53.8799 124.032 53.2649C123.195 52.6555 122.292 52.2013 121.4 51.8799C119.057 51.0434 116.736 51.1431 115.572 51.8744C115.439 51.9575 115.279 52.1126 115.09 52.3287C114.957 51.7691 114.918 51.193 115.007 50.6057C115.423 47.9077 114.104 42.0021 113.378 39.077C113.378 39.0714 113.378 39.0659 113.373 39.0604C113.184 38.3014 113.04 37.7418 112.974 37.4981C112.974 37.4925 112.974 37.4925 112.974 37.4925C111.251 29.9637 112.664 21.7645 117.556 15.0223C126.547 2.61825 143.898 -0.146213 156.302 8.84521C168.712 17.8422 171.476 35.1934 162.479 47.5975Z" fill="#FFC361"/>
<path d="M112.974 37.493C111.749 34.4161 111.503 30.9879 111.928 27.6938C112.129 26.0407 112.471 24.4042 112.95 22.8059C113.429 21.2059 114.102 19.6708 114.867 18.1905C115.64 16.7141 116.526 15.2887 117.587 14.0034L118.377 13.0339C118.641 12.7126 118.892 12.3779 119.199 12.0948C119.79 11.5076 120.37 10.9076 120.971 10.3331C123.451 8.10272 126.329 6.33047 129.418 5.09838C135.579 2.59818 142.631 2.2968 148.984 4.38482C149.768 4.66847 150.54 4.98813 151.318 5.28951C151.713 5.42579 152.075 5.63686 152.449 5.82301L153.562 6.39529C154.322 6.74542 154.995 7.24623 155.696 7.69719C156.042 7.92987 156.393 8.15424 156.734 8.39301C157.068 8.64231 157.398 8.89716 157.722 9.16031C159.013 10.214 160.219 11.373 161.304 12.6355C162.392 13.8854 163.423 15.2443 163.767 16.9523C162.422 15.8692 161.517 14.5867 160.452 13.384C159.389 12.1912 158.213 11.1015 156.959 10.1148C156.645 9.86887 156.326 9.6301 156.001 9.39742C155.671 9.17471 155.33 8.9664 154.995 8.75034C154.313 8.33817 153.679 7.84566 152.951 7.51437L151.889 6.96536C151.533 6.78642 151.188 6.58254 150.81 6.45291C150.067 6.16483 149.331 5.8568 148.583 5.58313C145.56 4.5682 142.355 4.09951 139.164 4.1876C135.973 4.284 132.799 4.9416 129.831 6.12605C126.873 7.32934 124.114 9.03842 121.76 11.2007C121.19 11.7591 120.642 12.3408 120.082 12.9081C119.79 13.1818 119.554 13.5059 119.304 13.8167L118.559 14.7535C117.562 15.9978 116.707 17.3556 115.975 18.7705C114.502 21.5976 113.507 24.674 113.072 27.8395C112.643 31.0189 112.788 34.2033 112.974 37.493Z" fill="#D69C3F"/>
<path d="M124.996 54.0649C124.31 54.1563 123.974 53.9281 123.604 53.6982C123.232 53.4821 122.865 53.2627 122.492 53.0589C121.755 52.6362 120.987 52.2522 120.166 52.0578C119.347 51.85 118.502 51.8921 117.706 52.0295C117.508 52.0755 117.309 52.1137 117.109 52.147C116.917 52.2146 116.722 52.27 116.525 52.327L116.228 52.4107L115.942 52.5292C115.748 52.6146 115.595 52.7303 115.09 52.3292C114.985 51.7198 115.232 51.6279 115.438 51.5055C115.643 51.373 115.852 51.2417 116.088 51.167C116.318 51.0783 116.547 50.983 116.783 50.9082C117.025 50.8578 117.268 50.8124 117.513 50.7747C118.495 50.6628 119.484 50.752 120.416 50.9792C121.348 51.2057 122.262 51.5049 123.104 51.9509C123.52 52.1797 123.919 52.4384 124.279 52.7464C124.647 53.0323 125.021 53.3613 124.996 54.0649Z" fill="#D69C3F"/>
<path d="M127.142 56.8583C128.928 54.721 131.094 53.1144 133.261 51.5072C135.415 49.8823 137.59 48.2885 139.774 46.7068C141.948 45.113 144.144 43.544 146.299 41.943L147.096 41.3391C147.318 41.1574 147.539 40.9574 147.743 40.7314C148.155 40.2832 148.523 39.7735 148.818 39.24C149.41 38.1985 149.697 36.8883 149.073 36.3387C148.936 36.203 148.681 36.0296 148.437 35.9282C148.195 35.8069 147.927 35.7376 147.655 35.6883C147.109 35.5936 146.521 35.6324 145.945 35.7736C144.785 36.0573 143.683 36.7165 142.747 37.5376C141.812 38.3952 140.863 39.4084 139.928 40.3591L137.115 43.2626C135.232 45.1922 133.369 47.1428 131.464 49.053L128.604 51.9166C127.651 52.8712 126.753 53.8778 125.26 54.3132C125.641 52.8058 126.616 51.8712 127.537 50.8856C128.46 49.9006 129.372 48.9056 130.306 47.9317C132.156 45.9661 134.052 44.0454 135.94 42.1153C136.882 41.148 137.84 40.1962 138.797 39.2422C139.773 38.2888 140.683 37.3426 141.753 36.3941C142.849 35.4573 144.13 34.6872 145.603 34.3371C147.057 33.9903 148.799 34.1321 150.09 35.3171C150.267 35.4601 150.384 35.6789 150.522 35.8639C150.622 36.07 150.73 36.2877 150.782 36.5055C150.827 36.7237 150.884 36.9481 150.877 37.1581L150.885 37.4783L150.853 37.7824C150.752 38.5907 150.464 39.2954 150.117 39.9469C149.766 40.5968 149.344 41.1934 148.849 41.743C148.603 42.0189 148.327 42.2776 148.028 42.5252L147.223 43.1573C145.075 44.8138 142.916 46.4298 140.734 48.022C138.56 49.6236 136.369 51.1992 134.151 52.7382C131.946 54.2933 129.737 55.845 127.142 56.8583Z" fill="#D69C3F"/>
<path d="M126.176 55.3544C127.427 52.3534 129.182 49.713 130.916 47.0549C132.63 44.3847 134.351 41.7205 136.033 39.0374C137.692 36.3461 139.363 33.6443 140.758 30.8587C141.436 29.4654 141.955 28.0638 141.977 26.6284C142.019 26.2677 141.934 25.9259 141.909 25.5747C141.904 25.3957 141.825 25.2395 141.789 25.0705C141.733 24.9093 141.72 24.7271 141.633 24.5808C141.386 23.9415 140.966 23.4069 140.467 22.9947C139.423 22.2042 137.966 22.2197 136.839 22.9936C135.679 23.7404 134.923 25.0545 134.171 26.4107C132.746 29.1851 131.563 32.1307 130.386 35.0647C129.217 38.007 128.13 40.9859 127.016 43.9559L125.367 48.4205C124.826 49.913 124.362 51.4271 123.128 52.6897C122.897 50.9357 123.465 49.4438 123.966 47.9336C124.469 46.4228 124.965 44.9093 125.5 43.4091C126.545 40.3997 127.679 37.4209 128.86 34.4559C130.059 31.4953 131.317 28.5608 132.834 25.696L133.453 24.6312C133.561 24.4545 133.651 24.2756 133.773 24.1005L134.152 23.5775L134.535 23.0568C134.683 22.8955 134.845 22.7426 135.001 22.5864C135.166 22.4374 135.3 22.2623 135.492 22.1377L136.046 21.7465C136.814 21.279 137.721 20.9122 138.684 20.9477C139.629 20.9582 140.592 21.259 141.335 21.8441C142.07 22.4258 142.648 23.1847 142.985 24.0301C143.096 24.2329 143.125 24.4573 143.197 24.6711C143.249 24.8883 143.342 25.1021 143.356 25.3232C143.4 25.7625 143.495 26.2063 143.455 26.6422C143.447 28.4067 142.813 30.0516 142.134 31.5152C140.725 34.4387 139.096 37.1815 137.415 39.8967C135.739 42.6118 133.989 45.276 132.18 47.8965C130.387 50.5274 128.565 53.1434 126.176 55.3544Z" fill="#D69C3F"/>
<path d="M107.811 217.119C137.83 231.681 177.836 223.521 195.088 197.205C215.684 165.787 196.406 131.988 196.406 131.988" stroke="#9936DB" stroke-width="6.0559" stroke-miterlimit="10" stroke-linecap="round" stroke-linejoin="round"/>
<path d="M54.8704 59.1016C68.5647 66 75.6647 83.6715 72.2898 105.912C67.9891 134.253 66.8484 171.095 82.3316 194.815C88.9065 204.887 97.8037 212.266 107.81 217.12" stroke="#41F1A2" stroke-width="6.0559" stroke-miterlimit="10" stroke-linecap="round" stroke-linejoin="round"/>
<path d="M214.191 98.3447C213.31 98.7546 212.208 100.09 209.222 100.09C206.463 100.084 204.518 96.2007 203.593 92.9265C203.593 92.9265 202.496 90.0845 201.388 86.8381C201.388 86.8381 201.388 86.8381 201.388 86.8325C201.3 86.7162 199.976 84.9157 199.56 83.924C199.56 83.924 199.837 83.5639 200.192 83.1152C200.607 82.5778 201.134 81.9186 201.405 81.6028C201.904 81.0322 203.35 80.107 203.649 80.035C203.937 79.9574 205.898 80.7995 206.014 80.8493L205.394 79.2372C205.394 79.2372 205.992 78.8106 206.79 78.6389C207.377 78.5059 207.953 78.6333 208.275 78.7441C208.391 78.7829 208.474 78.8162 208.513 78.8383C208.635 78.8993 210.169 81.6693 210.629 82.5058C210.662 82.5612 210.684 82.6055 210.707 82.6443C210.74 82.7052 210.757 82.7385 210.757 82.7385C214.144 87.6885 214.247 89.3361 214.247 89.3361C214.247 89.3361 215.299 92.8656 215.815 93.9681C216.33 95.0705 215.078 97.9402 214.191 98.3447Z" fill="#51F6AB"/>
<path d="M208.275 78.743C207.953 78.6322 207.377 78.5048 206.79 78.6377C205.992 78.8095 205.394 79.2361 205.394 79.2361L206.014 80.8482C205.898 80.7983 203.937 79.9562 203.649 80.0338C203.35 80.1058 201.904 81.031 201.405 81.6016C201.134 81.9174 200.607 82.5767 200.192 83.1141C199.527 80.8981 198.624 78.671 198.696 77.7402C198.951 74.4107 203.654 73.3858 205.97 75.7902C206.701 76.5492 207.488 77.5796 208.275 78.743Z" fill="#913A3A"/>
<path d="M199.117 79.248L197.576 77.9716C197.576 77.9716 197.217 77.9516 196.851 77.8575C195.008 78.4724 193.056 78.1732 193.056 78.1732C193.056 78.1732 189.727 77.9184 189.655 77.8796C189.583 77.8408 187.538 77.1262 187.317 76.9212C187.095 76.7218 186.968 75.8187 187.904 75.6193C188.846 75.4143 189.727 75.9295 189.727 75.9295L191.408 75.4974L191.599 75.1982C191.206 74.888 190.912 74.5999 190.702 74.3285H190.696L189.387 73.6825L187.183 73.6903C187.183 73.6903 186.143 74.4121 185.339 74.3562C184.541 74.3008 183.655 73.7523 184.126 73.2814C184.597 72.8105 186.275 71.9296 186.525 71.8465C186.674 71.7967 187.577 71.6693 188.281 71.5751H188.286C188.353 71.5031 189.5 70.3618 189.893 70.0405C190.054 69.9076 190.624 69.8355 191.25 69.7912C191.367 69.7137 192.884 68.7275 193.178 68.7275C193.3 68.7275 193.81 68.7885 194.386 68.8605H194.391C194.469 68.8162 195.189 68.4228 195.632 68.3951C196.103 68.3674 199.311 69.3092 199.311 69.3092C200.685 69.5862 205.427 75.1872 205.97 75.791C206.513 76.3949 202.657 80.8269 199.117 79.248Z" fill="#913A3A"/>
<path d="M190.016 84.1875L205.601 87.7879C205.601 87.7879 210.863 88.8583 212.391 91.1734C214.358 94.154 213.252 98.9555 209.888 99.9493C207.769 100.575 194.477 101.106 194.477 101.106C194.477 101.106 190.518 99.4696 188.815 95.8442C186.596 91.118 187.552 84.388 190.016 84.1875Z" fill="#51F6AB"/>
<path d="M194.477 101.105C194.988 100.54 195.53 100.48 196.072 100.422C196.614 100.348 197.156 100.307 197.7 100.273C198.789 100.221 199.88 100.221 200.967 100.151C201.511 100.118 202.053 100.048 202.596 100.018C203.14 99.978 203.688 100.015 204.234 100.03C205.328 100.074 206.424 100.151 207.525 100.304C206.451 100.59 205.373 100.801 204.293 100.978C203.752 101.059 203.213 101.164 202.669 101.191C202.125 101.227 201.58 101.224 201.036 101.258C199.948 101.321 198.865 101.456 197.779 101.538C197.235 101.57 196.691 101.596 196.145 101.588C195.599 101.597 195.054 101.603 194.477 101.105Z" fill="#702303"/>
<path d="M207.525 88.3046C207.063 88.2569 206.61 88.1744 206.152 88.1101C205.698 88.0326 205.244 87.9522 204.793 87.8614C203.889 87.6858 202.992 87.4797 202.098 87.2647L200.665 86.9207L202.122 86.7229C203.025 86.6005 203.923 86.5268 204.831 86.5274C205.284 86.5268 205.737 86.5451 206.189 86.5905C206.639 86.6498 207.091 86.7074 207.524 86.8387C206.623 86.8077 205.737 86.8814 204.85 86.9556C203.967 87.042 203.078 87.1401 202.205 87.2692L202.229 86.7274C203.121 86.9484 204.012 87.1789 204.895 87.4392C205.337 87.5667 205.777 87.7041 206.216 87.8442C206.653 87.9988 207.093 88.134 207.525 88.3046Z" fill="#702303"/>
<path d="M188.286 71.5754C188.396 71.3976 188.577 71.3378 188.726 71.2807C188.882 71.2253 189.04 71.2059 189.197 71.1954C189.512 71.1932 189.826 71.2386 190.137 71.4585C189.826 71.6779 189.521 71.7305 189.215 71.7488C189.062 71.7477 188.911 71.7438 188.757 71.7101C188.601 71.6873 188.457 71.6198 188.286 71.5754Z" fill="#1C211C"/>
<path d="M191.25 69.7926C191.588 69.5743 191.926 69.525 192.264 69.5156C192.602 69.5239 192.94 69.5727 193.278 69.7926C192.94 70.012 192.602 70.0613 192.264 70.0696C191.926 70.0602 191.588 70.0109 191.25 69.7926Z" fill="#1C211C"/>
<path d="M190.986 75.6077C191.109 75.5024 191.239 75.4226 191.37 75.35L191.278 75.4165C191.314 75.2991 191.362 75.1888 191.408 75.078L191.386 75.1207C191.427 74.9434 191.476 74.7728 191.542 74.6066C191.599 74.4376 191.682 74.2792 191.766 74.1202C191.854 73.9634 191.955 73.8121 192.074 73.6709C192.194 73.5313 192.33 73.395 192.505 73.3047C192.432 73.6781 192.354 74.006 192.237 74.3335C192.119 74.657 191.983 74.9761 191.812 75.2786L191.79 75.3218C191.709 75.4104 191.629 75.4991 191.538 75.5816L191.464 75.6481H191.446C191.296 75.6481 191.144 75.6404 190.986 75.6077Z" fill="#1C211C"/>
<path d="M198.063 86.0444C197.557 86.4693 197.17 86.4023 196.784 86.3336C196.394 86.2809 196.012 86.1956 195.632 86.1037C194.874 85.9037 194.13 85.6527 193.369 85.4699C192.609 85.2804 191.835 85.1519 191.068 84.9918C190.684 84.9131 190.306 84.8134 189.931 84.6987C189.742 84.6472 189.558 84.5741 189.372 84.512C189.185 84.4516 188.987 84.4383 188.936 83.8184C189.266 83.2916 189.448 83.3708 189.642 83.4029C189.836 83.4334 190.033 83.4533 190.224 83.4943C190.61 83.5647 190.992 83.6511 191.369 83.7575C192.123 83.9686 192.87 84.2106 193.631 84.3924C194.391 84.5807 195.168 84.7009 195.932 84.8716C196.312 84.9652 196.691 85.0655 197.061 85.1979C197.435 85.3153 197.809 85.4344 198.063 86.0444Z" fill="#702303"/>
<path d="M156.93 206.638C154.248 211.236 150.764 217.142 150.298 217.508C149.534 218.106 146.498 220.51 144.199 220.361C141.894 220.211 140.205 218.256 140.205 216.904C140.205 216.361 141.761 210.937 143.623 204.666C143.623 204.666 145.851 203.439 150.631 203.99C155.816 204.588 156.479 206.664 156.93 206.638Z" fill="#913A3A"/>
<path d="M152.659 226.401C152.382 226.734 150.049 227.288 149.634 228.052C149.274 228.734 149.817 230.49 149.456 231.376C148.027 234.927 146.936 236.179 146.936 236.179C146.936 236.179 142.958 240.329 139.567 240.633C137.867 240.783 134.975 239.719 133.13 238.489C132.775 238.251 132.515 237.947 132.327 237.592C131.595 235.764 135.911 231.709 135.911 231.709C135.911 231.709 144.819 219.609 147.08 218.213C149.34 216.817 152.864 217.814 154.42 219.587C155.052 222.014 154.044 224.728 152.659 226.401Z" fill="#A4FDD5"/>
<path d="M154.42 219.589C152.863 217.816 149.34 216.819 147.08 218.215C144.819 219.611 135.911 231.71 135.911 231.71C135.911 231.71 131.595 235.766 132.327 237.594C131.806 236.635 131.823 235.339 131.922 234.214C132.149 231.511 134.997 229.018 134.997 229.018L138.797 222.597L140.205 216.902C140.205 216.902 141.628 217.051 142.997 216.376C144.371 215.7 143.7 214.575 145.54 212.996C147.384 211.423 152.692 213.744 152.692 213.744C152.692 213.744 153.866 218.032 154.243 219.029C154.309 219.212 154.37 219.4 154.42 219.589Z" fill="#5BC6B6"/>
<path d="M196.406 131.99C197.285 135.684 198.662 138.843 192.279 150.511C189.694 155.238 183.273 159.197 183.273 159.197C183.273 159.197 171.449 176.404 168.532 178.804C165.615 181.204 157.284 182.51 156.056 181.91C154.828 181.309 152.413 178.71 152.681 176.157C152.949 173.604 161.848 148.036 162.77 146.834C163.691 145.633 168.603 133.993 175.665 132.078C182.727 130.163 195.992 130.251 196.406 131.99Z" fill="#1C211C"/>
<path d="M170.037 177.193C170.037 177.193 169.395 185.337 166.154 193.154C164.06 198.206 160.669 200.3 160.669 200.3C160.669 200.3 159.783 201.696 159.312 202.522C159.218 203.779 157.877 206.583 156.93 206.638C155.977 206.694 143.623 204.666 143.623 204.666C143.623 204.666 142.587 203.857 142.52 203.325C142.454 202.81 147.373 190.428 147.855 189.298C147.861 189.281 147.866 189.27 147.872 189.254C147.878 189.243 147.883 189.237 147.883 189.226C147.889 189.22 147.889 189.215 147.889 189.215C148.803 186.207 149.534 184.279 149.534 184.279C149.534 184.279 150.105 181.065 150.409 180.129C150.686 179.271 152.902 175.121 152.902 175.121C152.902 175.121 156.293 174.916 160.282 175.154C166.968 175.553 170.037 177.193 170.037 177.193Z" fill="#1C211C"/>
<path d="M197.061 135.035C197.695 135.574 197.761 136.261 197.781 136.907C197.816 137.561 197.769 138.22 197.663 138.868C197.552 139.514 197.366 140.159 197.147 140.767L196.508 142.543C196.307 143.139 196.098 143.734 195.879 144.326C195.668 144.92 195.454 145.516 195.213 146.101C194.976 146.689 194.709 147.266 194.408 147.827C194.263 148.111 194.095 148.383 193.932 148.657C193.773 148.931 193.641 149.233 192.975 149.211C192.617 148.646 192.792 148.404 192.922 148.124L193.294 147.283L194.046 145.6C194.564 144.482 195.04 143.338 195.463 142.172C195.659 141.584 195.856 140.996 196.033 140.401C196.202 139.821 196.325 139.252 196.413 138.664C196.509 138.081 196.566 137.49 196.613 136.896C196.64 136.294 196.641 135.728 197.061 135.035Z" fill="#1C211C"/>
<path d="M160.337 73.668C160.337 73.668 159.572 77.1748 159.639 77.5737C159.705 77.9726 160.137 78.0723 160.503 78.0723C160.869 78.0723 161.36 78.0723 161.36 78.0723C161.36 78.0723 161.567 78.3714 161.567 77.2745C161.567 76.1776 160.337 73.668 160.337 73.668Z" fill="#913A3A"/>
<path d="M157.229 71.2376C157.229 71.2376 157.079 71.8598 157.379 72.1683C157.379 72.1683 157.769 74.6048 159.572 74.8375C161.359 75.068 162.514 73.9301 162.664 73.0376C162.813 72.1451 162.581 69.0039 162.581 69.0039L162.365 69.1369C162.365 69.1369 162.332 71.9606 162.348 72.8431C162.364 73.7256 161.125 74.7932 159.556 74.5051C157.769 74.1772 157.576 71.0437 157.576 71.0437L157.229 71.2376Z" fill="#1C211C"/>
<path d="M184.187 69.1638C184.115 72.1554 181.206 77.0139 181.206 77.0139L181.755 78.1995C181.755 78.1995 183.522 83.0581 183.577 83.5899C183.633 84.1218 183.638 85.4126 182.309 86.9139C180.979 88.4153 178.115 90.5094 174.469 89.9C170.83 89.2961 170.276 87.2519 170.276 87.2519C170.276 87.2519 169.783 84.9029 169.561 83.7007C169.55 83.6398 169.539 83.5788 169.528 83.5234C169.489 83.3018 169.461 83.1412 169.45 83.0581C169.411 82.7257 169.201 81.7008 169.351 80.4321C168.215 81.8448 167.024 83.3185 166.852 83.5899C166.592 84.011 165.461 84.7921 164.647 84.7256C164.558 84.7201 164.475 84.7035 164.392 84.6758C164.281 84.6425 164.182 84.5816 164.093 84.4929C163.24 83.6342 160.919 77.0693 160.481 75.219C160.038 73.3686 160.647 72.6263 160.786 72.1C160.919 71.5792 160.592 71.5238 160.287 70.9975C159.982 70.4712 159.511 67.2746 160.287 64.4548C161.057 61.6404 164.536 54.9093 174.359 55.5686C184.187 56.2334 184.259 66.1722 184.187 69.1638Z" fill="#913A3A"/>
<path d="M169.561 83.7022C169.229 83.8019 168.453 84.0291 167.91 84.2008C167.262 84.4058 165.611 84.8545 164.647 84.7271C165.461 84.7936 166.592 84.0124 166.852 83.5914C167.024 83.3199 168.215 81.8463 169.351 80.4336C169.201 81.7023 169.411 82.7272 169.45 83.0596C169.461 83.1427 169.489 83.3033 169.528 83.5249C169.539 83.5803 169.55 83.6413 169.561 83.7022Z" fill="#1C211C"/>
<path d="M186.198 68.2679C186.198 68.2679 186.198 69.0657 186.198 70.5615C186.198 72.0573 185.5 72.8118 185.5 72.8118C185.5 72.8118 185.899 74.5503 185.5 75.4478C185.101 76.3453 183.306 77.2427 183.306 77.2427L182.741 78.938C182.741 78.938 182.332 79.81 181.478 79.8355C180.623 79.8609 179.816 78.938 179.816 78.938C179.816 78.938 179.018 79.8355 177.422 79.8355C175.827 79.8355 175.827 78.7385 175.827 78.7385C172.636 78.3397 172.985 75.3979 172.985 75.3979C171.888 74.7996 172.03 73.7027 172.03 73.7027C170.727 73.5032 169.081 68.2347 169.081 68.2347C169.081 68.2347 170.426 72.8118 170.161 73.2672C169.896 73.7226 167.702 68.9178 167.104 67.7965C165.608 67.2624 165.854 65.7439 165.854 65.7439C165.854 65.7439 164.76 66.1179 163.361 64.9445C162.389 64.129 162.539 62.2094 162.539 62.2094C162.539 62.2094 160.694 62.77 160.166 64.9445C160.166 64.9445 160.1 65.5871 159.223 65.7439C158.525 65.8686 157.085 64.7772 158.182 64.0791C158.182 64.0791 157.079 63.0825 158.475 61.2875C158.475 61.2875 157.777 59.4926 158.974 58.4954C160.17 57.4982 160.17 57.4982 160.17 57.4982C160.17 57.4982 161.167 54.4069 163.76 54.8057C163.76 54.8057 164.763 52.1133 167.104 52.6119C167.104 52.6119 170.265 50.4945 172.547 52.5504C172.547 52.5504 174.33 51.515 175.328 52.7116C175.328 52.7116 177.118 51.469 179.561 52.4291C180.304 52.7205 180.912 54.008 180.912 54.008C180.912 54.008 182.408 52.9111 183.604 53.6091C184.801 54.3071 184.801 55.5248 184.801 55.5248C184.801 55.5248 185.963 55.9187 186.197 57.2987C186.415 58.5835 186.464 58.5375 186.297 58.6948C186.297 58.6948 187.593 61.487 187.294 62.2847C186.995 63.0825 186.995 63.0825 186.995 63.0825C186.995 63.0825 187.593 64.5118 186.596 65.3096C186.596 65.3096 187.793 66.7057 186.198 68.2679Z" fill="#1C211C"/>
<path d="M170.685 64.819L157.229 71.2399C157.229 71.2399 157.046 71.2831 157.379 72.1706C157.495 72.4836 171.04 65.4024 171.04 65.4024C171.364 65.2777 171.524 65.178 172.03 65.3775C172.536 65.5769 173.323 66.5508 173.622 66.6855C173.922 66.8201 174.128 65.9758 173.699 65.311C173.421 64.8789 171.57 64.2806 170.685 64.819Z" fill="#1C211C"/>
<path d="M170.55 73.2355L169.081 68.235C169.081 68.235 169.132 65.0966 171.295 64.9504C173.458 64.8041 174.258 67.8589 174.015 69.3707C173.771 70.8832 172.257 72.1136 172.257 72.1136C172.257 72.1136 172.318 73.9058 170.55 73.2355Z" fill="#913A3A"/>
<path d="M170.251 68.9679C169.883 68.6111 169.918 68.1751 169.942 67.7635C169.988 67.3469 170.125 66.9325 170.354 66.553C170.466 66.3636 170.609 66.1863 170.774 66.0284C170.971 65.83 171.26 65.7486 171.491 65.7464C171.73 65.7414 171.959 65.799 172.159 65.9159C172.353 66.0289 172.536 66.2323 172.546 66.4749C172.326 66.4001 172.158 66.3985 171.988 66.3785C171.823 66.3586 171.66 66.353 171.511 66.3575C171.357 66.3663 171.237 66.3818 171.151 66.4572C171.031 66.5641 170.913 66.6827 170.84 66.8372C170.672 67.1314 170.607 67.486 170.559 67.8411C170.488 68.2023 170.524 68.5513 170.251 68.9679Z" fill="#1C211C"/>
<path d="M170.206 67.6543C170.642 67.5413 170.973 67.7352 171.278 67.9623C171.432 68.0786 171.57 68.2249 171.686 68.4099C171.801 68.5889 171.874 68.8398 171.855 69.0736C171.814 69.483 171.693 69.8254 171.578 70.1705C171.445 70.5085 171.267 70.8204 170.971 71.0597L170.951 70.8481C171.147 71.119 171.33 71.401 171.499 71.6968C171.217 71.5057 170.951 71.3007 170.696 71.0852L170.646 71.0431L170.676 70.8736C170.739 70.5268 170.882 70.2282 171.019 69.934C171.168 69.6476 171.279 69.3296 171.277 69.0498C171.273 68.8459 171.109 68.6348 170.883 68.4265C170.663 68.2077 170.394 68.0526 170.206 67.6543Z" fill="#1C211C"/>
<path d="M188.325 135.846C188.325 135.846 191.965 148.123 179.716 155.624C175.102 158.449 172.49 157.814 164.592 155.483C163.58 155.184 160.769 154.527 154.387 151.735C152.72 150.977 132.138 141.917 130.242 139.795C128.346 137.673 127.444 129.65 127.444 126.922C127.444 124.193 131.388 122.98 132.523 122.98C133.659 122.98 160.652 128.39 168.525 130.352C176.858 132.428 186.964 133.549 188.325 135.846Z" fill="#1C211C"/>
<path d="M137.15 180.481C132.087 180.37 131.922 177.23 131.922 177.23C131.922 177.23 131.005 170.587 130.517 168.172C130.636 168.247 130.503 164.156 136.574 164.219C139.51 164.251 141.102 165.364 141.524 166.896L142.77 175.671C142.77 175.67 143.063 180.61 137.15 180.481Z" fill="#913A3A"/>
<path d="M146.448 180.38C146.204 182.186 144.354 187.328 143.534 187.444C142.714 187.56 141.124 188.812 141.124 188.812C141.124 188.812 139.157 197.405 138.205 198.535C137.246 199.665 132.232 202.197 130.897 201.898C129.562 201.604 127.834 199.992 127.341 199.693C126.958 198.928 127.994 195.421 129.884 194.192C131.773 192.956 136.897 189.023 137.113 188.269C137.329 187.516 136.227 185.533 137.706 183.898C139.191 182.264 142.415 178.801 143.335 178.813C144.249 178.818 145.684 179.245 146.448 180.38Z" fill="#A4FDD5"/>
<path d="M146.448 180.381C145.684 179.246 144.249 178.819 143.335 178.814C142.415 178.802 139.191 182.265 137.706 183.899C136.227 185.534 137.329 187.517 137.113 188.27C136.897 189.024 131.773 192.957 129.884 194.193C127.994 195.422 126.958 198.929 127.341 199.694C126.853 199.4 126.704 197.312 126.554 196.719C126.404 196.126 129.512 189.323 129.512 189.323L131.845 182.298L132 177.628C132 177.628 134.582 175.29 136.388 174.215C137.412 173.611 141.119 173.711 142.587 174.393C142.587 174.393 146.692 178.581 146.448 180.381Z" fill="#5BC6B6"/>
<path d="M189.289 144.555C189.302 145.302 189.138 146.034 188.911 146.735C188.688 147.442 188.372 148.114 188.002 148.753C187.247 150.023 186.337 151.207 185.287 152.253C184.243 153.303 183.057 154.21 181.797 154.981C180.532 155.766 179.129 156.328 177.71 156.728C174.857 157.514 171.879 157.711 168.96 157.41C167.498 157.271 166.055 156.973 164.649 156.568L163.601 156.245L162.576 155.857C161.904 155.581 161.164 155.43 160.769 154.527C161.24 154.339 161.614 154.353 161.962 154.433C162.301 154.534 162.625 154.67 162.966 154.762L163.973 155.076L164.988 155.353C165.663 155.544 166.348 155.689 167.031 155.845C167.72 155.969 168.407 156.098 169.102 156.18C171.867 156.562 174.729 156.432 177.386 155.623C178.72 155.227 179.965 154.632 181.142 153.917C182.33 153.195 183.413 152.321 184.419 151.369C185.412 150.404 186.311 149.338 187.067 148.173C187.835 147.011 188.552 145.83 189.289 144.555Z" fill="#1C211C"/>
<path d="M141.9 166.293C141.9 166.293 141.8 166.498 141.523 166.807C140.554 166.245 139.023 165.823 136.141 166.382C132.012 167.184 130.798 169.059 130.672 168.997C130.667 168.991 130.422 168.801 130.422 168.801C128.104 161.351 122.377 135.281 122.153 133.212C122.013 131.931 124.792 125.858 124.982 125.505C125.418 124.696 128.771 123.269 128.771 123.269C130.155 122.118 137.006 123.758 137.006 123.758C140.007 125.045 141.006 132.012 141.623 136.228C142.24 140.444 142.613 145.961 142.454 149.208C142.407 150.162 141.988 152.998 141.988 152.998L141.9 166.293Z" fill="#1C211C"/>
<path d="M136.537 134.781C136.65 135.74 136.816 136.659 137.097 137.54C137.368 138.421 137.729 139.264 138.16 140.069C138.581 140.88 139.098 141.636 139.64 142.376C140.192 143.098 140.801 143.821 141.44 144.435L140.722 144.938C140.393 143.842 140.113 142.748 139.902 141.626C139.799 141.067 139.717 140.501 139.671 139.931C139.642 139.367 139.6 138.765 139.824 138.233C139.764 138.51 139.795 138.789 139.833 139.063C139.872 139.338 139.932 139.61 139.999 139.88C140.128 140.421 140.294 140.954 140.464 141.485C140.807 142.545 141.184 143.604 141.582 144.637C141.672 144.87 141.556 145.131 141.324 145.221C141.17 145.28 141.004 145.25 140.883 145.156L140.864 145.141C140.062 144.514 139.388 143.82 138.777 143.041C138.163 142.272 137.646 141.423 137.235 140.525C136.826 139.625 136.534 138.668 136.406 137.69C136.268 136.715 136.315 135.719 136.537 134.781Z" fill="#1C211C"/>
<path d="M182.608 80.1853C182.286 80.1138 177.073 80.2451 175.328 80.9332C174.176 81.3875 168.801 83.7253 168.524 84.4566C168.248 85.1879 168.248 86.451 168.248 86.451C168.248 86.451 173.74 83.6572 175.522 83.2993C177.303 82.9414 183.856 82.4833 184.304 82.5747C184.304 82.5747 183.056 80.285 182.608 80.1853Z" fill="#81FCC5"/>
<path d="M194.84 110.726L195.039 106.665C195.039 106.665 196.28 100.411 196.236 95.444C196.192 90.5677 193.581 86.006 192.596 85.2227C192.004 84.7512 186.172 82.9252 186.172 82.9252C186.172 82.9252 184.737 82.7302 183.633 82.3989C182.529 82.0676 175.983 82.9524 172.925 83.9446C167.45 85.7218 165.561 87.3838 165.561 87.3838C165.561 87.3838 157.69 95.0484 156.135 102.947C155.152 107.939 161.567 112.746 161.567 112.746L162.664 116.186C162.032 119.427 161.354 123.3 161.809 125.862C161.809 125.862 158.403 127.873 158.12 128.292C157.928 128.576 161.468 132.733 164.909 135.895C165.382 136.33 168.448 132.92 168.448 132.92C168.448 132.92 169.587 138.276 169.91 138.443C174.484 140.794 186.647 139.62 186.647 139.62C189.04 139.919 199.827 134.534 199.827 131.842C199.826 129.149 194.84 110.726 194.84 110.726Z" fill="#51F6AB"/>
<path d="M192.148 95.6406C192.543 96.732 192.379 97.773 192.19 98.7896C192.015 99.8133 191.774 100.824 191.493 101.825C190.91 103.82 190.168 105.771 189.277 107.657C188.849 108.609 188.354 109.535 187.812 110.435C187.278 111.339 186.676 112.214 185.983 113.022C185.295 113.832 184.52 114.587 183.633 115.2C183.423 115.369 183.184 115.499 182.955 115.64C182.727 115.784 182.493 115.917 182.247 116.03C181.998 116.135 181.781 116.305 181.499 116.337C181.221 116.374 180.922 116.361 180.581 116.182C180.838 115.431 181.277 115.293 181.696 115.031C181.91 114.914 182.111 114.779 182.307 114.633C182.502 114.488 182.71 114.364 182.896 114.203C183.672 113.616 184.367 112.92 185.025 112.189C186.351 110.727 187.406 109 188.273 107.187C188.687 106.27 189.067 105.336 189.396 104.382C189.72 103.425 190.006 102.456 190.273 101.481C190.548 100.509 190.797 99.5286 191.047 98.5469C191.28 97.5586 191.488 96.5819 192.148 95.6406Z" fill="#A4FDD5"/>
<path d="M192.945 111.664C193.077 112.478 192.708 113.045 192.324 113.555C191.955 114.086 191.522 114.568 191.07 115.03C190.139 115.928 189.087 116.696 187.978 117.359C186.886 118.05 185.695 118.605 184.443 118.977C184.127 119.062 183.814 119.163 183.493 119.219C183.17 119.271 182.844 119.306 182.52 119.345C182.198 119.402 181.869 119.383 181.544 119.377C181.222 119.376 180.885 119.422 180.58 118.844C180.897 118.242 181.182 118.263 181.483 118.237C181.78 118.212 182.075 118.179 182.366 118.115C182.658 118.061 182.949 118.003 183.242 117.962C183.532 117.906 183.815 117.815 184.105 117.752C184.688 117.638 185.239 117.407 185.804 117.22C186.344 116.966 186.894 116.731 187.402 116.411C188.423 115.781 189.341 114.995 190.174 114.133C190.594 113.705 191.006 113.27 191.412 112.825C191.816 112.368 192.171 111.916 192.945 111.664Z" fill="#A4FDD5"/>
<path d="M161.567 112.742C161.996 112.791 162.346 112.858 162.692 112.922L163.68 113.131L164.66 113.365C164.999 113.463 165.348 113.537 165.755 113.707C165.108 114.276 164.225 114.386 163.434 114.211C163.035 114.124 162.657 113.951 162.329 113.71C162.005 113.464 161.712 113.157 161.567 112.742Z" fill="#A4FDD5"/>
<path d="M195.179 105.914C194.77 105.11 194.843 104.394 194.912 103.67C194.964 102.945 195.039 102.224 195.111 101.503C195.279 100.063 195.433 98.6209 195.49 97.1755C195.503 96.4531 195.5 95.7318 195.478 95.0132C195.445 94.2953 195.383 93.5823 195.304 92.8776C195.22 92.1734 195.117 91.4787 194.971 90.8084C194.893 90.4749 194.817 90.1425 194.705 89.8322C194.666 89.6649 194.564 89.5414 194.556 89.3602C194.547 89.178 194.573 88.9852 194.707 88.655C195.033 88.635 195.288 88.7303 195.44 88.8766C195.594 89.0228 195.676 89.2162 195.759 89.3946C195.929 89.758 196.072 90.1259 196.172 90.5004C196.385 91.2466 196.508 92.0006 196.568 92.7502C196.681 94.2509 196.653 95.7351 196.599 97.2121C196.557 98.6885 196.499 100.163 196.372 101.631C196.298 102.364 196.206 103.095 196.072 103.82C195.952 104.544 195.823 105.276 195.179 105.914Z" fill="#A4FDD5"/>
<path d="M168.448 132.917C169.11 128.952 169.846 125.002 170.664 121.07C171.058 119.101 171.494 117.142 171.925 115.177C172.143 114.193 172.396 113.214 172.621 112.248C172.845 111.276 173.06 110.301 173.251 109.323C173.658 107.371 173.985 105.404 174.232 103.429C174.492 101.457 174.638 99.4704 174.667 97.4871C174.682 95.5055 174.573 93.5138 174.144 91.5837C173.733 89.6707 172.955 87.7373 171.382 86.4492C171.803 86.724 172.198 87.0459 172.547 87.4165C172.884 87.7954 173.197 88.2026 173.454 88.6431C173.985 89.5162 174.373 90.4707 174.667 91.4474C175.238 93.4102 175.469 95.4501 175.528 97.4771C175.645 101.541 175.123 105.582 174.337 109.542C173.942 111.517 173.425 113.492 172.949 115.419L171.51 121.262C170.551 125.16 169.532 129.045 168.448 132.917Z" fill="#A4FDD5"/>
<path d="M134.362 88.8975C133.61 89.297 132.32 88.7984 132.32 88.7984L132.368 88.4023L133.58 87.0267L133.593 87.0117C133.593 87.0117 134.742 87.5208 134.885 87.7724C135.022 88.0239 135.114 88.5042 134.362 88.8975Z" fill="#913A3A"/>
<path d="M137.084 93.7021L135.714 96.3901L135.414 98.5995C135.757 100.489 135.202 101.515 133.115 103.431C131.887 104.564 129.869 103.955 129.869 103.955C129.869 103.955 127.354 102.023 126.806 101.253C126.397 100.673 125.881 98.8682 125.637 97.4433L124.997 95.5619C124.997 95.5619 124.878 94.2528 124.957 93.9664C125.032 93.6744 125.608 92.4833 125.608 92.4833C125.608 92.4833 125.648 92.1587 125.653 92.1149C125.665 92.0102 125.973 91.0435 126.035 90.9061C126.09 90.7731 127.119 89.5709 127.249 89.4191C127.256 89.4086 127.262 89.4042 127.262 89.4042L128.471 87.4142L131.01 86.5976L131.015 86.5982L132.749 85.2924C132.749 85.2924 134.924 84.7606 135.047 84.8032C135.164 84.8509 135.943 85.555 135.483 86.1683C135.028 86.7821 133.716 86.8785 133.716 86.8785L133.594 87.0142L133.581 87.0292L132.369 88.4048L132.056 90.9565C132.1 91.0119 132.149 91.0684 132.198 91.1244C132.456 91.4296 132.742 92.0562 133.003 92.7575L134.086 92.89L135.505 90.4125C135.505 90.4125 135.366 88.4474 136.532 87.7643C137.704 87.0763 137.909 88.5078 137.908 88.792C137.907 89.0812 137.084 93.7021 137.084 93.7021Z" fill="#913A3A"/>
<path d="M136.49 98.631C136.826 99.0908 137.507 101.309 135.36 104.01C133.676 106.129 132.779 106.242 131.872 105.939C130.793 104.908 129.836 103.933 129.634 103.669C129.027 102.886 129.416 100.294 131.255 98.5817C133.089 96.8692 135.067 97.9878 135.067 97.9878C135.067 97.9878 135.638 98.2476 136.49 98.631Z" fill="#913A3A"/>
<path d="M154.188 114.101C152.583 115.216 150.553 114.887 148.853 114.389C147.753 114.067 135.27 108.81 132.287 106.423C131.975 106.174 131.931 106.043 131.873 105.938C131.813 105.829 132.443 103.955 132.661 103.563C132.697 103.496 134.456 103.588 134.456 103.588L133.116 102.397C133.116 102.397 133.01 101.986 133.845 100.527C134.215 99.8813 135.587 99.1212 136.49 98.6292C136.897 98.4054 137.249 98.2641 137.427 98.2697C137.994 98.2835 144.48 100.656 144.48 100.656L142.567 99.9655C143.176 100.156 149.909 101.024 150.111 101.055C151.634 101.246 152.28 102.219 153.29 103.403C154.734 105.103 156.969 112.17 154.188 114.101Z" fill="#51F6AB"/>
<path d="M169.561 87.5661C169.195 86.7684 168.419 85.9274 167.45 86.1894C166.178 86.5335 164.463 87.0498 162.714 87.9151C161.169 88.6797 158.573 92.1699 158.573 92.1699C158.573 92.1699 149.089 101.082 148.384 102.032C146.854 104.094 146.301 108.637 147.506 110.518C150.459 115.128 154.513 113.82 154.513 113.82C155.574 113.158 159.318 109.288 159.318 109.288C159.318 109.288 164.975 104.537 165.755 103.771C171.005 98.6162 170.787 90.242 169.561 87.5661Z" fill="#51F6AB"/>
<path d="M165.755 103.77C165.345 104.54 164.817 105.172 164.255 105.763C163.699 106.361 163.008 106.798 162.389 107.32C161.767 107.84 161.217 108.445 160.525 108.881C159.838 109.323 159.127 109.736 158.309 110.021C158.732 109.265 159.261 108.635 159.816 108.036C160.366 107.43 161.056 106.993 161.676 106.471C162.298 105.951 162.848 105.346 163.533 104.902C164.211 104.452 164.925 104.04 165.755 103.77Z" fill="#702303"/>
<path d="M163.224 105.893C163.628 105.71 163.984 105.589 164.339 105.474C164.691 105.364 165.033 105.273 165.376 105.186C165.719 105.1 166.066 105.031 166.427 104.962C166.796 104.907 167.164 104.833 167.616 104.832C167.198 105.614 166.432 106.062 165.637 106.262C165.237 106.362 164.818 106.388 164.406 106.339C163.997 106.284 163.582 106.169 163.224 105.893Z" fill="#702303"/>
<path d="M145.961 104.269C146.077 103.876 146.235 103.492 146.434 103.126C146.624 102.754 146.883 102.42 147.158 102.102C147.441 101.788 147.763 101.507 148.116 101.269C148.474 101.028 148.837 100.828 149.282 100.693L149.318 101.223C148.858 101.206 148.317 101.278 147.817 101.373C147.309 101.478 146.801 101.605 146.301 101.766C145.797 101.913 145.304 102.1 144.805 102.282L144.06 102.569C143.816 102.675 143.57 102.777 143.318 102.873C143.753 102.558 144.212 102.28 144.681 102.013C145.156 101.76 145.642 101.524 146.147 101.327C146.654 101.136 147.169 100.957 147.707 100.847C148.249 100.732 148.773 100.644 149.379 100.686L150.858 100.79L149.416 101.217C149.08 101.317 148.71 101.489 148.382 101.685C148.051 101.889 147.73 102.116 147.44 102.383C147.154 102.652 146.874 102.936 146.634 103.257C146.377 103.568 146.176 103.919 145.961 104.269Z" fill="#702303"/>
</svg>
