<svg width="28" height="28" viewBox="0 0 28 28" fill="none" xmlns="http://www.w3.org/2000/svg">
<path d="M26.5 9.5H20.875V3.875C20.875 3.57663 20.7565 3.29048 20.5455 3.0795C20.3345 2.86853 20.0484 2.75 19.75 2.75H2.875V1.625C2.875 1.32663 2.75647 1.04048 2.54549 0.829505C2.33452 0.618527 2.04837 0.5 1.75 0.5C1.45163 0.5 1.16548 0.618527 0.954505 0.829505C0.743527 1.04048 0.625 1.32663 0.625 1.625V26.375C0.625 26.6734 0.743527 26.9595 0.954505 27.1705C1.16548 27.3815 1.45163 27.5 1.75 27.5C2.04837 27.5 2.33452 27.3815 2.54549 27.1705C2.75647 26.9595 2.875 26.6734 2.875 26.375V25.25H15.25C15.5484 25.25 15.8345 25.1315 16.0455 24.9205C16.2565 24.7095 16.375 24.4234 16.375 24.125V18.5H26.5C26.7984 18.5 27.0845 18.3815 27.2955 18.1705C27.5065 17.9595 27.625 17.6734 27.625 17.375V10.625C27.625 10.3266 27.5065 10.0405 27.2955 9.8295C27.0845 9.61853 26.7984 9.5 26.5 9.5ZM18.625 5V9.5H2.875V5H18.625ZM14.125 23H2.875V18.5H14.125V23ZM25.375 16.25H2.875V11.75H25.375V16.25Z" fill="#F7F7F7"/>
</svg>
