<svg width="36" height="26" viewBox="0 0 36 26" fill="none" xmlns="http://www.w3.org/2000/svg">
<path d="M35.761 9.17572L32.1722 1.99541C32.04 1.73113 31.8571 1.49548 31.6338 1.30192C31.4105 1.10835 31.1513 0.960672 30.8709 0.867304C30.5905 0.773935 30.2945 0.736709 29.9998 0.757752C29.705 0.778794 29.4173 0.857693 29.153 0.989942L25.6557 2.73791L18.2883 0.788849C18.0993 0.739655 17.9008 0.739655 17.7118 0.788849L10.3444 2.73791L6.84709 0.989942C6.58283 0.857693 6.29511 0.778794 6.00035 0.757752C5.7056 0.736709 5.40959 0.773935 5.12922 0.867304C4.84885 0.960672 4.58962 1.10835 4.36634 1.30192C4.14305 1.49548 3.96008 1.73113 3.82787 1.99541L0.239123 9.17432C0.106874 9.43858 0.027975 9.7263 0.00693257 10.0211C-0.0141099 10.3158 0.0231161 10.6118 0.116485 10.8922C0.209853 11.1726 0.357535 11.4318 0.551098 11.6551C0.74466 11.8784 0.98031 12.0613 1.24459 12.1935L5.04147 14.0934L12.8447 19.6663C12.9597 19.7482 13.089 19.8078 13.2258 19.8421L22.2258 22.0921C22.4143 22.1394 22.6118 22.137 22.7991 22.0853C22.9864 22.0335 23.1571 21.9342 23.2946 21.7968L31.0388 14.0512L34.7541 12.1935C35.2875 11.9265 35.693 11.4587 35.8816 10.8928C36.0701 10.3269 36.0262 9.70928 35.7596 9.17572H35.761ZM28.0421 13.8684L23.2032 9.99275C22.9864 9.81915 22.7131 9.73186 22.4358 9.7477C22.1585 9.76354 21.8969 9.88138 21.7013 10.0785C19.1968 12.6013 16.4054 12.2821 14.6251 11.1571L20.7057 5.25088H25.179L29.0054 12.9023L28.0421 13.8684ZM5.84022 3.00088L8.71881 4.43807L5.12303 11.617L2.25006 10.1812L5.84022 3.00088ZM22.1527 19.7535L13.981 17.7117L7.06225 12.7701L10.9998 4.8951L18.0001 3.04025L19.3782 3.40447L13.0501 9.54697L13.0388 9.55963C12.8006 9.79784 12.6189 10.0865 12.5072 10.4043C12.3954 10.7221 12.3565 11.061 12.3932 11.3958C12.4299 11.7307 12.5414 12.0531 12.7193 12.3391C12.8972 12.6252 13.1371 12.8676 13.4213 13.0485C16.3126 14.8949 19.8015 14.5954 22.5493 12.3454L26.4376 15.4687L22.1527 19.7535ZM30.8715 11.6156L27.2827 4.44369L30.1599 3.00088L33.7501 10.1812L30.8715 11.6156ZM18.5316 24.6473C18.4708 24.8904 18.3306 25.1063 18.1332 25.2607C17.9357 25.4151 17.6924 25.4991 17.4418 25.4995C17.3493 25.4994 17.2573 25.488 17.1676 25.4657L11.3077 24.0004C11.1707 23.9666 11.0413 23.9069 10.9266 23.8246L7.22115 21.1781C6.99332 20.9992 6.84326 20.7393 6.80224 20.4525C6.76122 20.1658 6.83238 19.8743 7.00093 19.6387C7.16947 19.4031 7.42239 19.2416 7.70703 19.1878C7.99167 19.134 8.28608 19.1921 8.52897 19.3499L12.0601 21.8728L17.7188 23.2846C18.0082 23.357 18.257 23.5414 18.4105 23.7972C18.564 24.053 18.6096 24.3593 18.5373 24.6487L18.5316 24.6473Z" fill="#F7F7F7"/>
</svg>
