<svg width="27" height="24" viewBox="0 0 27 24" fill="none" xmlns="http://www.w3.org/2000/svg">
<path d="M0.333306 12.0006C0.335953 9.61442 1.28501 7.32677 2.97227 5.63952C4.65952 3.95226 6.94717 3.0032 9.33331 3.00056H22.9196L21.6258 1.70806C21.4382 1.52042 21.3327 1.26592 21.3327 1.00056C21.3327 0.735192 21.4382 0.480697 21.6258 0.293056C21.8134 0.105415 22.0679 6.25219e-09 22.3333 0C22.5987 -6.25219e-09 22.8532 0.105415 23.0408 0.293056L26.0408 3.29306C26.1338 3.38593 26.2075 3.49622 26.2579 3.61762C26.3082 3.73901 26.3341 3.86914 26.3341 4.00056C26.3341 4.13197 26.3082 4.2621 26.2579 4.3835C26.2075 4.50489 26.1338 4.61518 26.0408 4.70806L23.0408 7.70806C22.8532 7.8957 22.5987 8.00111 22.3333 8.00111C22.0679 8.00111 21.8134 7.8957 21.6258 7.70806C21.4382 7.52042 21.3327 7.26592 21.3327 7.00056C21.3327 6.73519 21.4382 6.4807 21.6258 6.29306L22.9196 5.00056H9.33331C7.4774 5.00254 5.69808 5.74068 4.38575 7.053C3.07343 8.36533 2.33529 10.1446 2.33331 12.0006C2.33331 12.2658 2.22795 12.5201 2.04041 12.7077C1.85288 12.8952 1.59852 13.0006 1.33331 13.0006C1.06809 13.0006 0.813736 12.8952 0.626199 12.7077C0.438663 12.5201 0.333306 12.2658 0.333306 12.0006ZM25.3333 11.0006C25.0681 11.0006 24.8137 11.1059 24.6262 11.2934C24.4387 11.481 24.3333 11.7353 24.3333 12.0006C24.3313 13.8565 23.5932 15.6358 22.2809 16.9481C20.9685 18.2604 19.1892 18.9986 17.3333 19.0006H3.74706L5.04081 17.7081C5.13372 17.6151 5.20742 17.5048 5.2577 17.3835C5.30798 17.2621 5.33386 17.132 5.33386 17.0006C5.33386 16.8692 5.30798 16.7391 5.2577 16.6177C5.20742 16.4963 5.13372 16.386 5.04081 16.2931C4.9479 16.2001 4.8376 16.1264 4.7162 16.0762C4.59481 16.0259 4.4647 16 4.33331 16C4.20191 16 4.0718 16.0259 3.95041 16.0762C3.82902 16.1264 3.71872 16.2001 3.62581 16.2931L0.625806 19.2931C0.53283 19.3859 0.459071 19.4962 0.408746 19.6176C0.358422 19.739 0.33252 19.8691 0.33252 20.0006C0.33252 20.132 0.358422 20.2621 0.408746 20.3835C0.459071 20.5049 0.53283 20.6152 0.625806 20.7081L3.62581 23.7081C3.71872 23.801 3.82902 23.8747 3.95041 23.9249C4.0718 23.9752 4.20191 24.0011 4.33331 24.0011C4.4647 24.0011 4.59481 23.9752 4.7162 23.9249C4.8376 23.8747 4.9479 23.801 5.04081 23.7081C5.13372 23.6151 5.20742 23.5048 5.2577 23.3835C5.30798 23.2621 5.33386 23.132 5.33386 23.0006C5.33386 22.8692 5.30798 22.7391 5.2577 22.6177C5.20742 22.4963 5.13372 22.386 5.04081 22.2931L3.74706 21.0006H17.3333C19.7194 20.9979 22.0071 20.0488 23.6943 18.3616C25.3816 16.6743 26.3307 14.3867 26.3333 12.0006C26.3333 11.7353 26.2279 11.481 26.0404 11.2934C25.8529 11.1059 25.5985 11.0006 25.3333 11.0006Z" fill="#F7F7F7"/>
</svg>
