<svg width="32" height="30" viewBox="0 0 32 30" fill="none" xmlns="http://www.w3.org/2000/svg">
<path d="M16 8.25095C14.665 8.25095 13.36 8.64683 12.2499 9.38853C11.1399 10.1302 10.2747 11.1844 9.76384 12.4178C9.25294 13.6512 9.11927 15.0084 9.37972 16.3178C9.64017 17.6272 10.283 18.8299 11.2271 19.7739C12.1711 20.7179 13.3738 21.3608 14.6832 21.6212C15.9925 21.8817 17.3497 21.748 18.5831 21.2371C19.8165 20.7262 20.8707 19.8611 21.6124 18.751C22.3541 17.641 22.75 16.336 22.75 15.0009C22.7482 13.2113 22.0364 11.4955 20.7709 10.23C19.5055 8.96457 17.7897 8.25281 16 8.25095ZM16 19.5009C15.11 19.5009 14.24 19.237 13.5 18.7426C12.7599 18.2481 12.1832 17.5453 11.8426 16.723C11.502 15.9008 11.4129 14.996 11.5865 14.123C11.7601 13.2501 12.1887 12.4483 12.818 11.819C13.4474 11.1896 14.2492 10.761 15.1221 10.5874C15.995 10.4138 16.8998 10.5029 17.7221 10.8435C18.5444 11.1841 19.2472 11.7609 19.7416 12.5009C20.2361 13.2409 20.5 14.1109 20.5 15.0009C20.5 16.1944 20.0259 17.339 19.182 18.1829C18.3381 19.0268 17.1935 19.5009 16 19.5009ZM31.4603 12.0774C31.429 11.9189 31.3639 11.7691 31.2695 11.6381C31.1751 11.5071 31.0536 11.3979 30.9133 11.318L26.7185 8.92735L26.7016 4.19954C26.7011 4.03672 26.6652 3.87595 26.5965 3.72833C26.5278 3.58071 26.4279 3.44977 26.3036 3.34454C24.782 2.0574 23.0296 1.07101 21.1399 0.437825C20.991 0.387453 20.8333 0.368811 20.6769 0.383101C20.5204 0.397391 20.3687 0.444296 20.2314 0.520793L16 2.88611L11.7644 0.516575C11.6271 0.439646 11.4752 0.392387 11.3184 0.377853C11.1617 0.36332 11.0037 0.381834 10.8546 0.4322C8.96617 1.07002 7.21587 2.06016 5.69643 3.35017C5.57235 3.45524 5.47253 3.58596 5.40382 3.73332C5.33512 3.88067 5.29917 4.04118 5.29846 4.20376L5.27737 8.93579L1.08252 11.3264C0.942182 11.4063 0.820686 11.5155 0.726294 11.6465C0.631903 11.7776 0.566828 11.9274 0.535492 12.0858C0.151581 14.015 0.151581 16.001 0.535492 17.9302C0.566828 18.0886 0.631903 18.2384 0.726294 18.3694C0.820686 18.5005 0.942182 18.6096 1.08252 18.6895L5.27737 21.0802L5.29424 25.808C5.29475 25.9708 5.3306 26.1316 5.39931 26.2792C5.46802 26.4268 5.56795 26.5578 5.69221 26.663C7.21387 27.9501 8.96618 28.9365 10.856 29.5697C11.0048 29.6201 11.1625 29.6387 11.319 29.6244C11.4754 29.6101 11.6272 29.5632 11.7644 29.4867L16 27.1158L20.2356 29.4853C20.4033 29.5787 20.5922 29.6272 20.7841 29.6259C20.907 29.6259 21.029 29.606 21.1455 29.5669C23.0337 28.9299 24.7839 27.9407 26.3036 26.6517C26.4277 26.5467 26.5275 26.4159 26.5962 26.2686C26.6649 26.1212 26.7009 25.9607 26.7016 25.7981L26.7227 21.0661L30.9175 18.6755C31.0579 18.5956 31.1794 18.4864 31.2738 18.3554C31.3681 18.2243 31.4332 18.0745 31.4646 17.9161C31.8463 15.9884 31.8449 14.0045 31.4603 12.0774ZM29.351 16.9866L25.3333 19.2717C25.1573 19.3718 25.0115 19.5176 24.9114 19.6936C24.8299 19.8342 24.7441 19.9833 24.6569 20.1239C24.5453 20.3013 24.4858 20.5064 24.4853 20.7159L24.4642 25.2511C23.3843 26.0991 22.1813 26.7773 20.8966 27.262L16.8438 25.0036C16.6755 24.9105 16.4862 24.8621 16.2939 24.863H16.2672C16.0971 24.863 15.9255 24.863 15.7553 24.863C15.5541 24.858 15.3551 24.9065 15.1788 25.0036L11.1231 27.2677C9.83574 26.7866 8.62934 26.1118 7.54565 25.2666L7.53018 20.7384C7.52949 20.5285 7.47006 20.3229 7.35862 20.145C7.27143 20.0044 7.18565 19.8638 7.10549 19.7147C7.0061 19.5359 6.86037 19.3873 6.68362 19.2844L2.66174 16.9936C2.45362 15.6771 2.45362 14.3361 2.66174 13.0195L6.67237 10.7302C6.8484 10.6301 6.99415 10.4843 7.09424 10.3083C7.1758 10.1677 7.26159 10.0186 7.34877 9.87798C7.46038 9.70064 7.51983 9.49548 7.52034 9.28595L7.54143 4.75079C8.62133 3.90275 9.82442 3.22462 11.1091 2.73986L15.1563 4.99829C15.3324 5.09593 15.5315 5.14449 15.7328 5.13892C15.903 5.13892 16.0746 5.13892 16.2447 5.13892C16.446 5.14395 16.6449 5.09542 16.8213 4.99829L20.8769 2.73423C22.1643 3.21527 23.3707 3.89008 24.4544 4.73532L24.4699 9.26345C24.4706 9.47339 24.53 9.67896 24.6414 9.85689C24.7286 9.99751 24.8144 10.1381 24.8946 10.2872C24.9939 10.466 25.1397 10.6146 25.3164 10.7175L29.3383 13.0083C29.5492 14.3258 29.5516 15.6683 29.3453 16.9866H29.351Z" fill="#F7F7F7"/>
</svg>
