<svg width="75" height="66" viewBox="0 0 75 66" fill="none" xmlns="http://www.w3.org/2000/svg">
<rect x="0.5" y="0.5" width="74" height="65" rx="7.5" stroke="url(#paint0_linear_883_4713)"/>
<path d="M49.5 14H25.5C25.2348 14 24.9804 14.1054 24.7929 14.2929C24.6054 14.4804 24.5 14.7348 24.5 15V32C24.5 32.5304 24.7107 33.0391 25.0858 33.4142C25.4609 33.7893 25.9696 34 26.5 34H48.5C49.0304 34 49.5391 33.7893 49.9142 33.4142C50.2893 33.0391 50.5 32.5304 50.5 32V15C50.5 14.7348 50.3946 14.4804 50.2071 14.2929C50.0196 14.1054 49.7652 14 49.5 14ZM46.9287 16L37.5 24.6437L28.0712 16H46.9287ZM48.5 32H26.5V17.2738L36.8237 26.7375C37.0082 26.9069 37.2496 27.0008 37.5 27.0008C37.7504 27.0008 37.9918 26.9069 38.1763 26.7375L48.5 17.2738V32Z" fill="url(#paint1_linear_883_4713)"/>
<path d="M29.0886 47.644H24.1206V50.356H28.5966V51.244H24.1206V54.112H29.0886V55H23.1726V46.756H29.0886V47.644ZM37.368 48.652C38.664 48.652 39.576 49.648 39.576 51.052V55H38.676V51.172C38.676 50.164 38.088 49.456 37.248 49.456C36.264 49.456 35.568 50.116 35.568 51.052V55H34.668V51.172C34.668 50.164 34.08 49.456 33.24 49.456C32.256 49.456 31.56 50.116 31.56 51.052V55H30.66V48.796H31.56V49.708C31.872 49.06 32.544 48.652 33.36 48.652C34.296 48.652 35.028 49.168 35.364 49.972C35.616 49.168 36.432 48.652 37.368 48.652ZM43.9144 48.652C45.6064 48.652 46.4344 49.72 46.4344 51.22V55H45.5344V54.028C45.0904 54.76 44.1664 55.144 43.3504 55.144C42.0424 55.144 41.0824 54.388 41.0824 53.164C41.0824 51.928 42.1864 51.1 43.5184 51.1C44.1904 51.1 44.8984 51.244 45.5344 51.448V51.22C45.5344 50.38 45.1984 49.42 43.8544 49.42C43.2304 49.42 42.6064 49.696 42.0424 49.984L41.6824 49.252C42.5704 48.808 43.3144 48.652 43.9144 48.652ZM43.5064 54.352C44.3224 54.352 45.2944 53.932 45.5344 53.056V52.108C44.9704 51.952 44.3344 51.856 43.6624 51.856C42.7384 51.856 41.9584 52.384 41.9584 53.128C41.9584 53.896 42.6304 54.352 43.5064 54.352ZM48.7173 47.668C48.3813 47.668 48.1173 47.392 48.1173 47.068C48.1173 46.756 48.3813 46.48 48.7173 46.48C49.0413 46.48 49.3053 46.756 49.3053 47.068C49.3053 47.392 49.0413 47.668 48.7173 47.668ZM48.2613 55V48.796H49.1613V55H48.2613ZM50.9686 55V46.612H51.8686V55H50.9686Z" fill="#9936DB"/>
<defs>
<linearGradient id="paint0_linear_883_4713" x1="37.5" y1="0" x2="37.5" y2="66" gradientUnits="userSpaceOnUse">
<stop stop-color="#2FE593"/>
<stop offset="1" stop-color="#7209B7"/>
</linearGradient>
<linearGradient id="paint1_linear_883_4713" x1="37.5" y1="14" x2="37.5" y2="34" gradientUnits="userSpaceOnUse">
<stop stop-color="#2FE593"/>
<stop offset="1" stop-color="#7209B7"/>
</linearGradient>
</defs>
</svg>
