<svg width="375" height="157" viewBox="0 0 375 157" fill="none" xmlns="http://www.w3.org/2000/svg">
<path fill-rule="evenodd" clip-rule="evenodd" d="M254.113 -372.908C292.229 -376.869 330.245 -385.783 367.716 -377.757C408.235 -369.079 447.959 -352.609 478.687 -324.808C510.305 -296.2 534.64 -258.491 545.195 -217.179C555.591 -176.486 534.258 -134.601 537.97 -92.7657C542.608 -40.5038 601.266 17.6841 569.757 59.6368C535.97 104.623 457.441 65.0694 404.706 84.6725C368.223 98.2338 351.276 147.322 313.126 155.033C274.949 162.749 240.191 128.215 201.318 125.781C154.818 122.869 108.733 151.538 63.7458 139.418C16.3359 126.645 -31.7467 99.1357 -56.015 56.4522C-80.2925 13.7525 -65.447 -39.8307 -66.0932 -88.9453C-66.6952 -134.699 -71.56 -180.371 -59.7123 -224.568C-47.5896 -269.792 -36.3368 -323.607 3.43398 -348.313C45.5977 -374.505 101.158 -350.344 150.557 -355.19C185.795 -358.648 218.896 -369.249 254.113 -372.908Z" fill="#F1DDFF"/>
</svg>
