<svg width="75" height="66" viewBox="0 0 75 66" fill="none" xmlns="http://www.w3.org/2000/svg">
<rect x="0.5" y="0.5" width="74" height="65" rx="7.5" stroke="url(#paint0_linear_883_4717)"/>
<path d="M49.2963 27.8072L43.4075 25.1685L43.3913 25.161C43.0856 25.0302 42.7521 24.9778 42.421 25.0083C42.0899 25.0389 41.7716 25.1515 41.495 25.336C41.4624 25.3575 41.4311 25.3809 41.4013 25.406L38.3588 27.9997C36.4313 27.0635 34.4413 25.0885 33.505 23.186L36.1025 20.0972C36.1275 20.066 36.1513 20.0347 36.1738 20.001C36.3543 19.7251 36.4638 19.4089 36.4926 19.0805C36.5214 18.752 36.4686 18.4216 36.3388 18.1185V18.1035L33.6925 12.2047C33.5209 11.8088 33.2259 11.479 32.8515 11.2645C32.4771 11.0501 32.0433 10.9624 31.615 11.0147C29.9212 11.2376 28.3665 12.0695 27.2412 13.3549C26.1159 14.6403 25.4969 16.2914 25.5 17.9997C25.5 27.9247 33.575 35.9997 43.5 35.9997C45.2084 36.0028 46.8595 35.3839 48.1449 34.2586C49.4303 33.1333 50.2621 31.5785 50.485 29.8847C50.5374 29.4566 50.45 29.0229 50.2357 28.6485C50.0215 28.2741 49.6919 27.979 49.2963 27.8072ZM43.5 33.9997C39.258 33.9951 35.191 32.3079 32.1914 29.3083C29.1918 26.3088 27.5046 22.2418 27.5 17.9997C27.4953 16.7791 27.9351 15.5985 28.7372 14.6784C29.5393 13.7583 30.6489 13.1616 31.8588 12.9997C31.8583 13.0047 31.8583 13.0098 31.8588 13.0147L34.4838 18.8897L31.9 21.9822C31.8738 22.0124 31.85 22.0446 31.8288 22.0785C31.6407 22.3671 31.5303 22.6995 31.5084 23.0433C31.4865 23.3872 31.5538 23.7308 31.7038 24.041C32.8363 26.3572 35.17 28.6735 37.5113 29.8047C37.8237 29.9533 38.1694 30.0183 38.5144 29.9933C38.8595 29.9683 39.1922 29.8543 39.48 29.6622C39.5121 29.6406 39.543 29.6173 39.5725 29.5922L42.6113 26.9997L48.4863 29.631C48.4863 29.631 48.4963 29.631 48.5 29.631C48.3402 30.8426 47.7444 31.9544 46.8241 32.7585C45.9038 33.5626 44.7221 34.0039 43.5 33.9997Z" fill="url(#paint1_linear_883_4717)"/>
<path d="M20.1316 55V46.756H23.4796C25.1836 46.756 26.5156 47.848 26.5156 49.396C26.5156 50.944 25.1836 52.036 23.4796 52.036H21.0676V55H20.1316ZM21.0676 51.148H23.3116C24.6556 51.148 25.5676 50.5 25.5676 49.396C25.5676 48.292 24.6556 47.644 23.3116 47.644H21.0676V51.148ZM30.7703 48.652C32.1383 48.652 33.0983 49.648 33.0983 51.052V55H32.1983V51.172C32.1983 50.164 31.5623 49.456 30.6503 49.456C29.6063 49.456 28.7303 50.188 28.7303 51.052V55H27.8303V46.612H28.7303V49.792C29.0903 49.132 29.8943 48.652 30.7703 48.652ZM37.7998 55.144C36.0598 55.144 34.5838 53.656 34.5838 51.892C34.5838 50.128 36.0598 48.652 37.7998 48.652C39.5398 48.652 41.0038 50.128 41.0038 51.892C41.0038 53.656 39.5398 55.144 37.7998 55.144ZM37.7998 54.34C39.0238 54.34 40.0558 53.224 40.0558 51.892C40.0558 50.572 39.0238 49.456 37.7998 49.456C36.5638 49.456 35.5318 50.572 35.5318 51.892C35.5318 53.224 36.5638 54.34 37.7998 54.34ZM45.4421 48.652C46.8101 48.652 47.7701 49.648 47.7701 51.052V55H46.8701V51.172C46.8701 50.164 46.2341 49.456 45.3221 49.456C44.2781 49.456 43.4021 50.188 43.4021 51.052V55H42.5021V48.796H43.4021V49.792C43.7621 49.132 44.5661 48.652 45.4421 48.652ZM52.3877 54.34C53.1197 54.34 53.9597 54.016 54.3437 53.596L54.8957 54.184C54.3557 54.772 53.2637 55.144 52.3997 55.144C50.7437 55.144 49.2557 53.788 49.2557 51.88C49.2557 50.032 50.6477 48.652 52.3157 48.652C54.1877 48.652 55.2557 50.068 55.2557 52.24H50.1797C50.3117 53.452 51.1637 54.34 52.3877 54.34ZM52.3517 49.456C51.2477 49.456 50.3597 50.236 50.1917 51.436H54.3677C54.2477 50.32 53.5877 49.456 52.3517 49.456Z" fill="#9936DB"/>
<defs>
<linearGradient id="paint0_linear_883_4717" x1="37.5" y1="0" x2="37.5" y2="66" gradientUnits="userSpaceOnUse">
<stop stop-color="#2FE593"/>
<stop offset="1" stop-color="#7209B7"/>
</linearGradient>
<linearGradient id="paint1_linear_883_4717" x1="37.9999" y1="11" x2="37.9999" y2="35.9998" gradientUnits="userSpaceOnUse">
<stop stop-color="#2FE593"/>
<stop offset="1" stop-color="#7209B7"/>
</linearGradient>
</defs>
</svg>
