<svg width="75" height="66" viewBox="0 0 75 66" fill="none" xmlns="http://www.w3.org/2000/svg">
<rect x="0.5" y="0.5" width="74" height="65" rx="7.5" stroke="url(#paint0_linear_883_4723)"/>
<path d="M51.2074 21.2933L41.2074 11.2933C41.0676 11.1534 40.8895 11.058 40.6955 11.0193C40.5016 10.9806 40.3005 11.0003 40.1177 11.0759C39.9349 11.1515 39.7787 11.2796 39.6687 11.444C39.5588 11.6084 39.5 11.8017 39.4999 11.9995V17.0433C36.2574 17.3208 32.6762 18.9083 29.7299 21.407C26.1824 24.417 23.9737 28.2958 23.5099 32.3283C23.4737 32.6418 23.5373 32.9587 23.6916 33.234C23.8459 33.5093 24.0831 33.7289 24.3695 33.8616C24.6559 33.9942 24.9768 34.0332 25.2866 33.9729C25.5963 33.9126 25.8792 33.7562 26.0949 33.5258C27.4699 32.062 32.3624 27.4333 39.4999 27.0258V31.9995C39.5 32.1973 39.5588 32.3906 39.6687 32.555C39.7787 32.7194 39.9349 32.8475 40.1177 32.9231C40.3005 32.9987 40.5016 33.0184 40.6955 32.9798C40.8895 32.9411 41.0676 32.8457 41.2074 32.7058L51.2074 22.7058C51.3944 22.5183 51.4995 22.2643 51.4995 21.9995C51.4995 21.7347 51.3944 21.4808 51.2074 21.2933ZM41.4999 29.5858V25.9995C41.4999 25.7343 41.3946 25.48 41.207 25.2924C41.0195 25.1049 40.7651 24.9995 40.4999 24.9995C36.9899 24.9995 33.5712 25.9158 30.3387 27.7245C28.6924 28.6498 27.1584 29.7622 25.7674 31.0395C26.4924 28.0595 28.3199 25.2258 31.0237 22.932C33.9262 20.4708 37.4687 18.9995 40.4999 18.9995C40.7651 18.9995 41.0195 18.8942 41.207 18.7066C41.3946 18.5191 41.4999 18.2648 41.4999 17.9995V14.4145L49.0862 21.9995L41.4999 29.5858Z" fill="url(#paint1_linear_883_4723)"/>
<path d="M24.7513 55.132C23.3953 55.132 22.3273 54.64 21.4993 53.824L22.0873 53.092C22.7833 53.788 23.6353 54.28 24.7873 54.28C26.0593 54.28 26.7073 53.584 26.7073 52.84C26.7073 51.964 25.9273 51.616 24.4873 51.28C22.8313 50.896 21.7873 50.38 21.7873 48.952C21.7873 47.632 22.9633 46.6 24.5473 46.6C25.7713 46.6 26.6833 47.08 27.4393 47.776L26.8633 48.508C26.1793 47.848 25.3633 47.452 24.4993 47.452C23.4793 47.452 22.7353 48.124 22.7353 48.88C22.7353 49.732 23.5513 50.032 24.9553 50.368C26.5273 50.74 27.6553 51.304 27.6553 52.756C27.6553 54.064 26.6713 55.132 24.7513 55.132ZM32.1706 48.652C33.5386 48.652 34.4986 49.648 34.4986 51.052V55H33.5986V51.172C33.5986 50.164 32.9626 49.456 32.0506 49.456C31.0066 49.456 30.1306 50.188 30.1306 51.052V55H29.2306V46.612H30.1306V49.792C30.4906 49.132 31.2946 48.652 32.1706 48.652ZM38.8402 48.652C40.5322 48.652 41.3602 49.72 41.3602 51.22V55H40.4602V54.028C40.0162 54.76 39.0922 55.144 38.2762 55.144C36.9682 55.144 36.0082 54.388 36.0082 53.164C36.0082 51.928 37.1122 51.1 38.4442 51.1C39.1162 51.1 39.8242 51.244 40.4602 51.448V51.22C40.4602 50.38 40.1242 49.42 38.7802 49.42C38.1562 49.42 37.5322 49.696 36.9682 49.984L36.6082 49.252C37.4962 48.808 38.2402 48.652 38.8402 48.652ZM38.4322 54.352C39.2482 54.352 40.2202 53.932 40.4602 53.056V52.108C39.8962 51.952 39.2602 51.856 38.5882 51.856C37.6642 51.856 36.8842 52.384 36.8842 53.128C36.8842 53.896 37.5562 54.352 38.4322 54.352ZM44.1831 50.008C44.5551 49.18 45.4431 48.652 46.5831 48.652V49.456C45.1791 49.456 44.1831 50.32 44.1831 51.532V55H43.2831V48.796H44.1831V50.008ZM50.624 54.34C51.356 54.34 52.196 54.016 52.58 53.596L53.132 54.184C52.592 54.772 51.5 55.144 50.636 55.144C48.98 55.144 47.492 53.788 47.492 51.88C47.492 50.032 48.884 48.652 50.552 48.652C52.424 48.652 53.492 50.068 53.492 52.24H48.416C48.548 53.452 49.4 54.34 50.624 54.34ZM50.588 49.456C49.484 49.456 48.596 50.236 48.428 51.436H52.604C52.484 50.32 51.824 49.456 50.588 49.456Z" fill="#9936DB"/>
<defs>
<linearGradient id="paint0_linear_883_4723" x1="37.5" y1="0" x2="37.5" y2="66" gradientUnits="userSpaceOnUse">
<stop stop-color="#2FE593"/>
<stop offset="1" stop-color="#7209B7"/>
</linearGradient>
<linearGradient id="paint1_linear_883_4723" x1="37.4997" y1="11" x2="37.4997" y2="34.0005" gradientUnits="userSpaceOnUse">
<stop stop-color="#2FE593"/>
<stop offset="1" stop-color="#7209B7"/>
</linearGradient>
</defs>
</svg>
