<svg width="155" height="192" viewBox="0 0 155 192" fill="none" xmlns="http://www.w3.org/2000/svg">
<g clip-path="url(#clip0_28_67)">
<path d="M72.4767 185.705C53.4554 177.822 20.4048 163.878 20.1604 163.634C20.0595 163.533 20.3421 161.769 20.7884 159.713C24.3578 143.275 24.5152 132.868 21.3411 123.161C20.0951 119.35 16.0121 110.82 12.2408 104.149C10.3968 100.887 8.00059 96.2588 6.91596 93.8647C-1.72836 74.7838 -1.63472 54.1635 7.17872 36.0055C16.2409 17.3349 33.3223 4.95638 55.6581 0.873505C62.5295 -0.38255 79.7627 -0.261418 86.6553 1.0914C112.993 6.26082 131.344 25.0012 136.298 51.7872C137.41 57.8018 137.091 65.0864 135.57 68.4078L134.476 70.7969L135.535 73.5307C136.822 76.8546 138.475 79.8318 144.031 88.8377C149.013 96.9131 150.156 99.2927 150.172 101.615C150.193 104.979 148.616 106.277 143.239 107.313C139.146 108.103 138.299 109.035 138.745 112.255C139.732 119.363 139.738 119.235 138.336 120.552C136.738 122.051 136.727 122.267 138.141 124.213L139.261 125.753L137.375 129.451L135.489 133.148L135.609 139.797C135.718 145.881 135.627 146.654 134.535 148.898C133.247 151.546 131.195 153.363 128.467 154.27C127.368 154.636 122.285 154.814 114.4 154.765C95.8208 154.649 96.9006 153.498 91.6882 178.957C89.1337 191.434 88.9846 192.004 88.2757 192C87.9356 191.998 80.826 189.165 72.4767 185.705ZM48.2294 104.877C51.4354 104.009 54.0477 101.957 56.7997 98.1468C59.367 94.592 61.0947 93.0836 65.653 90.4179C69.3094 88.2796 71.3543 86.1928 71.1056 84.8537C71.0079 84.3278 69.9082 83.8111 67.9227 83.3585C63.2295 82.2887 61.5006 81.3655 61.6911 80.031C61.9291 78.363 65.0297 76.4507 66.9111 76.8115C67.7478 76.9719 72.0111 77.5878 76.3851 78.18C84.719 79.3085 86.5695 79.1724 87.0942 77.3925C87.3805 76.4211 91.1504 54.5948 91.72 50.6106L92.0513 48.294L89.0535 47.6021C85.1621 46.704 82.2796 45.0212 81.383 43.1242C80.7604 41.8068 80.7709 41.0032 81.4631 36.9929C82.1998 32.7247 82.1966 32.311 81.4203 31.4916C80.2846 30.2928 68.2579 27.4986 63.3023 27.2821L59.3862 27.1111L59.0118 28.9018C58.8059 29.8867 58.1507 34.5715 57.5558 39.3125C55.5255 55.4945 54.8306 59.0122 53.3747 60.4766C51.505 62.3571 50.2253 61.7554 50.6486 59.1947C51.7135 52.7526 54.4996 32.3953 54.5078 30.9961C54.5104 30.5992 54.1976 30.421 53.7795 30.5807C53.3766 30.7348 51.0075 30.8896 48.5148 30.925C46.0222 30.9605 43.6882 31.1718 43.3283 31.3947C42.9111 31.653 42.6439 33.0707 42.5912 35.3055C42.4524 41.1932 41.2297 42.5937 34.6548 44.3962C31.1139 45.3669 29.7084 46.929 29.7084 49.8939C29.7084 51.7302 30.0072 52.2617 32.2394 54.3968C34.9772 57.0154 35.2371 57.6392 33.902 58.387C33.2871 58.7314 32.5113 58.5982 31.2444 57.9304C28.3169 56.3874 26.7182 54.2869 26.0633 51.1232C25.5102 48.4506 25.5547 48.0956 26.7335 45.7842C28.1592 42.9886 30.466 41.4182 34.5146 40.4872C38.4009 39.5936 38.8186 39.0097 38.8274 34.4594C38.8313 32.3193 39.1162 30.0099 39.4601 29.3272C40.2888 27.6823 41.8847 27.3282 49.132 27.1809L55.2139 27.0573L55.6202 25.473C56.2897 22.8624 57.0565 22.5561 61.9928 22.9271C64.4209 23.1097 68.7992 23.7513 71.7225 24.3529C74.6458 24.9546 78.3656 25.717 79.9887 26.0472C83.8646 26.8357 85.4193 27.9791 89.4219 32.9846C91.2556 35.2777 93.1539 37.5592 93.6404 38.0546C96.7779 41.2497 96.8613 44.1007 94.2923 60.3279C93.2936 66.6362 92.4765 72.4678 92.4765 73.2869C92.4765 74.5954 92.6147 74.7338 93.6154 74.4269C96.1738 73.6423 98.585 72.0829 99.9203 70.3493C103.074 66.2545 102.356 66.5443 106.991 67.4955C110.457 68.207 111.58 68.2452 113.914 67.7312C126.289 65.0057 128.568 47.5282 117.544 39.878C115.752 38.6342 115.584 38.3144 115.503 35.9935C115.272 29.3372 107.285 21.8524 99.6108 21.1C96.8977 20.8341 96.323 20.5661 94.3639 18.654C89.6077 14.0119 82.7593 12.1851 76.3931 13.8604C73.7604 14.5532 73.6813 14.5404 70.6154 12.9216C67.5579 11.3072 67.3899 11.2796 60.3767 11.2356L53.2465 11.1909L50.1144 12.8906C48.3918 13.8254 46.1617 15.4828 45.1586 16.5738C44.1556 17.6647 42.8811 18.5544 42.3265 18.551C40.6427 18.5404 33.6318 21.4897 31.5286 23.0934C27.8857 25.8711 24.7067 30.8384 23.9469 34.9403C23.6793 36.3848 23.0825 37.2112 21.4631 38.3796C18.8137 40.291 16.7944 42.8095 15.4025 45.9385C13.972 49.1542 13.5643 56.7563 14.6773 59.4594C15.4002 61.2149 15.3798 61.4724 14.353 63.5452C13.4601 65.3477 13.2571 66.6588 13.2571 70.6244C13.2571 74.8455 13.4391 75.8855 14.6284 78.4617C17.386 84.4351 26.0779 91.5898 28.9757 90.2717C30.5299 89.5647 31.0511 87.4618 31.7212 79.1933C32.4413 70.3089 33.0274 67.6293 34.786 65.1833C37.5293 61.3678 44.8165 56.4568 46.657 57.1832C47.4395 57.492 47.5188 57.9433 47.2349 60.474C46.5669 66.4295 46.466 65.973 48.4376 65.9129C49.5299 65.8797 51.759 64.9657 54.251 63.5293C56.474 62.2479 59.2242 61.064 60.3626 60.8984C63.1111 60.4985 65.8412 61.7 67.1538 63.8871C68.3237 65.8365 68.5052 69.5158 67.5282 71.4769C67.1783 72.1791 64.5159 74.356 61.6118 76.3144C58.4195 78.4671 55.9497 80.5345 55.3658 81.5427C54.8346 82.4599 53.8486 85.332 53.1747 87.9252C51.2519 95.3246 49.4327 98.6221 45.6087 101.64C42.571 104.037 41.8975 104.999 42.6915 105.807C43.0437 106.166 44.1713 105.977 48.2294 104.877ZM77.2907 58.1721C76.0379 57.9238 72.563 57.3604 69.5687 56.9202C63.565 56.0374 62.1049 55.4797 62.1049 54.0692C62.1049 51.8581 63.1915 51.7377 71.6245 53.0142C81.731 54.5441 82.8588 54.8922 82.8588 56.4816C82.8588 57.6955 81.5286 58.8141 80.2346 58.6883C79.8683 58.6527 78.5435 58.4204 77.2907 58.1721ZM102.295 48.8688C101.875 47.172 103.48 45.3939 106.452 44.2639C110.318 42.7939 115.255 44.4527 115.255 47.2213C115.255 48.6669 114.037 48.952 112.312 47.91C110.472 46.7986 108.01 47.1627 105.413 48.9302C103.098 50.5058 102.698 50.498 102.295 48.8688ZM70.4954 45.5774C65.5141 44.8578 64.6589 44.4263 64.6436 42.6254C64.6317 41.2191 65.8253 41.0475 71.5516 41.6325C77.6208 42.2526 78.8852 42.9512 77.8975 45.1391C77.2418 46.5914 77.4355 46.58 70.4954 45.5774ZM99.8571 41.1653C98.0459 39.3209 99.4214 33.1601 101.85 32.241C104.795 31.126 108.707 32.176 108.05 33.905C107.895 34.3141 106.86 34.9183 105.75 35.2478C103.324 35.9685 102.87 36.4725 102.13 39.2686C101.453 41.8279 100.933 42.2613 99.8571 41.1653ZM56.2788 72.8985C61.4064 69.9034 63.0164 68.4285 62.3515 67.3355C62.183 67.0585 61.7118 66.8298 61.3045 66.8272C59.7658 66.8184 46.919 74.0449 46.919 74.9202C46.919 75.1693 47.2684 75.7289 47.6954 76.1638C48.6911 77.1777 49.4423 76.8919 56.2788 72.8985ZM92.112 43.0534C91.9358 42.5682 90.4122 40.4639 88.7261 38.3771L85.6605 34.5829L85.2514 36.5622C85.0263 37.6508 84.9085 39.4641 84.9894 40.5917L85.1367 42.6418L88.4269 43.4971C92.0399 44.4361 92.59 44.3699 92.112 43.0534ZM231.933 125.1C221.201 121.425 215.76 110.576 218.777 98.8703C221.299 89.0882 229.235 83.7568 240.226 84.46C249.324 85.042 255.831 89.6992 258.584 97.5991C259.893 101.357 260.005 108.133 258.825 112.235C257.259 117.676 252.532 122.803 247.372 124.657C244.301 125.76 234.667 126.037 231.933 125.1ZM244.09 117.097C247.057 115.704 248.69 113.684 249.708 110.149C251.401 104.263 249.665 97.5013 245.708 94.5756C239.206 89.7677 230.603 92.3906 228.381 99.8587C226.918 104.774 227.763 110.694 230.443 114.314C233.166 117.992 239.453 119.274 244.09 117.097ZM275.3 125.084C271.984 123.904 269.09 121.123 267.524 117.613C266.401 115.094 266.348 114.388 266.193 99.9317L266.032 84.8745L267.648 85.2119C268.537 85.3974 270.707 85.5583 272.469 85.5694L275.672 85.589L275.822 99.3353L275.972 113.082L277.431 115.025C279.19 117.368 281.428 118.413 284.735 118.434C288.066 118.456 291.323 116.7 292.795 114.091C293.885 112.159 293.926 111.607 293.934 98.6338L293.942 85.1802L298.624 85.3834L303.306 85.5867L303.439 105.675L303.571 125.763L298.883 125.586L294.195 125.409L294.036 123.159L293.876 120.909L292.011 122.74C290.985 123.747 289.148 124.921 287.93 125.348C284.881 126.417 278.684 126.288 275.3 125.084ZM369.517 125.696C364.332 123.851 361.438 121.089 358.881 115.547C357.572 112.709 357.469 112.02 357.469 106.082C357.469 99.9665 357.541 99.5261 359.058 96.2951C361.195 91.7441 363.738 89.0488 367.763 87.0682C370.871 85.5393 371.485 85.4215 376.188 85.451C381.957 85.4871 384.993 86.5376 387.628 89.4083L389.106 91.0196V80.2069V69.3942L393.915 69.4244L398.724 69.4546V97.8878V126.321L394.168 126.293L389.613 126.264V123.959C389.613 122.691 389.478 121.652 389.313 121.651C389.149 121.65 388.077 122.456 386.931 123.441C385.785 124.426 383.715 125.566 382.329 125.974C378.879 126.989 372.777 126.857 369.517 125.696ZM382.815 118.079C385.427 116.895 387.846 113.959 388.555 111.111C389.839 105.958 388.788 99.6287 386.162 96.7095C381.07 91.0486 371.706 92.0472 368.221 98.6227C367.263 100.43 367.087 101.56 367.087 105.886C367.087 111.401 367.863 113.788 370.458 116.254C373.363 119.014 378.936 119.838 382.815 118.079ZM418.111 125.917C409.53 123.039 404.724 114.859 405.437 104.343C406.218 92.8179 413.898 85.4434 425.046 85.5132C432.905 85.5625 438.703 89.0245 441.933 95.5972C443.356 98.4945 444.435 103.899 444.191 106.917L444.028 108.93L429.602 108.943C413.359 108.956 414.109 108.746 415.663 112.875C418.291 119.856 427.463 121.89 434.474 117.047L437.082 115.245L439.669 117.206C441.092 118.284 442.256 119.428 442.256 119.747C442.256 120.678 438.475 123.852 435.568 125.36C433.178 126.601 432.271 126.761 427.071 126.86C422.329 126.95 420.668 126.774 418.111 125.917ZM434.659 100.4C433.316 95.6544 430.043 93.216 424.977 93.1872C419.962 93.1588 416.75 95.6215 415.205 100.681L414.854 101.831L424.977 101.895L435.099 101.958L434.659 100.4ZM181.061 97.5665V70.1394L198.018 70.2458L214.976 70.3521V74.7067V79.0614L202.827 78.9852L190.678 78.9091V86.3376V93.766L202.068 93.8374L213.457 93.9087V98.2634V102.618L202.05 102.546L190.643 102.475L190.7 113.618L190.756 124.761L185.908 124.877L181.061 124.993V97.5665ZM313.171 125.529C313.168 125.388 313.163 116.339 313.16 105.42L313.155 85.5682L317.343 85.6026L321.531 85.6369L321.687 88.1011L321.842 90.5653L324.052 88.5177C327.024 85.7639 330.695 84.7132 336.164 85.0515C342.715 85.4567 346.969 88.4359 349.205 94.1852C350.25 96.8721 350.342 98.0734 350.529 111.546L350.73 126.02L345.899 125.99L341.067 125.959L340.917 112.767C340.78 100.765 340.675 99.391 339.754 97.5511C338.483 95.012 336.687 93.6565 333.861 93.1038C329.298 92.2115 324.916 94.1832 323.254 97.8762C322.416 99.7389 322.311 101.4 322.301 112.906L322.291 125.842L317.735 125.813C315.229 125.798 313.174 125.67 313.171 125.529ZM450.983 106.54L451.115 86.433L455.544 86.422L459.974 86.4111V89.2676V92.1242L461.872 90.0369C464.626 87.0088 466.68 86.0984 470.797 86.0812L474.281 86.0659L474.513 90.2939L474.745 94.5219L470.751 94.497C467.288 94.4751 466.481 94.6508 464.688 95.8164C460.948 98.2475 460.756 99.0868 460.575 113.773L460.417 126.708L455.633 126.678L450.85 126.648L450.983 106.54ZM499.452 113.127C504.466 105.554 508.568 99.228 508.568 99.0683C508.568 98.9085 507.502 97.112 506.2 95.076C498.837 83.5675 495.039 77.675 493.276 75.0251L491.297 72.0499L497.002 72.2308L502.706 72.4118L507.168 79.6121C509.621 83.5722 512.229 87.9112 512.963 89.2542C513.697 90.5972 514.445 91.697 514.625 91.6981C514.806 91.6992 517.643 87.3368 520.93 82.0037L526.907 72.3073L532.17 72.3404L537.434 72.3734L536.082 74.5422C535.338 75.7351 533.653 78.3181 532.338 80.2822C528.595 85.871 520.211 98.9294 520.211 99.1694C520.211 99.2884 521.098 100.724 522.182 102.36C523.266 103.996 527.369 110.253 531.299 116.266L538.445 127.197L532.664 127.161L526.882 127.124L523.389 121.339C516.03 109.149 514.407 106.554 514.149 106.566C514.003 106.572 511.07 111.165 507.631 116.771L501.379 126.964L495.857 126.93L490.336 126.895L499.452 113.127Z" fill="url(#paint0_linear_28_67)"/>
</g>
<defs>
<linearGradient id="paint0_linear_28_67" x1="269.473" y1="0" x2="269.473" y2="192" gradientUnits="userSpaceOnUse">
<stop stop-color="#2FE593"/>
<stop offset="1" stop-color="#7209B7"/>
</linearGradient>
<clipPath id="clip0_28_67">
<rect width="154" height="192" fill="white" transform="translate(0.5)"/>
</clipPath>
</defs>
</svg>
