<svg width="215" height="192" viewBox="0 0 215 192" fill="none" xmlns="http://www.w3.org/2000/svg">
<g clip-path="url(#clip0_29_227)">
<path d="M102.477 185.705C83.4554 177.822 50.4048 163.878 50.1604 163.634C50.0595 163.533 50.3421 161.769 50.7884 159.713C54.3578 143.275 54.5152 132.868 51.3411 123.161C50.0951 119.35 46.0121 110.82 42.2408 104.149C40.3968 100.887 38.0006 96.2588 36.916 93.8647C28.2716 74.7838 28.3653 54.1635 37.1787 36.0055C46.2409 17.3349 63.3223 4.95638 85.6581 0.873505C92.5295 -0.38255 109.763 -0.261418 116.655 1.0914C142.993 6.26082 161.344 25.0012 166.298 51.7872C167.41 57.8018 167.091 65.0864 165.57 68.4078L164.476 70.7969L165.535 73.5307C166.822 76.8546 168.475 79.8318 174.031 88.8377C179.013 96.9131 180.156 99.2927 180.172 101.615C180.193 104.979 178.616 106.277 173.239 107.313C169.146 108.103 168.299 109.035 168.745 112.255C169.732 119.363 169.738 119.235 168.336 120.552C166.738 122.051 166.727 122.267 168.141 124.213L169.261 125.753L167.375 129.451L165.489 133.148L165.609 139.797C165.718 145.881 165.627 146.654 164.535 148.898C163.247 151.546 161.195 153.363 158.467 154.27C157.368 154.636 152.285 154.814 144.4 154.765C125.821 154.649 126.901 153.498 121.688 178.957C119.134 191.434 118.985 192.004 118.276 192C117.936 191.998 110.826 189.165 102.477 185.705ZM78.2294 104.877C81.4354 104.009 84.0477 101.957 86.7997 98.1468C89.367 94.592 91.0947 93.0836 95.653 90.4179C99.3094 88.2796 101.354 86.1928 101.106 84.8537C101.008 84.3278 99.9082 83.8111 97.9227 83.3585C93.2295 82.2887 91.5006 81.3655 91.6911 80.031C91.9291 78.363 95.0297 76.4507 96.9111 76.8115C97.7478 76.9719 102.011 77.5878 106.385 78.18C114.719 79.3085 116.57 79.1724 117.094 77.3925C117.38 76.4211 121.15 54.5948 121.72 50.6106L122.051 48.294L119.053 47.6021C115.162 46.704 112.28 45.0212 111.383 43.1242C110.76 41.8068 110.771 41.0032 111.463 36.9929C112.2 32.7247 112.197 32.311 111.42 31.4916C110.285 30.2928 98.2579 27.4986 93.3023 27.2821L89.3862 27.1111L89.0118 28.9018C88.8059 29.8867 88.1507 34.5715 87.5558 39.3125C85.5255 55.4945 84.8306 59.0122 83.3747 60.4766C81.505 62.3571 80.2253 61.7554 80.6486 59.1947C81.7135 52.7526 84.4996 32.3953 84.5078 30.9961C84.5104 30.5992 84.1976 30.421 83.7795 30.5807C83.3766 30.7348 81.0075 30.8896 78.5148 30.925C76.0222 30.9605 73.6882 31.1718 73.3283 31.3947C72.9111 31.653 72.6439 33.0707 72.5912 35.3055C72.4524 41.1932 71.2297 42.5937 64.6548 44.3962C61.1139 45.3669 59.7084 46.929 59.7084 49.8939C59.7084 51.7302 60.0072 52.2617 62.2394 54.3968C64.9772 57.0154 65.2371 57.6392 63.902 58.387C63.2871 58.7314 62.5113 58.5982 61.2444 57.9304C58.3169 56.3874 56.7182 54.2869 56.0633 51.1232C55.5102 48.4506 55.5547 48.0956 56.7335 45.7842C58.1592 42.9886 60.466 41.4182 64.5146 40.4872C68.4009 39.5936 68.8186 39.0097 68.8274 34.4594C68.8313 32.3193 69.1162 30.0099 69.4601 29.3272C70.2888 27.6823 71.8847 27.3282 79.132 27.1809L85.2139 27.0573L85.6202 25.473C86.2897 22.8624 87.0565 22.5561 91.9928 22.9271C94.4209 23.1097 98.7992 23.7513 101.723 24.3529C104.646 24.9546 108.366 25.717 109.989 26.0472C113.865 26.8357 115.419 27.9791 119.422 32.9846C121.256 35.2777 123.154 37.5592 123.64 38.0546C126.778 41.2497 126.861 44.1007 124.292 60.3279C123.294 66.6362 122.477 72.4678 122.477 73.2869C122.477 74.5954 122.615 74.7338 123.615 74.4269C126.174 73.6423 128.585 72.0829 129.92 70.3493C133.074 66.2545 132.356 66.5443 136.991 67.4955C140.457 68.207 141.58 68.2452 143.914 67.7312C156.289 65.0057 158.568 47.5282 147.544 39.878C145.752 38.6342 145.584 38.3144 145.503 35.9935C145.272 29.3372 137.285 21.8524 129.611 21.1C126.898 20.8341 126.323 20.5661 124.364 18.654C119.608 14.0119 112.759 12.1851 106.393 13.8604C103.76 14.5532 103.681 14.5404 100.615 12.9216C97.5579 11.3072 97.3899 11.2796 90.3767 11.2356L83.2465 11.1909L80.1144 12.8906C78.3918 13.8254 76.1617 15.4828 75.1586 16.5738C74.1556 17.6647 72.8811 18.5544 72.3265 18.551C70.6427 18.5404 63.6318 21.4897 61.5286 23.0934C57.8857 25.8711 54.7067 30.8384 53.9469 34.9403C53.6793 36.3848 53.0825 37.2112 51.4631 38.3796C48.8137 40.291 46.7944 42.8095 45.4025 45.9385C43.972 49.1542 43.5643 56.7563 44.6773 59.4594C45.4002 61.2149 45.3798 61.4724 44.353 63.5452C43.4601 65.3477 43.2571 66.6588 43.2571 70.6244C43.2571 74.8455 43.4391 75.8855 44.6284 78.4617C47.386 84.4351 56.0779 91.5898 58.9757 90.2717C60.5299 89.5647 61.0511 87.4618 61.7212 79.1933C62.4413 70.3089 63.0274 67.6293 64.786 65.1833C67.5293 61.3678 74.8165 56.4568 76.657 57.1832C77.4395 57.492 77.5188 57.9433 77.2349 60.474C76.5669 66.4295 76.466 65.973 78.4376 65.9129C79.5299 65.8797 81.759 64.9657 84.251 63.5293C86.474 62.2479 89.2242 61.064 90.3626 60.8984C93.1111 60.4985 95.8412 61.7 97.1538 63.8871C98.3237 65.8365 98.5052 69.5158 97.5282 71.4769C97.1783 72.1791 94.5159 74.356 91.6118 76.3144C88.4195 78.4671 85.9497 80.5345 85.3658 81.5427C84.8346 82.4599 83.8486 85.332 83.1747 87.9252C81.2519 95.3246 79.4327 98.6221 75.6087 101.64C72.571 104.037 71.8975 104.999 72.6915 105.807C73.0437 106.166 74.1713 105.977 78.2294 104.877ZM107.291 58.1721C106.038 57.9238 102.563 57.3604 99.5687 56.9202C93.565 56.0374 92.1049 55.4797 92.1049 54.0692C92.1049 51.8581 93.1915 51.7377 101.625 53.0142C111.731 54.5441 112.859 54.8922 112.859 56.4816C112.859 57.6955 111.529 58.8141 110.235 58.6883C109.868 58.6527 108.544 58.4204 107.291 58.1721ZM132.295 48.8688C131.875 47.172 133.48 45.3939 136.452 44.2639C140.318 42.7939 145.255 44.4527 145.255 47.2213C145.255 48.6669 144.037 48.952 142.312 47.91C140.472 46.7986 138.01 47.1627 135.413 48.9302C133.098 50.5058 132.698 50.498 132.295 48.8688ZM100.495 45.5774C95.5141 44.8578 94.6589 44.4263 94.6436 42.6254C94.6317 41.2191 95.8253 41.0475 101.552 41.6325C107.621 42.2526 108.885 42.9512 107.897 45.1391C107.242 46.5914 107.436 46.58 100.495 45.5774ZM129.857 41.1653C128.046 39.3209 129.421 33.1601 131.85 32.241C134.795 31.126 138.707 32.176 138.05 33.905C137.895 34.3141 136.86 34.9183 135.75 35.2478C133.324 35.9685 132.87 36.4725 132.13 39.2686C131.453 41.8279 130.933 42.2613 129.857 41.1653ZM86.2788 72.8985C91.4064 69.9034 93.0164 68.4285 92.3515 67.3355C92.183 67.0585 91.7118 66.8298 91.3045 66.8272C89.7658 66.8184 76.919 74.0449 76.919 74.9202C76.919 75.1693 77.2684 75.7289 77.6954 76.1638C78.6911 77.1777 79.4423 76.8919 86.2788 72.8985ZM122.112 43.0534C121.936 42.5682 120.412 40.4639 118.726 38.3771L115.661 34.5829L115.251 36.5622C115.026 37.6508 114.908 39.4641 114.989 40.5917L115.137 42.6418L118.427 43.4971C122.04 44.4361 122.59 44.3699 122.112 43.0534ZM261.933 125.1C251.201 121.425 245.76 110.576 248.777 98.8703C251.299 89.0882 259.235 83.7568 270.226 84.46C279.324 85.042 285.831 89.6992 288.584 97.5991C289.893 101.357 290.005 108.133 288.825 112.235C287.259 117.676 282.532 122.803 277.372 124.657C274.301 125.76 264.667 126.037 261.933 125.1ZM274.09 117.097C277.057 115.704 278.69 113.684 279.708 110.149C281.401 104.263 279.665 97.5013 275.708 94.5756C269.206 89.7677 260.603 92.3906 258.381 99.8587C256.918 104.774 257.763 110.694 260.443 114.314C263.166 117.992 269.453 119.274 274.09 117.097ZM305.3 125.084C301.984 123.904 299.09 121.123 297.524 117.613C296.401 115.094 296.348 114.388 296.193 99.9317L296.032 84.8745L297.648 85.2119C298.537 85.3974 300.707 85.5583 302.469 85.5694L305.672 85.589L305.822 99.3353L305.972 113.082L307.431 115.025C309.19 117.368 311.428 118.413 314.735 118.434C318.066 118.456 321.323 116.7 322.795 114.091C323.885 112.159 323.926 111.607 323.934 98.6338L323.942 85.1802L328.624 85.3834L333.306 85.5867L333.439 105.675L333.571 125.763L328.883 125.586L324.195 125.409L324.036 123.159L323.876 120.909L322.011 122.74C320.985 123.747 319.148 124.921 317.93 125.348C314.881 126.417 308.684 126.288 305.3 125.084ZM399.517 125.696C394.332 123.851 391.438 121.089 388.881 115.547C387.572 112.709 387.469 112.02 387.469 106.082C387.469 99.9665 387.541 99.5261 389.058 96.2951C391.195 91.7441 393.738 89.0488 397.763 87.0682C400.871 85.5393 401.485 85.4215 406.188 85.451C411.957 85.4871 414.993 86.5376 417.628 89.4083L419.106 91.0196V80.2069V69.3942L423.915 69.4244L428.724 69.4546V97.8878V126.321L424.168 126.293L419.613 126.264V123.959C419.613 122.691 419.478 121.652 419.313 121.651C419.149 121.65 418.077 122.456 416.931 123.441C415.785 124.426 413.715 125.566 412.329 125.974C408.879 126.989 402.777 126.857 399.517 125.696ZM412.815 118.079C415.427 116.895 417.846 113.959 418.555 111.111C419.839 105.958 418.788 99.6287 416.162 96.7095C411.07 91.0486 401.706 92.0472 398.221 98.6227C397.263 100.43 397.087 101.56 397.087 105.886C397.087 111.401 397.863 113.788 400.458 116.254C403.363 119.014 408.936 119.838 412.815 118.079ZM448.111 125.917C439.53 123.039 434.724 114.859 435.437 104.343C436.218 92.8179 443.898 85.4434 455.046 85.5132C462.905 85.5625 468.703 89.0245 471.933 95.5972C473.356 98.4945 474.435 103.899 474.191 106.917L474.028 108.93L459.602 108.943C443.359 108.956 444.109 108.746 445.663 112.875C448.291 119.856 457.463 121.89 464.474 117.047L467.082 115.245L469.669 117.206C471.092 118.284 472.256 119.428 472.256 119.747C472.256 120.678 468.475 123.852 465.568 125.36C463.178 126.601 462.271 126.761 457.071 126.86C452.329 126.95 450.668 126.774 448.111 125.917ZM464.659 100.4C463.316 95.6544 460.043 93.216 454.977 93.1872C449.962 93.1588 446.75 95.6215 445.205 100.681L444.854 101.831L454.977 101.895L465.099 101.958L464.659 100.4ZM211.061 97.5665V70.1394L228.018 70.2458L244.976 70.3521V74.7067V79.0614L232.827 78.9852L220.678 78.9091V86.3376V93.766L232.068 93.8374L243.457 93.9087V98.2634V102.618L232.05 102.546L220.643 102.475L220.7 113.618L220.756 124.761L215.908 124.877L211.061 124.993V97.5665ZM343.171 125.529C343.168 125.388 343.163 116.339 343.16 105.42L343.155 85.5682L347.343 85.6026L351.531 85.6369L351.687 88.1011L351.842 90.5653L354.052 88.5177C357.024 85.7639 360.695 84.7132 366.164 85.0515C372.715 85.4567 376.969 88.4359 379.205 94.1852C380.25 96.8721 380.342 98.0734 380.529 111.546L380.73 126.02L375.899 125.99L371.067 125.959L370.917 112.767C370.78 100.765 370.675 99.391 369.754 97.5511C368.483 95.012 366.687 93.6565 363.861 93.1038C359.298 92.2115 354.916 94.1832 353.254 97.8762C352.416 99.7389 352.311 101.4 352.301 112.906L352.291 125.842L347.735 125.813C345.229 125.798 343.174 125.67 343.171 125.529ZM480.983 106.54L481.115 86.433L485.544 86.422L489.974 86.4111V89.2676V92.1242L491.872 90.0369C494.626 87.0088 496.68 86.0984 500.797 86.0812L504.281 86.0659L504.513 90.2939L504.745 94.5219L500.751 94.497C497.288 94.4751 496.481 94.6508 494.688 95.8164C490.948 98.2475 490.756 99.0868 490.575 113.773L490.417 126.708L485.633 126.678L480.85 126.648L480.983 106.54ZM529.452 113.127C534.466 105.554 538.568 99.228 538.568 99.0683C538.568 98.9085 537.502 97.112 536.2 95.076C528.837 83.5675 525.039 77.675 523.276 75.0251L521.297 72.0499L527.002 72.2308L532.706 72.4118L537.168 79.6121C539.621 83.5722 542.229 87.9112 542.963 89.2542C543.697 90.5972 544.445 91.697 544.625 91.6981C544.806 91.6992 547.643 87.3368 550.93 82.0037L556.907 72.3073L562.17 72.3404L567.434 72.3734L566.082 74.5422C565.338 75.7351 563.653 78.3181 562.338 80.2822C558.595 85.871 550.211 98.9294 550.211 99.1694C550.211 99.2884 551.098 100.724 552.182 102.36C553.266 103.996 557.369 110.253 561.299 116.266L568.445 127.197L562.664 127.161L556.882 127.124L553.389 121.339C546.03 109.149 544.407 106.554 544.149 106.566C544.003 106.572 541.07 111.165 537.631 116.771L531.379 126.964L525.857 126.93L520.336 126.895L529.452 113.127Z" fill="#F7F7F7"/>
</g>
<defs>
<clipPath id="clip0_29_227">
<rect width="154" height="192" fill="white" transform="translate(30.5)"/>
</clipPath>
</defs>
</svg>
