<svg width="200" height="200" viewBox="0 0 200 200" xmlns="http://www.w3.org/2000/svg">
  <defs>
    <linearGradient id="gradient1" x1="0%" y1="0%" x2="100%" y2="100%">
      <stop offset="0%" style="stop-color:#667eea;stop-opacity:1" />
      <stop offset="100%" style="stop-color:#764ba2;stop-opacity:1" />
    </linearGradient>
    <linearGradient id="gradient2" x1="0%" y1="0%" x2="100%" y2="100%">
      <stop offset="0%" style="stop-color:#f093fb;stop-opacity:1" />
      <stop offset="100%" style="stop-color:#f5576c;stop-opacity:1" />
    </linearGradient>
  </defs>
  
  <!-- Background Circle -->
  <circle cx="100" cy="100" r="90" fill="url(#gradient1)" opacity="0.1"/>
  
  <!-- Main Logo Shape - Rocket/Arrow pointing up -->
  <path d="M100 30 L120 70 L110 70 L110 120 L130 120 L130 140 L100 130 L70 140 L70 120 L90 120 L90 70 L80 70 Z" fill="url(#gradient1)"/>
  
  <!-- AI Brain/Circuit Pattern -->
  <circle cx="100" cy="55" r="15" fill="url(#gradient2)" opacity="0.8"/>
  <circle cx="85" cy="50" r="3" fill="#ffffff"/>
  <circle cx="100" cy="45" r="3" fill="#ffffff"/>
  <circle cx="115" cy="50" r="3" fill="#ffffff"/>
  <line x1="85" y1="50" x2="100" y2="45" stroke="#ffffff" stroke-width="1"/>
  <line x1="100" y1="45" x2="115" y2="50" stroke="#ffffff" stroke-width="1"/>
  
  <!-- Founder X Text -->
  <text x="100" y="170" font-family="Arial, sans-serif" font-size="18" font-weight="bold" text-anchor="middle" fill="url(#gradient1)">FounderX</text>
  
  <!-- Decorative Elements -->
  <circle cx="60" cy="80" r="2" fill="url(#gradient2)" opacity="0.6"/>
  <circle cx="140" cy="80" r="2" fill="url(#gradient2)" opacity="0.6"/>
  <circle cx="50" cy="120" r="1.5" fill="url(#gradient2)" opacity="0.4"/>
  <circle cx="150" cy="120" r="1.5" fill="url(#gradient2)" opacity="0.4"/>
</svg>
