<svg width="375" height="387" viewBox="0 0 375 387" fill="none" xmlns="http://www.w3.org/2000/svg">
<g clip-path="url(#clip0_32_1724)">
<rect width="375" height="387" fill="black" fill-opacity="0.01"/>
<path d="M0 0H375V387C375 387 263.478 344.159 183.5 344C103.166 343.841 0 387 0 387V0Z" fill="#E3BDFD"/>
<g filter="url(#filter1_f_32_1724)">
<circle cx="31" cy="88" r="88" fill="#AA4DE8"/>
</g>
<g filter="url(#filter2_f_32_1724)">
<circle cx="365" cy="88" r="42" fill="#AA4DE8"/>
</g>
<g filter="url(#filter3_f_32_1724)">
<circle cx="375" cy="277" r="58" fill="#AA4DE8"/>
</g>
<g filter="url(#filter4_f_32_1724)">
<circle cx="187.5" cy="250.5" r="56.5" fill="#AA4DE8"/>
</g>
<g filter="url(#filter5_f_32_1724)">
<circle cx="-41.5" cy="293.5" r="56.5" fill="#AA4DE8"/>
</g>
<g clip-path="url(#clip1_32_1724)">
<path d="M186.173 120.705C179.256 117.831 167.238 112.747 167.149 112.658C167.113 112.621 167.215 111.978 167.378 111.229C168.676 105.236 168.733 101.442 167.579 97.9023C167.126 96.513 165.641 93.4031 164.269 90.9708C163.599 89.7816 162.727 88.0944 162.333 87.2215C159.19 80.2649 159.224 72.7471 162.429 66.127C165.724 59.32 171.935 54.807 180.057 53.3185C182.556 52.8605 188.823 52.9047 191.329 53.3979C200.907 55.2826 207.58 62.115 209.381 71.8808C209.786 74.0736 209.67 76.7294 209.116 77.9404L208.719 78.8114L209.104 79.8081C209.572 81.0199 210.173 82.1053 212.193 85.3887C214.005 88.3329 214.42 89.2005 214.426 90.047C214.434 91.2738 213.86 91.7466 211.905 92.1247C210.417 92.4125 210.109 92.7522 210.271 93.9264C210.63 96.5177 210.632 96.4711 210.122 96.9511C209.541 97.4979 209.537 97.5766 210.051 98.2859L210.459 98.8473L209.773 100.195L209.087 101.544L209.13 103.968C209.17 106.186 209.137 106.468 208.74 107.286C208.272 108.251 207.525 108.914 206.534 109.244C206.134 109.378 204.285 109.443 201.418 109.425C194.662 109.382 195.055 108.963 193.159 118.245C192.23 122.794 192.176 123.002 191.918 123C191.795 122.999 189.209 121.966 186.173 120.705ZM177.356 91.2365C178.522 90.9199 179.472 90.1719 180.473 88.7827C181.406 87.4867 182.034 86.9367 183.692 85.9649C185.022 85.1853 185.765 84.4245 185.675 83.9362C185.639 83.7445 185.239 83.5561 184.517 83.3911C182.811 83.0011 182.182 82.6645 182.251 82.178C182.338 81.5698 183.465 80.8726 184.149 81.0042C184.454 81.0627 186.004 81.2872 187.595 81.5031C190.625 81.9145 191.298 81.8649 191.489 81.216C191.593 80.8619 192.964 72.9043 193.171 71.4518L193.291 70.6072L192.201 70.3549C190.786 70.0275 189.738 69.414 189.412 68.7224C189.186 68.2421 189.189 67.9491 189.441 66.487C189.709 64.9309 189.708 64.78 189.426 64.4813C189.013 64.0443 184.639 63.0255 182.837 62.9466L181.413 62.8842L181.277 63.5371C181.202 63.8962 180.964 65.6042 180.748 67.3327C180.009 73.2324 179.757 74.5149 179.227 75.0487C178.547 75.7344 178.082 75.515 178.236 74.5814C178.623 72.2327 179.636 64.8108 179.639 64.3006C179.64 64.156 179.526 64.091 179.374 64.1492C179.228 64.2054 178.366 64.2618 177.46 64.2747C176.554 64.2877 175.705 64.3647 175.574 64.446C175.422 64.5402 175.325 65.057 175.306 65.8718C175.255 68.0184 174.811 68.529 172.42 69.1861C171.132 69.54 170.621 70.1095 170.621 71.1905C170.621 71.86 170.73 72.0538 171.542 72.8322C172.537 73.7869 172.632 74.0143 172.146 74.2869C171.923 74.4125 171.64 74.3639 171.18 74.1205C170.115 73.5579 169.534 72.7921 169.296 71.6387C169.095 70.6643 169.111 70.5349 169.539 69.6922C170.058 68.6729 170.897 68.1004 172.369 67.761C173.782 67.4352 173.934 67.2223 173.937 65.5633C173.939 64.7831 174.042 63.9411 174.167 63.6922C174.469 63.0925 175.049 62.9634 177.684 62.9097L179.896 62.8646L180.044 62.287C180.287 61.3352 180.566 61.2236 182.361 61.3589C183.244 61.4254 184.836 61.6593 185.899 61.8787C186.962 62.098 188.315 62.376 188.905 62.4964C190.314 62.7839 190.88 63.2007 192.335 65.0256C193.002 65.8617 193.692 66.6935 193.869 66.8741C195.01 68.0389 195.04 69.0784 194.106 74.9946C193.743 77.2945 193.446 79.4205 193.446 79.7192C193.446 80.1962 193.496 80.2467 193.86 80.1348C194.79 79.8488 195.667 79.2802 196.153 78.6482C197.3 77.1553 197.039 77.2609 198.724 77.6077C199.984 77.8671 200.393 77.8811 201.241 77.6937C205.742 76.7 206.57 70.328 202.562 67.5388C201.91 67.0854 201.849 66.9688 201.819 66.1226C201.735 63.6959 198.831 60.967 196.04 60.6927C195.054 60.5957 194.845 60.4981 194.132 59.8009C192.403 58.1085 189.912 57.4425 187.597 58.0533C186.64 58.3059 186.611 58.3012 185.497 57.711C184.385 57.1224 184.324 57.1123 181.773 57.0963L179.181 57.08L178.042 57.6997C177.415 58.0405 176.604 58.6448 176.24 59.0425C175.875 59.4403 175.411 59.7646 175.21 59.7634C174.597 59.7595 172.048 60.8348 171.283 61.4195C169.958 62.4322 168.802 64.2432 168.526 65.7386C168.429 66.2653 168.212 66.5666 167.623 66.9925C166.66 67.6894 165.925 68.6076 165.419 69.7484C164.899 70.9208 164.751 73.6924 165.155 74.6779C165.418 75.3179 165.411 75.4118 165.037 76.1675C164.713 76.8247 164.639 77.3027 164.639 78.7485C164.639 80.2874 164.705 80.6666 165.138 81.6058C166.14 83.7836 169.301 86.3921 170.355 85.9116C170.92 85.6538 171.109 84.8871 171.353 81.8725C171.615 78.6334 171.828 77.6565 172.468 76.7648C173.465 75.3737 176.115 73.5832 176.784 73.848C177.069 73.9606 177.098 74.1251 176.995 75.0478C176.752 77.2191 176.715 77.0526 177.432 77.0308C177.829 77.0186 178.64 76.6854 179.546 76.1617C180.354 75.6946 181.354 75.2629 181.768 75.2025C182.768 75.0567 183.76 75.4948 184.238 76.2922C184.663 77.0029 184.729 78.3443 184.374 79.0593C184.247 79.3153 183.279 80.109 182.222 80.8229C181.062 81.6078 180.164 82.3615 179.951 82.7291C179.758 83.0635 179.399 84.1106 179.154 85.0561C178.455 87.7537 177.794 88.956 176.403 90.0561C175.299 90.93 175.054 91.2808 175.342 91.5756C175.47 91.7064 175.88 91.6374 177.356 91.2365ZM187.924 74.2086C187.468 74.1181 186.205 73.9127 185.116 73.7522C182.933 73.4303 182.402 73.227 182.402 72.7127C182.402 71.9066 182.797 71.8627 185.863 72.3281C189.539 72.8859 189.949 73.0128 189.949 73.5923C189.949 74.0348 189.465 74.4426 188.994 74.3968C188.861 74.3838 188.379 74.2991 187.924 74.2086ZM197.016 70.8167C196.864 70.1981 197.447 69.5499 198.528 69.1379C199.934 68.6019 201.729 69.2067 201.729 70.2161C201.729 70.7432 201.286 70.8471 200.659 70.4672C199.99 70.062 199.095 70.1947 198.15 70.8391C197.308 71.4136 197.163 71.4107 197.016 70.8167ZM185.453 69.6167C183.641 69.3544 183.331 69.1971 183.325 68.5405C183.321 68.0278 183.755 67.9652 185.837 68.1785C188.044 68.4046 188.504 68.6593 188.145 69.457C187.906 69.9865 187.977 69.9823 185.453 69.6167ZM196.13 68.0082C195.471 67.3357 195.971 65.0896 196.854 64.7545C197.925 64.348 199.348 64.7308 199.109 65.3612C199.053 65.5103 198.676 65.7306 198.273 65.8508C197.39 66.1135 197.225 66.2972 196.956 67.3167C196.71 68.2498 196.521 68.4078 196.13 68.0082ZM180.283 79.5776C182.148 78.4856 182.733 77.9479 182.491 77.5494C182.43 77.4484 182.259 77.365 182.111 77.3641C181.551 77.3609 176.88 79.9956 176.88 80.3147C176.88 80.4055 177.007 80.6095 177.162 80.768C177.524 81.1377 177.797 81.0335 180.283 79.5776ZM193.313 68.6965C193.249 68.5197 192.695 67.7525 192.082 66.9916L190.967 65.6083L190.819 66.33C190.737 66.7269 190.694 67.3879 190.723 67.7991L190.777 68.5465L191.973 68.8583C193.287 69.2007 193.487 69.1765 193.313 68.6965ZM244.157 98.6095C240.255 97.2695 238.276 93.3141 239.374 89.0465C240.291 85.4801 243.176 83.5363 247.173 83.7927C250.481 84.0049 252.848 85.7028 253.849 88.583C254.325 89.9529 254.365 92.4237 253.936 93.9188C253.367 95.9029 251.648 97.7721 249.772 98.4479C248.655 98.85 245.152 98.9509 244.157 98.6095ZM248.578 95.6915C249.657 95.1837 250.251 94.4474 250.621 93.1583C251.237 91.0124 250.605 88.5474 249.167 87.4807C246.802 85.7278 243.674 86.6841 242.866 89.4068C242.334 91.1988 242.641 93.3573 243.616 94.6771C244.606 96.0179 246.892 96.4852 248.578 95.6915ZM259.927 98.6034C258.721 98.1732 257.669 97.1595 257.1 95.8797C256.691 94.9612 256.672 94.7039 256.616 89.4334L256.557 83.9438L257.145 84.0668C257.468 84.1345 258.257 84.1931 258.898 84.1972L260.063 84.2043L260.117 89.216L260.172 94.2276L260.702 94.9363C261.342 95.7906 262.156 96.1714 263.358 96.179C264.569 96.1869 265.754 95.5468 266.289 94.5957C266.685 93.8913 266.7 93.6899 266.703 88.9602L266.706 84.0553L268.409 84.1294L270.111 84.2035L270.16 91.5272L270.208 98.851L268.503 98.7865L266.798 98.7221L266.74 97.9017L266.682 97.0814L266.004 97.749C265.631 98.1162 264.963 98.5441 264.52 98.6998C263.411 99.0896 261.158 99.0424 259.927 98.6034ZM294.188 98.8267C292.302 98.1538 291.25 97.1471 290.32 95.1266C289.844 94.0919 289.807 93.8404 289.807 91.6758C289.807 89.4461 289.833 89.2856 290.385 88.1076C291.162 86.4484 292.086 85.4657 293.55 84.7436C294.68 84.1862 294.904 84.1433 296.614 84.154C298.712 84.1672 299.816 84.5502 300.774 85.5968L301.311 86.1842V82.2421V78.3L303.06 78.311L304.809 78.322V88.6883V99.0546L303.152 99.0442L301.495 99.0337V98.1932C301.495 97.731 301.447 97.3524 301.387 97.352C301.327 97.3517 300.937 97.6453 300.52 98.0045C300.104 98.3638 299.351 98.7793 298.847 98.9279C297.592 99.2981 295.374 99.2499 294.188 98.8267ZM299.024 96.0497C299.973 95.6179 300.853 94.5475 301.111 93.5094C301.578 91.6307 301.195 89.323 300.241 88.2587C298.389 86.1948 294.984 86.5589 293.717 88.9562C293.368 89.6152 293.304 90.0272 293.304 91.6044C293.304 93.6149 293.587 94.4853 294.53 95.3843C295.586 96.3907 297.613 96.6908 299.024 96.0497ZM311.859 98.9072C308.738 97.8581 306.991 94.8756 307.25 91.0416C307.534 86.8398 310.326 84.1512 314.38 84.1767C317.238 84.1947 319.346 85.4568 320.521 87.8531C321.039 88.9095 321.431 90.88 321.342 91.9803L321.283 92.7141L316.037 92.7189C310.131 92.7237 310.403 92.6468 310.968 94.1524C311.924 96.6974 315.259 97.439 317.809 95.6733L318.757 95.0165L319.698 95.7313C320.215 96.1244 320.639 96.5413 320.639 96.6578C320.639 96.9972 319.264 98.1544 318.206 98.7043C317.337 99.1565 317.008 99.2148 315.117 99.2509C313.393 99.2837 312.788 99.2197 311.859 98.9072ZM317.876 89.6042C317.388 87.874 316.198 86.985 314.355 86.9745C312.532 86.9641 311.364 87.862 310.802 89.7065L310.674 90.1259L314.355 90.1491L318.036 90.1722L317.876 89.6042ZM225.658 88.5711V78.5717L231.825 78.6104L237.991 78.6492V80.2368V81.8245L233.573 81.7967L229.156 81.7689V84.4772V87.1855L233.297 87.2116L237.439 87.2376V88.8252V90.4128L233.291 90.3867L229.143 90.3606L229.163 94.4232L229.184 98.4858L227.421 98.5282L225.658 98.5705V88.5711ZM273.699 98.7656C273.698 98.7142 273.696 95.4152 273.695 91.4345L273.693 84.1967L275.216 84.2093L276.739 84.2218L276.795 85.1202L276.852 86.0186L277.655 85.2721C278.736 84.2681 280.071 83.885 282.06 84.0083C284.442 84.1561 285.989 85.2423 286.802 87.3384C287.182 88.3179 287.215 88.7559 287.283 93.6678L287.356 98.9447L285.599 98.9337L283.843 98.9227L283.788 94.1128C283.738 89.7373 283.7 89.2363 283.365 88.5655C282.903 87.6398 282.25 87.1456 281.222 86.9441C279.563 86.6188 277.97 87.3376 277.365 88.684C277.06 89.3631 277.022 89.9686 277.019 94.1637L277.015 98.8798L275.358 98.8695C274.447 98.8639 273.7 98.817 273.699 98.7656ZM323.812 91.8428L323.86 84.512L325.471 84.508L327.081 84.504V85.5455V86.5869L327.772 85.8259C328.773 84.7219 329.52 84.3901 331.017 84.3838L332.284 84.3782L332.368 85.9196L332.453 87.4611L331 87.452C329.741 87.444 329.448 87.5081 328.796 87.933C327.436 88.8194 327.366 89.1254 327.3 94.4797L327.242 99.1955L325.503 99.1846L323.764 99.1737L323.812 91.8428ZM341.437 94.2442C343.26 91.4834 344.752 89.1769 344.752 89.1186C344.752 89.0604 344.364 88.4054 343.891 87.6631C341.213 83.4673 339.832 81.319 339.191 80.3529L338.472 79.2682L340.546 79.3342L342.62 79.4001L344.243 82.0252C345.135 83.469 346.083 85.051 346.35 85.5406C346.617 86.0302 346.889 86.4312 346.955 86.4316C347.02 86.432 348.052 84.8415 349.247 82.8972L351.421 79.362L353.335 79.3741L355.249 79.3861L354.757 80.1768C354.486 80.6118 353.874 81.5535 353.396 82.2696C352.035 84.3071 348.986 89.068 348.986 89.1555C348.986 89.1989 349.308 89.7223 349.702 90.3187C350.097 90.9151 351.589 93.1965 353.018 95.3885L355.617 99.3739L353.514 99.3606L351.412 99.3474L350.142 97.2381C347.465 92.7937 346.875 91.8479 346.782 91.8521C346.728 91.8545 345.662 93.5288 344.411 95.5728L342.138 99.2891L340.13 99.2765L338.122 99.2639L341.437 94.2442Z" fill="#F7F7F7"/>
</g>
</g>
<defs>
<filter id="filter1_f_32_1724" x="-77" y="-20" width="216" height="216" filterUnits="userSpaceOnUse" color-interpolation-filters="sRGB">
<feFlood flood-opacity="0" result="BackgroundImageFix"/>
<feBlend mode="normal" in="SourceGraphic" in2="BackgroundImageFix" result="shape"/>
<feGaussianBlur stdDeviation="10" result="effect1_foregroundBlur_32_1724"/>
</filter>
<filter id="filter2_f_32_1724" x="303" y="26" width="124" height="124" filterUnits="userSpaceOnUse" color-interpolation-filters="sRGB">
<feFlood flood-opacity="0" result="BackgroundImageFix"/>
<feBlend mode="normal" in="SourceGraphic" in2="BackgroundImageFix" result="shape"/>
<feGaussianBlur stdDeviation="10" result="effect1_foregroundBlur_32_1724"/>
</filter>
<filter id="filter3_f_32_1724" x="297" y="199" width="156" height="156" filterUnits="userSpaceOnUse" color-interpolation-filters="sRGB">
<feFlood flood-opacity="0" result="BackgroundImageFix"/>
<feBlend mode="normal" in="SourceGraphic" in2="BackgroundImageFix" result="shape"/>
<feGaussianBlur stdDeviation="10" result="effect1_foregroundBlur_32_1724"/>
</filter>
<filter id="filter4_f_32_1724" x="111" y="174" width="153" height="153" filterUnits="userSpaceOnUse" color-interpolation-filters="sRGB">
<feFlood flood-opacity="0" result="BackgroundImageFix"/>
<feBlend mode="normal" in="SourceGraphic" in2="BackgroundImageFix" result="shape"/>
<feGaussianBlur stdDeviation="10" result="effect1_foregroundBlur_32_1724"/>
</filter>
<filter id="filter5_f_32_1724" x="-118" y="217" width="153" height="153" filterUnits="userSpaceOnUse" color-interpolation-filters="sRGB">
<feFlood flood-opacity="0" result="BackgroundImageFix"/>
<feBlend mode="normal" in="SourceGraphic" in2="BackgroundImageFix" result="shape"/>
<feGaussianBlur stdDeviation="10" result="effect1_foregroundBlur_32_1724"/>
</filter>
<clipPath id="clip0_32_1724">
<rect width="375" height="387" fill="white"/>
</clipPath>
<clipPath id="clip1_32_1724">
<rect width="56" height="70" fill="white" transform="translate(160 53)"/>
</clipPath>
</defs>
</svg>
