<?xml version="1.0" encoding="UTF-8"?>
<svg version="1.1" xmlns="http://www.w3.org/2000/svg" width="100" height="100">
<path d="M0 0 C1.56035528 3.12071057 1.58596754 6.52089922 1.9375 9.953125 C2.02231628 10.75755539 2.10713257 11.56198578 2.19451904 12.39079285 C2.46817592 15.01002389 2.73472699 17.62990738 3 20.25 C3.09059692 21.13293732 3.18119385 22.01587463 3.27453613 22.92556763 C4.63821405 36.27837416 5.69524263 49.57543795 6 63 C2.68316792 63.73736012 -0.40978307 64.12912397 -3.8046875 64.17578125 C-17.70614542 64.48363604 -31.42671138 65.49628158 -45.25 66.9375 C-46.07739685 67.02295074 -46.9047937 67.10840149 -47.75726318 67.19644165 C-56.8772433 68.14494582 -65.95153666 69.20841199 -75.01074219 70.63500977 C-78.04978299 71.00607853 -80.94175197 71.13370763 -84 71 C-87.77847215 67.22152785 -86.12772541 54.75701917 -86.13891602 49.52563477 C-86.13432373 48.54780029 -86.12973145 47.56996582 -86.125 46.5625 C-86.12234131 45.51570068 -86.11968262 44.46890137 -86.11694336 43.39038086 C-86.06605831 34.61045625 -85.84477247 25.8374684 -85.5625 17.0625 C-85.52334473 15.79414307 -85.48418945 14.52578613 -85.44384766 13.21899414 C-85.40179199 12.04457764 -85.35973633 10.87016113 -85.31640625 9.66015625 C-85.27974854 8.61480713 -85.24309082 7.56945801 -85.20532227 6.49243164 C-85 4 -85 4 -84 2 C-82.78231934 1.97494385 -81.56463867 1.9498877 -80.31005859 1.92407227 C-74.664966 1.80688694 -69.01996524 1.68565982 -63.375 1.5625 C-61.85655487 1.52940231 -61.85655487 1.52940231 -60.30743408 1.49563599 C-48.49817507 1.23476905 -36.70191409 0.929846 -24.90527344 0.30712891 C-16.60344717 -0.11397822 -8.31006315 -0.09233403 0 0 Z M-32.73828125 5.4375 C-33.98506149 5.48189209 -35.23184174 5.52628418 -36.5164032 5.57202148 C-40.44851673 5.71251749 -44.38050597 5.85620246 -48.3125 6 C-50.99933206 6.09682716 -53.68618903 6.19295371 -56.37304688 6.2890625 C-62.91545386 6.52361518 -69.4577622 6.76077706 -76 7 C-75.06118982 8.10776291 -74.12056503 9.2139881 -73.17919922 10.31958008 C-72.65558807 10.93577713 -72.13197693 11.55197418 -71.59249878 12.18684387 C-69.25062353 14.85321041 -66.73542486 17.28690437 -64.125 19.6875 C-63.57980713 20.18934814 -63.03461426 20.69119629 -62.47290039 21.20825195 C-57.97296868 25.27061149 -53.26959914 29.02887906 -48.4375 32.6875 C-47.75896973 33.20465576 -47.08043945 33.72181152 -46.38134766 34.25463867 C-45.73858887 34.7313501 -45.09583008 35.20806152 -44.43359375 35.69921875 C-43.86697021 36.12033936 -43.30034668 36.54145996 -42.71655273 36.9753418 C-40.66829378 38.19800469 -39.4052381 38.88493983 -37 39 C-34.61951769 37.34901594 -34.61951769 37.34901594 -32.33203125 34.890625 C-31.43806641 33.98957031 -30.54410156 33.08851562 -29.62304688 32.16015625 C-28.92876587 31.44110107 -28.92876587 31.44110107 -28.22045898 30.70751953 C-26.84696969 29.28568303 -25.4539615 27.88278383 -24.06054688 26.48046875 C-13.92375556 16.58619637 -13.92375556 16.58619637 -6 5 C-14.92431626 4.94185625 -23.82041567 5.10679561 -32.73828125 5.4375 Z M-5 8 C-5.44988281 8.58265625 -5.89976563 9.1653125 -6.36328125 9.765625 C-11.48699312 16.29604734 -16.91196355 22.48273846 -22.60644531 28.51416016 C-23.97958212 29.97822999 -25.32986477 31.46362668 -26.6796875 32.94921875 C-27.52789062 33.85285156 -28.37609375 34.75648437 -29.25 35.6875 C-29.99765625 36.49574219 -30.7453125 37.30398437 -31.515625 38.13671875 C-34.64043196 40.48032397 -37.17262885 40.58338424 -41 41 C-41.495 41.99 -41.495 41.99 -42 43 C-42.99 43 -43.98 43 -45 43 C-44.67 41.68 -44.34 40.36 -44 39 C-44.99 38.67 -45.98 38.34 -47 38 C-47.99 38.99 -48.98 39.98 -50 41 C-49.67 39.02 -49.34 37.04 -49 35 C-49.99 35.33 -50.98 35.66 -52 36 C-52 36.66 -52 37.32 -52 38 C-52.99 38 -53.98 38 -55 38 C-54.67 35.69 -54.34 33.38 -54 31 C-54.66 31 -55.32 31 -56 31 C-56 31.66 -56 32.32 -56 33 C-56.99 33 -57.98 33 -59 33 C-58.67 31.35 -58.34 29.7 -58 28 C-58.66 28 -59.32 28 -60 28 C-60 28.66 -60 29.32 -60 30 C-60.99 30 -61.98 30 -63 30 C-62.67 28.35 -62.34 26.7 -62 25 C-62.66 24.67 -63.32 24.34 -64 24 C-64.33 24.99 -64.66 25.98 -65 27 C-65.66 27.33 -66.32 27.66 -67 28 C-66.67 25.69 -66.34 23.38 -66 21 C-66.66 20.67 -67.32 20.34 -68 20 C-68.33 21.65 -68.66 23.3 -69 25 C-69.99 25 -70.98 25 -72 25 C-71.34 22.69 -70.68 20.38 -70 18 C-70.99 18 -71.98 18 -73 18 C-73.33 18.99 -73.66 19.98 -74 21 C-74.99 21 -75.98 21 -77 21 C-76.01 18.69 -75.02 16.38 -74 14 C-75.98 12.35 -77.96 10.7 -80 9 C-80.33 21.21 -80.66 33.42 -81 46 C-80.34 46 -79.68 46 -79 46 C-79 46.66 -79 47.32 -79 48 C-79.99 48.495 -79.99 48.495 -81 49 C-80.67 49.99 -80.34 50.98 -80 52 C-79.34 52.33 -78.68 52.66 -78 53 C-78.99 53.99 -79.98 54.98 -81 56 C-80.34 56.33 -79.68 56.66 -79 57 C-77.515 56.505 -77.515 56.505 -76 56 C-76.495 56.763125 -76.99 57.52625 -77.5 58.3125 C-79.24368308 60.92363751 -79.24368308 60.92363751 -79 64 C-78.14277344 63.20335937 -77.28554687 62.40671875 -76.40234375 61.5859375 C-59.93786984 46.31262328 -59.93786984 46.31262328 -56 45 C-61.71692402 52.02537494 -68.26459665 57.98348207 -75 64 C-71.35264776 65.21578408 -69.12759506 64.79246299 -65.31640625 64.29296875 C-63.91583779 64.11698453 -62.51519957 63.94155482 -61.11450195 63.76660156 C-60.37285797 63.67189575 -59.63121399 63.57718994 -58.86709595 63.47961426 C-39.61704773 61.0396145 -20.37785693 59.84663046 -1 59 C-4.54532824 55.33159711 -8.26440616 52.61292661 -12.5 49.8125 C-13.16386719 49.36197266 -13.82773438 48.91144531 -14.51171875 48.44726562 C-15.15753906 48.01736328 -15.80335937 47.58746094 -16.46875 47.14453125 C-17.05076172 46.75628174 -17.63277344 46.36803223 -18.23242188 45.96801758 C-20.1351302 44.92599569 -21.8824206 44.43554494 -24 44 C-24 43.01 -24 42.02 -24 41 C-16.43029674 44.48761198 -9.7102202 48.39734251 -3.08203125 53.4609375 C-1.29749668 55.09907225 -1.29749668 55.09907225 0 55 C0.20227635 45.38983005 -0.39237312 35.99449129 -1.375 26.4375 C-1.50298986 25.08532291 -1.63059564 23.73310941 -1.7578125 22.38085938 C-1.88671875 21.09888672 -2.015625 19.81691406 -2.1484375 18.49609375 C-2.26364746 17.34294678 -2.37885742 16.1897998 -2.49755859 15.00170898 C-2.95884079 12.24589529 -3.58500423 10.38228659 -5 8 Z " fill="#000000" transform="translate(91,17)"/>
<path d="M0 0 C0 1.32 0 2.64 0 4 C-5.84236894 5.66924827 -11.33018273 6.24164101 -17.375 6.3125 C-18.07689453 6.32990234 -18.77878906 6.34730469 -19.50195312 6.36523438 C-24.53123436 6.36037517 -24.53123436 6.36037517 -26.9765625 4.48046875 C-27.31429687 3.99191406 -27.65203125 3.50335937 -28 3 C-27.67 2.34 -27.34 1.68 -27 1 C-24.18766245 0.8301069 -21.37518151 0.66401768 -18.5625 0.5 C-17.77939453 0.45230469 -16.99628906 0.40460937 -16.18945312 0.35546875 C-10.78341953 0.04401002 -5.41503945 -0.04336368 0 0 Z " fill="#000000" transform="translate(63,27)"/>
<path d="M0 0 C0.66 0 1.32 0 2 0 C2 1.32 2 2.64 2 4 C1.01 3.67 0.02 3.34 -1 3 C-0.67 2.01 -0.34 1.02 0 0 Z " fill="#000000" transform="translate(77,53)"/>
<path d="M0 0 C0.66 0.33 1.32 0.66 2 1 C2 1.99 2 2.98 2 4 C1.01 3.67 0.02 3.34 -1 3 C-0.67 2.01 -0.34 1.02 0 0 Z " fill="#000000" transform="translate(72,48)"/>
<path d="M0 0 C0.99 0 1.98 0 3 0 C3 0.99 3 1.98 3 3 C2.01 3 1.02 3 0 3 C0 2.01 0 1.02 0 0 Z " fill="#000000" transform="translate(77,43)"/>
</svg>
