<svg width="24" height="25" viewBox="0 0 24 25" fill="none" xmlns="http://www.w3.org/2000/svg">
<g clip-path="url(#clip0_320_3416)">
<path d="M18.47 19.3808C23.3226 16.8557 25.2095 10.8749 22.6844 6.02232C20.1594 1.1697 14.1786 -0.717169 9.326 1.80788C4.47338 4.33293 2.58651 10.3137 5.11155 15.1663C7.6366 20.019 13.6174 21.9058 18.47 19.3808Z" fill="#7AD2FA"/>
<path d="M18.6517 19.2834C23.447 16.6631 25.2142 10.6396 22.5892 5.84434C21.5438 3.93652 19.9595 2.50215 18.1267 1.63965C18.8157 2.31465 19.4251 3.10215 19.9126 3.99277C22.5329 8.78809 20.7704 14.8115 15.9751 17.4318C13.0876 19.0068 9.76416 18.9975 6.99854 17.6943C10.0313 20.6475 14.7423 21.4162 18.6517 19.2834Z" fill="#4BC3F7"/>
<path d="M9.67022 19.5452C8.98116 18.8702 8.37178 18.0827 7.88428 17.1921C5.26397 12.3968 7.02647 6.37335 11.8218 3.75304C14.7093 2.17804 18.0327 2.18741 20.7983 3.49054C17.7655 0.53741 13.0546 -0.23134 9.14991 1.90616C4.35459 4.52647 2.58741 10.5499 5.21241 15.3452C6.25772 17.253 7.84209 18.6827 9.67022 19.5452Z" fill="#A5E1FB"/>
<path d="M14.4048 11.2491C13.7439 11.9944 13.7814 13.2788 14.5126 13.9913C14.8407 14.3194 15.2907 14.5163 15.6236 14.8585C15.9611 15.196 16.1486 15.7678 15.872 16.1381C15.5626 16.5178 14.9486 16.4428 14.4986 16.246C14.0486 16.0491 13.5845 15.7725 13.097 15.8522C12.4501 15.96 12.0845 16.7522 12.2486 17.3897C12.4079 18.0178 12.9517 18.4866 13.5517 18.7819C14.1329 19.0725 14.7751 19.2319 15.3798 19.471C15.7595 19.6303 16.1486 19.8553 16.3642 20.1881C16.6736 20.1038 16.9876 20.01 17.297 19.8975C19.2282 19.1897 20.8032 17.9522 21.9142 16.4006C21.6423 16.1241 21.2767 15.8944 20.9626 15.7116C20.4892 15.4116 19.9595 15.1866 19.4251 15.0319C19.022 14.9288 18.6189 14.8491 18.2486 14.6475C17.5032 14.2397 17.1048 13.2694 17.3673 12.4538C17.4376 12.196 17.5829 11.9428 17.5548 11.6756C17.5267 11.4085 17.3486 11.1835 17.1282 11.01C16.3501 10.3819 15.0751 10.485 14.4048 11.2491Z" fill="#7BDE9E"/>
<path d="M16.3688 20.1877C16.6781 20.1033 16.9922 20.0096 17.3016 19.8971C19.2328 19.1893 20.8078 17.9518 21.9187 16.4002C21.6469 16.1236 21.2812 15.8939 20.9719 15.7158C20.4984 15.4158 19.9687 15.1908 19.4344 15.0361C19.2797 14.9986 19.1297 14.9611 18.9797 14.9189C18.1828 15.9221 17.175 16.7893 15.9797 17.4408C15.0375 17.9564 14.0531 18.2986 13.0547 18.4861C13.2094 18.6033 13.3828 18.7018 13.5563 18.7908C14.1375 19.0814 14.7797 19.2408 15.3844 19.4799C15.7688 19.6346 16.1531 19.8596 16.3688 20.1877Z" fill="#51D27F"/>
<path d="M17.2076 1.25977C17.1842 1.38633 17.1513 1.51758 17.0998 1.63945C16.9076 2.10352 16.5232 2.45508 16.1482 2.79258C15.7779 3.12539 15.3888 3.48164 15.2107 3.95039C15.0326 4.41914 15.131 5.0332 15.5623 5.2957C16.2888 5.72695 17.2732 4.88789 18.0373 5.25352C18.3092 5.83945 17.4982 6.56602 17.8357 7.11914C18.0373 7.45195 18.5154 7.46133 18.8998 7.3957C19.2842 7.32539 19.7248 7.23633 20.0295 7.48008C20.3529 7.72852 20.3482 8.22539 20.2123 8.60977C20.0717 8.99414 19.8232 9.34102 19.7482 9.74414C19.617 10.4145 20.0013 11.127 20.5779 11.4926C21.1545 11.8629 21.8857 11.9379 22.5654 11.8348C22.9404 11.7785 23.3435 11.6895 23.7513 11.5629C23.7607 11.502 23.7654 11.441 23.7701 11.3754C24.131 6.80508 21.3326 2.71758 17.2076 1.25977Z" fill="#7BDE9E"/>
<path d="M22.57 11.835C22.945 11.774 23.3481 11.6896 23.756 11.5631C23.7653 11.5021 23.77 11.4365 23.7747 11.3756C24.0185 8.31465 22.8372 5.46465 20.7935 3.48184C20.7935 3.48184 20.7935 3.48184 20.7888 3.48184C20.2825 3.24277 19.7575 3.05059 19.2231 2.90527C19.4763 3.25215 19.7106 3.61309 19.9169 3.99746C21.2388 6.41152 21.445 9.13027 20.7138 11.5771C21.2669 11.8771 21.9419 11.9334 22.57 11.835Z" fill="#51D27F"/>
<path d="M12.328 0.819336C8.65771 1.40527 5.52178 4.04902 4.41553 7.74277C4.54209 7.70996 4.66865 7.67715 4.79522 7.66309C5.74678 7.52246 6.76396 7.98652 7.2749 8.80684C7.3874 8.98496 7.48115 9.18184 7.6124 9.35058C7.99209 9.8334 8.71396 10.0162 9.27178 9.76777C9.83428 9.51465 10.1858 8.86308 10.078 8.2584C10.0077 7.83184 9.74521 7.4709 9.55303 7.08652C9.36553 6.70215 9.25771 6.21934 9.4874 5.8584C9.69834 5.52559 10.139 5.39902 10.5327 5.41309C10.9265 5.43184 11.3108 5.5584 11.7046 5.60996C12.0983 5.65684 12.5343 5.60996 12.8202 5.3334C13.1249 5.03809 13.1718 4.55527 13.0687 4.14277C12.9702 3.73496 12.7499 3.35996 12.5905 2.96621C12.3702 2.42715 12.2718 1.84121 12.2858 1.25996C12.2952 1.10527 12.3093 0.959961 12.328 0.819336Z" fill="#7BDE9E"/>
<path d="M7.33135 8.8959C8.14228 6.77715 9.67979 4.92559 11.8267 3.75371C12.1313 3.58965 12.436 3.43965 12.7501 3.31309C12.6985 3.1959 12.6423 3.0834 12.5954 2.96152C12.3751 2.42246 12.2813 1.83652 12.2954 1.25527C12.3001 1.10996 12.3095 0.959961 12.3329 0.819336C8.6626 1.40996 5.52666 4.05371 4.42041 7.74746C4.54697 7.71465 4.67354 7.68184 4.8001 7.66777C5.75166 7.52715 6.76885 7.9959 7.27979 8.81152C7.29385 8.83496 7.3126 8.86309 7.33135 8.8959Z" fill="#A7EABF"/>
<path d="M5.47002 19.5832L3.12158 23.5395C2.64346 24.341 1.57939 24.5566 0.829395 23.9988C0.40752 23.6895 0.191895 23.2113 0.191895 22.7332C0.191895 22.3535 0.327832 21.9738 0.604395 21.6691L3.70752 18.2754L5.47002 19.5832Z" fill="#FBB381"/>
<path d="M5.47041 19.5828L3.12197 23.5391C2.64385 24.3406 1.57979 24.5562 0.829785 23.9984C0.454785 23.7266 0.243848 23.3187 0.20166 22.8969C0.23916 22.9297 0.281348 22.9672 0.323535 22.9953C1.07354 23.5531 2.1376 23.3375 2.61572 22.5359L4.70635 19.0156L5.47041 19.5828Z" fill="#FA9957"/>
<path d="M4.37816 16.1328L3.28128 17.6094C3.15472 17.7828 3.19222 18.0219 3.36097 18.1484L5.65316 19.85C5.82659 19.9766 6.06566 19.9391 6.19222 19.7703L7.28441 18.2938L4.37816 16.1328Z" fill="#D3D8D9"/>
<path d="M4.16253 18.725L4.15316 18.7203C3.97972 18.5938 3.94691 18.35 4.07347 18.1766L5.15628 16.7141L4.36878 16.1328L3.28128 17.6094C3.15472 17.7828 3.19222 18.0266 3.36097 18.1531L4.15316 18.7391C4.15784 18.7344 4.16253 18.7297 4.16253 18.725Z" fill="#EDEDED"/>
<path d="M4.82354 19.1945L4.83291 19.1992C4.99697 19.3352 5.24072 19.3117 5.37666 19.1477L6.53916 17.7461L7.29385 18.3695L6.12197 19.7852C5.98604 19.9492 5.7376 19.9727 5.57822 19.8367L4.81885 19.2086C4.81885 19.2039 4.81885 19.1992 4.82354 19.1945Z" fill="#A8B1B3"/>
<path d="M12.267 8.52089C9.71701 6.62714 6.11701 7.16151 4.22795 9.7162C2.33889 12.2662 2.87326 15.8662 5.42326 17.7599C7.97326 19.649 11.5733 19.1146 13.4623 16.5646C15.3561 14.0099 14.817 10.4146 12.267 8.52089ZM12.3045 15.7068C10.8889 17.6146 8.18889 18.0131 6.28108 16.6021C4.37326 15.1865 3.97014 12.4865 5.38576 10.5787C6.80139 8.67089 9.50607 8.27245 11.4092 9.68339C13.317 11.0943 13.7201 13.7943 12.3045 15.7068Z" fill="#FB8A8A"/>
<path d="M22.7531 5.75513C20.0765 0.861379 13.9546 -0.933933 9.06088 1.73794C5.96713 3.43013 4.04994 6.52857 3.82963 9.96919C2.55463 11.9848 2.63901 14.5348 3.91401 16.4426L3.13119 17.4973C2.94369 17.7504 2.99526 18.1114 3.24838 18.2989L3.35619 18.3786L0.468694 21.5473C-0.225056 22.3067 -0.135994 23.5161 0.721819 24.1489C1.55619 24.7723 2.75151 24.5333 3.28588 23.6333L5.47494 19.9442L5.54526 19.9958C5.79838 20.1833 6.15932 20.1317 6.34682 19.8786L7.13432 18.8192C7.55151 18.9458 7.97807 19.0254 8.40463 19.0536C11.4187 21.0083 15.3609 21.2895 18.7406 19.4473C21.1031 18.1536 22.8234 16.0208 23.5828 13.4333C24.3374 10.8458 24.0468 8.11763 22.7531 5.75513ZM9.23901 2.07075C10.1531 1.57388 11.1187 1.227 12.1124 1.0395C12.0609 1.68169 12.1593 2.39419 12.4171 3.03169C12.5765 3.43013 12.7921 3.79575 12.8859 4.18482C13.0828 5.00044 12.6562 5.5395 11.7281 5.42232C11.3437 5.37544 10.9546 5.24419 10.5421 5.22544C9.41244 5.17388 8.79838 6.05982 9.41713 7.227C8.39057 7.12857 7.32651 7.302 6.35619 7.74732C5.84526 7.49419 5.28276 7.39107 4.69213 7.4895C5.47494 5.16919 7.07807 3.252 9.23901 2.07075ZM4.56557 7.902C4.99213 7.79888 5.43276 7.7895 5.92963 7.96763C5.29682 8.32388 4.73432 8.79263 4.26557 9.36919C4.32651 8.877 4.42494 8.38482 4.56557 7.902ZM2.96244 23.4458C2.54526 24.1489 1.60307 24.3458 0.942131 23.8536C0.262444 23.3473 0.206194 22.3911 0.745256 21.8004L3.66088 18.6036L5.16557 19.7192L2.96244 23.4458ZM6.04682 19.6583C5.98119 19.7473 5.85463 19.7661 5.76557 19.7004L3.47338 17.9989C3.38432 17.9333 3.36557 17.8067 3.43119 17.7176L4.14369 16.7567C4.47182 17.1833 4.86088 17.5676 5.31088 17.9051C5.76557 18.2426 6.25307 18.5051 6.75932 18.6926L6.04682 19.6583ZM5.53588 17.6051C3.07494 15.777 2.55463 12.2895 4.37807 9.82388C6.20619 7.35357 9.68432 6.83794 12.1593 8.67075C13.3499 9.55669 14.1281 10.8504 14.3484 12.3176C14.5687 13.7848 14.1984 15.252 13.3124 16.4473C11.489 18.9129 7.99682 19.4333 5.53588 17.6051ZM14.6578 14.3567C14.7515 14.427 14.8499 14.4973 14.9484 14.5629C15.1453 14.6989 15.3374 14.8254 15.4968 14.9895C15.7734 15.2661 15.9374 15.7442 15.7312 16.0208C15.4312 16.3911 14.7937 16.1801 14.3624 15.9786C14.2828 15.9411 14.2031 15.9036 14.1187 15.8708C14.3671 15.3879 14.5453 14.877 14.6578 14.3567ZM9.15463 19.0629C10.2749 19.002 11.3718 18.627 12.3046 17.9614C12.5484 18.3458 12.9468 18.6879 13.4718 18.9504C14.414 19.4239 15.4406 19.5317 16.0218 20.0708C13.664 20.6004 11.2171 20.2161 9.15463 19.0629ZM18.5578 19.1192C17.8734 19.4942 17.1609 19.7754 16.439 19.9676C15.8343 19.2129 14.6249 19.1098 13.6406 18.6129C13.3406 18.4629 12.8765 18.1723 12.6046 17.7317C12.9749 17.427 13.3171 17.0754 13.6124 16.6723C13.7296 16.5176 13.8328 16.3583 13.9312 16.1942C14.0203 16.2317 14.1093 16.2692 14.1984 16.3114C14.8218 16.602 15.5859 16.7754 16.0218 16.2458C16.3734 15.7817 16.1484 15.1114 15.7593 14.7223C15.5765 14.5348 15.3609 14.3895 15.1546 14.2489C14.9999 14.1458 14.8593 14.0426 14.7281 13.9254C14.7984 13.3817 14.7984 12.8239 14.714 12.2661C14.6718 11.9708 14.6062 11.6801 14.5171 11.3989C14.5265 11.3895 14.5312 11.3801 14.5406 11.3708C15.1406 10.6864 16.3031 10.5833 17.0203 11.1504C17.4703 11.5067 17.414 11.7692 17.2781 12.1489C16.8468 13.3536 17.3671 14.3708 18.1687 14.8067C18.9421 15.2286 19.6312 15.0786 20.8734 15.8661C21.1546 16.0301 21.4359 16.2129 21.6703 16.4192C20.8499 17.5208 19.7953 18.4395 18.5578 19.1192ZM23.2218 13.3254C22.9265 14.3379 22.4718 15.2754 21.8906 16.1192C21.6374 15.9036 21.3468 15.7161 21.0703 15.552C19.7953 14.7411 19.0453 14.8583 18.3515 14.4833C17.7093 14.1317 17.2687 13.2879 17.6343 12.2801C17.8171 11.7692 17.8499 11.3286 17.2593 10.8598C16.439 10.2129 15.1406 10.2926 14.3859 11.0051C13.9874 9.9645 13.3031 9.05513 12.3843 8.37544C11.6296 7.81763 10.7765 7.452 9.88119 7.29732C9.82963 7.19888 9.77338 7.10513 9.72651 7.00669C9.29057 6.10669 9.70776 5.57232 10.5281 5.60513C10.8984 5.62388 11.2921 5.75044 11.6859 5.802C12.8906 5.952 13.5093 5.15982 13.2562 4.10513C13.1484 3.67388 12.9281 3.29419 12.7734 2.90044C12.539 2.32388 12.4359 1.64419 12.5015 0.987942C14.0203 0.767629 15.5156 0.898879 16.9921 1.39575C16.8468 1.92075 16.4437 2.29107 16.0312 2.66138C15.6796 2.97544 15.2437 3.3645 15.0421 3.89419C14.7984 4.53638 14.8828 5.9895 16.8703 5.48325C18.0281 5.18794 18.0421 5.37544 17.7515 6.12075C17.2734 7.3395 17.9484 7.76138 18.9374 7.59263C18.9609 7.59732 20.5218 7.23169 20.039 8.55825C19.8984 8.93325 19.6499 9.28482 19.5656 9.72075C19.4249 10.4333 19.7999 11.2348 20.4796 11.6614C20.9062 11.9333 21.4359 12.0739 22.0171 12.0739C22.2046 12.0739 22.4015 12.0598 22.5984 12.027C22.9171 11.9801 23.2312 11.9098 23.5359 11.8254C23.4703 12.327 23.3671 12.8286 23.2218 13.3254ZM22.5374 11.652C21.8249 11.7598 21.164 11.652 20.6765 11.3379C20.1234 10.9864 19.8187 10.3489 19.9265 9.78169C19.9968 9.41138 20.2359 9.06919 20.3812 8.67544C21.0656 6.777 18.8812 7.21763 18.8624 7.21294C17.9624 7.36763 17.7796 7.03482 18.089 6.24732C18.5812 4.98638 18.0796 4.77544 16.7671 5.11294C15.3703 5.46919 15.1265 4.68169 15.3796 4.02075C15.5484 3.57544 15.9468 3.21919 16.2656 2.93325C16.7343 2.51607 17.1703 2.10825 17.3437 1.51294C19.514 2.33325 21.2999 3.88013 22.4249 5.93325C23.3531 7.63482 23.7468 9.52857 23.5828 11.4176C23.2406 11.5161 22.8937 11.5958 22.5374 11.652Z" fill="#333333"/>
<path d="M12.4546 15.8148C13.1671 14.8539 13.4624 13.6679 13.289 12.4773C13.1109 11.2867 12.4827 10.2413 11.5218 9.52885C9.52961 8.05229 6.71242 8.46947 5.23586 10.4617C4.52336 11.4226 4.22805 12.6085 4.40149 13.7992C4.57961 14.9898 5.20774 16.0351 6.16868 16.7476C8.15618 18.2195 10.9781 17.8117 12.4546 15.8148ZM6.39368 16.4476C5.51243 15.7914 4.93586 14.8351 4.7718 13.7429C4.60774 12.6554 4.87961 11.5679 5.53586 10.6867C6.89055 8.86322 9.47336 8.47885 11.2968 9.83354C12.1781 10.4898 12.7546 11.446 12.9187 12.5382C13.0827 13.6257 12.8109 14.7132 12.1546 15.5945C10.7999 17.4179 8.2218 17.8023 6.39368 16.4476Z" fill="#333333"/>
<path d="M12.1127 15.9427C13.6615 14.1369 13.4532 11.4175 11.6474 9.86864C9.84168 8.31982 7.12225 8.52812 5.57343 10.3339C4.02461 12.1397 4.23291 14.8591 6.03867 16.4079C7.84444 17.9567 10.5639 17.7484 12.1127 15.9427Z" fill="#7AD2FA"/>
<g opacity="0.4">
<path d="M12.1265 10.3484L9.44053 17.4031C8.84053 17.4875 8.21709 17.4453 7.62646 17.2672L10.6827 9.24219C10.9358 9.35938 11.1796 9.50469 11.414 9.67813C11.6765 9.87969 11.9155 10.1047 12.1265 10.3484Z" fill="white"/>
<path d="M9.82002 8.94248L6.78252 16.9159C6.61377 16.8222 6.44502 16.7143 6.28565 16.5972C4.37784 15.1815 3.97471 12.4815 5.39034 10.5737C6.43565 9.1581 8.19815 8.57216 9.82002 8.94248Z" fill="white"/>
</g>
<path d="M6.16869 16.7522C4.17651 15.2756 3.75932 12.4537 5.23588 10.4662C6.71244 8.47872 9.52494 8.05216 11.5218 9.53341C12.4828 10.2459 13.1109 11.2959 13.289 12.4818C13.4671 13.6678 13.1718 14.8537 12.4546 15.8193C10.9781 17.8068 8.16088 18.2287 6.16869 16.7522ZM6.39369 16.4475C8.21713 17.8022 10.7999 17.4178 12.1546 15.5897C12.8109 14.7084 13.0781 13.6209 12.9187 12.5334C12.7546 11.4459 12.1828 10.485 11.2968 9.82872C9.47338 8.47404 6.89057 8.85841 5.53588 10.6865C4.18119 12.51 4.56557 15.0975 6.39369 16.4475Z" fill="#333333"/>
</g>
<defs>
<clipPath id="clip0_320_3416">
<rect width="24" height="24" fill="white" transform="translate(0 0.5)"/>
</clipPath>
</defs>
</svg>
