<svg width="24" height="25" viewBox="0 0 24 25" fill="none" xmlns="http://www.w3.org/2000/svg">
<g clip-path="url(#clip0_320_3270)">
<path d="M0 2.5166V2.71015V13.9747L1.70323 15.0585L6.89032 6.8908L0 2.5166Z" fill="#05365B"/>
<path d="M24.0002 2.71015V2.5166L17.1099 6.8908L22.297 15.0585L24.0002 13.9747V2.71015Z" fill="#008C61"/>
<path d="M19.5482 16.7235C21.0192 15.7945 21.4063 13.7816 20.3998 12.2332L19.1611 10.2977C18.1547 8.7493 16.1805 8.24607 14.7095 9.1751L10.2966 11.9622C8.82562 12.8912 8.43852 14.9041 9.44498 16.4525L10.6837 18.388C11.6901 19.9364 13.6643 20.4396 15.1353 19.5106L19.5482 16.7235Z" fill="#E29D81"/>
<path d="M19.0063 17.0723C19.5482 16.7239 19.7031 15.9885 19.3547 15.4465C19.0063 14.9046 18.2708 14.7497 17.7289 15.0981L9.59984 20.2465C9.05791 20.5949 8.90307 21.3304 9.25145 21.8723C9.59984 22.4143 10.3353 22.5691 10.8773 22.2207L19.0063 17.0723Z" fill="#E29D81"/>
<path d="M9.48389 16.4517L10.7226 18.3872C11.729 19.9356 13.7032 20.4388 15.1742 19.5098L19.5871 16.7227C21.0581 15.7936 21.4452 13.7807 20.4387 12.2324L19.2 10.2969" fill="#D3856A"/>
<path d="M13.9741 15.1749C14.516 14.8265 14.6708 14.091 14.3225 13.5491C13.9741 13.0071 13.2386 12.8523 12.6966 13.2007L4.56761 18.3878C4.02568 18.7362 3.87084 19.4716 4.21923 20.0136C4.56761 20.5555 5.3031 20.7103 5.84503 20.362L13.9741 15.1749Z" fill="#E29D81"/>
<path d="M15.6772 16.7237C16.2191 16.3753 16.374 15.6398 16.0256 15.0979C15.6772 14.556 14.9417 14.4011 14.3998 14.7495L6.27074 19.9366C5.7288 20.285 5.57396 21.0205 5.92235 21.5624C6.27074 22.1043 7.00622 22.2592 7.54816 21.9108L15.6772 16.7237Z" fill="#E29D81"/>
<path d="M13.9355 12.504C14.4774 12.1556 14.6323 11.4201 14.2839 10.8782C13.9355 10.3362 13.2 10.1814 12.6581 10.5298L4.52904 15.7169C3.9871 16.0653 3.83227 16.8007 4.18065 17.3427C4.52904 17.8846 5.26452 18.0395 5.80646 17.6911L13.9355 12.504Z" fill="#E29D81"/>
<path d="M15.5612 8.78809C15.5612 8.78809 10.9934 9.44615 10.6063 9.56228C10.2579 9.67841 9.17407 12.3107 10.4128 12.6203C11.6902 12.93 13.7031 11.3042 13.7031 11.3042L15.5612 8.78809Z" fill="#E29D81"/>
<path d="M17.886 7.33491L16.6772 8.10352L21.1641 15.16L22.3729 14.3914L17.886 7.33491Z" fill="white"/>
<path d="M17.8841 7.35547L16.6841 8.12966L21.1744 15.1748" fill="#DFE2E5"/>
<path d="M24.0002 2.5166L17.1099 6.8908L22.297 15.0585" fill="#006D49"/>
<path d="M19.432 18.349L18.6965 17.8845C19.1223 17.9232 19.5869 17.7296 19.8191 17.3425C20.1675 16.8006 20.0127 16.0651 19.4707 15.7167L14.0514 12.2716C14.4385 11.4587 13.6643 9.71672 13.3933 9.60059C13.0449 9.48447 8.86428 8.90382 8.47718 8.8264C7.16105 8.4393 5.65137 9.01995 4.83847 10.2974L3.59976 12.2329C2.59331 13.7812 2.98041 15.7941 4.45137 16.7232L4.79976 16.9554C4.83847 16.9941 4.91589 17.0716 4.99331 17.1103L13.1223 22.2974C13.6643 22.6458 14.3998 22.4909 14.7481 21.949C14.9417 21.6393 14.9804 21.2909 14.8643 20.9812L16.4127 21.9877C16.9546 22.3361 17.6901 22.1812 18.0385 21.6393C18.3094 21.2522 18.2707 20.749 18.0385 20.4006L18.1159 20.4393C18.6578 20.7877 19.3933 20.6329 19.7417 20.0909C20.1675 19.4329 20.0127 18.6974 19.432 18.349Z" fill="#F9BDA0"/>
<path d="M13.5098 21.8334C13.2776 21.6785 13.2001 21.4076 13.355 21.1753L13.5098 20.9043C13.6646 20.6721 13.9356 20.5947 14.1679 20.7495C14.4001 20.9043 14.4776 21.1753 14.3227 21.4076L14.1679 21.6785C14.0517 21.9108 13.7421 21.9882 13.5098 21.8334Z" fill="#FFE4C7"/>
<path d="M18.542 19.9359C18.3098 19.7811 18.2324 19.5101 18.3872 19.2778L18.542 19.0069C18.6969 18.7746 18.9678 18.6972 19.2001 18.852C19.4324 19.0069 19.5098 19.2778 19.3549 19.5101L19.2001 19.7811C19.084 20.0133 18.7743 20.0908 18.542 19.9359Z" fill="#FFE4C7"/>
<path d="M16.8389 21.4847C16.6067 21.3299 16.5292 21.0589 16.6841 20.8267L16.8389 20.5557C16.9937 20.3234 17.2647 20.246 17.497 20.4009C17.7292 20.5557 17.8067 20.8267 17.6518 21.0589L17.497 21.3299C17.3421 21.5622 17.0712 21.6396 16.8389 21.4847Z" fill="#FFE4C7"/>
<path d="M18.5806 17.3041C18.3484 17.1492 18.2709 16.8783 18.4258 16.646L18.5806 16.375C18.7354 16.1428 19.0064 16.0654 19.2387 16.2202C19.4709 16.375 19.5484 16.646 19.3935 16.8783L19.2774 17.1492C19.1225 17.3815 18.8129 17.4202 18.5806 17.3041Z" fill="#FFE4C7"/>
<path d="M1.61798 14.4084L2.82666 15.1768L7.31249 8.12067L6.10381 7.35226L1.61798 14.4084Z" fill="white"/>
<path d="M6.11601 7.35547L7.31601 8.12966L2.82568 15.1748" fill="#DFE2E5"/>
<path d="M0 2.5166L6.89032 6.8908L1.70323 15.0585" fill="#00263D"/>
<path d="M2.70947 9.94889C2.47721 10.336 1.97399 10.4134 1.6256 10.1811C1.2385 9.94889 1.16108 9.44566 1.39334 9.09728C1.6256 8.71018 2.12882 8.63276 2.47721 8.86502C2.8256 9.09728 2.94173 9.6005 2.70947 9.94889Z" fill="#FFC114"/>
<path d="M19.4709 15.678L14.0515 12.2329C14.4386 11.42 13.6644 9.67803 13.3935 9.5619C13.2386 9.48448 12.1547 9.32964 11.0322 9.1748L9.79346 13.0458L19.9741 16.2974C19.8967 16.0651 19.7418 15.8329 19.4709 15.678Z" fill="#E8AB92"/>
<path d="M14.3227 9.83314C14.6711 10.4138 14.8259 11.9235 14.3614 12.1944L10.4517 13.046C9.9872 13.317 9.36785 13.046 9.01946 12.5041C8.67108 11.9235 8.7872 11.2654 9.25172 10.9944L12.0388 9.36862C12.5033 9.09765 13.9356 9.17507 14.284 9.71701L14.3227 9.83314Z" fill="#E29D81"/>
</g>
<defs>
<clipPath id="clip0_320_3270">
<rect width="24" height="24" fill="white" transform="translate(0 0.5)"/>
</clipPath>
</defs>
</svg>
