<svg width="24" height="25" viewBox="0 0 24 25" fill="none" xmlns="http://www.w3.org/2000/svg">
<g clip-path="url(#clip0_320_3152)">
<path d="M21.5696 9.24765C21.5696 9.24765 17.9339 7.27817 15.3243 8.20322C13.7247 8.77012 12.8868 10.5257 13.4515 12.1261C14.0206 13.7242 15.777 14.5599 17.3773 13.993C19.9862 13.0679 21.5696 9.24765 21.5696 9.24765Z" fill="#A0D468"/>
<path d="M17.9638 9.90552C17.9053 9.89525 17.8474 9.896 17.7925 9.90552C17.7266 9.91649 16.1709 10.1889 14.457 11.1133C13.7202 11.5095 13.0647 11.9687 12.5 12.4807V8.70801H11.4999V13.5669C10.8539 14.4157 10.4097 15.3708 10.1782 16.4145L11.1545 16.6306C11.3633 15.6901 11.7723 14.831 12.3725 14.0722H12.5V13.9163C12.5425 13.8657 12.5857 13.8159 12.63 13.7661C13.2317 13.0915 13.9978 12.4997 14.906 12.0068C16.4785 11.1536 17.9462 10.8936 17.9609 10.8906C18.163 10.8555 18.3308 10.6987 18.3688 10.4856C18.4172 10.2131 18.2356 9.95381 17.9638 9.90552Z" fill="#8CC153"/>
<path d="M5.07422 19.5462C5.07422 19.5462 8.72244 13.5338 12 13.5001C15.2775 13.4657 18.9258 19.5462 18.9258 19.5462H5.07422Z" fill="#434A54"/>
<path d="M21.1354 17.7336C20.9787 17.7211 20.8066 17.7153 20.6177 17.7153C19.3872 17.7153 17.4712 17.9775 14.8454 18.4404C14.5188 17.5087 12.4431 17.1 12.4431 17.1C12.4431 17.1 7.96326 16.8562 5.10389 16.7002C4.9215 16.6899 4.74498 16.6855 4.57506 16.6855C0.787352 16.6848 0 19.0491 0 19.0491V21.4983C0.00145346 22.9023 4.32896 23.5908 4.34363 23.593C7.78125 24.2719 12.0063 24.4998 12.0063 24.4998C12.0063 24.4998 23.584 19.9507 23.8879 19.6848C24.1919 19.4196 24.0585 17.968 21.1354 17.7336Z" fill="#EAC6BB"/>
<path d="M18.0898 17.9258C17.1801 18.0467 16.1196 18.2166 14.9074 18.4297C14.7529 18.4986 14.594 18.5689 14.4306 18.6384C11.2534 19.9941 9.00637 20.2784 7.68105 20.2784C7.40494 20.2784 7.18115 20.5024 7.18115 20.7786C7.18115 21.0547 7.40489 21.2781 7.68105 21.2781C9.74866 21.2781 12.1569 20.6973 14.8386 19.5518C16.4602 18.8582 17.6701 18.1726 18.0898 17.9258Z" fill="#DBADA2"/>
<path d="M15.1624 3.99949C14.6007 2.81736 13.3959 2 11.9999 2C10.6039 2 9.3987 2.81741 8.83692 3.99949H8.5V5.4995C8.5 7.43237 10.067 8.99971 11.9999 8.99971C13.9327 8.99971 15.5001 7.43232 15.5001 5.4995V3.99949H15.1624Z" fill="#F6BB42"/>
<path d="M15.5001 3.99946C15.5001 5.93232 13.9326 7.49971 11.9999 7.49971C10.067 7.49971 8.5 5.93227 8.5 3.99946C8.5 2.06664 10.067 0.5 11.9999 0.5C13.9327 0.5 15.5001 2.06664 15.5001 3.99946Z" fill="#FFCE54"/>
<path d="M12.5001 2.99936H12.4994C12.4994 2.72836 12.2836 2.50575 12.0116 2.49914C11.7355 2.49328 11.5066 2.71153 11.5 2.98764C11.5 2.9913 11.5004 2.99496 11.5004 2.99936H11.5V4.9996H11.5004C11.5004 5.2699 11.7161 5.49256 11.9882 5.49912C12.2643 5.50573 12.4932 5.28673 12.4997 5.01057C12.4997 5.00691 12.4994 5.00326 12.4994 4.9996H12.5001V2.99936Z" fill="#E8AA3D"/>
</g>
<defs>
<clipPath id="clip0_320_3152">
<rect width="24" height="24" fill="white" transform="translate(0 0.5)"/>
</clipPath>
</defs>
</svg>
