<svg width="32" height="32" viewBox="0 0 32 32" fill="none" xmlns="http://www.w3.org/2000/svg">
<g clip-path="url(#clip0_310_1744)">
<path d="M30.4 5.1877V27.2252H1.59998V5.1877C1.59998 4.1752 2.41873 3.35645 3.43123 3.35645H28.575C29.5812 3.3627 30.4 4.18145 30.4 5.1877Z" fill="white"/>
<path d="M30.4062 5.19355V27.2311H28.5812V5.19355C28.5812 4.18105 27.7625 3.3623 26.75 3.3623H28.575C29.5875 3.3623 30.4062 4.18105 30.4062 5.19355Z" fill="#EDEDED"/>
<path d="M3.4187 25.4066V5.18789C3.4187 4.90664 3.6437 4.68164 3.92495 4.68164H28.0687C28.35 4.68164 28.575 4.90664 28.575 5.18789V25.4004H3.4187V25.4066Z" fill="#D3F0FD"/>
<path d="M20.8625 12.4564V13.1502C20.8625 13.3064 20.7376 13.4377 20.5751 13.4377H18.4938C18.3375 13.4377 18.2063 13.3127 18.2063 13.1502V12.4564C18.2063 12.3002 18.3313 12.1689 18.4938 12.1689H20.5813C20.7375 12.1752 20.8625 12.3002 20.8625 12.4564Z" fill="#FC8A8A"/>
<path d="M20.8625 12.4564V13.1502C20.8625 13.3064 20.7375 13.4377 20.575 13.4377H20C20.1562 13.4377 20.2875 13.3127 20.2875 13.1502V12.4564C20.2875 12.3002 20.1625 12.1689 20 12.1689H20.575C20.7375 12.1752 20.8625 12.3002 20.8625 12.4564Z" fill="#F96364"/>
<path d="M19.0688 13.4373H18.4938C18.3375 13.4373 18.2063 13.3123 18.2063 13.1561V12.4623C18.2063 12.3061 18.3313 12.1748 18.4938 12.1748H19.0688C18.9125 12.1748 18.7813 12.2998 18.7813 12.4623V13.1561C18.7875 13.3061 18.9125 13.4373 19.0688 13.4373Z" fill="#FCB0B0"/>
<path d="M9.7063 22.7686C9.7063 23.3373 9.2438 23.7998 8.67505 23.7998C8.1063 23.7998 7.6438 23.3373 7.6438 22.7686C7.6438 22.1998 8.1063 21.7373 8.67505 21.7373C9.2438 21.7436 9.7063 22.2061 9.7063 22.7686Z" fill="#A8B1B3"/>
<path d="M15.1875 22.7686C15.1875 23.3373 14.725 23.7998 14.1562 23.7998C13.5875 23.7998 13.125 23.3373 13.125 22.7686C13.125 22.1998 13.5875 21.7373 14.1562 21.7373C14.725 21.7436 15.1875 22.2061 15.1875 22.7686Z" fill="#A8B1B3"/>
<path d="M9.7063 22.7689C9.7063 23.3377 9.2438 23.8002 8.67505 23.8002C8.23755 23.8002 7.85005 23.5252 7.7063 23.1127C8.2438 23.3002 8.8313 23.0189 9.0188 22.4814C9.10005 22.2627 9.0938 22.0189 9.0188 21.7939C9.4313 21.9502 9.7063 22.3377 9.7063 22.7689Z" fill="#7C8B8E"/>
<path d="M15.1875 22.7689C15.1875 23.3377 14.725 23.8002 14.1562 23.8002C13.7188 23.8002 13.3312 23.5252 13.1875 23.1127C13.725 23.3002 14.3125 23.0189 14.5 22.4814C14.5812 22.2564 14.5812 22.0189 14.5 21.7939C14.9125 21.9502 15.1875 22.3377 15.1875 22.7689Z" fill="#7C8B8E"/>
<path d="M16.7937 14.1377L14.8687 20.3252H8.65623C8.39998 20.3252 8.16873 20.1564 8.09373 19.9064L6.53748 14.9064C6.44373 14.5939 6.61873 14.2627 6.93123 14.1627C6.98748 14.1439 7.04373 14.1377 7.10623 14.1377H16.7937Z" fill="#7BDE9E"/>
<path d="M16.7937 14.1377L14.8687 20.3252H13.7937L15.725 14.1377H16.7937Z" fill="#51D27F"/>
<path d="M9.73124 20.3252H8.66249C8.40624 20.3252 8.17499 20.1564 8.09999 19.9064L6.54374 14.9064C6.44374 14.5939 6.61874 14.2627 6.93749 14.1627C6.99374 14.1439 7.05624 14.1377 7.11249 14.1377H8.18124C7.85624 14.1377 7.58749 14.4064 7.58749 14.7314C7.58749 14.7877 7.59374 14.8502 7.61249 14.9064L9.16874 19.9064C9.24374 20.1564 9.46874 20.3252 9.73124 20.3252Z" fill="#A7EABF"/>
<path d="M20.5812 11.9189H18.4937C18.2 11.9189 17.9562 12.1564 17.9562 12.4564V12.5564H17.6875C17.2937 12.5564 16.9437 12.8127 16.825 13.1939L16.6062 13.8939H7.09998C6.63748 13.8939 6.25623 14.2689 6.25623 14.7377C6.25623 14.8252 6.26873 14.9064 6.29373 14.9877L7.84998 19.9877C7.95623 20.3377 8.28748 20.5814 8.65623 20.5814H14.525L14.2562 21.4439C14.2437 21.4752 14.2125 21.5002 14.1812 21.5002H8.67498C7.96873 21.5002 7.39373 22.0752 7.39373 22.7814C7.39373 23.4877 7.96873 24.0627 8.67498 24.0627C9.38123 24.0627 9.95623 23.4877 9.95623 22.7814C9.95623 22.5002 9.85623 22.2252 9.68123 22.0002H13.15C12.975 22.2252 12.8812 22.4939 12.875 22.7814C12.875 23.4877 13.4437 24.0627 14.15 24.0689C14.8562 24.0689 15.4312 23.5002 15.4375 22.7939C15.4375 22.3002 15.1625 21.8564 14.7187 21.6377C14.725 21.6252 14.7312 21.6064 14.7375 21.5939L17.3062 13.3502C17.3562 13.1814 17.5125 13.0627 17.6937 13.0627H17.9625V13.1627C17.9625 13.4564 18.2 13.7002 18.5 13.7002H20.5812C20.875 13.7002 21.1187 13.4627 21.1187 13.1627V12.4689C21.1125 12.1627 20.875 11.9252 20.5812 11.9189ZM8.33123 19.8314L6.77498 14.8314C6.71873 14.6502 6.81873 14.4564 6.99998 14.4002C7.03123 14.3877 7.06873 14.3877 7.09998 14.3877H16.4562L14.6875 20.0752H8.66248C8.50623 20.0752 8.37498 19.9752 8.33123 19.8314ZM8.67498 23.5502C8.24373 23.5502 7.89373 23.2002 7.89373 22.7689C7.89373 22.3377 8.24373 21.9877 8.67498 21.9877C9.10623 21.9877 9.45623 22.3377 9.45623 22.7689C9.45623 23.2002 9.10623 23.5502 8.67498 23.5502ZM14.1562 23.5502C13.725 23.5502 13.375 23.2002 13.375 22.7689C13.375 22.3377 13.725 21.9877 14.1562 21.9877C14.5875 21.9877 14.9375 22.3377 14.9375 22.7689C14.9375 23.2002 14.5875 23.5502 14.1562 23.5502ZM20.6187 13.1502C20.6187 13.1689 20.6 13.1877 20.5812 13.1877H18.5C18.4812 13.1877 18.4625 13.1752 18.4625 13.1502V12.4564C18.4625 12.4377 18.4812 12.4189 18.5 12.4189H20.5875C20.6062 12.4189 20.625 12.4377 20.625 12.4564L20.6187 13.1502Z" fill="#333333"/>
<path d="M11.65 19.1746C11.5125 19.1746 11.4 19.0621 11.4 18.9246V15.5371C11.4 15.3996 11.5125 15.2871 11.65 15.2871C11.7875 15.2871 11.9 15.3996 11.9 15.5371V18.9246C11.9 19.0621 11.7875 19.1746 11.65 19.1746Z" fill="#333333"/>
<path d="M13.6 19.1746C13.5875 19.1746 13.575 19.1746 13.5562 19.1683C13.4187 19.1433 13.325 19.0183 13.35 18.8808L13.9125 15.4933C13.9312 15.3558 14.0562 15.2621 14.1937 15.2746C14.3312 15.2933 14.425 15.4183 14.4125 15.5558C14.4125 15.5621 14.4125 15.5683 14.4125 15.5746L13.85 18.9621C13.825 19.0871 13.7187 19.1746 13.6 19.1746Z" fill="#333333"/>
<path d="M9.70619 19.1748C9.58119 19.1748 9.48119 19.0873 9.46244 18.9623L8.90619 15.5748C8.88744 15.4373 8.98744 15.3123 9.12494 15.2935C9.25619 15.2748 9.37494 15.3623 9.39994 15.4935L9.95619 18.881C9.98119 19.0185 9.88744 19.1435 9.74994 19.1685C9.73119 19.1748 9.71869 19.1748 9.70619 19.1748Z" fill="#333333"/>
<path d="M25.4937 15.7871H20.3125C20.175 15.7871 20.0625 15.6746 20.0625 15.5371C20.0625 15.3996 20.175 15.2871 20.3125 15.2871H25.4937C25.6312 15.2871 25.7437 15.3996 25.7437 15.5371C25.7437 15.6746 25.6312 15.7871 25.4937 15.7871Z" fill="#333333"/>
<path d="M25.4938 17.8564H19.2438C19.1063 17.8564 18.9938 17.7439 18.9938 17.6064C18.9938 17.4689 19.1063 17.3564 19.2438 17.3564H25.4938C25.6313 17.3564 25.7438 17.4689 25.7438 17.6064C25.7438 17.7439 25.6313 17.8564 25.4938 17.8564Z" fill="#333333"/>
<path d="M25.4938 19.9248H18.175C18.0375 19.9248 17.925 19.8123 17.925 19.6748C17.925 19.5373 18.0375 19.4248 18.175 19.4248H25.4938C25.6313 19.4248 25.7438 19.5373 25.7438 19.6748C25.7438 19.8123 25.6313 19.9248 25.4938 19.9248Z" fill="#333333"/>
<path d="M25.4937 21.9941H17.1C16.9625 21.9941 16.85 21.8816 16.85 21.7441C16.85 21.6066 16.9625 21.4941 17.1 21.4941H25.4875C25.625 21.4941 25.7375 21.6066 25.7375 21.7441C25.7375 21.8816 25.6312 21.9941 25.4937 21.9941Z" fill="#333333"/>
<path d="M31.8125 27.2309V28.4559C31.8125 29.4871 30.975 30.3246 29.9438 30.3246H2.05625C1.025 30.3184 0.1875 29.4809 0.1875 28.4496V27.2246H31.8125V27.2309Z" fill="#D3D9D9"/>
<path d="M3.88125 30.3184H2.05625C1.025 30.3184 0.1875 29.4809 0.1875 28.4496V27.2246H2.01875V28.4496C2.01875 29.4809 2.85 30.3184 3.88125 30.3184Z" fill="#EDEDED"/>
<path d="M31.8125 27.2314V28.4564C31.8125 29.4877 30.975 30.3252 29.9438 30.3252H28.1125C29.1438 30.3252 29.9813 29.4877 29.9813 28.4564V27.2314H31.8125Z" fill="#A8B2B4"/>
<path d="M20.5375 27.2314V28.1127C20.5375 28.4189 20.2875 28.6689 19.9813 28.6689H12.0125C11.7063 28.6689 11.4563 28.4189 11.4563 28.1127V27.2314H20.5375Z" fill="white"/>
<path d="M20.5437 27.2314V28.1127C20.5437 28.4189 20.2937 28.6627 19.9875 28.6627H18.5062C18.8125 28.6627 19.0562 28.4127 19.0562 28.1127V27.2314H20.5437Z" fill="#EDEDED"/>
<path d="M4.75623 7.375H9.25623V8.31875C9.25623 9.5625 8.24998 10.5688 7.00623 10.5688C5.76248 10.5688 4.75623 9.5625 4.75623 8.31875V7.375Z" fill="#FEDD8E"/>
<path d="M27.2438 7.375V8.31875C27.25 9.5625 26.25 10.575 25.0063 10.5813C23.7625 10.5875 22.75 9.5875 22.7438 8.34375C22.7438 8.3375 22.7438 8.325 22.7438 8.31875V7.375H27.2438Z" fill="#FEDD8E"/>
<path d="M13.75 7.375H18.25V8.31875C18.25 9.5625 17.2438 10.5688 16 10.5688C14.7563 10.5688 13.75 9.5625 13.75 8.31875V7.375Z" fill="#FEDD8E"/>
<path d="M0.256226 7.375H4.75623V8.31875C4.75623 9.5625 3.74998 10.5688 2.50623 10.5688C1.26248 10.5688 0.256226 9.5625 0.256226 8.31875V7.375Z" fill="#FC8A8A"/>
<path d="M18.25 7.375H22.75V8.31875C22.75 9.5625 21.7438 10.5688 20.5 10.5688C19.2563 10.5688 18.25 9.5625 18.25 8.31875V7.375Z" fill="#FC8A8A"/>
<path d="M9.25 7.375H13.75V8.31875C13.75 9.5625 12.7438 10.5688 11.5 10.5688C10.2563 10.5688 9.25 9.5625 9.25 8.31875V7.375Z" fill="#FC8A8A"/>
<path d="M31.7438 7.375V8.31875C31.7438 9.5625 30.7375 10.5688 29.4938 10.5688C28.25 10.5688 27.2438 9.5625 27.2438 8.31875V7.375H31.7438Z" fill="#FC8A8A"/>
<path d="M6.18123 1.68164L4.75623 7.37539H0.256226L1.89998 2.70664C2.11873 2.09414 2.69373 1.68164 3.34998 1.68164H6.18123Z" fill="#FC8A8A"/>
<path d="M10.1125 1.68164L9.24998 7.37539H4.75623L6.18123 1.68164H10.1125Z" fill="#FEDD8E"/>
<path d="M14.0375 1.68164L13.75 7.37539H9.25L10.1125 1.68164H14.0375Z" fill="#FC8A8A"/>
<path d="M17.9625 1.68164L18.25 7.37539H13.75L14.0375 1.68164H17.9625Z" fill="#FEDD8E"/>
<path d="M21.8875 1.68164L22.75 7.37539H18.25L17.9625 1.68164H21.8875Z" fill="#FC8A8A"/>
<path d="M25.8187 1.68164L27.2437 7.37539H22.75L21.8875 1.68164H25.8187Z" fill="#FEDD8E"/>
<path d="M30.1062 2.70664L31.75 7.37539H27.25L25.8187 1.68164H28.6562C29.3062 1.68164 29.8875 2.09414 30.1062 2.70664Z" fill="#FC8A8A"/>
<path d="M7.54998 10.5C7.36873 10.5438 7.18748 10.5625 7.00623 10.5625C5.76248 10.5625 4.75623 9.55625 4.75623 8.3125V7.375H5.84373V8.31875C5.84373 9.35 6.54373 10.25 7.54998 10.5Z" fill="#FEE9B4"/>
<path d="M25.5438 10.5C25.3625 10.5438 25.1813 10.5625 25 10.5625C23.7563 10.5625 22.75 9.55625 22.75 8.3125V7.375H23.8375V8.31875C23.8375 9.35 24.5375 10.25 25.5438 10.5Z" fill="#FEE9B4"/>
<path d="M16.5438 10.5C16.3625 10.5438 16.1813 10.5625 16 10.5625C14.7563 10.5625 13.75 9.55625 13.75 8.3125V7.375H14.8375V8.31875C14.8375 9.35 15.5438 10.25 16.5438 10.5Z" fill="#FEE9B4"/>
<path d="M3.04998 10.5C2.86873 10.5438 2.68748 10.5625 2.50623 10.5625C1.26248 10.5625 0.256226 9.55625 0.256226 8.3125V7.375H1.34373V8.31875C1.34373 9.35 2.04373 10.25 3.04998 10.5Z" fill="#FCB0B0"/>
<path d="M21.0438 10.5C20.8625 10.5438 20.6813 10.5625 20.5 10.5625C19.2563 10.5625 18.25 9.55625 18.25 8.3125V7.375H19.3375V8.31875C19.3375 9.35 20.0438 10.25 21.0438 10.5Z" fill="#FCB0B0"/>
<path d="M12.0437 10.5C11.8625 10.5438 11.6813 10.5625 11.5 10.5625C10.2563 10.5625 9.25 9.55625 9.25 8.3125V7.375H10.3375V8.31875C10.3375 9.35 11.0437 10.25 12.0437 10.5Z" fill="#FCB0B0"/>
<path d="M30.0438 10.5C29.8625 10.5438 29.6813 10.5625 29.5 10.5625C28.2563 10.5625 27.25 9.55625 27.25 8.3125V7.375H28.3375V8.31875C28.3375 9.35 29.0375 10.25 30.0438 10.5Z" fill="#FCB0B0"/>
<path d="M3.34373 1.68164L1.34373 7.37539H0.256226L1.89998 2.70664C2.11248 2.09414 2.69373 1.68164 3.34373 1.68164Z" fill="#FCB0B0"/>
<path d="M7.26873 1.68164L5.84373 7.37539H4.75623L6.18123 1.68164H7.26873Z" fill="#FEE9B4"/>
<path d="M11.1938 1.68164L10.3375 7.37539H9.25L10.1125 1.68164H11.1938Z" fill="#FCB0B0"/>
<path d="M15.125 1.68164L14.8375 7.37539H13.75L14.0375 1.68164H15.125Z" fill="#FEE9B4"/>
<path d="M19.3375 7.37539H18.25L17.9625 1.68164H19.05L19.3375 7.37539Z" fill="#FCB0B0"/>
<path d="M23.8375 7.37539H22.75L21.8938 1.68164H22.975L23.8375 7.37539Z" fill="#FEE9B4"/>
<path d="M28.3312 7.37539H27.2437L25.8187 1.68164H26.9062L28.3312 7.37539Z" fill="#FCB0B0"/>
<path d="M9.25005 7.375V8.31875C9.25005 9.5625 8.2438 10.5688 7.00005 10.5688C6.8188 10.5688 6.63755 10.55 6.4563 10.5063C6.85005 10.4063 7.21255 10.2 7.50005 9.9125C7.92505 9.49375 8.16255 8.91875 8.16255 8.325V7.375H9.25005Z" fill="#FDD367"/>
<path d="M27.2437 7.375V8.31875C27.2437 9.5625 26.2375 10.5688 24.9937 10.5688C24.8125 10.5688 24.6312 10.55 24.45 10.5063C24.8437 10.4063 25.2062 10.2 25.4937 9.9125C25.9187 9.49375 26.1562 8.91875 26.1562 8.325V7.375H27.2437Z" fill="#FDD367"/>
<path d="M18.25 7.375V8.31875C18.25 9.5625 17.2438 10.5688 16 10.5688C15.8188 10.5688 15.6375 10.55 15.4563 10.5063C15.85 10.4063 16.2125 10.2 16.5 9.9125C16.925 9.49375 17.1625 8.91875 17.1625 8.325V7.375H18.25Z" fill="#FDD367"/>
<path d="M4.75627 7.375V8.31875C4.75627 9.5625 3.75002 10.5688 2.50627 10.5688C2.32502 10.5688 2.14377 10.55 1.96252 10.5063C2.35627 10.4063 2.71877 10.2 3.00627 9.9125C3.43127 9.49375 3.66877 8.91875 3.66877 8.325V7.375H4.75627Z" fill="#F96364"/>
<path d="M22.75 7.375V8.31875C22.75 9.5625 21.7438 10.5688 20.5 10.5688C20.3188 10.5688 20.1375 10.55 19.9563 10.5063C20.35 10.4063 20.7125 10.2 21 9.9125C21.425 9.49375 21.6625 8.91875 21.6625 8.325V7.375H22.75Z" fill="#F96364"/>
<path d="M13.75 7.375V8.31875C13.75 9.5625 12.7438 10.5688 11.5 10.5688C11.3188 10.5688 11.1375 10.55 10.9563 10.5063C11.35 10.4063 11.7125 10.2 12 9.9125C12.425 9.49375 12.6625 8.91875 12.6625 8.325V7.375H13.75Z" fill="#F96364"/>
<path d="M31.7437 7.375V8.31875C31.7437 9.5625 30.7375 10.5688 29.4937 10.5688C29.3125 10.5688 29.1312 10.55 28.95 10.5063C29.3437 10.4063 29.7062 10.2 29.9937 9.9125C30.4187 9.49375 30.6562 8.91875 30.6562 8.325V7.375H31.7437Z" fill="#F96364"/>
<path d="M6.1812 1.68164L4.7562 7.37539H3.6687L5.0937 1.68164H6.1812Z" fill="#F96364"/>
<path d="M10.1125 1.68164L9.24998 7.37539H8.16248L9.02497 1.68164H10.1125Z" fill="#FDD367"/>
<path d="M14.0375 1.68164L13.75 7.37539H12.6625L12.95 1.68164H14.0375Z" fill="#F96364"/>
<path d="M18.25 7.37539H17.1625L16.875 1.68164H17.9625L18.25 7.37539Z" fill="#FDD367"/>
<path d="M22.75 7.37539H21.6625L20.8063 1.68164H21.8875L22.75 7.37539Z" fill="#F96364"/>
<path d="M27.2437 7.37539H26.1562L24.7312 1.68164H25.8187L27.2437 7.37539Z" fill="#FDD367"/>
<path d="M31.7437 7.37539H30.6562L28.6562 1.68164C29.3062 1.68164 29.8875 2.09414 30.1063 2.70664L31.7437 7.37539Z" fill="#F96364"/>
<path d="M31.8125 27.0441H30.5875V10.4941C30.8188 10.3754 31.0312 10.2254 31.2125 10.0441C31.675 9.58789 31.9312 8.96914 31.925 8.31914V7.37539C31.925 7.36289 31.9188 7.31914 31.9125 7.31289L30.275 2.64414C30.0312 1.95664 29.3813 1.49414 28.65 1.49414H3.3375C2.60625 1.49414 1.95625 1.95664 1.7125 2.64414L0.075 7.31289C0.075 7.31914 0.06875 7.36289 0.0625 7.37539V8.31914C0.0625 9.23789 0.58125 10.0816 1.40625 10.4941V27.0441H0.1875C0.08125 27.0441 0 27.1254 0 27.2316V28.4566C0 29.5879 0.91875 30.5066 2.05625 30.5129H29.95C31.0813 30.5129 32 29.5941 32.0062 28.4566V27.2316C32 27.1254 31.9188 27.0441 31.8125 27.0441ZM31.5562 8.31914C31.5562 9.45664 30.6313 10.3816 29.4937 10.3816C28.3562 10.3816 27.4312 9.45664 27.4312 8.31914V7.56289H31.5562V8.31914ZM1.7875 27.0379V10.6441C2.2625 10.7879 2.7625 10.7879 3.2375 10.6379V25.4004C3.2375 25.5066 3.31875 25.5879 3.425 25.5879H28.5812C28.6875 25.5879 28.7687 25.5066 28.7687 25.4004V10.6441C29.2375 10.7941 29.7437 10.7941 30.2188 10.6504V27.0441L1.7875 27.0379ZM20.35 27.4191V28.1129C20.35 28.3129 20.1875 28.4816 19.9813 28.4816H12.0125C11.8125 28.4816 11.6438 28.3191 11.6438 28.1129V27.4191H20.35ZM7 10.7566C7.98125 10.7504 8.86875 10.1629 9.25 9.25664C9.775 10.5004 11.2 11.0816 12.4438 10.5629C13.0312 10.3129 13.5 9.85039 13.75 9.25664C14.275 10.5004 15.7 11.0816 16.9438 10.5629C17.5312 10.3129 18 9.85039 18.25 9.25664C18.775 10.5004 20.2 11.0816 21.4438 10.5629C22.0312 10.3129 22.5 9.85039 22.75 9.25664C23.275 10.5004 24.7 11.0816 25.9438 10.5629C26.5312 10.3129 27 9.85039 27.25 9.25664C27.475 9.78789 27.8812 10.2254 28.3937 10.4879V25.2191H3.60625V10.4879C3.83125 10.3691 4.04375 10.2191 4.225 10.0379C4.45 9.81289 4.63125 9.55039 4.75625 9.25664C5.13125 10.1629 6.01875 10.7566 7 10.7566ZM4.94375 8.31914V7.56289H9.06875V8.31914C9.06875 9.45664 8.14375 10.3816 7.00625 10.3816C5.8625 10.3816 4.94375 9.45664 4.94375 8.31914ZM9.4375 8.31914V7.56289H13.5625V8.31914C13.5625 9.45664 12.6375 10.3816 11.5 10.3816C10.3625 10.3816 9.44375 9.45664 9.4375 8.31914ZM18.4375 8.31914V7.56289H22.5625V8.31914C22.5625 9.45664 21.6375 10.3816 20.5 10.3816C19.3625 10.3816 18.4375 9.45664 18.4375 8.31914ZM22.9375 8.31914V7.56289H27.0625V8.31914C27.0625 9.45664 26.1375 10.3816 25 10.3816C23.8563 10.3816 22.9375 9.45664 22.9375 8.31914ZM28.6562 1.86914C29.225 1.86914 29.7375 2.23164 29.925 2.76914L31.4813 7.18789H27.3937L26.0562 1.86914H28.6562ZM25.6688 1.86914L27.0063 7.18789H22.9062L22.1063 1.86914H25.6688ZM21.7313 1.86914L22.5312 7.18789H18.4312L18.1625 1.86914H21.7313ZM14.2125 1.86914H17.7812L18.05 7.18789H13.9438L14.2125 1.86914ZM13.9375 7.56289H18.0625V8.31914C18.0625 9.45664 17.1375 10.3816 16 10.3816C14.8625 10.3816 13.9375 9.45664 13.9375 8.31914V7.56289ZM10.2688 1.86914H13.8375L13.5688 7.18789H9.46875L10.2688 1.86914ZM6.33125 1.86914H9.89375L9.0875 7.18789H4.99375L6.33125 1.86914ZM2.075 2.76914C2.2625 2.23164 2.775 1.86914 3.34375 1.86914H5.94375L4.60625 7.18789H0.51875L2.075 2.76914ZM0.44375 8.31914V7.56289H4.56875V8.31914C4.56875 9.45664 3.64375 10.3816 2.50625 10.3816C1.36875 10.3816 0.44375 9.45664 0.44375 8.31914ZM31.625 28.4504C31.625 29.3754 30.875 30.1316 29.9438 30.1316H2.05625C1.125 30.1316 0.375 29.3816 0.375 28.4504V27.4129H11.275V28.1066C11.275 28.5129 11.6062 28.8441 12.0188 28.8504H19.9937C20.4 28.8504 20.7312 28.5191 20.7375 28.1066V27.4129H31.625V28.4504Z" fill="#333333"/>
</g>
<defs>
<clipPath id="clip0_310_1744">
<rect width="32" height="32" fill="white"/>
</clipPath>
</defs>
</svg>
