<svg width="65" height="64" viewBox="0 0 65 64" fill="none" xmlns="http://www.w3.org/2000/svg">
<path d="M55.5 3H9.5V61H55.5V3Z" fill="#CFCFD9"/>
<path d="M51.5 7H13.5V57H51.5V7Z" fill="#D9DAE2"/>
<path d="M13.5 7H51.5V19C51.5 29.0782 47.4964 38.7437 40.3701 45.8701C33.2437 52.9964 23.5782 57 13.5 57V7Z" fill="#E5E6EB"/>
<path d="M32.5 20.9998C31.4391 20.9998 30.4217 20.5784 29.6716 19.8282C28.9214 19.0781 28.5 18.0607 28.5 16.9998C28.4998 16.3315 28.6691 15.674 28.992 15.0888L27.363 8.57481L29.3 8.09081L31.031 15.0168C31.0661 15.1573 31.0702 15.3038 31.0431 15.4461C31.016 15.5883 30.9583 15.723 30.874 15.8408C30.6586 16.1395 30.5297 16.4918 30.5018 16.859C30.4738 17.2263 30.5478 17.5941 30.7155 17.9219C30.8833 18.2497 31.1383 18.5249 31.4524 18.7171C31.7666 18.9092 32.1277 19.0109 32.496 19.0109C32.8643 19.0109 33.2254 18.9092 33.5396 18.7171C33.8537 18.5249 34.1087 18.2497 34.2765 17.9219C34.4442 17.5941 34.5182 17.2263 34.4902 16.859C34.4623 16.4918 34.3335 16.1395 34.118 15.8408C34.0337 15.723 33.976 15.5883 33.9489 15.4461C33.9218 15.3038 33.9259 15.1573 33.961 15.0168L35.78 7.75781L37.72 8.24181L36.008 15.0888C36.331 15.674 36.5002 16.3315 36.5 16.9998C36.5 18.0607 36.0786 19.0781 35.3284 19.8282C34.5783 20.5784 33.5609 20.9998 32.5 20.9998Z" fill="white"/>
<path d="M45.5 48H35.5V52H45.5V48Z" fill="#2ADE8D"/>
<path d="M29.5 27H22.5V29H29.5V27Z" fill="#2ADE8D"/>
<path d="M33.5 27H31.5V29H33.5V27Z" fill="#2ADE8D"/>
<path d="M44.5 27H35.5V29H44.5V27Z" fill="#2ADE8D"/>
<path d="M47.5 14H39.5V22H47.5V14Z" fill="#2ADE8D"/>
<path d="M44.5 32H19.5V34H44.5V32Z" fill="#2ADE8D"/>
<path d="M44.5 37H19.5V39H44.5V37Z" fill="#2ADE8D"/>
<path d="M32.5 42H19.5V44H32.5V42Z" fill="#2ADE8D"/>
<path d="M39.5 3H25.5V9H39.5V3Z" fill="#444444"/>
<path d="M55.5 2H9.5C9.23478 2 8.98043 2.10536 8.79289 2.29289C8.60536 2.48043 8.5 2.73478 8.5 3V61C8.5 61.2652 8.60536 61.5196 8.79289 61.7071C8.98043 61.8946 9.23478 62 9.5 62H55.5C55.7652 62 56.0196 61.8946 56.2071 61.7071C56.3946 61.5196 56.5 61.2652 56.5 61V3C56.5 2.73478 56.3946 2.48043 56.2071 2.29289C56.0196 2.10536 55.7652 2 55.5 2ZM25.5 10H27.719L28.992 15.089C28.669 15.6741 28.4998 16.3316 28.5 17C28.5 18.0609 28.9214 19.0783 29.6716 19.8284C30.4217 20.5786 31.4391 21 32.5 21C33.5609 21 34.5783 20.5786 35.3284 19.8284C36.0786 19.0783 36.5 18.0609 36.5 17C36.5002 16.3316 36.331 15.6741 36.008 15.089L37.281 10H39.5C39.7652 10 40.0196 9.89464 40.2071 9.70711C40.3946 9.51957 40.5 9.26522 40.5 9V8H50.5V56H14.5V8H24.5V9C24.5 9.26522 24.6054 9.51957 24.7929 9.70711C24.9804 9.89464 25.2348 10 25.5 10ZM34.122 15.841C34.3375 16.1397 34.4663 16.492 34.4942 16.8592C34.5222 17.2264 34.4482 17.5942 34.2805 17.9221C34.1127 18.2499 33.8577 18.5251 33.5436 18.7173C33.2294 18.9094 32.8683 19.0111 32.5 19.0111C32.1317 19.0111 31.7706 18.9094 31.4564 18.7173C31.1423 18.5251 30.8873 18.2499 30.7195 17.9221C30.5518 17.5942 30.4778 17.2264 30.5058 16.8592C30.5337 16.492 30.6625 16.1397 30.878 15.841C30.9623 15.7232 31.02 15.5885 31.0471 15.4463C31.0742 15.304 31.0701 15.1575 31.035 15.017L29.781 10H35.219L33.965 15.017C33.9299 15.1575 33.9258 15.304 33.9529 15.4463C33.98 15.5885 34.0377 15.7232 34.122 15.841ZM38.5 8H26.5V4H38.5V8ZM54.5 60H10.5V4H24.5V6H13.5C13.2348 6 12.9804 6.10536 12.7929 6.29289C12.6054 6.48043 12.5 6.73478 12.5 7V57C12.5 57.2652 12.6054 57.5196 12.7929 57.7071C12.9804 57.8946 13.2348 58 13.5 58H51.5C51.7652 58 52.0196 57.8946 52.2071 57.7071C52.3946 57.5196 52.5 57.2652 52.5 57V7C52.5 6.73478 52.3946 6.48043 52.2071 6.29289C52.0196 6.10536 51.7652 6 51.5 6H40.5V4H54.5V60Z" fill="black"/>
</svg>
