<svg width="28" height="29" viewBox="0 0 28 29" fill="none" xmlns="http://www.w3.org/2000/svg">
<g clip-path="url(#clip0_858_3508)">
<path d="M25.9641 8.11153C24.8105 7.48093 23.2789 7.57417 21.7372 8.04066C22.8661 6.92039 23.6648 5.63523 23.6648 4.33504C23.6648 2.32812 22.2831 0.701172 20.5784 0.701172C19.2147 0.701172 18.1093 2.00273 18.1093 3.60824C18.1093 2.00268 17.0038 0.701172 15.6401 0.701172C13.9356 0.701172 12.5537 2.32812 12.5537 4.33504C12.5537 5.63529 13.3524 6.92033 14.4814 8.04066C12.9397 7.57423 11.408 7.48088 10.2545 8.11153C8.49353 9.0743 7.72889 11.0672 8.54657 12.5629C9.20074 13.7594 10.8731 14.105 12.2818 13.3348C10.8731 14.105 10.2614 15.6994 10.9155 16.8958C11.7333 18.3915 13.8236 18.8234 15.5846 17.8607C16.918 17.1317 17.7099 15.4553 18.1093 13.6023C18.5086 15.4553 19.3005 17.1316 20.634 17.8607C22.3949 18.8234 24.4853 18.3914 25.3031 16.8958C25.9572 15.6993 25.3455 14.105 23.9368 13.3348C25.3455 14.105 27.0178 13.7594 27.672 12.5629C28.4896 11.0672 27.725 9.0743 25.9641 8.11153Z" fill="#7EAF31"/>
<path d="M17.7453 12.0959C16.5918 11.4653 15.0601 11.5585 13.5184 12.025C14.6474 10.9048 15.4461 9.61966 15.4461 8.31941C15.4461 6.3125 14.0643 4.68555 12.3596 4.68555C10.9959 4.68555 9.89048 5.98711 9.89048 7.59262C9.89048 5.98705 8.78503 4.68555 7.42135 4.68555C5.7168 4.68555 4.3349 6.3125 4.3349 8.31941C4.3349 9.61966 5.13367 10.9047 6.26258 12.025C4.72088 11.5586 3.1892 11.4653 2.03568 12.0959C0.2748 13.0587 -0.489839 15.0517 0.327792 16.5472C0.981963 17.7437 2.6543 18.0894 4.06305 17.3192C2.6543 18.0894 2.04257 19.6837 2.69674 20.8802C3.51448 22.3758 5.60485 22.8078 7.36579 21.845C8.69917 21.116 9.4911 19.4397 9.89048 17.5867C10.2899 19.4397 11.0817 21.116 12.4152 21.845C14.1761 22.8078 16.2665 22.3758 17.0843 20.8802C17.7385 19.6837 17.1267 18.0894 15.718 17.3192C17.1267 18.0894 18.7991 17.7438 19.4532 16.5472C20.2709 15.0517 19.5063 13.0587 17.7453 12.0959Z" fill="#8CC63F"/>
<path d="M6.34278 28.2984C6.20743 28.2984 6.07214 28.2467 5.96883 28.1435C5.76233 27.937 5.76233 27.6022 5.96889 27.3957C7.4321 25.9329 8.4459 23.9521 8.98216 21.5083C9.04483 21.2231 9.32691 21.0426 9.612 21.1052C9.89725 21.1678 10.0777 21.4497 10.0152 21.7349C9.43492 24.3794 8.32504 26.5356 6.71663 28.1435C6.61338 28.2467 6.47808 28.2984 6.34278 28.2984Z" fill="#7EAF31"/>
</g>
<defs>
<clipPath id="clip0_858_3508">
<rect width="28" height="28" fill="white" transform="translate(0 0.5)"/>
</clipPath>
</defs>
</svg>
