<svg width="28" height="29" viewBox="0 0 28 29" fill="none" xmlns="http://www.w3.org/2000/svg">
<path d="M17.9753 2.89637C15.9235 2.23293 11.0966 2.41337 9.89031 3.98215C6.75275 4.04282 3.07231 6.8786 2.58931 10.6197C2.11175 14.3219 3.17575 16.0416 3.55453 18.826C3.98386 21.9807 5.7572 22.9895 7.17509 23.4118C9.2152 26.1068 11.3836 25.9917 15.0244 25.9917C22.1341 25.9917 25.5205 21.2348 25.82 13.1545C26.0004 8.26693 23.1335 4.56548 17.9753 2.89637Z" fill="#D1D3D4"/>
<path d="M23.1476 18.7507C23.1375 15.7648 22.8139 14.5694 22.0416 13.4992C21.3532 12.5464 20.4728 11.7795 18.5423 11.5081C19.2665 11.8402 19.9602 12.9866 20.0505 13.6197C20.1407 14.2536 20.2317 14.7662 19.6585 14.1323C17.3617 11.5944 14.8619 12.5938 12.3831 11.0429C10.6518 9.96027 10.1252 8.76172 10.1252 8.76172C10.1252 8.76172 9.91368 10.3608 7.28946 11.9895C6.52879 12.4616 5.62112 13.5132 5.11712 15.0664C4.75546 16.1825 4.86746 17.1781 4.86746 18.8798V18.9351C5.38857 23.9999 7.16968 27.7224 14.0001 27.7224C20.9535 27.7224 22.6436 23.9105 23.1476 18.7507Z" fill="#7C533E"/>
<path d="M14.0002 25.0001C12.1747 25.0001 11.2196 24.0979 11.1169 23.9944C11.0442 23.9227 10.9863 23.8374 10.9466 23.7433C10.9068 23.6493 10.886 23.5483 10.8853 23.4462C10.8846 23.344 10.904 23.2428 10.9424 23.1481C10.9808 23.0535 11.0375 22.9674 11.1092 22.8947C11.1809 22.8219 11.2662 22.7641 11.3603 22.7243C11.4543 22.6846 11.5553 22.6637 11.6574 22.663C11.7596 22.6623 11.8608 22.6817 11.9555 22.7201C12.0501 22.7585 12.1362 22.8152 12.2089 22.8869C12.2486 22.9234 12.8358 23.4446 14.0002 23.4446C15.1816 23.4446 15.768 22.9087 15.7929 22.8853C15.9423 22.7454 16.1405 22.6694 16.3451 22.6736C16.5497 22.6779 16.7446 22.7619 16.888 22.9079C17.0303 23.0531 17.1096 23.2485 17.1087 23.4517C17.1078 23.655 17.0269 23.8497 16.8834 23.9937C16.7807 24.0971 15.8256 25.0001 14.0002 25.0001ZM14.7779 21.1112H13.2224C13.0161 21.1112 12.8183 21.0293 12.6724 20.8834C12.5265 20.7376 12.4446 20.5397 12.4446 20.3334C12.4446 20.1272 12.5265 19.9293 12.6724 19.7835C12.8183 19.6376 13.0161 19.5557 13.2224 19.5557H14.7779C14.9842 19.5557 15.182 19.6376 15.3279 19.7835C15.4738 19.9293 15.5557 20.1272 15.5557 20.3334C15.5557 20.5397 15.4738 20.7376 15.3279 20.8834C15.182 21.0293 14.9842 21.1112 14.7779 21.1112Z" fill="#3D2E24"/>
<path d="M10.1113 19.1663C9.90499 19.1663 9.70716 19.0844 9.5613 18.9385C9.41544 18.7927 9.3335 18.5948 9.3335 18.3886V17.6108C9.3335 17.4045 9.41544 17.2067 9.5613 17.0608C9.70716 16.915 9.90499 16.833 10.1113 16.833C10.3176 16.833 10.5154 16.915 10.6612 17.0608C10.8071 17.2067 10.8891 17.4045 10.8891 17.6108V18.3886C10.8891 18.5948 10.8071 18.7927 10.6612 18.9385C10.5154 19.0844 10.3176 19.1663 10.1113 19.1663ZM17.8891 19.1663C17.6828 19.1663 17.4849 19.0844 17.3391 18.9385C17.1932 18.7927 17.1113 18.5948 17.1113 18.3886V17.6108C17.1113 17.4045 17.1932 17.2067 17.3391 17.0608C17.4849 16.915 17.6828 16.833 17.8891 16.833C18.0953 16.833 18.2932 16.915 18.439 17.0608C18.5849 17.2067 18.6668 17.4045 18.6668 17.6108V18.3886C18.6668 18.5948 18.5849 18.7927 18.439 18.9385C18.2932 19.0844 18.0953 19.1663 17.8891 19.1663Z" fill="black"/>
<path d="M19.8331 16.0556H17.4998C17.2935 16.0556 17.0957 15.9736 16.9498 15.8278C16.8039 15.6819 16.722 15.4841 16.722 15.2778C16.722 15.0715 16.8039 14.8737 16.9498 14.7278C17.0957 14.5819 17.2935 14.5 17.4998 14.5H19.8331C20.0394 14.5 20.2372 14.5819 20.3831 14.7278C20.5289 14.8737 20.6109 15.0715 20.6109 15.2778C20.6109 15.4841 20.5289 15.6819 20.3831 15.8278C20.2372 15.9736 20.0394 16.0556 19.8331 16.0556ZM10.4998 16.0556H8.16645C7.96017 16.0556 7.76234 15.9736 7.61648 15.8278C7.47062 15.6819 7.38867 15.4841 7.38867 15.2778C7.38867 15.0715 7.47062 14.8737 7.61648 14.7278C7.76234 14.5819 7.96017 14.5 8.16645 14.5H10.4998C10.7061 14.5 10.9039 14.5819 11.0498 14.7278C11.1956 14.8737 11.2776 15.0715 11.2776 15.2778C11.2776 15.4841 11.1956 15.6819 11.0498 15.8278C10.9039 15.9736 10.7061 16.0556 10.4998 16.0556Z" fill="#D1D3D4"/>
</svg>
