<svg width="28" height="28" viewBox="0 0 28 28" fill="none" xmlns="http://www.w3.org/2000/svg">
<path d="M24.7817 15.9521C24.7516 16.2529 24.4754 16.4033 24.2402 16.54C24.0215 16.6658 23.8027 16.7943 23.5867 16.9201C23.2367 17.1225 22.8895 17.3248 22.5395 17.5271C22.102 17.7814 21.6672 18.0357 21.2297 18.2873C20.7485 18.5662 20.2672 18.8479 19.7832 19.1268C19.2992 19.4084 18.8152 19.69 18.3285 19.9717C17.8828 20.2314 17.4399 20.4885 16.9942 20.7482C16.6305 20.9588 16.2695 21.1693 15.9059 21.3799C15.668 21.5166 15.4301 21.6561 15.1922 21.7928C15.0117 21.8967 14.8422 22.0006 14.6371 22.0607C14.1039 22.2139 13.5133 22.1619 13.032 21.883C12.8598 21.7818 12.6848 21.6834 12.5125 21.5822C12.1953 21.399 11.8809 21.2186 11.5637 21.0354C11.1481 20.7947 10.7324 20.5541 10.3168 20.3162C9.84376 20.0428 9.36798 19.7693 8.89494 19.4959C8.40548 19.2143 7.91603 18.9299 7.42658 18.6482C6.96447 18.3803 6.50236 18.115 6.03751 17.8471L4.85626 17.1662C4.57462 17.0021 4.29025 16.8408 4.00861 16.6768C3.88009 16.6029 3.75158 16.5291 3.62306 16.4525C3.42072 16.335 3.22111 16.149 3.22111 15.8975C3.22111 16.1271 3.22111 16.3568 3.21837 16.5893C3.21837 16.6713 3.2129 16.7561 3.21837 16.8408C3.23478 17.0623 3.40978 17.2346 3.59298 17.3439C3.70509 17.4123 3.81994 17.4752 3.93478 17.5408C4.23009 17.7104 4.5254 17.8826 4.82072 18.0521C5.24728 18.2982 5.67111 18.5443 6.09767 18.7904C6.60353 19.083 7.11212 19.3756 7.61798 19.6682C8.14572 19.9744 8.67345 20.2779 9.20392 20.5842C9.70705 20.874 10.2074 21.1639 10.7106 21.4537C11.1289 21.6943 11.5445 21.935 11.9629 22.1756C12.2445 22.3396 12.5289 22.501 12.8106 22.665C12.9746 22.758 13.136 22.8646 13.3137 22.9303C13.8688 23.1326 14.5195 23.0889 15.0309 22.7908C15.225 22.6787 15.4192 22.5639 15.6133 22.4518C15.9715 22.2439 16.3297 22.0361 16.6852 21.8283C17.1527 21.5576 17.6176 21.2869 18.0852 21.0135C18.6074 20.71 19.1297 20.4064 19.6492 20.1029L21.216 19.1924C21.6836 18.9189 22.1512 18.6482 22.6215 18.3748C22.9852 18.1643 23.3488 17.9537 23.7125 17.7404C23.9121 17.6229 24.1145 17.508 24.3141 17.3904C24.3742 17.3549 24.4371 17.3193 24.4945 17.2783C24.6477 17.1635 24.768 17.0049 24.7707 16.8053C24.7735 16.7041 24.7707 16.6057 24.7707 16.5045C24.7707 16.3049 24.7707 16.1025 24.7735 15.9029C24.7844 15.9248 24.7817 15.9385 24.7817 15.9521C24.7817 15.9467 24.7789 15.9604 24.7817 15.9521Z" fill="#7A9EFD"/>
<path d="M24.3906 15.3648C24.9101 15.6656 24.9129 16.1551 24.3961 16.4559L14.9816 21.9273C14.4648 22.2281 13.6199 22.2281 13.1004 21.9273L3.61756 16.4559C3.09803 16.1551 3.09529 15.6656 3.61209 15.3648L13.0293 9.89062C13.5461 9.58984 14.391 9.58984 14.9105 9.89062L24.3906 15.3648Z" fill="#E4ECF9"/>
<path d="M8.1375 13.4311C8.1375 13.4229 8.14023 13.4146 8.14023 13.4064C8.14023 13.401 8.14297 13.3955 8.14297 13.39C8.14297 13.3846 8.1457 13.3791 8.1457 13.3764C8.14844 13.3682 8.14844 13.3627 8.15117 13.3545C8.15117 13.3518 8.15391 13.3463 8.15391 13.3436L8.16211 13.3189C8.16211 13.3162 8.16484 13.3135 8.16484 13.308C8.16758 13.2971 8.17305 13.2861 8.17852 13.2752C8.17852 13.2752 8.17852 13.2725 8.18125 13.2725C8.18672 13.2615 8.18945 13.2533 8.19492 13.2451C8.19766 13.2424 8.19766 13.2396 8.20039 13.2369C8.20586 13.2287 8.20859 13.2205 8.21406 13.2096C8.21406 13.2068 8.2168 13.2068 8.2168 13.2041C8.22227 13.1932 8.22773 13.185 8.23594 13.174C8.23867 13.1713 8.23867 13.1686 8.24141 13.1658C8.24687 13.1576 8.24961 13.1521 8.25508 13.1439C8.25781 13.1412 8.26055 13.1357 8.26328 13.133C8.26875 13.1275 8.27148 13.1221 8.27695 13.1166C8.27969 13.1111 8.28516 13.1084 8.28789 13.1029C8.29063 13.0975 8.29609 13.0947 8.29883 13.0893C8.3043 13.0811 8.3125 13.0756 8.31797 13.0674L8.32891 13.0564C8.34258 13.0428 8.35625 13.0318 8.36992 13.0209C8.37266 13.0182 8.37539 13.0182 8.37812 13.0154C8.3918 13.0045 8.4082 12.9936 8.42461 12.9854C8.43555 12.9771 8.44922 12.9717 8.46016 12.9689C8.46289 12.9662 8.46836 12.9662 8.47109 12.9635C8.4793 12.9607 8.48477 12.958 8.49297 12.9553C8.49844 12.9553 8.50117 12.9525 8.50664 12.9525C8.50938 12.9525 8.51484 12.9498 8.51758 12.9498C8.52305 12.9498 8.52852 12.9471 8.53398 12.9471H8.5668C8.575 12.9471 8.58047 12.9498 8.58867 12.9498H8.59414C8.59961 12.9498 8.60508 12.9525 8.61055 12.9553C8.61328 12.9553 8.61328 12.9553 8.61602 12.958C8.62148 12.9607 8.62969 12.9635 8.63516 12.9662L8.23047 12.7311H8.22773C8.22227 12.7283 8.2168 12.7256 8.21406 12.7229H8.21133C8.20859 12.7229 8.20859 12.7229 8.20586 12.7201C8.20313 12.7201 8.20039 12.7174 8.19766 12.7174C8.19492 12.7174 8.19219 12.7174 8.18945 12.7146H8.18125C8.17578 12.7146 8.17031 12.7119 8.16484 12.7119H8.12383C8.12109 12.7119 8.11836 12.7119 8.11562 12.7146C8.11289 12.7146 8.10742 12.7174 8.10469 12.7174C8.10195 12.7174 8.09922 12.7174 8.09922 12.7201C8.09648 12.7201 8.09375 12.7229 8.09375 12.7229C8.08828 12.7256 8.08008 12.7283 8.07188 12.7311C8.06914 12.7311 8.06641 12.7338 8.06367 12.7338C8.06367 12.7338 8.06094 12.7365 8.0582 12.7365C8.04727 12.742 8.03359 12.7475 8.02266 12.7557C8.00625 12.7639 7.99258 12.7748 7.97891 12.7857C7.97617 12.7885 7.97344 12.7885 7.9707 12.7912C7.95703 12.8021 7.94336 12.8158 7.92969 12.8268L7.92695 12.8295L7.92148 12.835C7.91602 12.8404 7.90781 12.8486 7.90234 12.8568L7.89687 12.8623L7.89141 12.8678C7.88867 12.8732 7.8832 12.876 7.88047 12.8814L7.87227 12.8896C7.86953 12.8924 7.86953 12.8951 7.8668 12.8979C7.86406 12.9006 7.86133 12.9061 7.85859 12.9088C7.85586 12.9115 7.85586 12.9143 7.85313 12.917C7.85039 12.9225 7.84766 12.9252 7.84492 12.9307C7.84219 12.9334 7.84219 12.9361 7.83945 12.9389L7.83672 12.9416L7.82031 12.9662V12.9689C7.82031 12.9717 7.81758 12.9717 7.81758 12.9744C7.81484 12.9799 7.81211 12.9854 7.80664 12.9936C7.80391 12.9963 7.80391 12.999 7.80117 13.0018C7.79844 13.0045 7.79844 13.0072 7.7957 13.01C7.7957 13.0127 7.79297 13.0154 7.79297 13.0182C7.79023 13.0264 7.7875 13.0318 7.78477 13.04C7.78477 13.04 7.78477 13.0428 7.78203 13.0428C7.7793 13.051 7.77383 13.0592 7.77109 13.0701C7.77109 13.0729 7.77109 13.0729 7.76836 13.0756C7.76836 13.0783 7.76562 13.0811 7.76562 13.0865C7.76289 13.092 7.76289 13.0947 7.76016 13.1002C7.76016 13.1029 7.75742 13.1084 7.75742 13.1111C7.75742 13.1139 7.75469 13.1193 7.75469 13.1221C7.75469 13.1248 7.75195 13.1275 7.75195 13.1303C7.75195 13.1357 7.74922 13.1385 7.74922 13.1439C7.74922 13.1494 7.74648 13.1549 7.74648 13.1576V13.1631C7.74648 13.1658 7.74648 13.1713 7.74375 13.174C7.74102 13.1822 7.74102 13.1904 7.74102 13.1986V13.2096C7.73828 13.226 7.73828 13.2451 7.73828 13.2615C7.73828 13.3545 7.77109 13.4201 7.82305 13.4502L8.22773 13.6854C8.17578 13.6553 8.14297 13.5896 8.14297 13.4967C8.14297 13.4803 8.14297 13.4639 8.1457 13.4447C8.13477 13.4393 8.13477 13.4338 8.1375 13.4311Z" fill="#ACC5EA"/>
<path d="M9.02615 12.9504C9.02888 12.9504 9.03435 12.9477 9.03709 12.9477C9.03982 12.9477 9.04255 12.9449 9.04529 12.9449C9.05076 12.9449 9.05349 12.9422 9.05623 12.9422H9.08357C9.08904 12.9422 9.09451 12.9422 9.09998 12.9449H9.10544C9.11091 12.9449 9.11365 12.9477 9.11912 12.9477C9.11912 12.9477 9.12185 12.9477 9.12185 12.9504L9.13826 12.9586L8.73357 12.7234C8.73084 12.7207 8.72537 12.7207 8.72263 12.718H8.7199C8.7199 12.718 8.71716 12.718 8.71716 12.7152C8.71443 12.7152 8.71443 12.7125 8.71169 12.7125C8.70896 12.7125 8.70623 12.7125 8.70623 12.7098H8.69802C8.69255 12.7098 8.68982 12.7098 8.68435 12.707H8.6488C8.64607 12.707 8.64334 12.707 8.6406 12.7098H8.63513C8.6324 12.7098 8.6324 12.7098 8.62966 12.7125C8.62419 12.7152 8.61873 12.7152 8.61326 12.718C8.61052 12.718 8.61052 12.718 8.60779 12.7207C8.60779 12.7207 8.60505 12.7207 8.60505 12.7234C8.59685 12.7262 8.58591 12.7316 8.57771 12.7371L8.32068 12.8848L8.72537 13.1199L8.9824 12.9723C8.99334 12.9668 9.00154 12.9613 9.00974 12.9586C9.01248 12.9586 9.01521 12.9559 9.01794 12.9559C9.01521 12.9531 9.02068 12.9531 9.02615 12.9504Z" fill="#2A2ABC"/>
<path d="M8.21682 13.6854L7.81213 13.4502H7.81487L8.21682 13.6854Z" fill="#28289E"/>
<path d="M8.21951 13.6883L7.81482 13.4531C7.82029 13.4559 7.82576 13.4586 7.82849 13.4613L8.23318 13.6965C8.22771 13.691 8.22224 13.691 8.21951 13.6883Z" fill="#2929A3"/>
<path d="M8.23318 13.6941L7.82849 13.459C7.83396 13.4617 7.83943 13.4617 7.8449 13.4645L8.24959 13.6996C8.24412 13.6996 8.23865 13.6969 8.23318 13.6941Z" fill="#2A2AA8"/>
<path d="M8.24966 13.699L7.84497 13.4639C7.85044 13.4666 7.85591 13.4666 7.86138 13.4666L8.26606 13.7018C8.2606 13.7018 8.25513 13.7018 8.24966 13.699Z" fill="#2C2CAD"/>
<path d="M8.26602 13.7049L7.86133 13.4697C7.8668 13.4697 7.87227 13.4725 7.87773 13.4725L8.28242 13.7076C8.27695 13.7049 8.27148 13.7049 8.26602 13.7049Z" fill="#2D2DB3"/>
<path d="M8.28237 13.7049L7.87769 13.4697H7.89683L8.30151 13.7049H8.28237Z" fill="#2E2EB8"/>
<path d="M8.30154 13.7047L7.89685 13.4695C7.90505 13.4695 7.91052 13.4695 7.91873 13.4668L8.32341 13.702C8.31521 13.7047 8.30974 13.7047 8.30154 13.7047Z" fill="#2F2FBD"/>
<path d="M8.32339 13.7045L7.9187 13.4693C7.9269 13.4693 7.93511 13.4666 7.94331 13.4639L8.348 13.699C8.33979 13.699 8.33159 13.7018 8.32339 13.7045Z" fill="#3131C2"/>
<path d="M8.34805 13.6992L7.94336 13.4641C7.9543 13.4613 7.96523 13.4559 7.97891 13.4531L8.38359 13.6883C8.37266 13.691 8.36172 13.6937 8.34805 13.6992Z" fill="#3232C7"/>
<path d="M8.38357 13.6854L7.97888 13.4502C7.99255 13.4447 8.00623 13.4365 8.0199 13.4311C8.05544 13.4119 8.08826 13.3846 8.11834 13.3545L8.52302 13.5896C8.49295 13.6197 8.46013 13.6443 8.42459 13.6662C8.41091 13.6744 8.39724 13.6799 8.38357 13.6854Z" fill="#3333CC"/>
<path d="M8.5231 13.5902L8.11841 13.3551L8.15122 13.3223L8.55591 13.5574L8.5231 13.5902Z" fill="#3232C7"/>
<path d="M8.55581 13.5572L8.15112 13.3221C8.15933 13.3139 8.16753 13.3029 8.17573 13.292L8.58042 13.5271C8.56948 13.5381 8.56128 13.5463 8.55581 13.5572Z" fill="#3131C2"/>
<path d="M8.57778 13.5271L8.1731 13.292C8.17856 13.2838 8.18677 13.2756 8.19224 13.2646L8.59692 13.4998C8.59146 13.5107 8.58599 13.5189 8.57778 13.5271Z" fill="#2F2FBD"/>
<path d="M8.59683 13.5L8.19214 13.2648L8.20855 13.2402L8.61323 13.4754C8.6105 13.4836 8.60229 13.4918 8.59683 13.5Z" fill="#2E2EB8"/>
<path d="M8.61599 13.4746L8.2113 13.2395L8.22771 13.2148L8.6324 13.45C8.6242 13.4582 8.61873 13.4664 8.61599 13.4746Z" fill="#2D2DB3"/>
<path d="M8.62966 13.4502L8.22498 13.215C8.23044 13.2068 8.23318 13.1986 8.23865 13.1904L8.64334 13.4256C8.63787 13.4338 8.63513 13.442 8.62966 13.4502Z" fill="#2C2CAD"/>
<path d="M8.64334 13.4258L8.23865 13.1906C8.24412 13.1824 8.24685 13.1742 8.25232 13.166L8.65701 13.4012C8.65154 13.4094 8.6488 13.4176 8.64334 13.4258Z" fill="#2A2AA8"/>
<path d="M8.65701 13.4014L8.25232 13.1662C8.25505 13.158 8.26052 13.1498 8.26326 13.1416L8.66794 13.3768C8.66521 13.385 8.65974 13.3932 8.65701 13.4014Z" fill="#2929A3"/>
<path d="M8.66799 13.3768L8.26331 13.1416C8.26604 13.1334 8.27151 13.1252 8.27424 13.1143L8.67893 13.3494C8.6762 13.3576 8.67073 13.3658 8.66799 13.3768Z" fill="#28289E"/>
<path d="M8.67886 13.3494L8.27417 13.1143C8.2769 13.1061 8.28237 13.0951 8.28511 13.0869L8.68979 13.3221C8.68433 13.3303 8.68159 13.3412 8.67886 13.3494Z" fill="#262699"/>
<path d="M8.68716 13.3219L8.28247 13.0867C8.28521 13.0758 8.28794 13.0676 8.29067 13.0566L8.69536 13.2918C8.69536 13.3027 8.69263 13.3109 8.68716 13.3219Z" fill="#252594"/>
<path d="M8.69802 13.2914L8.29333 13.0563L8.30154 13.0234L8.70623 13.2586L8.69802 13.2914Z" fill="#24248F"/>
<path d="M8.7062 13.2586L8.30151 13.0234L8.30972 12.9824L8.7144 13.2176L8.7062 13.2586Z" fill="#23238A"/>
<path d="M8.71169 13.2176L8.30701 12.9824C8.30974 12.9633 8.30974 12.9441 8.30974 12.925C8.30974 12.9113 8.30974 12.9004 8.30701 12.8867L8.71169 13.1219C8.71169 13.1355 8.71443 13.1465 8.71443 13.1602C8.71716 13.1793 8.71443 13.1984 8.71169 13.2176Z" fill="#212185"/>
<path d="M7.72734 13.2236L7.47031 13.3713C7.45664 13.3795 7.44023 13.3904 7.42656 13.4014C7.42109 13.4041 7.41836 13.4096 7.41289 13.4123C7.40742 13.4178 7.39922 13.4232 7.39375 13.4287L7.38555 13.4369L7.37734 13.4451L7.36914 13.4533C7.36367 13.4615 7.35547 13.467 7.35 13.4752C7.34727 13.4779 7.34453 13.4807 7.34453 13.4834C7.34453 13.4861 7.3418 13.4861 7.3418 13.4889C7.33906 13.4916 7.33906 13.4943 7.33633 13.4971C7.33086 13.5025 7.32812 13.5107 7.32266 13.5162C7.31719 13.5217 7.31445 13.5299 7.31172 13.5354V13.5408L7.30352 13.5572C7.30078 13.5627 7.29805 13.5709 7.29258 13.5764L7.28437 13.5928C7.28164 13.601 7.27891 13.6064 7.27617 13.6146C7.27344 13.6229 7.2707 13.6283 7.26797 13.6365C7.26797 13.6393 7.26523 13.6447 7.26523 13.6475C7.26523 13.6502 7.26523 13.6502 7.2625 13.6529C7.2625 13.6557 7.25977 13.6584 7.25977 13.6611C7.25703 13.6693 7.2543 13.6775 7.2543 13.6885C7.2543 13.6939 7.25156 13.6994 7.25156 13.7049C7.25156 13.7076 7.25156 13.7104 7.24883 13.7131V13.7213C7.24609 13.7377 7.24609 13.7514 7.24609 13.765L7.25703 17.1693C7.25703 17.2404 7.28437 17.2924 7.32539 17.317L7.73008 17.5521C7.68906 17.5275 7.66172 17.4783 7.66172 17.4045L7.65078 14.0002C7.65078 13.9838 7.65352 13.9646 7.65625 13.9482C7.65625 13.9455 7.65625 13.9428 7.65898 13.94C7.66172 13.9236 7.66445 13.9072 7.66992 13.8908C7.66992 13.8881 7.66992 13.8881 7.67266 13.8854C7.67813 13.8662 7.68359 13.8498 7.6918 13.8307C7.7 13.8115 7.7082 13.7951 7.71914 13.776V13.7732L7.75195 13.724C7.75195 13.7213 7.75469 13.7213 7.75469 13.7186L7.7875 13.6775L7.7957 13.6693C7.80391 13.6584 7.81484 13.6502 7.82578 13.642C7.83125 13.6393 7.83398 13.6338 7.83945 13.6311C7.85313 13.6201 7.8668 13.6092 7.8832 13.601L8.14023 13.4533L7.72734 13.2236Z" fill="#2A2ABC"/>
<path d="M8.97144 12.975C9.09722 12.9012 9.20112 12.9613 9.20386 13.1062L9.21479 16.5105C9.21479 16.6555 9.11089 16.8359 8.98511 16.907L7.88862 17.5387C7.76284 17.6125 7.65894 17.5523 7.6562 17.4074L7.64526 14.0031C7.64526 13.8582 7.74917 13.6777 7.87495 13.6066L8.13198 13.459C8.13198 13.4726 8.12925 13.4863 8.12925 13.5C8.12925 13.6859 8.2605 13.7598 8.42183 13.6668C8.58315 13.5738 8.7144 13.3469 8.7144 13.1609C8.7144 13.1473 8.7144 13.1363 8.71167 13.1226L8.97144 12.975Z" fill="#4040FF"/>
<path d="M8.38354 12.8271L8.63784 12.9721L8.13745 13.4615L8.02808 13.3986L8.2769 12.8271H8.38354Z" fill="#ACC5EA"/>
<path d="M8.42466 12.9884C8.58599 12.8954 8.71724 12.9692 8.71724 13.1552C8.71724 13.3411 8.58599 13.5681 8.42466 13.661C8.26333 13.754 8.13208 13.6802 8.13208 13.4942C8.13208 13.3083 8.2606 13.0841 8.42466 12.9884Z" fill="white"/>
<path d="M11.6102 9.89043C11.6156 9.8877 11.6211 9.8877 11.6266 9.88496C11.6293 9.88496 11.6348 9.88223 11.6375 9.88223C11.6402 9.88223 11.643 9.87949 11.6457 9.87949C11.6512 9.87949 11.6539 9.87676 11.6566 9.87676H11.684C11.6895 9.87676 11.6949 9.87676 11.7004 9.87949H11.7059C11.7113 9.87949 11.7141 9.88223 11.7195 9.88223C11.7195 9.88223 11.7223 9.88223 11.7223 9.88496L11.7387 9.89316L11.334 9.65801C11.3313 9.65527 11.3258 9.65527 11.323 9.65254H11.3203C11.3203 9.65254 11.3176 9.65254 11.3176 9.6498C11.3148 9.6498 11.3148 9.64707 11.3121 9.64707C11.3094 9.64707 11.3066 9.64707 11.3066 9.64434H11.2984C11.293 9.64434 11.2902 9.64434 11.2848 9.6416H11.2492C11.2465 9.6416 11.2438 9.6416 11.241 9.64434H11.2355C11.2328 9.64434 11.2328 9.64434 11.2301 9.64707C11.2246 9.6498 11.2191 9.6498 11.2137 9.65254C11.2109 9.65254 11.2109 9.65254 11.2082 9.65527C11.2082 9.65527 11.2055 9.65527 11.2055 9.65801C11.1973 9.66074 11.1863 9.66621 11.1781 9.67168L10.9238 9.81934L11.3285 10.0545L11.5828 9.90684C11.5938 9.90137 11.602 9.8959 11.6102 9.89316C11.6047 9.89316 11.6074 9.89043 11.6102 9.89043Z" fill="#2A2ABC"/>
<path d="M10.8172 10.5818L10.4125 10.3467H10.4152L10.8172 10.5818C10.8199 10.5818 10.8199 10.5818 10.8172 10.5818Z" fill="#28289E"/>
<path d="M10.82 10.5818L10.4153 10.3467C10.4208 10.3494 10.4262 10.3521 10.429 10.3549L10.8336 10.59C10.8309 10.5873 10.8254 10.5846 10.82 10.5818Z" fill="#2929A3"/>
<path d="M10.8336 10.5906L10.429 10.3555C10.4344 10.3582 10.4399 10.3582 10.4454 10.3609L10.85 10.5961C10.8446 10.5934 10.8391 10.5906 10.8336 10.5906Z" fill="#2A2AA8"/>
<path d="M10.85 10.5955L10.4453 10.3604C10.4508 10.3631 10.4563 10.3631 10.4617 10.3631L10.8664 10.5982C10.8609 10.5982 10.8555 10.5955 10.85 10.5955Z" fill="#2C2CAD"/>
<path d="M10.8664 10.5984L10.4617 10.3633C10.4671 10.3633 10.4726 10.366 10.4781 10.366L10.8828 10.6012C10.8773 10.6012 10.8718 10.5984 10.8664 10.5984Z" fill="#2D2DB3"/>
<path d="M10.8855 10.6014L10.4808 10.3662H10.5L10.9047 10.6014H10.8855Z" fill="#2E2EB8"/>
<path d="M10.9047 10.6012L10.5 10.366C10.5082 10.366 10.5137 10.366 10.5219 10.3633L10.9266 10.5984C10.9184 10.5984 10.9102 10.6012 10.9047 10.6012Z" fill="#2F2FBD"/>
<path d="M10.9265 10.598L10.5219 10.3629C10.5301 10.3629 10.5383 10.3602 10.5465 10.3574L10.9511 10.5926C10.9429 10.5953 10.9347 10.5953 10.9265 10.598Z" fill="#3131C2"/>
<path d="M10.9512 10.5928L10.5465 10.3576C10.5574 10.3549 10.5684 10.3494 10.5821 10.3467L10.9867 10.5818C10.9731 10.5846 10.9621 10.59 10.9512 10.5928Z" fill="#3232C7"/>
<path d="M10.9867 10.5818L10.582 10.3467C10.5957 10.3412 10.6094 10.333 10.623 10.3275C10.6586 10.3084 10.6914 10.2811 10.7215 10.251L11.1262 10.4861C11.0961 10.5162 11.0633 10.5408 11.0277 10.5627C11.0141 10.5682 11.0004 10.5764 10.9867 10.5818Z" fill="#3333CC"/>
<path d="M11.1234 10.4838L10.7188 10.2486L10.7516 10.2158L11.1562 10.451C11.1453 10.4619 11.1344 10.4756 11.1234 10.4838Z" fill="#3232C7"/>
<path d="M11.1563 10.4508L10.7516 10.2156C10.7598 10.2074 10.768 10.1965 10.7762 10.1855L11.1809 10.4207C11.1727 10.4316 11.1645 10.4426 11.1563 10.4508Z" fill="#3131C2"/>
<path d="M11.1808 10.4207L10.7761 10.1855C10.7816 10.1773 10.7898 10.1691 10.7953 10.1582L11.2 10.3934C11.1945 10.4043 11.1863 10.4125 11.1808 10.4207Z" fill="#2F2FBD"/>
<path d="M11.2 10.3965L10.7953 10.1613L10.8117 10.1367L11.2164 10.3719L11.2 10.3965Z" fill="#2E2EB8"/>
<path d="M11.2165 10.3711L10.8118 10.1359L10.8282 10.1113L11.2329 10.3465L11.2165 10.3711Z" fill="#2D2DB3"/>
<path d="M11.2328 10.3467L10.8281 10.1115C10.8336 10.1033 10.8363 10.0951 10.8418 10.0869L11.2465 10.3221C11.241 10.3303 11.2355 10.3385 11.2328 10.3467Z" fill="#2C2CAD"/>
<path d="M11.2465 10.3223L10.8418 10.0871C10.8473 10.0789 10.85 10.0707 10.8555 10.0625L11.2602 10.2977C11.2547 10.3031 11.2492 10.3141 11.2465 10.3223Z" fill="#2A2AA8"/>
<path d="M11.2575 10.2949L10.8528 10.0598C10.8555 10.0516 10.861 10.0434 10.8637 10.0352L11.2684 10.2703C11.2657 10.2785 11.2629 10.2867 11.2575 10.2949Z" fill="#2929A3"/>
<path d="M11.2683 10.2703L10.8636 10.0352C10.8664 10.027 10.8719 10.0187 10.8746 10.0078L11.2793 10.243C11.2765 10.2539 11.2738 10.2621 11.2683 10.2703Z" fill="#28289E"/>
<path d="M11.2793 10.243L10.8746 10.0078C10.8774 9.99961 10.8828 9.98867 10.8856 9.98047L11.2903 10.2156C11.2875 10.2266 11.2848 10.2348 11.2793 10.243Z" fill="#262699"/>
<path d="M11.2902 10.2154L10.8855 9.98027C10.8882 9.96934 10.891 9.96113 10.8937 9.9502L11.2984 10.1854C11.2957 10.1963 11.2929 10.2072 11.2902 10.2154Z" fill="#252594"/>
<path d="M11.2985 10.1859L10.8938 9.95078L10.902 9.91797L11.3067 10.1531L11.2985 10.1859Z" fill="#24248F"/>
<path d="M11.3067 10.1531L10.902 9.91797L10.9102 9.87695L11.3149 10.1121L11.3067 10.1531Z" fill="#23238A"/>
<path d="M11.3148 10.1119L10.9102 9.87676C10.9129 9.85762 10.9129 9.83848 10.9129 9.81934L11.3176 10.0545C11.3176 10.0736 11.3176 10.0928 11.3148 10.1119Z" fill="#212185"/>
<path d="M10.3278 10.1582L10.0735 10.3059C10.0598 10.3141 10.0434 10.325 10.0297 10.3359C10.0242 10.3387 10.0215 10.3441 10.016 10.3469C10.0106 10.3523 10.0024 10.3578 9.9969 10.3633C9.99416 10.366 9.99143 10.3687 9.9887 10.3742L9.98049 10.3824L9.97229 10.3906C9.96682 10.3988 9.95862 10.4043 9.95315 10.4125C9.95041 10.4152 9.94768 10.418 9.94768 10.4207C9.94768 10.4234 9.94495 10.4234 9.94495 10.4262C9.94221 10.4289 9.94221 10.4316 9.93948 10.4344C9.93401 10.4398 9.93127 10.448 9.92581 10.4535C9.92034 10.459 9.9176 10.4672 9.91487 10.4727V10.4781L9.90666 10.4945C9.90393 10.5 9.9012 10.5082 9.89573 10.5137L9.88752 10.5301C9.88479 10.5383 9.88205 10.5437 9.87932 10.552C9.87659 10.5602 9.87385 10.5656 9.87112 10.5738C9.87112 10.5766 9.86838 10.582 9.86838 10.5848C9.86838 10.5875 9.86838 10.5875 9.86565 10.5902C9.86565 10.593 9.86292 10.5957 9.86292 10.5984C9.86018 10.6066 9.85745 10.6148 9.85745 10.6258C9.85745 10.6313 9.85471 10.6367 9.85471 10.6422C9.85471 10.6449 9.85471 10.6477 9.85198 10.6504V10.6586C9.84924 10.675 9.84924 10.6887 9.84924 10.7023L9.86565 16.1219C9.86565 16.193 9.89026 16.2449 9.93401 16.2695L10.3387 16.5047C10.2977 16.4801 10.2703 16.4309 10.2703 16.357L10.2485 10.9375C10.2485 10.9211 10.2512 10.902 10.2539 10.8855C10.2539 10.8828 10.2539 10.8801 10.2567 10.8773C10.2594 10.8609 10.2621 10.8445 10.2676 10.8281C10.2676 10.8254 10.2676 10.8254 10.2703 10.8227C10.2758 10.8035 10.2813 10.7871 10.2895 10.768C10.2977 10.7488 10.3059 10.7324 10.3168 10.7133V10.7105L10.3496 10.6613C10.3496 10.6586 10.3524 10.6586 10.3524 10.6559L10.3852 10.6148L10.3934 10.6066C10.4016 10.5957 10.4125 10.5875 10.4235 10.5793C10.4289 10.5766 10.4317 10.5711 10.4371 10.5684C10.4508 10.5574 10.4645 10.5465 10.4809 10.5383L10.7352 10.3906L10.3278 10.1582Z" fill="#2A2ABC"/>
<path d="M11.5746 9.90663C11.7004 9.8328 11.8043 9.89296 11.807 10.0379L11.8234 15.4574C11.8234 15.6023 11.7195 15.7828 11.5937 15.8539L10.4945 16.4883C10.3687 16.5621 10.2648 16.5019 10.2621 16.357L10.2484 10.9375C10.2484 10.7926 10.3523 10.6121 10.4781 10.541L10.7324 10.3933C10.7324 10.5793 10.8636 10.6531 11.025 10.5601C11.1863 10.4672 11.3176 10.2402 11.3176 10.0543L11.5746 9.90663Z" fill="#4040FF"/>
<path d="M10.8993 9.80859L11.1618 9.95625L10.7817 10.4238L10.5657 10.2953L10.8993 9.80859Z" fill="#ACC5EA"/>
<path d="M11.0223 9.879C11.1836 9.78604 11.3149 9.85986 11.3149 10.0458C11.3149 10.2317 11.1836 10.4587 11.0223 10.5517C10.861 10.6446 10.7297 10.5708 10.7297 10.3849C10.7325 10.1989 10.861 9.97197 11.0223 9.879Z" fill="white"/>
<path d="M10.8254 9.62461L10.809 9.61641H10.8062C10.8035 9.61641 10.8035 9.61641 10.8008 9.61367C10.798 9.61367 10.7953 9.61094 10.7926 9.61094C10.7898 9.61094 10.7871 9.61094 10.7844 9.6082H10.7761C10.7707 9.6082 10.7652 9.60547 10.7597 9.60547H10.7187C10.716 9.60547 10.7133 9.60547 10.7105 9.6082C10.7078 9.6082 10.7023 9.61094 10.6996 9.61094C10.6969 9.61094 10.6941 9.61094 10.6941 9.61367C10.6914 9.61367 10.6886 9.61641 10.6886 9.61641C10.6832 9.61914 10.675 9.62188 10.6668 9.62461C10.664 9.62461 10.6613 9.62734 10.6586 9.62734C10.6586 9.62734 10.6558 9.63008 10.6531 9.63008C10.6422 9.63555 10.6285 9.64102 10.6176 9.64922C10.6011 9.65742 10.5875 9.66836 10.5711 9.6793C10.5683 9.68203 10.5656 9.68203 10.5629 9.68477C10.5492 9.6957 10.5355 9.70938 10.5219 9.72031L10.5191 9.72305L10.5136 9.72852C10.5082 9.73398 10.5 9.74219 10.4945 9.75039L10.489 9.75586L10.4836 9.76133C10.4808 9.7668 10.4754 9.76953 10.4726 9.775L10.4644 9.7832C10.4617 9.78594 10.4617 9.78867 10.459 9.79141C10.4562 9.79414 10.4535 9.79961 10.4508 9.80234C10.448 9.80508 10.448 9.80781 10.4453 9.81055C10.4426 9.81602 10.4398 9.81875 10.4371 9.82422C10.4344 9.82695 10.4344 9.82969 10.4316 9.83242L10.4289 9.83516L10.4125 9.85977V9.8625C10.4125 9.86524 10.4097 9.86523 10.4097 9.86797C10.407 9.87344 10.4043 9.87891 10.3988 9.88438C10.3961 9.88711 10.3961 9.88984 10.3933 9.89258C10.3906 9.89531 10.3906 9.89805 10.3879 9.90078C10.3879 9.90352 10.3851 9.90625 10.3851 9.90898C10.3824 9.91719 10.3797 9.92266 10.3769 9.93086C10.3769 9.93086 10.3769 9.93359 10.3742 9.93359C10.3715 9.9418 10.366 9.95 10.3633 9.96094C10.3633 9.96367 10.3633 9.96367 10.3605 9.96641C10.3605 9.96914 10.3578 9.97188 10.3578 9.97734C10.3551 9.98281 10.3551 9.98555 10.3523 9.99102C10.3523 9.99375 10.3496 9.99922 10.3496 10.002C10.3496 10.0047 10.3469 10.0102 10.3469 10.0129C10.3469 10.0156 10.3441 10.0184 10.3441 10.0211C10.3441 10.0266 10.3414 10.0293 10.3414 10.0348C10.3414 10.0402 10.3386 10.0457 10.3386 10.0484V10.0539C10.3386 10.0566 10.3386 10.0621 10.3359 10.0648C10.3332 10.073 10.3332 10.0813 10.3332 10.0895V10.1004C10.3304 10.1168 10.3304 10.1359 10.3304 10.1523V10.1605L10.7351 10.3957V10.3875C10.7351 10.3711 10.7351 10.3547 10.7379 10.3355C10.7379 10.3301 10.7379 10.3273 10.7406 10.3219C10.7406 10.3137 10.7433 10.3055 10.7433 10.2973C10.7433 10.2918 10.7461 10.2863 10.7461 10.2809C10.7461 10.2754 10.7488 10.2699 10.7488 10.2672C10.7515 10.259 10.7515 10.2535 10.7543 10.2453C10.7543 10.2426 10.757 10.2371 10.757 10.2344L10.7652 10.2098C10.7652 10.207 10.7679 10.2043 10.7679 10.1988C10.7707 10.1879 10.7761 10.177 10.7816 10.166C10.7816 10.166 10.7816 10.1633 10.7844 10.1633C10.7898 10.1551 10.7926 10.1441 10.798 10.1359C10.8008 10.1332 10.8008 10.1305 10.8035 10.1277C10.809 10.1195 10.8117 10.1113 10.8172 10.1004C10.8172 10.0977 10.8199 10.0977 10.8199 10.0949C10.8254 10.084 10.8308 10.0758 10.839 10.0648C10.8418 10.0621 10.8418 10.0594 10.8445 10.0566C10.85 10.0484 10.8554 10.043 10.8582 10.0348C10.8609 10.032 10.8636 10.0266 10.8664 10.0238C10.8719 10.0184 10.8746 10.0129 10.8801 10.0074C10.8828 10.002 10.8883 9.99922 10.891 9.99375C10.8937 9.98828 10.8992 9.98555 10.9019 9.98008C10.9074 9.97188 10.9156 9.96641 10.9211 9.9582L10.932 9.94727C10.9457 9.93359 10.9594 9.92266 10.973 9.91172C10.9758 9.90898 10.9785 9.90898 10.9812 9.90625C10.9949 9.89531 11.0113 9.88438 11.0277 9.87617C11.0414 9.86797 11.0523 9.8625 11.0633 9.85703C11.066 9.8543 11.0715 9.8543 11.0742 9.85156C11.0824 9.84883 11.0879 9.84609 11.0961 9.84336C11.1015 9.84336 11.1043 9.84063 11.1097 9.84063C11.1125 9.84063 11.1179 9.83789 11.1207 9.83789C11.1261 9.83789 11.1316 9.83516 11.1371 9.83516H11.1699C11.1781 9.83516 11.1836 9.83789 11.1918 9.83789H11.1972C11.2027 9.83789 11.2082 9.84063 11.2136 9.84336C11.2164 9.84336 11.2164 9.84336 11.2191 9.84609C11.2246 9.84883 11.2328 9.85156 11.2383 9.8543L10.8254 9.62461Z" fill="#ACC5EA"/>
<path d="M14.2187 10.076C14.2242 10.0732 14.2297 10.0732 14.2351 10.0705C14.2379 10.0705 14.2433 10.0678 14.2461 10.0678C14.2488 10.0678 14.2515 10.065 14.2543 10.065C14.2597 10.065 14.2625 10.0623 14.2652 10.0623H14.2898C14.2953 10.0623 14.3008 10.0623 14.3062 10.065H14.3117C14.3172 10.065 14.3199 10.0678 14.3254 10.0678C14.3254 10.0678 14.3281 10.0678 14.3281 10.0705L14.3445 10.0787L13.9398 9.84355C13.9371 9.84082 13.9316 9.84082 13.9289 9.83809H13.9261C13.9261 9.83809 13.9234 9.83809 13.9234 9.83535C13.9207 9.83535 13.9207 9.83262 13.9179 9.83262C13.9152 9.83262 13.9125 9.83262 13.9125 9.82988H13.9043C13.8988 9.82988 13.8961 9.82988 13.8906 9.82715H13.8551C13.8523 9.82715 13.8496 9.82715 13.8469 9.82988H13.8414C13.8386 9.82988 13.8386 9.82988 13.8359 9.83262C13.8304 9.83535 13.825 9.83535 13.8195 9.83809C13.8168 9.83809 13.8168 9.83809 13.814 9.84082C13.814 9.84082 13.8113 9.84082 13.8113 9.84355C13.8031 9.84629 13.7922 9.85176 13.784 9.85723L13.5297 10.0049L13.9344 10.24L14.1886 10.0924C14.1996 10.0869 14.2078 10.0814 14.216 10.0787C14.2133 10.0787 14.216 10.0787 14.2187 10.076Z" fill="#2A2ABC"/>
<path d="M13.4258 10.7684L13.0211 10.5332H13.0239L13.4258 10.7684Z" fill="#28289E"/>
<path d="M13.4258 10.7684L13.0211 10.5332C13.0266 10.5359 13.0321 10.5387 13.0348 10.5414L13.4395 10.7766C13.4367 10.7738 13.4313 10.7711 13.4258 10.7684Z" fill="#2929A3"/>
<path d="M13.4422 10.7762L13.0375 10.541C13.0429 10.5437 13.0484 10.5438 13.0539 10.5465L13.4586 10.7816C13.4504 10.7789 13.4476 10.7762 13.4422 10.7762Z" fill="#2A2AA8"/>
<path d="M13.4558 10.782L13.0511 10.5469C13.0566 10.5496 13.0621 10.5496 13.0676 10.5496L13.4722 10.7848C13.4668 10.7848 13.4613 10.782 13.4558 10.782Z" fill="#2C2CAD"/>
<path d="M13.4723 10.784L13.0676 10.5488C13.0731 10.5488 13.0786 10.5516 13.084 10.5516L13.4887 10.7867C13.486 10.7867 13.4778 10.784 13.4723 10.784Z" fill="#2D2DB3"/>
<path d="M13.4914 10.7869L13.0867 10.5518H13.1058L13.5105 10.7869H13.4914Z" fill="#2E2EB8"/>
<path d="M13.5105 10.7867L13.1058 10.5516C13.114 10.5516 13.1195 10.5516 13.1277 10.5488L13.5324 10.784C13.5242 10.784 13.5187 10.7867 13.5105 10.7867Z" fill="#2F2FBD"/>
<path d="M13.5324 10.7846L13.1277 10.5494C13.1359 10.5494 13.1441 10.5467 13.1523 10.5439L13.557 10.7791C13.5488 10.7818 13.5406 10.7846 13.5324 10.7846Z" fill="#3131C2"/>
<path d="M13.557 10.7793L13.1523 10.5441C13.1633 10.5414 13.1742 10.5359 13.1879 10.5332L13.5926 10.7684C13.5816 10.7711 13.568 10.7766 13.557 10.7793Z" fill="#3232C7"/>
<path d="M13.5926 10.7684L13.1879 10.5332C13.2015 10.5277 13.2152 10.5195 13.2289 10.5141C13.2644 10.4949 13.2972 10.4676 13.3273 10.4375L13.732 10.6727C13.7019 10.7027 13.6691 10.7273 13.6336 10.7492C13.6199 10.7547 13.6062 10.7629 13.5926 10.7684Z" fill="#3333CC"/>
<path d="M13.7321 10.6693L13.3274 10.4342L13.3602 10.4014L13.7649 10.6365C13.754 10.6475 13.743 10.6611 13.7321 10.6693Z" fill="#3232C7"/>
<path d="M13.7621 10.6363L13.3574 10.4012C13.3656 10.393 13.3738 10.382 13.382 10.3711L13.7867 10.6063C13.7785 10.6172 13.7703 10.6281 13.7621 10.6363Z" fill="#3131C2"/>
<path d="M13.7868 10.6063L13.3821 10.3711C13.3875 10.3629 13.3958 10.3547 13.4012 10.3438L13.8059 10.5789C13.8004 10.5898 13.795 10.598 13.7868 10.6063Z" fill="#2F2FBD"/>
<path d="M13.8058 10.582L13.4011 10.3469L13.4175 10.3223L13.8222 10.5574L13.8058 10.582Z" fill="#2E2EB8"/>
<path d="M13.8223 10.5576L13.4176 10.3225L13.434 10.2979L13.8387 10.533L13.8223 10.5576Z" fill="#2D2DB3"/>
<path d="M13.8386 10.5303L13.434 10.2951C13.4394 10.2869 13.4422 10.2787 13.4476 10.2705L13.8523 10.5057C13.8469 10.5139 13.8441 10.5221 13.8386 10.5303Z" fill="#2C2CAD"/>
<path d="M13.8523 10.5059L13.4476 10.2707C13.4531 10.2625 13.4558 10.2543 13.4613 10.2461L13.866 10.4812C13.8605 10.4895 13.8578 10.4977 13.8523 10.5059Z" fill="#2A2AA8"/>
<path d="M13.866 10.4805L13.4613 10.2453C13.464 10.2371 13.4695 10.2289 13.4722 10.2207L13.8769 10.4559C13.8742 10.4641 13.8687 10.4723 13.866 10.4805Z" fill="#2929A3"/>
<path d="M13.877 10.4559L13.4723 10.2207C13.475 10.2125 13.4805 10.2043 13.4832 10.1934L13.8879 10.4285C13.8852 10.4395 13.8797 10.4477 13.877 10.4559Z" fill="#28289E"/>
<path d="M13.8878 10.4285L13.4832 10.1934C13.4859 10.1852 13.4886 10.1742 13.4941 10.166L13.8988 10.4012C13.8933 10.4121 13.8906 10.4203 13.8878 10.4285Z" fill="#262699"/>
<path d="M13.8961 10.402L13.4915 10.1668C13.4942 10.1559 13.4969 10.1477 13.4997 10.1367L13.9043 10.3719C13.9043 10.3828 13.9016 10.3937 13.8961 10.402Z" fill="#252594"/>
<path d="M13.907 10.3715L13.5023 10.1363L13.5105 10.1035L13.9152 10.3387L13.907 10.3715Z" fill="#24248F"/>
<path d="M13.9152 10.3387L13.5105 10.1035L13.5187 10.0625L13.9234 10.2977L13.9152 10.3387Z" fill="#23238A"/>
<path d="M13.9207 10.2975L13.516 10.0623C13.5187 10.0432 13.5187 10.024 13.5187 10.0049L13.9234 10.24C13.9261 10.2592 13.9234 10.2783 13.9207 10.2975Z" fill="#212185"/>
<path d="M12.5289 15.0496L12.9336 15.2848C12.8926 15.2602 12.8652 15.2109 12.8652 15.1371L12.4605 14.902C12.4633 14.9758 12.4879 15.0277 12.5289 15.0496ZM12.9336 10.3438L12.6793 10.4914C12.6656 10.4996 12.6492 10.5105 12.6355 10.5215C12.6301 10.5242 12.6273 10.5297 12.6219 10.5324C12.6164 10.5379 12.6082 10.5434 12.6027 10.5488C12.6 10.5516 12.5973 10.5543 12.5945 10.5598L12.5863 10.568L12.5781 10.5762C12.5727 10.5844 12.5645 10.5898 12.559 10.598C12.5562 10.6008 12.5535 10.6035 12.5535 10.6063C12.5535 10.609 12.5508 10.609 12.5508 10.6117C12.548 10.6145 12.548 10.6172 12.5453 10.6199C12.5398 10.6254 12.5371 10.6336 12.5316 10.6391C12.5262 10.6445 12.5234 10.6527 12.5207 10.6582V10.6637L12.5125 10.6801C12.5098 10.6855 12.507 10.6938 12.5016 10.6992C12.4988 10.7047 12.4961 10.7102 12.4934 10.7184C12.4906 10.7266 12.4879 10.732 12.4852 10.7402C12.4824 10.7484 12.4797 10.7539 12.477 10.7621C12.477 10.7648 12.4742 10.7703 12.4742 10.773C12.4742 10.7758 12.4742 10.7758 12.4715 10.7785C12.4715 10.7813 12.4688 10.784 12.4688 10.7867C12.466 10.7949 12.4633 10.8031 12.4633 10.8141C12.4633 10.8195 12.4605 10.825 12.4605 10.8305C12.4605 10.8332 12.4605 10.8359 12.4578 10.8387V10.8469C12.4551 10.8633 12.4551 10.877 12.4551 10.8906L12.466 14.9047L12.8707 15.1398L12.8598 11.1258C12.8598 11.1094 12.8625 11.0902 12.8652 11.0738C12.8652 11.0711 12.8652 11.0684 12.868 11.0656C12.8707 11.0492 12.8734 11.0328 12.8789 11.0164C12.8789 11.0137 12.8789 11.0137 12.8816 11.0109C12.8871 10.9918 12.8926 10.9754 12.9008 10.9563C12.909 10.9371 12.9172 10.9207 12.9281 10.9016V10.8988L12.9609 10.8496C12.9609 10.8469 12.9637 10.8469 12.9637 10.8441L12.9965 10.8031L13.0047 10.7949C13.0129 10.784 13.0238 10.7758 13.0348 10.7676C13.0402 10.7648 13.043 10.7594 13.0484 10.7566C13.0621 10.7457 13.0758 10.7348 13.0922 10.7266L13.3465 10.5789L12.9336 10.3438Z" fill="#2A2ABC"/>
<path d="M14.1805 10.0951C14.3063 10.0213 14.4102 10.0814 14.4102 10.2264L14.4211 14.2404C14.4211 14.3853 14.3172 14.5658 14.1914 14.6369L13.0977 15.2713C12.9719 15.3451 12.868 15.2849 12.868 15.14L12.8571 11.126C12.8571 10.981 12.961 10.8006 13.0867 10.7295L13.341 10.5818C13.341 10.7678 13.4723 10.8416 13.6336 10.7486C13.7949 10.6557 13.9262 10.4287 13.9262 10.2428L14.1805 10.0951Z" fill="#4040FF"/>
<path d="M13.6336 10.0733C13.795 9.98037 13.9262 10.0542 13.9262 10.2401C13.9262 10.4261 13.795 10.653 13.6336 10.746C13.4723 10.839 13.3411 10.7651 13.3411 10.5792C13.3411 10.3933 13.4723 10.1663 13.6336 10.0733Z" fill="white"/>
<path d="M13.4367 9.81895L13.4203 9.81074H13.4176C13.4149 9.81074 13.4149 9.81074 13.4121 9.80801C13.4094 9.80801 13.4067 9.80527 13.4039 9.80527C13.4012 9.80527 13.3985 9.80527 13.3957 9.80254H13.3875C13.3821 9.80254 13.3766 9.7998 13.3711 9.7998H13.3301C13.3274 9.7998 13.3246 9.7998 13.3219 9.80254C13.3192 9.80254 13.3137 9.80527 13.311 9.80527C13.3082 9.80527 13.3055 9.80527 13.3055 9.80801C13.3028 9.80801 13.3 9.81074 13.3 9.81074C13.2946 9.81348 13.2864 9.81621 13.2781 9.81895C13.2754 9.81895 13.2727 9.82168 13.2699 9.82168C13.2699 9.82168 13.2672 9.82441 13.2645 9.82441C13.2535 9.82988 13.2399 9.83535 13.2289 9.84355C13.2125 9.85176 13.1989 9.8627 13.1824 9.87363C13.1797 9.87637 13.177 9.87637 13.1742 9.8791C13.1606 9.89004 13.1469 9.90371 13.1332 9.91465L13.1305 9.91738L13.125 9.92285C13.1196 9.92832 13.1114 9.93652 13.1059 9.94473C13.1031 9.94746 13.1031 9.9502 13.1004 9.9502L13.0949 9.95566C13.0922 9.96113 13.0867 9.96387 13.084 9.96934L13.0758 9.97754C13.0731 9.98027 13.0731 9.98301 13.0703 9.98574C13.0676 9.98848 13.0649 9.99395 13.0621 9.99668C13.0594 9.99941 13.0594 10.0021 13.0567 10.0049C13.0539 10.0104 13.0512 10.0131 13.0485 10.0186C13.0457 10.0213 13.0457 10.024 13.043 10.0268L13.0403 10.0295L13.0239 10.0541V10.0568C13.0239 10.0596 13.0211 10.0596 13.0211 10.0623C13.0184 10.0678 13.0156 10.0732 13.0102 10.0814C13.0074 10.0842 13.0074 10.0869 13.0047 10.0896C13.002 10.0924 13.002 10.0951 12.9992 10.0979C12.9992 10.1006 12.9965 10.1033 12.9965 10.1061C12.9938 10.1143 12.991 10.1197 12.9856 10.1279C12.9856 10.1279 12.9856 10.1307 12.9828 10.1307C12.9801 10.1389 12.9746 10.1471 12.9719 10.158C12.9719 10.1607 12.9719 10.1607 12.9692 10.1635C12.9692 10.1662 12.9664 10.1689 12.9664 10.1744C12.9637 10.1799 12.9637 10.1826 12.961 10.1881C12.961 10.1908 12.9582 10.1936 12.9582 10.199C12.9582 10.2018 12.9555 10.2072 12.9555 10.21C12.9555 10.2127 12.9555 10.2154 12.9528 10.2182C12.9528 10.2236 12.95 10.2264 12.95 10.2318C12.95 10.2373 12.9473 10.2428 12.9473 10.2455V10.251C12.9473 10.2537 12.9446 10.2592 12.9446 10.2619C12.9418 10.2701 12.9418 10.2783 12.9418 10.2865V10.2975C12.9391 10.3139 12.9391 10.333 12.9391 10.3494V10.3549L13.3438 10.5846C13.3438 10.5682 13.3438 10.5518 13.3465 10.5354V10.5244C13.3465 10.5162 13.3492 10.508 13.3492 10.4998C13.3492 10.4971 13.3492 10.4916 13.352 10.4889V10.4834C13.352 10.4779 13.3547 10.4725 13.3547 10.4697C13.3547 10.4643 13.3574 10.4615 13.3574 10.4561C13.3574 10.4533 13.3602 10.4506 13.3602 10.4479C13.3602 10.4451 13.3629 10.4396 13.3629 10.4369C13.3629 10.4342 13.3656 10.4287 13.3656 10.426C13.3684 10.4205 13.3684 10.4178 13.3711 10.4123C13.3711 10.4096 13.3739 10.4068 13.3739 10.4014C13.3739 10.3986 13.3739 10.3986 13.3766 10.3959C13.3793 10.3877 13.3848 10.3795 13.3875 10.3686C13.3875 10.3686 13.3875 10.3658 13.3903 10.3658C13.393 10.3576 13.3957 10.3521 13.3985 10.3439C13.3985 10.3412 13.4012 10.3385 13.4012 10.3357C13.4039 10.333 13.4039 10.3303 13.4067 10.3275C13.4094 10.3248 13.4094 10.3221 13.4121 10.3193C13.4149 10.3139 13.4176 10.3084 13.4231 10.3002C13.4231 10.2975 13.4258 10.2975 13.4258 10.2947V10.292L13.4422 10.2674L13.4449 10.2646C13.4477 10.2619 13.4477 10.2592 13.4504 10.2564C13.4531 10.251 13.4559 10.2482 13.4586 10.2428C13.4614 10.24 13.4614 10.2373 13.4641 10.2346C13.4668 10.2318 13.4696 10.2264 13.4723 10.2236C13.475 10.2209 13.475 10.2182 13.4778 10.2154L13.486 10.2072C13.4887 10.2018 13.4942 10.199 13.4969 10.1936L13.5024 10.1881L13.5078 10.1826C13.5133 10.1744 13.5215 10.1689 13.527 10.1607C13.5297 10.158 13.5297 10.1553 13.5324 10.1553L13.5352 10.1525C13.5489 10.1389 13.5625 10.1279 13.5762 10.117C13.5789 10.1143 13.5817 10.1143 13.5844 10.1115C13.5981 10.1006 13.6145 10.0896 13.6309 10.0814C13.6446 10.0732 13.6555 10.0678 13.6664 10.0623C13.6692 10.0596 13.6746 10.0596 13.6774 10.0568C13.6856 10.0541 13.691 10.0514 13.6992 10.0486C13.7047 10.0486 13.7074 10.0459 13.7129 10.0459C13.7156 10.0459 13.7211 10.0432 13.7239 10.0432C13.7293 10.0432 13.7348 10.0404 13.7403 10.0404H13.7731C13.7813 10.0404 13.7867 10.0432 13.7949 10.0432H13.8004C13.8059 10.0432 13.8114 10.0459 13.8168 10.0486C13.8196 10.0486 13.8196 10.0486 13.8223 10.0514C13.8278 10.0541 13.836 10.0568 13.8414 10.0596L13.4367 9.81895Z" fill="#ACC5EA"/>
<path d="M16.8165 5.17363C16.8219 5.1709 16.8274 5.1709 16.8329 5.16816C16.8356 5.16816 16.8411 5.16543 16.8438 5.16543C16.8465 5.16543 16.8493 5.1627 16.852 5.1627C16.8575 5.1627 16.8602 5.15996 16.8629 5.15996H16.8903C16.8958 5.15996 16.9012 5.15996 16.9067 5.1627H16.9122C16.9176 5.1627 16.9204 5.16543 16.9258 5.16543C16.9258 5.16543 16.9286 5.16543 16.9286 5.16816L16.945 5.17637L16.5403 4.94121C16.5375 4.93848 16.5321 4.93848 16.5293 4.93574H16.5266C16.5266 4.93574 16.5239 4.93574 16.5239 4.93301C16.5211 4.93301 16.5211 4.93027 16.5184 4.93027C16.5157 4.93027 16.5129 4.93027 16.5129 4.92754H16.5047C16.4993 4.92754 16.4965 4.92754 16.4911 4.9248H16.4555C16.4528 4.9248 16.45 4.9248 16.4473 4.92754H16.4418C16.4391 4.92754 16.4391 4.92754 16.4364 4.93027C16.4309 4.93301 16.4254 4.93301 16.42 4.93574C16.4172 4.93574 16.4172 4.93574 16.4145 4.93848C16.4145 4.93848 16.4118 4.93848 16.4118 4.94121C16.4036 4.94395 16.3926 4.94941 16.3844 4.95488L16.1301 5.10254L16.5348 5.3377L16.7891 5.19004C16.8 5.18457 16.8083 5.1791 16.8165 5.17637C16.811 5.17637 16.8137 5.17363 16.8165 5.17363Z" fill="#2A2ABC"/>
<path d="M16.0235 5.86504L15.6188 5.62988H15.6215L16.0235 5.86504C16.0262 5.86504 16.0262 5.86504 16.0235 5.86504Z" fill="#28289E"/>
<path d="M16.0261 5.86504L15.6215 5.62988C15.6269 5.63262 15.6324 5.63535 15.6351 5.63809L16.0398 5.87324C16.0344 5.87051 16.0316 5.86777 16.0261 5.86504Z" fill="#2929A3"/>
<path d="M16.0398 5.87383L15.6351 5.63867C15.6406 5.64141 15.6461 5.64141 15.6515 5.64414L16.0562 5.8793C16.0508 5.87656 16.0453 5.87383 16.0398 5.87383Z" fill="#2A2AA8"/>
<path d="M16.0563 5.87871L15.6516 5.64355C15.6571 5.64629 15.6625 5.64629 15.668 5.64629L16.0727 5.88145C16.0672 5.88145 16.0618 5.87871 16.0563 5.87871Z" fill="#2C2CAD"/>
<path d="M16.0727 5.88164L15.668 5.64648C15.6734 5.64648 15.6789 5.64922 15.6844 5.64922L16.0891 5.88437C16.0836 5.88437 16.0781 5.88164 16.0727 5.88164Z" fill="#2D2DB3"/>
<path d="M16.089 5.88457L15.6843 5.64941H15.7035L16.1082 5.88457H16.089Z" fill="#2E2EB8"/>
<path d="M16.111 5.88437L15.7063 5.64922C15.7145 5.64922 15.72 5.64922 15.7282 5.64648L16.1329 5.88164C16.1247 5.88164 16.1165 5.88437 16.111 5.88437Z" fill="#2F2FBD"/>
<path d="M16.1328 5.88125L15.7281 5.64609C15.7364 5.64609 15.7446 5.64336 15.7528 5.64062L16.1574 5.87578C16.1492 5.87852 16.141 5.88125 16.1328 5.88125Z" fill="#3131C2"/>
<path d="M16.1574 5.87598L15.7527 5.64082C15.7636 5.63809 15.7746 5.63262 15.7882 5.62988L16.1929 5.86504C16.1792 5.87051 16.1683 5.87324 16.1574 5.87598Z" fill="#3232C7"/>
<path d="M16.193 5.86504L15.7883 5.62988C15.802 5.62441 15.8157 5.61621 15.8293 5.61074C15.8649 5.5916 15.8977 5.56426 15.9278 5.53418L16.3325 5.76934C16.3024 5.79941 16.2696 5.82402 16.234 5.8459C16.2176 5.85137 16.204 5.85957 16.193 5.86504Z" fill="#3333CC"/>
<path d="M16.3297 5.76992L15.925 5.53477L15.9579 5.50195L16.3625 5.73711L16.3297 5.76992Z" fill="#3232C7"/>
<path d="M16.3625 5.73398L15.9578 5.49883C15.966 5.49063 15.9742 5.47969 15.9824 5.46875L16.3871 5.70391C16.3789 5.71484 16.3707 5.72578 16.3625 5.73398Z" fill="#3131C2"/>
<path d="M16.3871 5.70684L15.9824 5.47168C15.9879 5.46348 15.9961 5.45527 16.0016 5.44434L16.4062 5.67949C16.398 5.6877 16.3926 5.6959 16.3871 5.70684Z" fill="#2F2FBD"/>
<path d="M16.4063 5.67969L16.0016 5.44453L16.018 5.41992L16.4227 5.65508L16.4063 5.67969Z" fill="#2E2EB8"/>
<path d="M16.4226 5.6543L16.0179 5.41914L16.0344 5.39453L16.439 5.62969L16.4226 5.6543Z" fill="#2D2DB3"/>
<path d="M16.4363 5.62988L16.0316 5.39473C16.0371 5.38652 16.0398 5.37832 16.0453 5.37012L16.45 5.60527C16.4472 5.61348 16.4418 5.62168 16.4363 5.62988Z" fill="#2C2CAD"/>
<path d="M16.45 5.60547L16.0453 5.37031C16.0508 5.36211 16.0535 5.35391 16.059 5.3457L16.4636 5.58086C16.4609 5.58906 16.4554 5.59727 16.45 5.60547Z" fill="#2A2AA8"/>
<path d="M16.4636 5.58105L16.059 5.3459C16.0617 5.3377 16.0672 5.32949 16.0699 5.32129L16.4746 5.55645C16.4719 5.56191 16.4691 5.57012 16.4636 5.58105Z" fill="#2929A3"/>
<path d="M16.4746 5.55352L16.0699 5.31836C16.0727 5.31016 16.0781 5.30195 16.0809 5.29102L16.4856 5.52617C16.4828 5.53711 16.4801 5.54531 16.4746 5.55352Z" fill="#28289E"/>
<path d="M16.4855 5.5291L16.0808 5.29395C16.0835 5.28574 16.089 5.2748 16.0917 5.2666L16.4964 5.50176C16.4937 5.50996 16.491 5.51816 16.4855 5.5291Z" fill="#262699"/>
<path d="M16.4965 5.49863L16.0918 5.26348C16.0945 5.25254 16.0973 5.24434 16.1 5.2334L16.5047 5.46855C16.502 5.47949 16.4992 5.49043 16.4965 5.49863Z" fill="#252594"/>
<path d="M16.5047 5.47109L16.1 5.23594L16.1082 5.20312L16.5129 5.43828C16.5101 5.44648 16.5074 5.45742 16.5047 5.47109Z" fill="#24248F"/>
<path d="M16.5128 5.43633L16.1082 5.20117L16.1164 5.16016L16.521 5.39531L16.5128 5.43633Z" fill="#23238A"/>
<path d="M16.5211 5.39512L16.1165 5.15996C16.1192 5.14082 16.1192 5.12168 16.1192 5.10254L16.5239 5.3377C16.5239 5.35684 16.5239 5.37598 16.5211 5.39512Z" fill="#212185"/>
<path d="M15.1403 13.6086L15.5449 13.8438C15.5039 13.8191 15.4766 13.7699 15.4766 13.6961L15.0719 13.4609C15.0719 13.5348 15.0992 13.5867 15.1403 13.6086Z" fill="#2A2ABC"/>
<path d="M15.5367 5.44141L15.2824 5.58906C15.2688 5.59727 15.2524 5.6082 15.2387 5.61914C15.2332 5.62188 15.2305 5.62734 15.225 5.63008C15.2196 5.63555 15.2114 5.64102 15.2059 5.64648L15.1977 5.65469L15.1895 5.66289L15.1813 5.67109C15.1758 5.6793 15.1676 5.68477 15.1621 5.69297C15.1594 5.6957 15.1567 5.69844 15.1567 5.70117C15.1567 5.70391 15.1539 5.70391 15.1539 5.70664C15.1512 5.70937 15.1512 5.71211 15.1485 5.71484C15.143 5.72031 15.1403 5.72852 15.1348 5.73398C15.1293 5.73945 15.1266 5.74766 15.1239 5.75312V5.75859L15.1156 5.775C15.1129 5.78047 15.1102 5.78867 15.1047 5.79414L15.0965 5.81055C15.0938 5.81875 15.091 5.82422 15.0883 5.83242C15.0856 5.84063 15.0828 5.84609 15.0801 5.8543C15.0801 5.85703 15.0774 5.8625 15.0774 5.86523C15.0774 5.86797 15.0774 5.86797 15.0746 5.8707C15.0746 5.87344 15.0719 5.87617 15.0719 5.87891C15.0692 5.88711 15.0664 5.89531 15.0664 5.90625C15.0664 5.91172 15.0637 5.91719 15.0637 5.92266C15.0637 5.92539 15.0637 5.92812 15.061 5.93086V5.93906C15.0582 5.95547 15.0582 5.96914 15.0582 5.98281L15.0801 13.4586L15.4766 13.6992L15.4547 6.22344C15.4547 6.20703 15.4574 6.18789 15.4602 6.17148C15.4602 6.16875 15.4602 6.16602 15.4629 6.16328C15.4656 6.14687 15.4684 6.13047 15.4739 6.11406C15.4739 6.11133 15.4739 6.11133 15.4766 6.10859C15.4821 6.08945 15.4875 6.07305 15.4957 6.05391C15.5039 6.03477 15.5121 6.01836 15.5231 5.99922V5.99648L15.5559 5.94727C15.5559 5.94453 15.5586 5.94453 15.5586 5.9418L15.5914 5.90078L15.5996 5.89258C15.6078 5.88164 15.6188 5.87344 15.6297 5.86523C15.6352 5.8625 15.6379 5.85703 15.6434 5.8543C15.6571 5.84336 15.6707 5.83242 15.6871 5.82422L15.9414 5.67656L15.5367 5.44141Z" fill="#2A2ABC"/>
<path d="M16.7781 5.19276C16.9039 5.11893 17.0078 5.17909 17.0105 5.32401L17.0324 12.7998C17.0324 12.9447 16.9285 13.1252 16.8027 13.1963L15.7062 13.8279C15.5804 13.9017 15.4765 13.8416 15.4738 13.6967L15.4519 6.22088C15.4519 6.07596 15.5558 5.89549 15.6816 5.8244L15.9359 5.67674C15.9359 5.86268 16.0671 5.93651 16.2285 5.84354C16.3898 5.75057 16.521 5.52362 16.521 5.33768L16.7781 5.19276Z" fill="#4040FF"/>
<path d="M16.234 5.171C16.3953 5.07803 16.5266 5.15186 16.5266 5.33779C16.5266 5.52373 16.3953 5.75068 16.234 5.84365C16.0727 5.93662 15.9414 5.86279 15.9414 5.67686C15.9414 5.49092 16.0727 5.26397 16.234 5.171Z" fill="white"/>
<path d="M16.0371 4.9166L16.0207 4.9084H16.0179C16.0152 4.9084 16.0152 4.9084 16.0125 4.90566C16.0097 4.90566 16.007 4.90293 16.0043 4.90293C16.0015 4.90293 15.9988 4.90293 15.9961 4.9002H15.9879C15.9824 4.9002 15.9769 4.89746 15.9715 4.89746H15.9304C15.9277 4.89746 15.925 4.89746 15.9222 4.9002C15.9195 4.9002 15.914 4.90293 15.9113 4.90293C15.9086 4.90293 15.9058 4.90293 15.9058 4.90566C15.9031 4.90566 15.9004 4.9084 15.9004 4.9084C15.8949 4.91113 15.8867 4.91387 15.8785 4.9166C15.8758 4.9166 15.873 4.91934 15.8703 4.91934C15.8676 4.91934 15.8676 4.92207 15.8648 4.92207C15.8539 4.92754 15.8402 4.93301 15.8293 4.94121C15.8129 4.94941 15.7992 4.96035 15.7828 4.97129C15.7801 4.97402 15.7773 4.97402 15.7746 4.97676C15.7609 4.9877 15.7472 5.00137 15.7336 5.0123L15.7308 5.01504L15.7254 5.02051C15.7199 5.02598 15.7117 5.03418 15.7062 5.04238C15.7035 5.04512 15.7035 5.04785 15.7008 5.04785L15.6953 5.05332C15.6926 5.05879 15.6871 5.06152 15.6844 5.06699L15.6761 5.0752C15.6734 5.07793 15.6734 5.08066 15.6707 5.0834C15.6679 5.08613 15.6652 5.0916 15.6625 5.09434C15.6597 5.09707 15.6597 5.0998 15.657 5.10254C15.6543 5.10801 15.6515 5.11074 15.6488 5.11621C15.6461 5.11895 15.6461 5.12168 15.6433 5.12441L15.6406 5.12715L15.6242 5.15176V5.15449C15.6242 5.15723 15.6215 5.15723 15.6215 5.15996C15.6187 5.16543 15.616 5.1709 15.6105 5.1791C15.6078 5.18184 15.6078 5.18457 15.6051 5.1873C15.6023 5.19004 15.6023 5.19277 15.5996 5.19551C15.5996 5.19824 15.5969 5.20098 15.5969 5.20371C15.5941 5.21191 15.5914 5.21738 15.5859 5.22559C15.5859 5.22559 15.5859 5.22832 15.5832 5.22832C15.5804 5.23652 15.575 5.24473 15.5722 5.25566C15.5722 5.2584 15.5722 5.2584 15.5695 5.26113C15.5695 5.26387 15.5668 5.2666 15.5668 5.26934C15.564 5.2748 15.564 5.27754 15.5613 5.28301C15.5613 5.28574 15.5586 5.28848 15.5586 5.29395C15.5586 5.29668 15.5558 5.30215 15.5558 5.30488C15.5558 5.30762 15.5558 5.31035 15.5531 5.31309C15.5531 5.31855 15.5504 5.32129 15.5504 5.32676C15.5504 5.33223 15.5476 5.3377 15.5476 5.34043V5.3459C15.5476 5.34863 15.5449 5.3541 15.5449 5.35684C15.5422 5.36504 15.5422 5.37324 15.5422 5.38145V5.39238C15.5394 5.40879 15.5394 5.4252 15.5394 5.4416L15.9441 5.68223V5.67949C15.9441 5.66309 15.9441 5.64668 15.9469 5.62754V5.6166C15.9469 5.6084 15.9496 5.6002 15.9496 5.59199C15.9496 5.58926 15.9496 5.58379 15.9523 5.58105V5.57559C15.9523 5.57012 15.9551 5.56465 15.9551 5.56191C15.9551 5.55645 15.9578 5.55371 15.9578 5.54824C15.9578 5.54551 15.9605 5.54277 15.9605 5.54004C15.9605 5.5373 15.9633 5.53184 15.9633 5.5291C15.9633 5.52637 15.966 5.5209 15.966 5.51816C15.9687 5.5127 15.9687 5.50996 15.9715 5.50449C15.9715 5.50176 15.9742 5.49902 15.9742 5.49629C15.9742 5.49355 15.9742 5.49355 15.9769 5.49082C15.9797 5.48262 15.9851 5.47441 15.9879 5.46348C15.9879 5.46348 15.9879 5.46074 15.9906 5.46074C15.9933 5.45254 15.9961 5.44707 15.9988 5.43887C15.9988 5.43613 16.0015 5.4334 16.0015 5.43066C16.0043 5.42793 16.0043 5.4252 16.007 5.42246C16.0097 5.41973 16.0097 5.41699 16.0125 5.41426C16.0152 5.40879 16.0179 5.40332 16.0234 5.39512C16.0234 5.39238 16.0261 5.39238 16.0261 5.38965V5.38691L16.0426 5.3623L16.0453 5.35957C16.048 5.35684 16.048 5.3541 16.0508 5.35137C16.0535 5.3459 16.0562 5.34316 16.059 5.3377C16.0617 5.33496 16.0617 5.33223 16.0644 5.32949C16.0672 5.32676 16.0699 5.32129 16.0726 5.31855C16.0754 5.31582 16.0754 5.31309 16.0781 5.31035L16.0863 5.30215C16.089 5.29668 16.0945 5.29394 16.0972 5.28848L16.1027 5.28301L16.1082 5.27754C16.1136 5.26934 16.1219 5.26387 16.1273 5.25566L16.1328 5.2502L16.1355 5.24746C16.1492 5.23379 16.1629 5.22285 16.1765 5.21191C16.1793 5.20918 16.182 5.20918 16.1847 5.20644C16.1984 5.19551 16.2148 5.18457 16.2312 5.17637C16.2449 5.16816 16.2558 5.1627 16.2668 5.15723C16.2695 5.15449 16.275 5.15449 16.2777 5.15176C16.2859 5.14902 16.2914 5.14629 16.2996 5.14355C16.3051 5.14355 16.3078 5.14082 16.3133 5.14082C16.316 5.14082 16.3215 5.13809 16.3242 5.13809C16.3297 5.13809 16.3351 5.13535 16.3406 5.13535H16.3734C16.3816 5.13535 16.3871 5.13809 16.3953 5.13809H16.4008C16.4062 5.13809 16.4117 5.14082 16.4172 5.14355C16.4199 5.14355 16.4199 5.14355 16.4226 5.14629C16.4281 5.14902 16.4363 5.15176 16.4418 5.15449L16.0371 4.9166Z" fill="#ACC5EA"/>
<path d="M19.6657 11.8752C19.6629 11.8752 19.6629 11.8752 19.6657 11.8752C19.6575 11.8697 19.652 11.867 19.6438 11.8643H19.6411C19.6383 11.8643 19.6356 11.8615 19.6356 11.8615C19.6329 11.8615 19.6301 11.8588 19.6247 11.8588C19.6219 11.8588 19.6165 11.8561 19.6137 11.8561C19.611 11.8561 19.6083 11.8561 19.6083 11.8533H19.6055C19.5973 11.8533 19.5918 11.8506 19.5836 11.8506H19.5317C19.529 11.8506 19.5262 11.8533 19.5235 11.8533C19.518 11.8533 19.5125 11.8561 19.5071 11.8561C19.5043 11.8561 19.5016 11.8561 19.4989 11.8588C19.4961 11.8588 19.4934 11.8615 19.4907 11.8615C19.4825 11.8643 19.4743 11.867 19.4633 11.8697C19.4606 11.8697 19.4579 11.8725 19.4551 11.8725C19.4524 11.8725 19.4524 11.8752 19.4497 11.8752C19.4333 11.8807 19.4196 11.8889 19.4032 11.8971L15.5778 14.1092C15.5586 14.1201 15.5395 14.1338 15.5204 14.1475C15.5176 14.1502 15.5149 14.1529 15.5094 14.1557C15.4903 14.1693 15.4739 14.1857 15.4575 14.2021C15.4547 14.2049 15.4547 14.2049 15.452 14.2049L15.4438 14.2131C15.4356 14.2213 15.4274 14.2295 15.4192 14.2404L15.411 14.2486C15.4083 14.2514 15.4083 14.2541 15.4055 14.2568C15.4 14.2623 15.3946 14.2678 15.3918 14.2732C15.3891 14.276 15.3864 14.2814 15.3836 14.2842C15.3809 14.2869 15.3782 14.2896 15.3754 14.2951C15.3727 14.3006 15.3672 14.3033 15.3645 14.3088C15.3618 14.3115 15.359 14.3143 15.3563 14.3197C15.3536 14.3252 15.3481 14.3307 15.3454 14.3361C15.3426 14.3389 15.3399 14.3443 15.3372 14.3471C15.3372 14.3498 15.3344 14.3498 15.3344 14.3525C15.329 14.3635 15.3208 14.3744 15.3153 14.3826V14.3854C15.3153 14.3881 15.3125 14.3908 15.3125 14.3908C15.3071 14.399 15.3043 14.4072 15.2989 14.4127C15.2961 14.4154 15.2961 14.4209 15.2934 14.4236C15.2907 14.4264 15.2907 14.4318 15.2879 14.4346C15.2852 14.4373 15.2852 14.44 15.2825 14.4455C15.277 14.4537 15.2743 14.4619 15.2715 14.4701C15.2715 14.4729 15.2688 14.4729 15.2688 14.4756C15.2633 14.4865 15.2606 14.4975 15.2551 14.5084C15.2551 14.5111 15.2524 14.5111 15.2524 14.5139C15.2497 14.5166 15.2497 14.5221 15.2469 14.5248C15.2442 14.5303 15.2415 14.5357 15.2415 14.5412C15.2387 14.5467 15.2387 14.5494 15.2387 14.5549C15.236 14.5604 15.236 14.5658 15.2333 14.5713C15.2333 14.574 15.2305 14.5768 15.2305 14.5822C15.2278 14.5877 15.2278 14.5932 15.225 14.5986C15.2223 14.6041 15.2223 14.6123 15.2196 14.6178C15.2196 14.6205 15.2196 14.6232 15.2168 14.6232C15.2168 14.6287 15.2141 14.6314 15.2141 14.6369C15.2114 14.6479 15.2114 14.6561 15.2086 14.667C15.2086 14.6697 15.2086 14.6725 15.2059 14.6752V14.6834C15.2032 14.7053 15.2004 14.7271 15.2004 14.749L15.2086 17.3002C15.2086 17.3877 15.2333 17.4561 15.2715 17.4998C15.2852 17.5135 15.2989 17.5271 15.3153 17.5381L15.72 17.7732C15.6543 17.735 15.6133 17.6529 15.6106 17.5354L15.6133 14.9842C15.6133 14.9623 15.6161 14.9404 15.6188 14.9186C15.6188 14.9131 15.6188 14.9076 15.6215 14.9021C15.6243 14.8912 15.6243 14.883 15.627 14.8721C15.627 14.8666 15.6297 14.8584 15.6297 14.8529C15.6325 14.8475 15.6325 14.8393 15.6352 14.8338C15.6379 14.8256 15.6407 14.8174 15.6434 14.8064C15.6461 14.801 15.6461 14.7955 15.6489 14.79C15.6516 14.7791 15.6543 14.7709 15.6598 14.76C15.6625 14.7572 15.6625 14.7518 15.6653 14.749L15.6817 14.708C15.6817 14.7053 15.6844 14.7053 15.6844 14.7025C15.6899 14.6916 15.6954 14.6779 15.7008 14.667C15.7036 14.6643 15.7036 14.6588 15.7063 14.6561C15.7118 14.6451 15.7172 14.6342 15.7254 14.6232C15.7254 14.6205 15.7282 14.6178 15.7282 14.6178C15.7364 14.6041 15.7446 14.5932 15.7528 14.5795C15.7555 14.5768 15.7583 14.5713 15.761 14.5686C15.7665 14.5604 15.7719 14.5521 15.7801 14.5412C15.7829 14.5357 15.7856 14.533 15.7911 14.5275C15.7965 14.5193 15.802 14.5139 15.8075 14.5057C15.8129 14.5002 15.8157 14.4947 15.8211 14.4893C15.8266 14.4838 15.8293 14.4783 15.8348 14.4729C15.843 14.4646 15.8512 14.4537 15.8594 14.4455C15.8622 14.44 15.8676 14.4373 15.8704 14.4346C15.8868 14.4182 15.9059 14.4018 15.9223 14.3881C15.925 14.3854 15.9278 14.3826 15.9333 14.3799C15.9524 14.3662 15.9715 14.3525 15.9907 14.3416L19.8161 12.135C19.8325 12.1268 19.8461 12.1186 19.8625 12.1131C19.868 12.1104 19.8735 12.1104 19.8762 12.1076C19.8844 12.1049 19.8926 12.1021 19.9036 12.0994C19.909 12.0967 19.9145 12.0967 19.92 12.0939C19.9254 12.0939 19.9309 12.0912 19.9364 12.0912C19.9418 12.0912 19.95 12.0885 19.9555 12.0885H19.9965C20.0047 12.0885 20.0157 12.0912 20.0239 12.0912C20.0266 12.0912 20.0293 12.0912 20.0293 12.0939C20.0375 12.0967 20.043 12.0967 20.0485 12.0994C20.0512 12.0994 20.054 12.1021 20.054 12.1021C20.0622 12.1049 20.0704 12.1104 20.0786 12.1131L19.6657 11.8752Z" fill="#C68620"/>
<path d="M19.8051 12.1348C20.0102 12.0173 20.177 12.1102 20.177 12.3454L20.1852 14.8965C20.1852 15.1317 20.0211 15.4188 19.816 15.5364L15.9906 17.743C15.7855 17.8606 15.6188 17.7649 15.6188 17.5325L15.6133 14.984C15.6133 14.7489 15.7773 14.4618 15.9824 14.3442L19.8051 12.1348Z" fill="#FFCD2E"/>
<path d="M18.9247 14.5219L18.6403 14.3578C18.6375 14.3551 18.6348 14.3551 18.6321 14.3496L18.9165 14.5137C18.9192 14.5191 18.9219 14.5219 18.9247 14.5219Z" fill="#674611"/>
<path d="M18.8316 14.3965L18.5472 14.2324L18.6347 14.35L18.9191 14.5168L18.8316 14.3965Z" fill="#E8CFAC"/>
<path d="M18.9028 13.4288C18.941 13.4069 18.9656 13.4397 18.9465 13.4889L18.6895 14.1534C18.6813 14.178 18.6621 14.1971 18.6457 14.2081C18.6293 14.219 18.6129 14.219 18.602 14.2053L18.5172 14.085L17.7461 15.0475C17.7324 15.0639 17.716 15.0776 17.7024 15.0885C17.6723 15.105 17.6422 15.105 17.6258 15.0831L17.4071 14.7768L16.6387 15.7339C16.625 15.7503 16.6086 15.7639 16.5949 15.7749C16.5649 15.794 16.5348 15.7913 16.5184 15.7694C16.4938 15.7339 16.5074 15.6628 16.5512 15.6108L17.3961 14.5581C17.4098 14.5417 17.4262 14.528 17.4399 14.5171C17.4699 14.4979 17.5 14.5007 17.5164 14.5225L17.7352 14.8288L18.4297 13.962L18.3449 13.8417C18.3258 13.8143 18.3504 13.7542 18.386 13.7323L18.9028 13.4288Z" fill="#C68620"/>
<path d="M17.7625 14.9734L18.0468 15.1375L18.7414 14.2707L18.6566 14.1504L18.3722 13.9863L18.457 14.1039L17.7625 14.9734Z" fill="#E8CFAC"/>
<path d="M19.25 13.7371L19.105 13.6523L18.9656 13.5703H18.9355C18.9328 13.5703 18.93 13.573 18.9273 13.573L18.4105 13.8738C18.405 13.8766 18.3996 13.882 18.3941 13.8848L18.3886 13.8902L18.3859 13.893C18.3859 13.8957 18.3832 13.8957 18.3832 13.8984C18.3832 13.9012 18.3804 13.9012 18.3804 13.9039C18.3804 13.9066 18.3777 13.9066 18.3777 13.9094V13.9121C18.3777 13.9148 18.375 13.9148 18.375 13.9176C18.375 13.9203 18.375 13.9203 18.3722 13.923C18.3722 13.9258 18.3722 13.9258 18.3695 13.9285C18.3695 13.9313 18.3695 13.9313 18.3667 13.934C18.3667 13.9367 18.3667 13.9367 18.364 13.9395C18.364 13.9422 18.364 13.9422 18.3613 13.9449V13.9695C18.3613 13.975 18.364 13.9805 18.3667 13.9832L18.6511 14.1473C18.6484 14.1445 18.6457 14.1391 18.6457 14.1336V14.1063C18.6484 14.0953 18.6511 14.0844 18.6566 14.0762C18.6593 14.0707 18.6621 14.0652 18.6648 14.0625C18.6675 14.0598 18.6703 14.0543 18.6757 14.0516C18.6812 14.0461 18.6867 14.0434 18.6921 14.0406L19.2089 13.7398C19.2117 13.7371 19.2144 13.7371 19.2171 13.7344H19.2199C19.2226 13.7344 19.2253 13.7316 19.2281 13.7316H19.2363C19.2472 13.7371 19.25 13.7371 19.25 13.7371C19.2527 13.7371 19.2527 13.7371 19.25 13.7371ZM17.9375 15.3914L17.7187 15.0852L17.4343 14.9211L17.6531 15.2273C17.6558 15.2328 17.6613 15.2383 17.6667 15.241L17.9511 15.4051C17.9457 15.4023 17.9429 15.3969 17.9375 15.3914Z" fill="#E8CFAC"/>
<path d="M17.5274 14.6539C17.5246 14.6539 17.5246 14.6512 17.5219 14.6512C17.5192 14.6512 17.5192 14.6512 17.5164 14.6484H17.4973C17.4946 14.6484 17.4918 14.6484 17.4891 14.6512C17.4891 14.6512 17.4864 14.6512 17.4864 14.6539H17.4809C17.4754 14.6566 17.4727 14.6566 17.4672 14.6594C17.4617 14.6621 17.4535 14.6676 17.4481 14.673L17.4426 14.6785L17.4371 14.684L17.4262 14.6949L17.4207 14.7004L16.5758 15.7531L16.8602 15.9172L17.7051 14.8645C17.7106 14.8562 17.7188 14.8508 17.7242 14.8426L17.7297 14.8371C17.7352 14.8316 17.7434 14.8262 17.7489 14.8234L17.7653 14.8152H17.768C17.7735 14.8125 17.7789 14.8125 17.7817 14.8125H17.7953C17.8008 14.8125 17.8035 14.8152 17.809 14.818L17.5274 14.6539Z" fill="#E8CFAC"/>
<path d="M16.5676 15.7639C16.5649 15.7666 16.5649 15.7693 16.5621 15.7721V15.7748C16.5621 15.7775 16.5594 15.7775 16.5594 15.7803C16.5567 15.783 16.5567 15.7857 16.5539 15.7885C16.5539 15.7912 16.5512 15.7939 16.5512 15.7967C16.5512 15.7994 16.5485 15.7994 16.5485 15.8021C16.5485 15.8049 16.5457 15.8076 16.5457 15.8104C16.5457 15.8131 16.543 15.8158 16.543 15.8186C16.543 15.8213 16.5403 15.824 16.5403 15.8268C16.5403 15.8295 16.5375 15.835 16.5375 15.8377V15.8404C16.5375 15.8432 16.5375 15.8459 16.5348 15.8486V15.8842C16.5375 15.8924 16.5403 15.9033 16.5457 15.9088C16.5485 15.9143 16.5539 15.9197 16.5594 15.9225L16.8438 16.0865C16.8383 16.0838 16.8328 16.0783 16.8301 16.0729C16.8246 16.0646 16.8219 16.0564 16.8192 16.0482V16.0455C16.8164 16.0373 16.8164 16.0264 16.8192 16.0154C16.8192 16.0127 16.8192 16.0072 16.8219 16.0045V16.0018C16.8246 15.9936 16.8246 15.9881 16.8274 15.9799C16.8301 15.9717 16.8328 15.9662 16.8356 15.958C16.8383 15.9498 16.8438 15.9443 16.8465 15.9361C16.852 15.9279 16.8547 15.9225 16.8602 15.917L16.5758 15.7529L16.5731 15.7557C16.5703 15.7584 16.5703 15.7611 16.5676 15.7639Z" fill="#E8CFAC"/>
<path d="M19.2171 13.7432C19.2554 13.7214 19.28 13.7542 19.2609 13.8034L19.0039 14.4651C18.9956 14.4897 18.9765 14.5089 18.9601 14.5198C18.9437 14.5307 18.9273 14.5307 18.9164 14.5171L18.8316 14.3967L18.0578 15.3593C18.0441 15.3757 18.0277 15.3893 18.014 15.4003C17.9839 15.4194 17.9539 15.4167 17.9374 15.3948L17.7187 15.0885L16.9503 16.0456C16.9367 16.062 16.9203 16.0757 16.9066 16.0866C16.8765 16.1057 16.8464 16.103 16.83 16.0811C16.8054 16.0456 16.8191 15.9745 16.8628 15.9225L17.7078 14.8698C17.7214 14.8534 17.7378 14.8397 17.7515 14.8288C17.7816 14.8096 17.8117 14.8124 17.8281 14.8342L18.0468 15.1405L18.7414 14.2737L18.6566 14.1534C18.6374 14.126 18.6621 14.0659 18.6976 14.044L19.2171 13.7432Z" fill="white"/>
</svg>
