<svg width="28" height="29" viewBox="0 0 28 29" fill="none" xmlns="http://www.w3.org/2000/svg">
<path d="M16.135 19.9863H11.8628V24.2148C11.8628 25.2757 12.7334 26.1354 13.8053 26.1354H14.1925C15.2644 26.1354 16.135 25.2757 16.135 24.2148V19.9863Z" fill="#E59600"/>
<path d="M19.9784 11.5273H8.02152C6.73309 11.5273 5.67871 12.6517 5.67871 14.0233C5.67871 15.397 6.73309 16.5192 8.02152 16.5192H19.9762C21.2646 16.5192 22.319 15.3948 22.319 14.0233C22.3212 12.6517 21.2668 11.5273 19.9784 11.5273Z" fill="#E59600"/>
<path d="M14 2.91699C10.1937 2.91699 6.66748 6.98793 6.66748 12.8461C6.66748 18.6736 10.3009 21.5545 14 21.5545C17.699 21.5545 21.3325 18.6736 21.3325 12.8461C21.3325 6.98793 17.8062 2.91699 14 2.91699Z" fill="#FFCA28"/>
<path d="M10.4036 14.4764C10.9992 14.4764 11.4821 13.9769 11.4821 13.3607C11.4821 12.7446 10.9992 12.2451 10.4036 12.2451C9.80803 12.2451 9.3252 12.7446 9.3252 13.3607C9.3252 13.9769 9.80803 14.4764 10.4036 14.4764Z" fill="#404040"/>
<path d="M17.596 14.4764C18.1916 14.4764 18.6745 13.9769 18.6745 13.3607C18.6745 12.7446 18.1916 12.2451 17.596 12.2451C17.0004 12.2451 16.5176 12.7446 16.5176 13.3607C16.5176 13.9769 17.0004 14.4764 17.596 14.4764Z" fill="#404040"/>
<path d="M14.8442 15.3837C14.8201 15.375 14.7983 15.3684 14.7742 15.3662H13.2276C13.2036 15.3684 13.1795 15.375 13.1576 15.3837C13.0176 15.4406 12.9411 15.585 13.0067 15.7403C13.0723 15.8956 13.3808 16.3287 14.002 16.3287C14.6233 16.3287 14.9317 15.8934 14.9973 15.7403C15.0608 15.585 14.9842 15.4406 14.8442 15.3837Z" fill="#E59600"/>
<path d="M15.8417 17.1514C15.1439 17.5648 12.8602 17.5648 12.1645 17.1514C11.7642 16.9129 11.3552 17.2782 11.5214 17.6414C11.6855 17.9979 12.9324 18.827 14.0086 18.827C15.0849 18.827 16.3164 17.9979 16.4805 17.6414C16.6445 17.2782 16.242 16.9129 15.8417 17.1514Z" fill="#795548"/>
<path d="M14.0047 1.60059H13.9959C4.05591 1.65309 6.09247 12.5687 6.09247 12.5687C6.09247 12.5687 6.53872 13.739 6.74216 14.2553C6.7706 14.3296 6.87997 14.3209 6.89747 14.2443C7.10966 13.295 7.8731 9.9284 8.2581 8.90465C8.36809 8.61296 8.57713 8.36923 8.84864 8.21608C9.12016 8.06292 9.43688 8.0101 9.74341 8.06684C10.719 8.24402 12.27 8.46277 13.9828 8.46277H14.0178C15.7284 8.46277 17.2815 8.24402 18.255 8.06684C18.8893 7.9509 19.515 8.30309 19.7403 8.90465C20.1231 9.92402 20.8822 13.2709 21.0965 14.2334C21.114 14.3121 21.2234 14.3187 21.2518 14.2443L21.9037 12.5665C21.9081 12.5687 23.9425 1.65309 14.0047 1.60059Z" fill="#543930"/>
<path d="M21.9079 12.5687C21.9079 12.5687 23.9445 1.65309 14.0045 1.60059H13.9957C13.8404 1.60059 13.6895 1.60496 13.5407 1.61152C13.2454 1.62465 12.9588 1.64652 12.6832 1.67934H12.6745C12.6548 1.68152 12.6373 1.6859 12.6176 1.68809C4.25039 2.74027 6.09008 12.5687 6.09008 12.5687L6.74195 14.2487C6.77039 14.3231 6.87758 14.3165 6.89508 14.2378C7.10945 13.2775 7.8707 9.92621 8.2557 8.90684C8.36594 8.61485 8.57535 8.37093 8.84728 8.21776C9.11922 8.0646 9.43636 8.01195 9.7432 8.06902C10.7188 8.24402 12.2698 8.46277 13.9826 8.46277H14.0176C15.7282 8.46277 17.2813 8.24402 18.2548 8.06684C18.8891 7.9509 19.5148 8.30309 19.7401 8.90465C20.1251 9.9284 20.8885 13.3015 21.0985 14.2465C21.116 14.3253 21.2232 14.3318 21.2516 14.2575C21.4573 13.7434 21.9079 12.5687 21.9079 12.5687Z" fill="url(#paint0_radial_704_5248)"/>
<path d="M25.4844 12.374C25.2131 12.374 24.9922 12.584 24.9922 12.8421V14.8546C24.9922 15.1128 25.2131 15.3228 25.4844 15.3228C25.7556 15.3228 25.9766 15.1128 25.9766 14.8546V12.8421C25.9766 12.584 25.7556 12.374 25.4844 12.374Z" fill="#E8AD00"/>
<path d="M24.5 12.374C24.2287 12.374 24.0078 12.584 24.0078 12.8421V14.8546C24.0078 15.1128 24.2287 15.3228 24.5 15.3228C24.7713 15.3228 24.9922 15.1128 24.9922 14.8546V12.8421C24.9922 12.584 24.7713 12.374 24.5 12.374Z" fill="#E8AD00"/>
<path d="M24.9922 12.374C24.7209 12.374 24.5 12.584 24.5 12.8421V15.29C24.5 15.5481 24.7209 15.7581 24.9922 15.7581C25.2634 15.7581 25.4844 15.5481 25.4844 15.29V12.8421C25.4844 12.584 25.2634 12.374 24.9922 12.374Z" fill="#FFCA28"/>
<path d="M24.9924 12.6809C25.3259 12.6809 25.5962 12.4233 25.5962 12.1056C25.5962 11.7878 25.3259 11.5303 24.9924 11.5303C24.659 11.5303 24.3887 11.7878 24.3887 12.1056C24.3887 12.4233 24.659 12.6809 24.9924 12.6809Z" fill="#FFCA28"/>
<path d="M24.9922 12.0986C24.8719 12.0986 24.7734 12.0002 24.7734 11.8799V3.56738C24.7734 3.44707 24.8719 3.34863 24.9922 3.34863C25.1125 3.34863 25.2109 3.44707 25.2109 3.56738V11.8799C25.2109 12.0024 25.1125 12.0986 24.9922 12.0986Z" fill="#504F4F"/>
<path d="M25.375 3.33984C18.6309 1.64453 14 1.58984 14 1.58984C14 1.58984 9.36906 1.64453 2.625 3.33984V3.50828C2.625 3.79922 2.81531 4.05516 3.09313 4.13609C3.90688 4.37672 5.96531 4.90828 7.07 5.12922C7.0525 5.14672 6.82937 5.53828 6.66969 5.90141C6.66969 5.90141 8.45031 7.15266 14.0022 7.71266C19.5541 7.15266 21.3872 6.05453 21.3872 6.05453C21.1947 5.65859 20.9956 5.29109 20.9956 5.29109C21.98 5.12922 24.1084 4.40078 24.9222 4.14047C25.1956 4.05297 25.3794 3.80141 25.3794 3.51484V3.33984H25.375Z" fill="url(#paint1_linear_704_5248)"/>
<path d="M14 1.58984C14 1.58984 9.36906 1.64453 2.625 3.33984C2.625 3.33984 10.3709 5.45516 14 5.39172C17.6291 5.45516 25.375 3.33984 25.375 3.33984C18.6309 1.64453 14 1.58984 14 1.58984Z" fill="url(#paint2_linear_704_5248)"/>
<path opacity="0.4" d="M25.375 3.33984C18.6309 1.64453 14 1.58984 14 1.58984C14 1.58984 9.36906 1.64453 2.625 3.33984V3.50828C2.625 3.79922 2.81531 4.05516 3.09313 4.13609C3.90688 4.37672 5.96531 4.94328 7.07 5.16641C7.07 5.16641 6.86 5.50766 6.66969 5.93859C6.66969 5.93859 8.45031 7.15266 14.0022 7.71484C19.5541 7.15484 21.3872 6.05672 21.3872 6.05672C21.1947 5.66078 20.9956 5.29328 20.9956 5.29328C21.98 5.13141 24.1084 4.40297 24.9222 4.14266C25.1956 4.05516 25.3794 3.80359 25.3794 3.51703V3.33984H25.375Z" fill="url(#paint3_linear_704_5248)"/>
<path d="M8.75226 11.5955C9.40633 10.6701 10.8916 10.5826 11.7426 11.2717C11.8782 11.3811 12.0576 11.5342 12.1101 11.7048C12.1976 11.9826 11.9307 12.1992 11.6704 12.1336C11.5041 12.092 11.3488 12.0023 11.1848 11.952C10.8851 11.858 10.6685 11.8317 10.3995 11.8317C10.0013 11.8295 9.74539 11.8798 9.36695 12.033C9.21164 12.0964 9.08476 12.197 8.90758 12.1226C8.70414 12.0373 8.62976 11.7792 8.75226 11.5955Z" fill="#6D4C41"/>
<path d="M18.8277 12.1203C18.7642 12.0918 18.703 12.0568 18.6396 12.0306C18.2502 11.8687 18.0292 11.8271 17.6071 11.8293C17.2352 11.8315 17.0142 11.8818 16.7233 11.9803C16.5461 12.0415 16.3208 12.1946 16.1239 12.1356C15.8352 12.0481 15.8439 11.7331 16.0014 11.5318C16.1896 11.2956 16.4477 11.1162 16.7211 10.9981C17.3555 10.7225 18.1299 10.7618 18.7271 11.1184C18.9217 11.2343 19.1339 11.394 19.2521 11.5953C19.4227 11.8818 19.1646 12.2581 18.8277 12.1203Z" fill="#6D4C41"/>
<path d="M25.0471 26.9667C25.0471 23.7707 20.2893 22.2548 16.1396 21.9136L14.2584 24.3264C14.1971 24.4051 14.1009 24.4532 14.0002 24.4532C13.8996 24.4532 13.8034 24.4073 13.7421 24.3264L11.8565 21.9092C9.54867 22.0864 2.95117 22.9482 2.95117 26.9667V27.6251H25.0449L25.0471 26.9667Z" fill="#212121"/>
<path d="M25.0471 26.9667C25.0471 23.7707 20.2893 22.2548 16.1396 21.9136L14.2584 24.3264C14.1971 24.4051 14.1009 24.4532 14.0002 24.4532C13.8996 24.4532 13.8034 24.4073 13.7421 24.3264L11.8565 21.9092C9.54867 22.0864 2.95117 22.9482 2.95117 26.9667V27.6251H25.0449L25.0471 26.9667Z" fill="url(#paint4_radial_704_5248)"/>
<defs>
<radialGradient id="paint0_radial_704_5248" cx="0" cy="0" r="1" gradientUnits="userSpaceOnUse" gradientTransform="translate(14.0003 10.7081) scale(8.28472 9.34682)">
<stop offset="0.794" stop-color="#6D4C41" stop-opacity="0"/>
<stop offset="1" stop-color="#6D4C41"/>
</radialGradient>
<linearGradient id="paint1_linear_704_5248" x1="14" y1="0.642437" x2="14" y2="6.90766" gradientUnits="userSpaceOnUse">
<stop offset="0.003" stop-color="#424242"/>
<stop offset="0.472" stop-color="#353535"/>
<stop offset="1" stop-color="#212121"/>
</linearGradient>
<linearGradient id="paint2_linear_704_5248" x1="14" y1="0.678969" x2="14" y2="7.46022" gradientUnits="userSpaceOnUse">
<stop offset="0.003" stop-color="#616161"/>
<stop offset="0.324" stop-color="#505050"/>
<stop offset="0.955" stop-color="#242424"/>
<stop offset="1" stop-color="#212121"/>
</linearGradient>
<linearGradient id="paint3_linear_704_5248" x1="3.03909" y1="4.653" x2="25.0952" y2="4.653" gradientUnits="userSpaceOnUse">
<stop offset="0.001" stop-color="#BFBEBE"/>
<stop offset="0.3" stop-color="#212121" stop-opacity="0"/>
<stop offset="0.7" stop-color="#212121" stop-opacity="0"/>
<stop offset="1" stop-color="#BFBEBE"/>
</linearGradient>
<radialGradient id="paint4_radial_704_5248" cx="0" cy="0" r="1" gradientUnits="userSpaceOnUse" gradientTransform="translate(14.0002 27.3196) scale(11.849 6.21719)">
<stop offset="0.598" stop-color="#212121"/>
<stop offset="1" stop-color="#616161"/>
</radialGradient>
</defs>
</svg>
