<svg width="28" height="29" viewBox="0 0 28 29" fill="none" xmlns="http://www.w3.org/2000/svg">
<g clip-path="url(#clip0_858_3537)">
<path d="M0 14.5C0 22.2308 6.26925 28.5 14 28.5C21.7308 28.5 28 22.2308 28 14.5C28 6.76925 21.7308 0.5 14 0.5C6.26925 0.5 0 6.76925 0 14.5Z" fill="#AB99EC"/>
<path d="M14.299 5.4375H13.8193V19.0086H14.299V5.4375Z" fill="#72AF1B"/>
<path d="M14.2932 5.43727C14.2932 5.84355 13.9772 6.43042 13.0348 6.43042C12.0981 6.43042 10.4842 5.61784 10.8905 5.61784C11.5733 5.61784 12.0981 4.43848 13.0348 4.43848C13.9772 4.43848 14.2932 5.03098 14.2932 5.43727Z" fill="#72AF1B"/>
<path d="M14.1239 9.46656C14.1239 9.87285 13.8079 10.4597 12.8656 10.4597C11.9232 10.4597 10.315 9.64714 10.7213 9.64714C11.4041 9.64714 11.9288 8.46777 12.8656 8.46777C13.8023 8.46777 14.1239 9.06592 14.1239 9.46656Z" fill="#72AF1B"/>
<path d="M13.9038 7.6775C13.9038 8.08379 14.2198 8.67065 15.1622 8.67065C16.1045 8.67065 17.7128 7.85807 17.3065 7.85807C16.6237 7.85807 16.0989 6.67871 15.1622 6.67871C14.2255 6.67871 13.9038 7.27686 13.9038 7.6775Z" fill="#72AF1B"/>
<path d="M14.1239 13.4441C14.1239 13.8504 13.8079 14.4373 12.8656 14.4373C11.9232 14.4373 10.315 13.6247 10.7213 13.6247C11.4041 13.6247 11.9288 12.4453 12.8656 12.4453C13.8023 12.4453 14.1239 13.0378 14.1239 13.4441Z" fill="#72AF1B"/>
<path d="M13.9038 11.656C13.9038 12.0623 14.2198 12.6492 15.1622 12.6492C16.1045 12.6492 17.7128 11.8366 17.3065 11.8366C16.6237 11.8366 16.0989 10.6572 15.1622 10.6572C14.2255 10.6572 13.9038 11.2497 13.9038 11.656Z" fill="#72AF1B"/>
<path d="M13.9038 15.4929C13.9038 15.8992 14.2198 16.4861 15.1622 16.4861C16.1045 16.4861 17.7128 15.6735 17.3065 15.6735C16.6237 15.6735 16.0989 14.4941 15.1622 14.4941C14.2255 14.4941 13.9038 15.0866 13.9038 15.4929Z" fill="#72AF1B"/>
<path d="M17.177 19.4996C17.1431 19.4601 17.098 19.4375 17.0472 19.4375H10.9529C10.9021 19.4375 10.857 19.4601 10.8231 19.4996C10.7893 19.5391 10.778 19.5899 10.7836 19.6406L11.63 24.4258C11.647 24.5048 11.7147 24.5669 11.7993 24.5669H16.2008C16.2854 24.5669 16.3531 24.5105 16.3701 24.4258L17.2165 19.6406C17.2221 19.5899 17.2109 19.5391 17.177 19.4996Z" fill="#F47C2C"/>
<path d="M17.6676 17.9365H10.3319C10.236 17.9365 10.1626 18.0099 10.1626 18.1058V19.8551C10.1626 19.951 10.236 20.0244 10.3319 20.0244H17.6676C17.7636 20.0244 17.8369 19.951 17.8369 19.8551V18.1058C17.8369 18.0099 17.7636 17.9365 17.6676 17.9365Z" fill="#D86627"/>
</g>
<defs>
<clipPath id="clip0_858_3537">
<rect width="28" height="28" fill="white" transform="translate(0 0.5)"/>
</clipPath>
</defs>
</svg>
