<svg width="28" height="28" viewBox="0 0 28 28" fill="none" xmlns="http://www.w3.org/2000/svg">
<path d="M25.3654 6.15137H2.56243C1.42515 6.15137 0.503174 7.07334 0.503174 8.21062V23.4693C0.503174 24.6066 1.42515 25.5285 2.56243 25.5285H25.3654C26.5027 25.5285 27.4247 24.6066 27.4247 23.4693V8.21062C27.4247 7.07329 26.5027 6.15137 25.3654 6.15137Z" fill="#E6E6E6"/>
<path d="M2.76789 23.4692V8.21062C2.76789 7.07334 3.68986 6.15137 4.82714 6.15137H2.56243C1.42515 6.15137 0.503174 7.07334 0.503174 8.21062V23.4693C0.503174 24.6066 1.42515 25.5285 2.56243 25.5285H4.82714C3.68986 25.5284 2.76789 24.6064 2.76789 23.4692Z" fill="#CCCCCC"/>
<path d="M13.964 22.1399C17.2848 22.1399 19.9768 19.4479 19.9768 16.1271C19.9768 12.8063 17.2848 10.1143 13.964 10.1143C10.6432 10.1143 7.95117 12.8063 7.95117 16.1271C7.95117 19.4479 10.6432 22.1399 13.964 22.1399Z" fill="#F95428"/>
<path d="M17.415 14.6889H15.4019V12.6758H12.5259V14.6889H10.5128V17.5649H12.5259V19.578H15.4019V17.5649H17.415V14.6889Z" fill="#E6E6E6"/>
<path d="M25.4015 5.59286H23.5327C23.2349 5.59286 22.9935 5.83431 22.9935 6.13208C22.9935 6.42985 23.2349 6.6713 23.5327 6.6713H25.4015C26.2396 6.6713 26.9216 7.35319 26.9216 8.19128V23.4499C26.9216 24.2881 26.2397 24.9699 25.4015 24.9699H24.9118C25.05 24.3152 25.4358 23.7315 26.0029 23.3479C26.2497 23.1811 26.3144 22.846 26.1476 22.5992C25.9808 22.3525 25.6457 22.2878 25.3988 22.4546C24.5336 23.0396 23.9669 23.9546 23.8171 24.9699H4.18419C3.94843 23.3688 2.67952 22.0998 1.07849 21.8639V8.19133C1.07849 7.35319 1.76039 6.67135 2.59847 6.67135H21.5556C21.8535 6.67135 22.0949 6.42991 22.0949 6.13213C22.0949 5.83436 21.8535 5.59291 21.5556 5.59291H20.2253V4.05281C20.2253 2.89393 19.2824 1.95117 18.1236 1.95117H9.87643C8.71755 1.95117 7.7748 2.89398 7.7748 4.05281V5.59286H2.59847C1.16566 5.59286 0 6.75858 0 8.19133V23.45C0 24.8828 1.16566 26.0485 2.59847 26.0485H25.4015C26.8343 26.0485 28 24.8828 28 23.45V8.19133C27.9999 6.75858 26.8343 5.59286 25.4015 5.59286ZM8.85318 4.05275C8.85318 3.48854 9.31217 3.02955 9.87638 3.02955H18.1235C18.6878 3.02955 19.1467 3.48854 19.1467 4.05275V5.59281H8.85318V4.05275ZM1.07849 23.4499V22.959C2.0837 23.1714 2.87694 23.9647 3.08918 24.9699H2.59853C1.76033 24.97 1.07849 24.2881 1.07849 23.4499Z" fill="black"/>
<path d="M9.36716 11.4756C8.12963 12.7131 7.44812 14.3585 7.44812 16.1085C7.44812 19.7213 10.3872 22.6604 14 22.6604C17.6128 22.6604 20.5519 19.7213 20.5519 16.1085C20.5519 12.4958 17.6126 9.55664 13.9999 9.55664C13.1158 9.55664 12.2577 9.72989 11.4495 10.0717C11.1752 10.1878 11.0469 10.5042 11.1629 10.7784C11.279 11.0527 11.5954 11.181 11.8696 11.065C12.5441 10.7797 13.2608 10.6351 13.9999 10.6351C17.018 10.6351 19.4733 13.0904 19.4733 16.1085C19.4733 19.1266 17.018 21.5819 13.9999 21.5819C10.9819 21.5819 8.52656 19.1266 8.52656 16.1085C8.52656 14.6466 9.09591 13.272 10.1297 12.2382C10.3403 12.0276 10.3403 11.6862 10.1297 11.4757C9.91917 11.265 9.5777 11.265 9.36716 11.4756Z" fill="black"/>
<path d="M15.438 12.1182H12.5621C12.2643 12.1182 12.0229 12.3596 12.0229 12.6574V14.1313H10.549C10.2512 14.1313 10.0098 14.3728 10.0098 14.6705V17.5464C10.0098 17.8443 10.2512 18.0857 10.549 18.0857H12.0229V19.5596C12.0229 19.8574 12.2644 20.0988 12.5621 20.0988H15.438C15.7359 20.0988 15.9773 19.8574 15.9773 19.5596V18.0857H17.4512C17.7491 18.0857 17.9904 17.8443 17.9904 17.5465V14.6706C17.9904 14.3728 17.7491 14.1314 17.4512 14.1314H15.9773V12.6574C15.9773 12.3596 15.7358 12.1182 15.438 12.1182ZM16.9119 15.2098V17.0072H15.438C15.1401 17.0072 14.8988 17.2487 14.8988 17.5464V19.0204H13.1013V17.5465C13.1013 17.2487 12.8599 17.0073 12.5621 17.0073H11.0881V15.2098H12.5621C12.8599 15.2098 13.1013 14.9684 13.1013 14.6706V13.1967H14.8988V14.6706C14.8988 14.9684 15.1401 15.2098 15.438 15.2098H16.9119V15.2098Z" fill="black"/>
</svg>
