<svg width="247" height="254" viewBox="0 0 247 254" fill="none" xmlns="http://www.w3.org/2000/svg">
<path d="M30.924 242.828C-21.0949 202.034 33.3426 160.414 22.5369 109.233C11.4299 56.6251 2.15399 4.64684 83.1952 0.179534C146.809 -3.3271 223.205 44.916 240.056 111.443C264.853 209.34 210.33 242.828 210.33 242.828C119.364 242.828 30.924 242.828 30.924 242.828Z" fill="#F1DDFF"/>
<path opacity="0.8" d="M88.4188 40.5902C87.6483 37.9082 84.6467 35.9072 81.0584 35.9072C80.3997 35.9072 79.7609 35.975 79.1518 36.1017C77.3808 33.0736 73.5375 30.9754 69.0808 30.9754C67.9285 30.9754 66.8172 31.1157 65.7723 31.3759C63.373 28.1992 59.0141 26.0752 54.0344 26.0752C48.1098 26.0752 43.0637 29.0818 41.1517 33.2907C39.7983 32.6874 38.2401 32.3421 36.5805 32.3421C31.3875 32.3421 27.1776 35.7084 27.1776 39.8605C27.1776 40.1067 27.1934 40.3498 27.2225 40.59H88.4188V40.5902Z" fill="#F0FBFF"/>
<path opacity="0.8" d="M209.487 104.72C208.405 100.944 204.19 98.1279 199.15 98.1279C198.225 98.1279 197.328 98.2233 196.472 98.4017C193.985 94.1392 188.587 91.1859 182.328 91.1859C180.71 91.1859 179.149 91.3832 177.682 91.7496C174.312 87.2781 168.19 84.2881 161.196 84.2881C152.875 84.2881 145.789 88.5201 143.103 94.4449C141.202 93.5956 139.014 93.1097 136.683 93.1097C129.39 93.1097 123.477 97.848 123.477 103.693C123.477 104.039 123.5 104.382 123.54 104.72H209.487Z" fill="#F0FBFF"/>
<path opacity="0.8" d="M16.2131 172.939C16.8243 170.807 19.2047 169.216 22.0503 169.216C22.5727 169.216 23.0794 169.27 23.5624 169.371C24.9668 166.964 28.0148 165.296 31.5492 165.296C32.463 165.296 33.3443 165.408 34.1731 165.615C36.0759 163.09 39.5327 161.401 43.4819 161.401C48.1803 161.401 52.1821 163.791 53.6984 167.137C54.7719 166.657 56.0076 166.383 57.3236 166.383C61.442 166.383 64.7806 169.058 64.7806 172.359C64.7806 172.554 64.768 172.748 64.7451 172.939H16.2131Z" fill="#F0FBFF"/>
<path d="M121.615 151.11H97.8382C94.4014 179.681 93.9232 217.048 66.6989 243.483H152.755C124.343 212.738 124.39 179.219 121.615 151.11Z" fill="white"/>
<path d="M122.314 152.634H97.1392C96.5763 152.634 96.12 152.177 96.12 151.614V144.785H123.334V151.614C123.334 152.177 122.877 152.634 122.314 152.634Z" fill="#878583"/>
<path d="M88.5164 106.796C88.5164 106.796 78.2522 120.469 70.9547 128.877C61.1062 140.225 63.7233 141.671 72.5429 173.145C94.9902 158.028 85.4152 136.217 93.4751 131.823C108.183 123.803 88.5164 106.796 88.5164 106.796Z" fill="#BC6CF2"/>
<path d="M130.937 106.796C130.937 106.796 141.201 120.469 148.499 128.877C158.347 140.225 155.73 141.671 146.91 173.145C124.463 158.028 134.038 136.217 125.978 131.823C111.271 123.803 130.937 106.796 130.937 106.796Z" fill="#BC6CF2"/>
<path d="M137.644 96.0102C137.644 69.6524 122.412 46.1199 114.527 35.7037C112.177 32.6003 107.536 32.5315 105.094 35.5625C97.0607 45.5335 81.8089 67.9859 81.8089 94.729C81.8089 105.534 89.2136 136.221 93.0738 144.041C93.9989 145.915 95.9014 147.107 97.9913 147.107H122.052C124.142 147.107 126.044 145.915 126.969 144.041C130.83 136.221 137.644 106.815 137.644 96.0102Z" fill="#BC6CF2"/>
<path d="M126.97 144.042C130.83 136.221 137.644 106.816 137.644 96.0106C137.644 79.9571 131.994 64.9516 125.794 53.3194C120.964 50.8308 115.646 49.4521 110.06 49.4521C103.881 49.4521 98.0295 51.1388 92.8041 54.1491C86.9323 65.1715 81.8089 79.2298 81.8089 94.7295C81.8089 105.535 89.2136 136.221 93.0738 144.042C93.9989 145.916 95.9014 147.108 97.9913 147.108H122.052C124.142 147.108 126.045 145.916 126.97 144.042Z" fill="#DFDEDE"/>
<path d="M110.796 100.597C120.262 100.597 127.936 92.9225 127.936 83.456C127.936 73.9895 120.262 66.3154 110.796 66.3154C101.329 66.3154 93.6549 73.9895 93.6549 83.456C93.6549 92.9225 101.329 100.597 110.796 100.597Z" fill="#EBD6AC"/>
<path d="M121.927 95.3584C128.621 88.6646 128.621 77.8119 121.927 71.1182C115.234 64.4244 104.381 64.4244 97.6872 71.1182C90.9934 77.8119 90.9934 88.6646 97.6872 95.3584C104.381 102.052 115.234 102.052 121.927 95.3584Z" fill="#8826C9"/>
<path d="M93.4375 83.4945C93.4375 74.028 101.112 66.3539 110.578 66.3539C112.32 66.3539 114 66.6156 115.583 67.0983C113.779 66.4527 111.835 66.0986 109.809 66.0986C100.342 66.0986 92.6682 73.7726 92.6682 83.2392C92.6682 90.9642 97.7793 97.4937 104.804 99.6352C98.1786 97.2647 93.4375 90.9344 93.4375 83.4945Z" fill="#1F4752"/>
<path d="M111.333 98.171C111.333 98.8858 110.754 99.4651 110.039 99.4651C109.325 99.4651 108.745 98.8857 108.745 98.171C108.745 97.4564 109.325 96.877 110.039 96.877C110.754 96.877 111.333 97.4564 111.333 98.171Z" fill="#D1CFCB"/>
<path d="M111.251 68.7404C111.251 69.4552 110.672 70.0345 109.957 70.0345C109.243 70.0345 108.663 69.455 108.663 68.7404C108.663 68.0258 109.243 67.4463 109.957 67.4463C110.672 67.4463 111.251 68.0256 111.251 68.7404Z" fill="#D1CFCB"/>
<path d="M122.286 73.9672C122.45 73.2716 122.019 72.5746 121.324 72.4104C120.628 72.2462 119.931 72.6769 119.767 73.3724C119.603 74.068 120.034 74.765 120.729 74.9292C121.425 75.0935 122.122 74.6627 122.286 73.9672Z" fill="#D1CFCB"/>
<path d="M100.804 93.9865C100.804 94.7012 100.225 95.2806 99.5102 95.2806C98.7954 95.2806 98.2161 94.7012 98.2161 93.9865C98.2161 93.2717 98.7955 92.6924 99.5102 92.6924C100.225 92.6924 100.804 93.2719 100.804 93.9865Z" fill="#D1CFCB"/>
<path d="M122.319 93.415C122.319 94.1298 121.739 94.7091 121.025 94.7091C120.31 94.7091 119.73 94.1297 119.73 93.415C119.73 92.7004 120.31 92.1211 121.025 92.1211C121.739 92.1211 122.319 92.7004 122.319 93.415Z" fill="#D1CFCB"/>
<path d="M100.287 73.4533C100.287 74.168 99.7074 74.7474 98.9926 74.7474C98.2778 74.7474 97.6985 74.168 97.6985 73.4533C97.6985 72.7385 98.278 72.1592 98.9926 72.1592C99.7072 72.1592 100.287 72.7387 100.287 73.4533Z" fill="#D1CFCB"/>
<path d="M125.763 84.4082C126.268 83.9028 126.268 83.0835 125.763 82.5781C125.258 82.0727 124.438 82.0727 123.933 82.5781C123.428 83.0835 123.428 83.9028 123.933 84.4082C124.438 84.9136 125.258 84.9136 125.763 84.4082Z" fill="#D1CFCB"/>
<path d="M96.2805 83.5234C96.2993 82.8089 95.7354 82.2144 95.0209 82.1956C94.3064 82.1769 93.7119 82.7408 93.6931 83.4553C93.6743 84.1698 94.2383 84.7643 94.9528 84.7831C95.6673 84.8019 96.2617 84.2379 96.2805 83.5234Z" fill="#D1CFCB"/>
<path d="M109.809 95.8133C116.754 95.8133 122.384 90.1832 122.384 83.2382C122.384 76.2931 116.754 70.6631 109.809 70.6631C102.864 70.6631 97.2337 76.2931 97.2337 83.2382C97.2337 90.1832 102.864 95.8133 109.809 95.8133Z" fill="url(#paint0_linear_1110_5849)"/>
<path d="M98.6761 84.7875C98.6761 77.8425 104.306 72.2126 111.251 72.2126C114.505 72.2126 117.471 73.4485 119.704 75.4767C117.401 72.5457 113.825 70.6631 109.809 70.6631C102.864 70.6631 97.2339 76.2931 97.2339 83.2382C97.2339 86.929 98.824 90.2487 101.357 92.5492C99.6774 90.4114 98.6761 87.7164 98.6761 84.7875Z" fill="#C1DAE3"/>
<path d="M111.103 97.9699C111.103 98.6846 110.524 99.264 109.809 99.264C109.094 99.264 108.515 98.6845 108.515 97.9699C108.515 97.2553 109.094 96.6758 109.809 96.6758C110.523 96.6758 111.103 97.2551 111.103 97.9699Z" fill="#878583"/>
<path d="M109.809 98.6881C109.413 98.6881 109.09 98.3658 109.09 97.9695C109.09 97.5733 109.413 97.251 109.809 97.251C110.205 97.251 110.527 97.5733 110.527 97.9695C110.527 98.3658 110.205 98.6881 109.809 98.6881Z" fill="#858585"/>
<path d="M111.021 68.5402C111.021 69.255 110.441 69.8343 109.727 69.8343C109.012 69.8343 108.433 69.2548 108.433 68.5402C108.433 67.8256 109.012 67.2461 109.727 67.2461C110.441 67.2461 111.021 67.8256 111.021 68.5402Z" fill="#878583"/>
<path d="M109.727 69.2584C109.331 69.2584 109.008 68.9361 109.008 68.5399C109.008 68.1436 109.33 67.8213 109.727 67.8213C110.123 67.8213 110.445 68.1436 110.445 68.5399C110.445 68.9362 110.123 69.2584 109.727 69.2584Z" fill="#858585"/>
<path d="M122.088 73.457C122.088 74.1718 121.509 74.7511 120.794 74.7511C120.079 74.7511 119.5 74.1718 119.5 73.457C119.5 72.7423 120.079 72.1631 120.794 72.1631C121.509 72.1631 122.088 72.7424 122.088 73.457Z" fill="#878583"/>
<path d="M120.794 74.1764C120.398 74.1764 120.076 73.8541 120.076 73.4578C120.076 73.0616 120.398 72.7393 120.794 72.7393C121.191 72.7393 121.513 73.0616 121.513 73.4578C121.513 73.8541 121.19 74.1764 120.794 74.1764Z" fill="#858585"/>
<path d="M100.574 93.7853C100.574 94.5001 99.9945 95.0794 99.2797 95.0794C98.565 95.0794 97.9856 94.4999 97.9856 93.7853C97.9856 93.0707 98.565 92.4912 99.2797 92.4912C99.9945 92.4912 100.574 93.0705 100.574 93.7853Z" fill="#878583"/>
<path d="M99.2798 94.5044C98.8836 94.5044 98.5613 94.182 98.5613 93.7859C98.5613 93.3897 98.8836 93.0674 99.2798 93.0674C99.6761 93.0674 99.9984 93.3897 99.9984 93.7859C99.9984 94.1822 99.6761 94.5044 99.2798 94.5044Z" fill="#858585"/>
<path d="M122.075 93.4214C122.19 92.7159 121.711 92.0512 121.005 91.9367C120.3 91.8222 119.635 92.3013 119.521 93.0068C119.406 93.7123 119.885 94.377 120.591 94.4915C121.296 94.606 121.961 94.1269 122.075 93.4214Z" fill="#878583"/>
<path d="M120.794 93.9332C120.398 93.9332 120.076 93.6109 120.076 93.2145C120.076 92.8184 120.398 92.4961 120.794 92.4961C121.191 92.4961 121.513 92.8184 121.513 93.2145C121.513 93.6109 121.19 93.9332 120.794 93.9332Z" fill="#858585"/>
<path d="M98.7622 74.5462C99.4769 74.5462 100.056 73.9668 100.056 73.2521C100.056 72.5374 99.4769 71.958 98.7622 71.958C98.0475 71.958 97.4681 72.5374 97.4681 73.2521C97.4681 73.9668 98.0475 74.5462 98.7622 74.5462Z" fill="#878583"/>
<path d="M98.7624 73.9713C98.3661 73.9713 98.0438 73.649 98.0438 73.2528C98.0438 72.8565 98.3661 72.5342 98.7624 72.5342C99.1586 72.5342 99.4809 72.8565 99.4809 73.2528C99.4808 73.649 99.1585 73.9713 98.7624 73.9713Z" fill="#858585"/>
<path d="M125.913 83.2931C125.913 84.0079 125.334 84.5872 124.619 84.5872C123.905 84.5872 123.325 84.0079 123.325 83.2931C123.325 82.5783 123.905 81.999 124.619 81.999C125.334 81.999 125.913 82.5783 125.913 83.2931Z" fill="#878583"/>
<path d="M124.62 84.0114C124.223 84.0114 123.901 83.689 123.901 83.2928C123.901 82.8965 124.223 82.5742 124.62 82.5742C125.016 82.5742 125.338 82.8967 125.338 83.2928C125.338 83.6889 125.016 84.0114 124.62 84.0114Z" fill="#858585"/>
<path d="M96.0445 83.2931C96.0445 84.0079 95.4652 84.5872 94.7505 84.5872C94.0357 84.5872 93.4564 84.0079 93.4564 83.2931C93.4564 82.5783 94.0358 81.999 94.7505 81.999C95.4652 81.999 96.0445 82.5783 96.0445 83.2931Z" fill="#878583"/>
<path d="M94.7503 84.0114C94.3541 84.0114 94.0317 83.689 94.0317 83.2928C94.0317 82.8965 94.3541 82.5742 94.7503 82.5742C95.1466 82.5742 95.4689 82.8967 95.4689 83.2928C95.4689 83.6889 95.1466 84.0114 94.7503 84.0114Z" fill="#858585"/>
<path d="M117.648 83.6745C116.228 89.1583 110.631 92.4528 105.147 91.0324C103.458 90.595 101.978 89.7604 100.778 88.6557C102.146 91.0223 104.424 92.8614 107.28 93.6009C112.932 95.0648 118.701 91.6692 120.165 86.0165C121.363 81.3915 119.307 76.6901 115.423 74.3311C117.588 76.7981 118.533 80.2581 117.648 83.6745Z" fill="#7A7A7A"/>
<path d="M113.298 142.976C113.298 159.637 111.645 170.389 109.727 173.144C107.743 170.275 106.156 159.638 106.156 142.976C106.156 126.314 109.727 112.808 109.727 112.808C109.727 112.808 113.298 126.314 113.298 142.976Z" fill="#BC6CF2"/>
<path d="M85.3021 100.473C85.3021 72.6233 101.669 49.2423 110.29 38.8587C110.298 38.8492 110.305 38.8397 110.313 38.8302C111.12 37.8702 110.094 36.491 108.908 36.949C107.991 37.3035 107.146 37.8872 106.47 38.7015C98.437 48.3776 83.1852 70.1658 83.1852 96.1179C83.1852 106.454 89.8365 132.011 93.7391 140.108C89.6352 127.283 85.3021 109.288 85.3021 100.473Z" fill="#592D24"/>
<path d="M217.128 243.483L238.215 222.043C234.486 217.817 227.458 206.178 214.308 208.078C202.14 209.836 197.243 217.989 197.243 229.004C197.243 229.716 197.276 230.419 197.338 231.112C197.183 231.106 197.028 231.101 196.872 231.101C195.348 231.101 193.883 231.395 192.515 231.936C190.426 224.958 184.743 219.952 178.06 219.952C170.323 219.952 163.928 226.659 162.895 235.371C161.981 235.066 161.018 234.899 160.02 234.899C155.329 234.899 151.36 238.51 150.034 243.483L217.128 243.483Z" fill="white"/>
<path d="M61.3178 231.44C56.9222 231.44 53.0965 234.29 51.118 238.495C49.603 236.563 47.4268 235.351 45.0081 235.351C42.8834 235.351 40.9464 236.287 39.4796 237.823C38.2901 229.32 31.9772 222.831 24.3663 222.831C23.1161 222.831 21.9012 223.007 20.7378 223.338C20.7411 223.169 20.7434 223 20.7434 222.831C20.7434 210.697 12.3288 200.861 1.94885 200.861C1.45397 200.861 0.963631 200.884 0.478546 200.928V243.484H72.8749C72.2148 236.706 67.2928 231.44 61.3178 231.44Z" fill="white"/>
<path d="M209.512 35.2842H171.096C169.067 35.2842 167.422 36.9348 167.422 38.9708V63.2963C167.422 65.3324 169.067 66.983 171.096 66.983H197.016C198.888 69.6039 202.282 74.2972 202.582 74.2972C202.862 74.2972 202.322 69.8643 201.941 66.983H209.512C211.541 66.983 213.186 65.3324 213.186 63.2963V38.9708C213.186 36.9348 211.541 35.2842 209.512 35.2842Z" fill="#8826C9"/>
<path d="M171.698 47.7881H181.269H190.374C190.437 47.7881 190.488 47.8388 190.488 47.9015V49.3409C190.488 49.4035 190.437 49.4542 190.374 49.4542H181.269H180.803H171.698C171.635 49.4542 171.585 49.4035 171.585 49.3409V47.9013C171.585 47.8388 171.635 47.7881 171.698 47.7881Z" fill="white"/>
<path d="M208.854 49.4542H193.262C193.205 49.4542 193.159 49.4083 193.159 49.3516V47.8907C193.159 47.834 193.205 47.7881 193.262 47.7881H208.854C208.911 47.7881 208.957 47.834 208.957 47.8907V49.3516C208.957 49.4081 208.911 49.4542 208.854 49.4542Z" fill="white"/>
<path d="M208.921 44.0128H188.142C188.085 44.0128 188.039 43.9667 188.039 43.9102V42.4492C188.039 42.3926 188.085 42.3467 188.142 42.3467H208.921C208.977 42.3467 209.023 42.3927 209.023 42.4492V43.9102C209.023 43.9669 208.977 44.0128 208.921 44.0128Z" fill="white"/>
<path d="M184.385 44.0128H171.687C171.631 44.0128 171.585 43.9667 171.585 43.9102V42.4492C171.585 42.3926 171.631 42.3467 171.687 42.3467H184.385C184.442 42.3467 184.488 42.3927 184.488 42.4492V43.9102C184.488 43.9669 184.442 44.0128 184.385 44.0128Z" fill="white"/>
<path d="M209.023 60.1124H171.585V58.4463H209.023V60.1124Z" fill="white"/>
<path d="M189.389 53.1807H171.585V54.8468H189.389V53.1807Z" fill="white"/>
<path d="M208.957 53.1807H191.152V54.8468H208.957V53.1807Z" fill="white"/>
<path d="M224.198 135.42C224.022 136.026 223.921 136.226 223.698 136.633C222.257 139.254 218.915 142.996 218.915 142.996L216.33 137.171C216.33 137.171 216.751 135.342 217.482 132.728C219.979 133.379 222.357 133.757 224.198 135.42Z" fill="#F8A492"/>
<path d="M209.375 130.368C209.375 130.368 223.795 136.577 224.261 136.459C224.561 136.382 230.176 126.984 230.236 118.147C230.263 114.065 226.025 109.155 221.295 110.126C218.914 110.615 218.951 111.277 215.428 116.396C211.905 121.515 209.375 130.368 209.375 130.368Z" fill="#51F6AB"/>
<path d="M197.066 241.699C197.066 241.699 197.408 247.362 197.41 247.374C197.536 248.093 198.031 249.87 198.031 250.523C198.031 252.979 186.371 248.439 188.984 247.351C189.221 247.252 190.46 246.507 190.537 245.671C190.657 244.384 190.961 241.779 190.961 241.779L197.066 241.699Z" fill="#F7A491"/>
<path d="M188.603 247.146C188.603 247.146 191.39 247.985 192.817 248.195C194.245 248.405 196.126 246.638 197.136 247.115C198.247 247.641 198.204 252.368 198.204 252.368C198.204 252.368 183.259 253.714 179.056 252.322C177.391 251.77 182.905 249.1 188.603 247.146Z" fill="#2F2E38"/>
<path d="M220.918 241.699C220.918 241.699 221.261 247.362 221.263 247.374C221.388 248.093 221.884 249.87 221.884 250.523C221.884 252.979 210.224 248.439 212.837 247.351C213.073 247.252 214.68 245.951 214.758 245.115C214.877 243.828 214.814 241.779 214.814 241.779L220.918 241.699Z" fill="#F7A491"/>
<path d="M212.886 247.146C212.886 247.146 215.673 247.985 217.1 248.195C218.528 248.405 220.409 246.638 221.419 247.115C222.53 247.641 222.575 252.368 222.575 252.368C222.575 252.368 207.562 253.937 203.339 252.322C201.699 251.694 207.188 249.1 212.886 247.146Z" fill="#2F2E38"/>
<path d="M217.355 138.558L207.085 124.172C207.042 124.046 206.949 123.788 206.806 123.394C206.289 121.967 205.213 118.996 204.275 116.041L204.265 116.01C203.971 114.977 203.346 113.175 202.742 111.432C202.071 109.493 201.238 107.09 201.209 106.68C201.235 106.61 201.283 106.484 201.347 106.317C201.724 105.339 202.233 103.012 202.413 102C202.528 101.355 202.642 99.7885 201.876 99.7885C200.671 99.7885 201.246 101.353 200.69 102.33C200.486 101.677 200.073 100.382 199.855 99.0701L199.654 96.0116C199.615 95.7809 199.861 94.0938 199.016 94.0938L198.975 94.0951C198.216 94.1506 198.233 95.9444 197.918 98.9785C197.818 98.6294 197.718 98.2084 197.643 97.8213C197.652 97.6138 197.5 96.7017 197.386 96.2202C197.539 95.3748 197.45 94.0414 196.55 94.1671C196.098 94.2304 196.135 96.0912 196.135 96.0912C196.14 96.3466 196.167 98.3141 196.153 98.7029C196.06 98.0427 195.7 95.227 194.993 95.227C194.407 95.227 194.36 95.985 194.373 96.5845C194.38 96.9394 194.748 99.9899 194.768 100.345C194.493 99.882 194.165 97.1935 193.892 97.1935C192.75 97.1935 193.163 101.016 193.583 102.012C193.622 102.114 193.664 102.314 193.713 102.545C193.855 103.226 194.094 104.366 194.692 105.389C195.409 106.616 196.398 108.567 196.549 108.866C196.66 109.475 197.003 111.666 197.436 114.423C197.621 115.602 197.823 116.895 198.035 118.235L198.046 118.234C198.085 118.524 198.299 119.445 199.111 122.904C200.223 127.636 200.338 127.841 200.387 127.928C200.87 128.783 211.943 143.819 212.414 144.459L212.692 144.837L217.355 138.558Z" fill="#F7A491"/>
<path d="M198.254 105.005C198.254 105.005 199.087 102.874 200.571 102.869C200.571 102.869 199.742 102.57 199.031 103.133C198.32 103.696 198.254 105.005 198.254 105.005Z" fill="#F47458"/>
<path d="M219.836 100.886L221.158 109.247C221.158 109.247 216.121 113.292 213.184 112.438C210.721 111.722 212.41 108.501 212.41 108.501C212.41 108.501 213.723 104.038 213.32 101.699C212.917 99.3591 219.836 100.886 219.836 100.886Z" fill="#F7A491"/>
<path d="M218.887 103.414C217.624 104.01 215.128 104.824 213.186 105.021C213.372 103.851 213.478 102.613 213.32 101.699C213.134 100.619 214.508 100.364 216.041 100.401C218.048 100.573 219.836 100.886 219.836 100.886L220.09 102.493C219.709 102.895 219.308 103.215 218.887 103.414Z" fill="#FE875E"/>
<path d="M226.193 91.2417C226.401 91.2428 224.202 100.582 220.799 102.189C217.396 103.796 212.32 102.958 211.368 100.443C210.314 97.6603 214.157 88.1316 218.943 86.9213C223.73 85.7107 226.193 91.2417 226.193 91.2417Z" fill="#F7A491"/>
<path d="M222.255 82.6603C224.973 84.2283 226.221 86.5535 226.641 87.5059C227.917 88.1112 229.461 89.4209 230.202 92.9495C231.113 97.2881 227.873 100.633 224.439 101.638C221.004 102.644 220.474 104.917 220.474 104.917L220.084 102.471C220.084 102.471 220.848 100.342 221.997 99.2759C223.146 98.2102 221.453 96.6567 221.304 95.39C221.189 94.4144 221.908 92.5202 221.752 90.9193C221.752 90.9193 219.844 88.0272 217.962 87.3124C214.755 86.0942 218.767 80.6485 222.255 82.6603Z" fill="#2F2E38"/>
<path d="M220.808 97.0165C220.364 98.0952 220.545 99.1662 221.214 99.4086C221.884 99.651 222.787 98.9731 223.231 97.8943C223.676 96.8156 223.494 95.7446 222.825 95.5022C222.156 95.26 221.253 95.9378 220.808 97.0165Z" fill="#F7A491"/>
<path d="M208.132 138.789L188.323 135.559C188.323 135.559 190.576 129.885 191.382 129.885C192.187 129.885 206.36 136.072 206.36 136.072L207.488 138.336L208.132 138.789Z" fill="#F8A492"/>
<path d="M218.278 152.37C218.278 152.37 220.254 161.924 219.449 169.167C218.644 176.411 218.581 202.143 218.581 202.143L221.653 243.314L214.362 243.473C214.362 243.473 205.716 202.321 205.877 203.378C206.038 204.434 202.978 174.403 202.978 174.403L213.286 151.465L218.278 152.37Z" fill="#520D80"/>
<path d="M216.346 151.918C216.346 151.918 217.634 160.52 216.023 164.293C214.413 168.065 202.209 205.083 202.048 208.101C201.887 211.119 197.829 244.479 197.829 244.479L189.35 244.241L187.516 207.151L191.357 160.535L195.086 148.749L216.346 151.918Z" fill="#520D80"/>
<path d="M221.158 109.247C221.158 109.247 219.067 110.618 217.117 110.46C215.167 110.301 212.41 108.501 212.41 108.501L212.793 107.202C212.793 107.202 217.838 106.468 217.965 106.547C218.092 106.626 221.158 109.247 221.158 109.247Z" fill="#F7A491"/>
<path d="M198.875 129.606C198.875 129.606 191.382 136.677 187.999 135.47C184.617 134.262 183.218 130.136 191.47 124.098C198.856 118.694 198.875 129.606 198.875 129.606Z" fill="#F8A492"/>
<path d="M193.797 138.336C194.911 132.281 202.978 113.436 203.622 109.965C203.935 108.277 208.287 108.24 212.431 108.46C216.809 108.693 221.158 109.247 221.158 109.247C221.158 109.247 225.034 109.883 226.739 111.481C228.444 113.079 228.897 117.498 226.446 125.886C224.511 132.507 222.112 136.143 220.925 140.966C220.685 142.584 220.479 144.18 220.206 146.045C219.769 153.256 220.211 162.784 220.211 162.784C220.211 162.784 199.112 167.16 191.22 160.52C191.22 160.52 192.657 144.541 193.797 138.336Z" fill="#51F6AB"/>
<path d="M188.418 125.316C188.418 125.316 196.697 132.149 197.18 132.149C197.491 132.149 208.994 123.688 211.649 116.736C213.117 112.893 210.038 108.593 206.521 108.607C204.083 108.617 203 109.246 198.168 113.32C193.336 117.395 188.418 125.316 188.418 125.316Z" fill="#51F6AB"/>
<path d="M212.254 97.3633L215.355 98.7601C215.355 98.7601 214.753 99.9059 213.371 99.3309C211.687 98.6301 212.254 97.3633 212.254 97.3633Z" fill="white"/>
<defs>
<linearGradient id="paint0_linear_1110_5849" x1="97.2337" y1="83.2381" x2="122.384" y2="83.2381" gradientUnits="userSpaceOnUse">
<stop stop-color="#BC6CF2"/>
<stop offset="1" stop-color="#A4FDD5"/>
</linearGradient>
</defs>
</svg>
