<svg width="28" height="29" viewBox="0 0 28 29" fill="none" xmlns="http://www.w3.org/2000/svg">
<g clip-path="url(#clip0_704_5354)">
<path d="M14 0.5C6.26925 0.5 0 6.76925 0 14.5C0 22.2308 6.26925 28.5 14 28.5C21.7308 28.5 28 22.2308 28 14.5C28 6.76925 21.7308 0.5 14 0.5Z" fill="#8A38F5"/>
<path d="M16.4153 18.834H11.5737V20.6115H16.4153V18.834Z" fill="#1D2D33"/>
<path d="M16.1953 16.4189H11.8052C12.488 18.4842 11.8616 19.4266 11.8616 19.4266L13.3795 19.7708H14.621L16.1389 19.4266C16.1389 19.4266 15.5126 18.4842 16.1953 16.4189Z" fill="#E2A379"/>
<path d="M13.9887 18.3887L11.8613 19.427C11.8613 19.427 12.8093 21.0126 13.9831 21.0126C15.1568 21.0126 16.1386 19.427 16.1386 19.427L13.9887 18.3887Z" fill="#E2A379"/>
<path d="M16.1331 19.4268C16.1331 19.4268 15.6308 20.403 13.9831 20.403C12.3354 20.403 11.867 19.4268 11.867 19.4268C11.867 19.4268 11.472 22.5134 14.0057 22.5134C16.5394 22.5134 16.1331 19.4268 16.1331 19.4268Z" fill="#E2A379"/>
<path d="M22.2783 22.1013C21.8664 20.5608 18.3339 19.3193 13.9776 19.3193C9.62129 19.3193 6.12835 20.5664 5.71642 22.1013C5.5302 22.7897 5.32141 24.0876 5.14648 25.3459C7.556 27.3153 10.6427 28.5003 14.0002 28.5003C17.3577 28.5003 20.4387 27.3153 22.8539 25.3459C22.6733 24.0819 22.4645 22.7841 22.2783 22.1013Z" fill="#E2A379"/>
<path d="M22.2783 22.1013C21.8664 20.5608 18.3339 19.3193 13.9776 19.3193C9.62129 19.3193 6.12835 20.5664 5.71642 22.1013C5.5302 22.7897 5.32141 24.0876 5.14648 25.3459C7.556 27.3153 10.6427 28.5003 14.0002 28.5003C17.3577 28.5003 20.4387 27.3153 22.8539 25.3459C22.6733 24.0819 22.4645 22.7841 22.2783 22.1013Z" fill="#334D5C"/>
<path d="M17.939 25.3849C18.0855 25.3849 18.2043 25.2662 18.2043 25.1197C18.2043 24.9732 18.0855 24.8545 17.939 24.8545C17.7926 24.8545 17.6738 24.9732 17.6738 25.1197C17.6738 25.2662 17.7926 25.3849 17.939 25.3849Z" fill="#263A44"/>
<path d="M16.2515 24.5332V28.3139C16.3079 28.3027 16.3643 28.297 16.4208 28.2857V25.5659L17.9556 25.8536L19.451 25.5715V27.3998C19.5074 27.3772 19.5638 27.3546 19.6203 27.3264V24.5388H16.2515V24.5332ZM19.451 25.3966L17.9556 25.6787L16.4208 25.3909V24.6968H19.451V25.3966Z" fill="#263A44"/>
<path d="M8.37988 24.5332V27.3208C8.43631 27.3434 8.49274 27.3716 8.54917 27.3941V25.5659L10.084 25.8536L11.5794 25.5715V28.2914C11.6358 28.3027 11.6923 28.3083 11.7487 28.3196V24.5388H8.37988V24.5332ZM11.5794 25.3966L10.084 25.6787L8.54917 25.3909V24.6968H11.5794V25.3966Z" fill="#263A44"/>
<path d="M10.0616 25.3849C10.2081 25.3849 10.3268 25.2662 10.3268 25.1197C10.3268 24.9732 10.2081 24.8545 10.0616 24.8545C9.91513 24.8545 9.79639 24.9732 9.79639 25.1197C9.79639 25.2662 9.91513 25.3849 10.0616 25.3849Z" fill="#263A44"/>
<path d="M13.983 19.3135C13.0858 19.3135 12.2225 19.3643 11.4155 19.4658L14 24.6009L16.5844 19.4715C15.7662 19.3699 14.8915 19.3135 13.983 19.3135Z" fill="#263A44"/>
<path d="M14.0399 23.4724C14.0568 23.4894 11.5739 18.834 11.5739 18.834L9.54248 19.6353L9.93748 20.9331H11.7432L11.1225 21.5539L14.0399 23.4724Z" fill="#263A44"/>
<path d="M18.4525 19.6353L16.4211 18.834C16.4211 18.834 13.9382 23.4894 13.9552 23.4724L16.8725 21.5539L16.2518 20.9331H18.0575L18.4525 19.6353Z" fill="#263A44"/>
<path d="M16.8103 10.3802L10.7386 10.0586C5.62048 15.1993 8.75228 18.5173 9.75671 20.1368C11.7769 23.3927 9.55357 24.5213 9.55357 24.5213L9.66078 24.4649C9.66078 24.4649 13.5995 23.7031 12.1267 20.165C11.3931 18.4101 10.9361 14.635 16.8103 10.3802Z" fill="#3A1D12"/>
<path d="M14.0001 3.97559C11.5172 3.97559 9.49707 5.17188 9.49707 10.3859C9.49707 12.1521 9.81307 13.5346 10.2871 14.6011C11.3254 16.9486 13.1254 17.7668 14.0001 17.7668C14.8747 17.7668 16.6692 16.9486 17.7131 14.6011C18.1871 13.5346 18.5031 12.1521 18.5031 10.3859C18.5031 5.17188 16.483 3.97559 14.0001 3.97559Z" fill="#F4B382"/>
<path d="M9.58157 10.5439C9.15271 10.6173 8.82543 10.8035 9.06807 12.2199C9.31072 13.6419 9.60979 13.704 10.0443 13.6306L9.58157 10.5439Z" fill="#F4B382"/>
<path d="M18.4239 10.5439L17.9668 13.6362C18.3957 13.7096 18.7004 13.6419 18.943 12.2255C19.18 10.8035 18.8527 10.6173 18.4239 10.5439Z" fill="#F4B382"/>
<path d="M14.0002 3.97559C10.7668 3.97559 9.3335 5.39195 9.3335 10.606L9.86957 10.1602C12.454 10.1602 14.6604 8.64225 16.2573 7.20896C16.9345 9.07675 18.6668 10.6003 18.6668 10.6003C18.6668 5.39195 17.2335 3.97559 14.0002 3.97559Z" fill="#3A1D12"/>
<path d="M18.0064 4.89536C17.2954 3.84579 15.3429 2.93164 14.0112 2.93164C12.6795 2.93164 10.7158 3.84579 10.0048 4.89536C9.3389 5.87158 9.16961 8.65917 9.41225 8.65917H18.5932C18.7569 8.65917 18.6722 5.87723 18.0064 4.89536Z" fill="#E5AA17"/>
<path d="M9.31641 8.32129L9.36155 9.43294C9.36155 9.43294 11.3591 9.63608 14 9.63608C16.6409 9.63608 18.6328 9.43294 18.6328 9.43294L18.6441 8.32129H9.31641Z" fill="#EFC76C"/>
<path d="M13.9999 2.75195C13.1083 2.75195 12.3804 2.93253 12.3804 3.30496V4.50125C12.3804 4.87368 13.1027 9.08327 13.9999 9.08327C14.8915 9.08327 15.6194 4.87932 15.6194 4.50125V3.3106C15.6194 2.93253 14.8915 2.75195 13.9999 2.75195Z" fill="#E5AA17"/>
<path d="M12.386 3.3099C12.386 3.30425 12.386 3.30425 12.386 3.3099C12.3804 3.30425 12.3747 3.30425 12.3747 3.3099C12.3352 3.41147 12.3127 3.5074 12.3014 3.60897C12.2901 3.65976 12.2901 3.71054 12.2845 3.75568C12.2788 3.80647 12.2788 3.85726 12.2788 3.9024C12.2788 3.95319 12.2788 4.00397 12.2845 4.04911C12.2901 4.0999 12.2901 4.15069 12.3014 4.19583C12.3127 4.2974 12.3352 4.39333 12.3747 4.4949C12.3747 4.4949 12.3747 4.50055 12.3804 4.50055C12.386 4.50055 12.386 4.50055 12.386 4.4949L12.3917 3.89676L12.386 3.3099Z" fill="#C18D17"/>
<path d="M15.7151 3.75612C15.7095 3.70533 15.7095 3.65455 15.6982 3.6094C15.6869 3.50783 15.6643 3.4119 15.6248 3.31033C15.6248 3.31033 15.6248 3.30469 15.6192 3.30469C15.6136 3.30469 15.6136 3.30469 15.6136 3.31033L15.6079 3.90848L15.6136 4.50662C15.6136 4.50662 15.6136 4.51226 15.6192 4.51226C15.6192 4.51226 15.6248 4.51227 15.6248 4.50662C15.6643 4.40505 15.6869 4.30912 15.6982 4.20755C15.7095 4.15676 15.7095 4.10598 15.7151 4.06083C15.7208 4.01005 15.7208 3.95926 15.7208 3.91412C15.7151 3.85769 15.7151 3.8069 15.7151 3.75612Z" fill="#C18D17"/>
<path d="M14.9591 3.11855C14.9591 2.74612 14.5302 2.44141 13.9998 2.44141C13.4693 2.44141 13.0405 2.74612 13.0405 3.11855L12.4028 8.21408C12.4028 8.58651 13.4693 8.89122 13.9998 8.89122C14.5302 8.89122 15.5967 8.58651 15.5967 8.21408L14.9591 3.11855Z" fill="#F4B21E"/>
<path d="M18.4464 7.67225C17.7862 7.64403 15.8846 8.06725 13.9998 8.06725C12.1377 8.06725 10.2925 7.64403 9.64917 7.67225C9.01152 7.67225 8.80273 8.91368 8.80273 8.91368C8.80273 8.91368 11.043 9.14504 14.0055 9.14504C16.968 9.14504 19.2026 8.91368 19.2026 8.91368C19.2026 8.91368 18.9994 7.67225 18.4464 7.67225Z" fill="#E5AA17"/>
<path d="M17.4647 7.89812C17.0754 7.92069 16.6917 7.94326 16.3023 7.96019C15.5236 7.99405 14.7505 8.01662 13.9718 8.01098C13.1931 8.01662 12.42 7.98841 11.6413 7.95455C11.2519 7.93762 10.8626 7.91505 10.4788 7.89248C10.0895 7.86991 9.70577 7.84169 9.31641 7.81348C9.70012 7.86991 10.0895 7.90941 10.4732 7.94891C10.8626 7.98276 11.2463 8.01662 11.6356 8.04483C12.4144 8.09562 13.1931 8.11819 13.9661 8.12384C14.7449 8.11819 15.5236 8.09562 16.3023 8.04483C16.6917 8.01662 17.081 7.98841 17.4647 7.94891C17.8541 7.90941 18.2378 7.86991 18.6215 7.81348C18.2378 7.84169 17.8541 7.87555 17.4647 7.89812Z" fill="#C18D17"/>
<path d="M14.5867 15.0471C14.4174 15.0245 13.9998 15.1881 13.9998 15.1881C13.9998 15.1881 13.571 15.0245 13.4017 15.0471C13.1308 15.0866 12.4932 15.3066 12.4932 15.3856C12.4932 15.3856 13.2945 15.9273 13.9998 15.9273C14.7052 15.9273 15.5065 15.3856 15.5065 15.3856C15.5065 15.3856 14.8632 15.0866 14.5867 15.0471Z" fill="#CC785E"/>
<path d="M14.3442 15.4196C14.2314 15.414 14.0903 15.5155 14 15.5155C13.8928 15.5155 13.7292 15.414 13.605 15.4252C12.8658 15.4704 12.499 15.3857 12.499 15.3857C12.499 15.3857 13.3003 16.1475 14.0057 16.1475C14.711 16.1475 15.5123 15.3857 15.5123 15.3857C15.5123 15.3857 15.1173 15.4647 14.3442 15.4196Z" fill="#C16952"/>
<path d="M9.86366 10.8319C9.84108 10.6795 9.83544 10.5384 9.84108 10.4312C9.84673 10.2676 9.8693 10.166 9.8693 10.166L9.33887 10.3635C9.33887 10.4425 9.33887 10.5272 9.33887 10.6062C9.33887 10.6062 9.3953 10.5892 9.49687 10.5554C9.49123 10.5554 9.48558 10.561 9.47994 10.561C9.5533 10.6852 9.64358 10.877 9.73387 11.1535C9.72823 11.1535 9.93701 11.3059 9.86366 10.8319Z" fill="#3A1D12"/>
<path d="M18.6611 10.3635L18.1363 10.0137C18.1363 10.0137 18.1589 10.2676 18.1645 10.4312C18.1702 10.5441 18.1645 10.6795 18.1419 10.8319C18.0686 11.3059 18.2717 11.1535 18.2717 11.1535C18.3564 10.8714 18.4523 10.6852 18.52 10.561C18.6103 10.5949 18.6611 10.6062 18.6611 10.6062C18.6667 10.5215 18.6667 10.4425 18.6611 10.3635Z" fill="#3A1D12"/>
<path d="M13.983 18.7207C12.3917 18.7207 11.8726 19.4204 11.8726 19.4204L14.0056 22.8795L16.1386 19.4204C16.1329 19.4204 15.5686 18.7207 13.983 18.7207Z" fill="#E2A379"/>
<path d="M14.395 28.4948V23.4727H13.605V28.4948C13.7348 28.5005 13.8702 28.5005 14 28.5005C14.1298 28.5005 14.2652 28.4948 14.395 28.4948Z" fill="#263A44"/>
</g>
<defs>
<clipPath id="clip0_704_5354">
<rect width="28" height="28" fill="white" transform="translate(0 0.5)"/>
</clipPath>
</defs>
</svg>
