<svg width="65" height="64" viewBox="0 0 65 64" fill="none" xmlns="http://www.w3.org/2000/svg">
<path d="M31.1667 6.66699H33.8333V54.667H31.1667V6.66699Z" fill="#37474F"/>
<path d="M34.9227 43.6963L36.808 45.5816L23.4213 58.9683L21.536 57.083L34.9227 43.6963Z" fill="#37474F"/>
<path d="M43.512 57.0986L41.6267 58.9839L28.24 45.5972L30.1253 43.7119L43.512 57.0986Z" fill="#37474F"/>
<path d="M5.83333 10.667H59.1667V48.0003H5.83333V10.667Z" fill="#CFD8DC"/>
<path d="M4.5 9.33301H60.5V14.6663H4.5V9.33301ZM4.5 46.6663H60.5V49.333H4.5V46.6663Z" fill="#607D8B"/>
<path d="M40.5 58C40.5 58.5304 40.7107 59.0391 41.0858 59.4142C41.4609 59.7893 41.9696 60 42.5 60C43.0304 60 43.5391 59.7893 43.9142 59.4142C44.2893 59.0391 44.5 58.5304 44.5 58C44.5 57.4696 44.2893 56.9609 43.9142 56.5858C43.5391 56.2107 43.0304 56 42.5 56C41.9696 56 41.4609 56.2107 41.0858 56.5858C40.7107 56.9609 40.5 57.4696 40.5 58Z" fill="#607D8B"/>
<path d="M20.5 58C20.5 58.5304 20.7107 59.0391 21.0858 59.4142C21.4609 59.7893 21.9696 60 22.5 60C23.0304 60 23.5391 59.7893 23.9142 59.4142C24.2893 59.0391 24.5 58.5304 24.5 58C24.5 57.4696 24.2893 56.9609 23.9142 56.5858C23.5391 56.2107 23.0304 56 22.5 56C21.9696 56 21.4609 56.2107 21.0858 56.5858C20.7107 56.9609 20.5 57.4696 20.5 58Z" fill="#607D8B"/>
<path d="M43.0333 25.2002L35.1667 33.2002L27.1667 25.2002L16.3667 35.8669L19.3 38.8002L27.1667 30.8002L35.1667 38.8002L45.9667 28.1335L43.0333 25.2002Z" fill="#C51162"/>
<path d="M48.5 32.0003L39.1667 22.667H48.5V32.0003Z" fill="#C51162"/>
</svg>
