<svg width="28" height="29" viewBox="0 0 28 29" fill="none" xmlns="http://www.w3.org/2000/svg">
<g clip-path="url(#clip0_858_3477)">
<path d="M15.4719 12.0571C15.2606 12.28 14.962 12.3975 14.6548 12.3785C14.5485 12.3718 12.0227 12.1981 9.4393 10.806C6.998 9.49044 4.05199 6.82104 3.88093 1.57455C3.87152 1.28843 3.98106 1.01127 4.18341 0.80882C4.49206 0.5 4.85431 0.5 5.00902 0.5C5.11845 0.5 7.69122 0.518484 10.3421 2.10797C11.7182 2.93315 12.8622 4.03013 13.7426 5.36855C14.8061 6.98543 15.4809 8.95544 15.7484 11.2237C15.7844 11.5289 15.6831 11.8341 15.4719 12.0571Z" fill="#6DC82A"/>
<path d="M13.7751 5.41992C13.341 6.22109 12.9749 7.12343 12.7122 8.13996C12.4759 8.84554 12.1152 10.0852 11.8174 11.8004C13.388 12.2919 14.5825 12.374 14.6549 12.3786C14.9621 12.3977 15.2607 12.2802 15.472 12.0572C15.6832 11.8342 15.7845 11.5289 15.7485 11.2239C15.4837 8.97925 14.8194 7.02724 13.7751 5.41992Z" fill="#5EAC24"/>
<path d="M14.5836 10.2815L12.353 8.10628L11.7648 5.17515C11.7182 4.94284 11.4922 4.7925 11.2598 4.83899C11.0275 4.88558 10.8771 5.11171 10.9237 5.34391L11.2652 7.04557L10.035 5.84594L9.43868 2.87451C9.39214 2.64219 9.16601 2.49202 8.93375 2.53834C8.70144 2.58494 8.55105 2.81101 8.59759 3.04327L8.94715 4.78517L6.0765 1.98605C5.90675 1.82068 5.63539 1.82418 5.46996 1.99371C5.30459 2.16335 5.30803 2.43487 5.47762 2.60019L8.63412 5.67822L6.43219 5.64059C6.19555 5.63414 6.0001 5.82527 5.996 6.06212C5.99201 6.29897 6.18068 6.49421 6.41753 6.49831L9.52963 6.55152L10.9939 7.97941L8.75826 7.94129C8.52354 7.93604 8.32617 8.12597 8.32207 8.36282C8.31808 8.59967 8.50675 8.79491 8.7436 8.79901L11.8893 8.85271L13.9845 10.8957C14.0679 10.977 14.1759 11.0175 14.2838 11.0175C14.3954 11.0175 14.5068 10.9742 14.591 10.888C14.7565 10.7183 14.7531 10.4468 14.5836 10.2815Z" fill="#4E901E"/>
<path d="M25.5841 0.823398C25.3729 0.600438 25.0742 0.482969 24.7671 0.502001C24.6608 0.508727 22.135 0.68236 19.5516 2.07448C17.5664 3.14422 15.2476 5.10925 14.3584 8.62707C13.8727 10.0573 12.8028 13.936 13.053 19.7761C13.0747 20.2813 13.4911 20.6764 13.992 20.6763C14.0056 20.6763 14.0192 20.6761 14.033 20.6755C14.5519 20.6532 14.9546 20.2146 14.9323 19.6955C14.8027 16.6701 15.0518 14.1967 15.3728 12.3716C16.0952 12.3302 18.2475 12.0957 20.4544 10.7725C21.8305 9.94733 22.9745 8.85036 23.8549 7.51194C24.9183 5.89505 25.5932 3.92505 25.8607 1.65678C25.8967 1.35162 25.7953 1.04641 25.5841 0.823398Z" fill="#91DC5A"/>
<path d="M24.2337 1.99373C24.0682 1.82414 23.7967 1.8207 23.6271 1.98607L20.7567 4.78514L21.1063 3.04329C21.1528 2.81103 21.0024 2.58501 20.7701 2.53836C20.5381 2.49199 20.3118 2.64221 20.2652 2.87453L19.6688 5.84597L18.4387 7.04559L18.7802 5.34393C18.8268 5.11168 18.6764 4.88565 18.444 4.83901C18.2118 4.79252 17.9857 4.94286 17.9391 5.17517L17.3508 8.10636L15.1202 10.2816C14.9506 10.4469 14.9472 10.7184 15.1125 10.888C15.1966 10.9742 15.308 11.0175 15.4197 11.0175C15.5277 11.0175 15.6357 10.977 15.7191 10.8957L17.8142 8.85268L20.96 8.79897C21.1969 8.79493 21.3856 8.59969 21.3816 8.36279C21.3776 8.1284 21.1863 7.9412 20.9529 7.9412C20.9504 7.9412 20.9478 7.9412 20.9454 7.94126L18.7097 7.97938L20.174 6.55149L23.2861 6.49828C23.5229 6.49423 23.7116 6.299 23.7076 6.06209C23.7036 5.8277 23.5124 5.6405 23.2789 5.6405C23.2764 5.6405 23.2739 5.6405 23.2714 5.64056L21.0695 5.67818L24.226 2.60016C24.3957 2.43484 24.3991 2.16332 24.2337 1.99373Z" fill="#5EAC24"/>
<path d="M24.5651 22.9285C24.1325 22.9285 23.7285 23.0503 23.3851 23.2613C22.8779 21.602 21.3348 20.395 19.5094 20.395C19.3069 20.395 19.108 20.4103 18.9135 20.439C18.086 18.546 16.198 17.2227 14 17.2227C11.8021 17.2227 9.91399 18.546 9.08657 20.439C8.89199 20.4103 8.69304 20.395 8.49059 20.395C6.66523 20.395 5.12217 21.602 4.61495 23.2613C4.27156 23.0503 3.86759 22.9285 3.43496 22.9285C2.18836 22.9285 1.17773 23.9391 1.17773 25.1857C1.17773 26.4323 2.18836 27.4429 3.43496 27.4429C4.10302 27.4429 4.70305 27.1525 5.11627 26.6913C5.84262 27.7813 7.0825 28.4998 8.49053 28.4998C9.63082 28.4998 10.6605 28.0281 11.3968 27.27C12.1678 27.6992 13.055 27.9446 14 27.9446C14.945 27.9446 15.8323 27.6992 16.6032 27.27C17.3396 28.0281 18.3692 28.4998 19.5095 28.4998C20.9175 28.4998 22.1575 27.7814 22.8838 26.6913C23.297 27.1525 23.8971 27.4429 24.5651 27.4429C25.8117 27.4429 26.8223 26.4323 26.8223 25.1857C26.8223 23.939 25.8117 22.9285 24.5651 22.9285Z" fill="#CC7400"/>
<path d="M16.9469 19.4172C17.48 19.4172 17.9944 19.4961 18.4804 19.641C17.522 18.1847 15.8737 17.2227 14 17.2227C11.802 17.2227 9.91399 18.546 9.08657 20.439C8.89199 20.4103 8.69304 20.395 8.49059 20.395C6.66523 20.395 5.12217 21.602 4.61495 23.2613C4.27156 23.0503 3.86759 22.9285 3.43496 22.9285C2.18836 22.9285 1.17773 23.9391 1.17773 25.1857C1.17773 26.4323 2.18836 27.4429 3.43496 27.4429C4.10302 27.4429 4.70305 27.1525 5.11627 26.6913C5.84262 27.7813 7.0825 28.4998 8.49053 28.4998C9.63082 28.4998 10.6605 28.0281 11.3968 27.27C11.7331 27.4572 12.0914 27.6093 12.4669 27.7215C11.9106 26.8765 11.586 25.8655 11.586 24.7782C11.586 21.8174 13.9862 19.4172 16.9469 19.4172Z" fill="#AA6100"/>
<path d="M16.132 24.4955C16.6687 24.4955 17.1039 24.0603 17.1039 23.5236C17.1039 22.9869 16.6687 22.5518 16.132 22.5518C15.5953 22.5518 15.1602 22.9869 15.1602 23.5236C15.1602 24.0603 15.5953 24.4955 16.132 24.4955Z" fill="#AA6100"/>
<path d="M20.0505 26.7845C20.5872 26.7845 21.0223 26.3494 21.0223 25.8127C21.0223 25.2759 20.5872 24.8408 20.0505 24.8408C19.5137 24.8408 19.0786 25.2759 19.0786 25.8127C19.0786 26.3494 19.5137 26.7845 20.0505 26.7845Z" fill="#AA6100"/>
<path d="M19.4526 22.8612C19.6591 22.8612 19.8265 22.6938 19.8265 22.4872C19.8265 22.2807 19.6591 22.1133 19.4526 22.1133C19.246 22.1133 19.0786 22.2807 19.0786 22.4872C19.0786 22.6938 19.246 22.8612 19.4526 22.8612Z" fill="#AA6100"/>
<path d="M13.9999 26.5604C14.2065 26.5604 14.3739 26.393 14.3739 26.1865C14.3739 25.9799 14.2065 25.8125 13.9999 25.8125C13.7934 25.8125 13.626 25.9799 13.626 26.1865C13.626 26.393 13.7934 26.5604 13.9999 26.5604Z" fill="#AA6100"/>
<path d="M15.1596 21.4637C15.3661 21.4637 15.5335 21.2963 15.5335 21.0898C15.5335 20.8832 15.3661 20.7158 15.1596 20.7158C14.9531 20.7158 14.7856 20.8832 14.7856 21.0898C14.7856 21.2963 14.9531 21.4637 15.1596 21.4637Z" fill="#AA6100"/>
<path d="M23.2065 24.87C23.413 24.87 23.5804 24.7025 23.5804 24.496C23.5804 24.2895 23.413 24.1221 23.2065 24.1221C22.9999 24.1221 22.8325 24.2895 22.8325 24.496C22.8325 24.7025 22.9999 24.87 23.2065 24.87Z" fill="#AA6100"/>
<path d="M21.0226 18.8197C21.5594 18.8197 21.9945 18.3846 21.9945 17.8478C21.9945 17.3111 21.5594 16.876 21.0226 16.876C20.4859 16.876 20.0508 17.3111 20.0508 17.8478C20.0508 18.3846 20.4859 18.8197 21.0226 18.8197Z" fill="#CC7400"/>
<path d="M23.2065 20.3954C23.413 20.3954 23.5804 20.2279 23.5804 20.0214C23.5804 19.8149 23.413 19.6475 23.2065 19.6475C22.9999 19.6475 22.8325 19.8149 22.8325 20.0214C22.8325 20.2279 22.9999 20.3954 23.2065 20.3954Z" fill="#CC7400"/>
<path d="M23.2065 18.5956C23.413 18.5956 23.5804 18.4281 23.5804 18.2216C23.5804 18.0151 23.413 17.8477 23.2065 17.8477C22.9999 17.8477 22.8325 18.0151 22.8325 18.2216C22.8325 18.4281 22.9999 18.5956 23.2065 18.5956Z" fill="#CC7400"/>
<path d="M6.15398 18.4769C6.69072 18.4769 7.12583 18.0418 7.12583 17.5051C7.12583 16.9683 6.69072 16.5332 6.15398 16.5332C5.61724 16.5332 5.18213 16.9683 5.18213 17.5051C5.18213 18.0418 5.61724 18.4769 6.15398 18.4769Z" fill="#AA6100"/>
<path d="M4.53997 20.0213C4.7465 20.0213 4.91392 19.8539 4.91392 19.6474C4.91392 19.4409 4.7465 19.2734 4.53997 19.2734C4.33344 19.2734 4.16602 19.4409 4.16602 19.6474C4.16602 19.8539 4.33344 20.0213 4.53997 20.0213Z" fill="#AA6100"/>
</g>
<defs>
<clipPath id="clip0_858_3477">
<rect width="28" height="28" fill="white" transform="translate(0 0.5)"/>
</clipPath>
</defs>
</svg>
