<svg width="317" height="194" viewBox="0 0 317 194" fill="none" xmlns="http://www.w3.org/2000/svg">
<path d="M48.9792 69.5388C49.9897 70.8659 51.1655 72.1002 52.5125 73.2035C53.8601 74.3064 55.3024 75.2146 56.8032 75.9434L59.1861 71.975C60.5941 72.6166 62.0644 73.0522 63.5567 73.2906L63.3449 77.9202C66.7278 78.3777 70.1807 78.033 73.4061 76.9163L72.2837 72.42C73.6993 71.8912 75.0549 71.1734 76.3078 70.2661L79.428 73.6857C80.755 72.6747 81.9893 71.4995 83.0922 70.1524C84.1951 68.8048 85.1033 67.3625 85.8321 65.8617L81.8636 63.4789C82.5053 62.0708 82.9408 60.6005 83.1798 59.1082L87.8094 59.32C88.2668 55.9371 87.9222 52.4847 86.8055 49.2588L82.3092 50.3812C81.7803 48.9656 81.0625 47.61 80.1553 46.3567L83.5744 43.237C82.5634 41.9099 81.3881 40.6756 80.041 39.5722C78.6935 38.4693 77.2512 37.5611 75.7504 36.8324L73.3675 40.8008C71.9595 40.1591 70.4892 39.7236 68.9969 39.4846L69.2087 34.8555C65.8258 34.3981 62.3734 34.7427 59.1475 35.8594L60.2699 40.3557C58.8543 40.8846 57.4986 41.6024 56.2453 42.5096L53.1251 39.0905C51.7981 40.1015 50.5638 41.2763 49.4609 42.6239C48.358 43.9714 47.4498 45.4132 46.721 46.9145L50.6895 49.2974C50.0478 50.7054 49.6123 52.1758 49.3738 53.668L44.7442 53.4562C44.2868 56.8391 44.6314 60.292 45.7481 63.5174L50.2444 62.395C50.7732 63.8106 51.491 65.1663 52.3983 66.4196L48.9792 69.5388ZM58.1736 49.7553C61.8364 45.2799 68.4338 44.6216 72.9091 48.2845C77.3845 51.9478 78.0428 58.5446 74.3795 63.02C70.7162 67.4953 64.1193 68.1537 59.644 64.4904C55.1691 60.8275 54.5108 54.2306 58.1736 49.7553ZM60.9449 52.0234C63.3553 49.0784 67.6965 48.6453 70.6415 51.0557C73.5865 53.4662 74.0196 57.8078 71.6092 60.7523C69.1987 63.6973 64.8576 64.1305 61.9126 61.72C58.9676 59.3096 58.5344 54.968 60.9449 52.0234Z" fill="#EDEEF7"/>
<path d="M162.806 31.2803C163.133 33.3562 163.699 35.4273 164.533 37.4555C165.368 39.4837 166.424 41.353 167.653 43.058L172.667 40.0825C173.844 41.6357 175.214 42.9976 176.726 44.1542L173.724 49.1603C177.201 51.6893 181.235 53.372 185.479 54.0617L186.922 48.4059C188.808 48.6658 190.74 48.68 192.672 48.424L194.087 54.0803C196.163 53.7533 198.234 53.1878 200.262 52.3533C202.291 51.5189 204.16 50.4627 205.865 49.2341L202.889 44.2199C204.443 43.0428 205.804 41.6724 206.961 40.1606L211.967 43.1627C214.496 39.6856 216.178 35.6514 216.869 31.4074L211.213 29.9642C211.473 28.0788 211.487 26.1467 211.231 24.2146L216.887 22.7994C216.56 20.7236 215.994 18.6525 215.16 16.6243C214.325 14.5961 213.269 12.7268 212.04 11.0218L207.026 13.9973C205.849 12.4445 204.479 11.0822 202.967 9.92555L205.969 4.91946C202.492 2.39 198.458 0.708287 194.214 0.0180871L192.771 5.6744C190.885 5.4145 188.953 5.39974 187.021 5.65631L185.606 0C183.53 0.327488 181.459 0.892499 179.431 1.72693C177.402 2.56136 175.533 3.6176 173.828 4.84616L176.804 9.86034C175.25 11.0375 173.889 12.4079 172.732 13.9197L167.726 10.9175C165.196 14.3947 163.514 18.4288 162.824 22.6728L168.481 24.1161C168.221 26.002 168.206 27.9336 168.463 29.8657L162.806 31.2803ZM184.828 14.8426C191.564 12.0704 199.272 15.2848 202.044 22.0212C204.816 28.7575 201.602 36.4659 194.866 39.2376C188.129 42.0094 180.421 38.7954 177.649 32.0591C174.877 25.3227 178.091 17.6144 184.828 14.8426ZM186.544 19.0138C190.977 17.1898 196.049 19.3047 197.873 23.7376C199.697 28.1706 197.582 33.2429 193.149 35.0669C188.716 36.891 183.644 34.7761 181.82 30.3431C179.996 25.9101 182.111 20.8374 186.544 19.0138Z" fill="#EDEEF7"/>
<path d="M239.662 52.8092C240.458 53.8535 241.382 54.8246 242.443 55.6928C243.503 56.5605 244.638 57.2755 245.819 57.8486L247.694 54.726C248.801 55.2311 249.959 55.5738 251.133 55.7613L250.966 59.4041C253.628 59.764 256.345 59.4927 258.883 58.614L258 55.0759C259.113 54.6599 260.18 54.0948 261.166 53.3813L263.622 56.0721C264.666 55.2768 265.638 54.3519 266.505 53.2918C267.373 52.2318 268.088 51.097 268.661 49.9156L265.539 48.0406C266.044 46.933 266.386 45.7758 266.574 44.6015L270.217 44.7681C270.577 42.1063 270.305 39.3893 269.427 36.8513L265.888 37.7347C265.472 36.6209 264.907 35.5542 264.194 34.5679L266.884 32.1127C266.089 31.0683 265.164 30.0973 264.104 29.2291C263.043 28.3613 261.909 27.6464 260.728 27.0733L258.853 30.1958C257.745 29.6908 256.588 29.3481 255.414 29.1605L255.58 25.5177C252.918 25.1579 250.201 25.4292 247.663 26.3079L248.547 29.846C247.433 30.262 246.366 30.827 245.38 31.5405L242.925 28.8497C241.88 29.6451 240.909 30.57 240.042 31.63C239.174 32.6906 238.459 33.8253 237.886 35.0063L241.008 36.8813C240.503 37.9889 240.161 39.1461 239.973 40.3204L236.33 40.1538C235.97 42.8156 236.242 45.5326 237.12 48.0706L240.658 47.1871C241.075 48.301 241.64 49.3677 242.353 50.354L239.662 52.8092ZM246.897 37.2416C249.779 33.7201 254.97 33.2023 258.492 36.0844C262.013 38.9666 262.531 44.1583 259.649 47.6793C256.767 51.2008 251.576 51.7187 248.054 48.8365C244.533 45.9548 244.015 40.763 246.897 37.2416ZM249.078 39.0266C250.974 36.7094 254.39 36.3686 256.707 38.265C259.024 40.1619 259.365 43.5776 257.469 45.8953C255.572 48.2124 252.156 48.5533 249.839 46.6569C247.521 44.76 247.181 41.3438 249.078 39.0266Z" fill="#EDEEF7"/>
<path d="M91.3264 27.1919C91.691 26.4041 91.9723 25.5635 92.1518 24.6758C92.3312 23.7881 92.3979 22.9041 92.3679 22.0369L89.9636 21.9064C89.916 21.1029 89.7589 20.3209 89.5057 19.5769L91.6858 18.5482C91.0732 16.8818 90.075 15.3776 88.7769 14.1662L86.9824 15.776C86.395 15.2539 85.7353 14.805 85.0132 14.4494L85.8267 12.1832C85.0389 11.8186 84.1983 11.5372 83.3106 11.3578C82.4228 11.1783 81.5389 11.1117 80.6711 11.1417L80.5407 13.546C79.7372 13.5936 78.9552 13.7506 78.2112 14.0039L77.1825 11.8238C75.516 12.4364 74.0119 13.4346 72.8005 14.7326L74.4103 16.5271C73.8881 17.1145 73.4393 17.7743 73.0837 18.4964L70.8175 17.6829C70.4528 18.4707 70.1715 19.3113 69.9921 20.199C69.8126 21.0868 69.746 21.9712 69.776 22.8384L72.1802 22.9689C72.2278 23.7723 72.3849 24.5544 72.6382 25.2984L70.4581 26.327C71.0707 27.994 72.0689 29.4977 73.3669 30.7091L75.1614 29.0993C75.7488 29.6214 76.4085 30.0703 77.1306 30.4259L76.3172 32.6921C77.1049 33.0567 77.9456 33.338 78.8333 33.5175C79.721 33.6969 80.605 33.7636 81.4727 33.7336L81.6031 31.3293C82.4066 31.2817 83.1887 31.1246 83.9332 30.8714L84.9618 33.0515C86.6283 32.4389 88.1324 31.4407 89.3439 30.1427L87.734 28.3481C88.2562 27.7607 88.7051 27.101 89.0606 26.3789L91.3264 27.1919ZM79.9933 27.7765C77.0445 27.1805 75.1372 24.3074 75.7331 21.3585C76.3291 18.4097 79.2022 16.5024 82.151 17.0984C85.0998 17.6938 87.0072 20.5674 86.4112 23.5163C85.8153 26.4651 82.9416 28.3724 79.9933 27.7765Z" fill="#EDEEF7"/>
<path d="M281.712 70.9077C282.219 70.3118 282.668 69.6492 283.039 68.9214C283.41 68.1936 283.683 67.441 283.867 66.6804L281.81 65.984C281.963 65.2743 282.016 64.5564 281.977 63.8482L284.121 63.4831C283.993 61.8861 283.49 60.3367 282.656 58.9692L280.706 59.9331C280.323 59.3366 279.858 58.7869 279.317 58.3023L280.573 56.5301C279.978 56.0222 279.315 55.5738 278.587 55.2026C277.859 54.8313 277.107 54.559 276.346 54.3743L275.65 56.4326C274.94 56.2788 274.222 56.226 273.514 56.2655L273.149 54.1211C271.552 54.2491 270.003 54.7523 268.635 55.5862L269.599 57.5359C269.002 57.9201 268.452 58.3846 267.968 58.9254L266.196 57.6687C265.688 58.2647 265.24 58.9273 264.868 59.6551C264.497 60.3834 264.225 61.1354 264.04 61.8961L266.098 62.5925C265.944 63.3022 265.891 64.02 265.931 64.7283L263.786 65.0934C263.914 66.6904 264.418 68.2397 265.252 69.6073L267.201 68.6434C267.585 69.2398 268.049 69.7896 268.591 70.2742L267.334 72.0463C267.93 72.5542 268.593 73.0026 269.32 73.3739C270.049 73.7451 270.801 74.0174 271.562 74.2021L272.258 72.1444C272.968 72.2981 273.686 72.3509 274.394 72.3114L274.759 74.4558C276.356 74.3278 277.905 73.8251 279.273 72.9907L278.309 71.041C278.906 70.6569 279.455 70.1923 279.94 69.6515L281.712 70.9077ZM271.72 68.6667C269.302 67.4339 268.341 64.4736 269.575 62.0555C270.807 59.6375 273.767 58.6764 276.186 59.9097C278.604 61.1426 279.565 64.1028 278.332 66.5209C277.099 68.939 274.138 69.8995 271.72 68.6667Z" fill="#EDEEF7"/>
<path d="M4.64446 109.995H3.04272C2.75521 109.995 2.52197 109.762 2.52197 109.474V107.872C2.52197 107.585 2.75521 107.352 3.04272 107.352H4.64446C4.93196 107.352 5.1652 107.585 5.1652 107.872V109.474C5.1652 109.762 4.93244 109.995 4.64446 109.995Z" fill="#EDEEF7"/>
<path d="M316.183 87.3503H314.581C314.293 87.3503 314.06 87.117 314.06 86.8295V85.2278C314.06 84.9403 314.293 84.707 314.581 84.707H316.183C316.47 84.707 316.703 84.9403 316.703 85.2278V86.8295C316.703 87.117 316.471 87.3503 316.183 87.3503Z" fill="#EDEEF7"/>
<path d="M157.506 6.66471H155.905C155.617 6.66471 155.384 6.43147 155.384 6.14397V4.54223C155.384 4.25473 155.617 4.02148 155.905 4.02148H157.506C157.794 4.02148 158.027 4.25473 158.027 4.54223V6.14397C158.027 6.43147 157.794 6.66471 157.506 6.66471Z" fill="#EDEEF7"/>
<path d="M260.479 73.3757H258.877C258.59 73.3757 258.357 73.1424 258.357 72.8549V71.2532C258.357 70.9657 258.59 70.7324 258.877 70.7324H260.479C260.767 70.7324 261 70.9657 261 71.2532V72.8549C261 73.1424 260.767 73.3757 260.479 73.3757Z" fill="#EDEEF7"/>
<path d="M107.79 28.6486H106.188C105.901 28.6486 105.667 28.4154 105.667 28.1279V26.5266C105.667 26.2391 105.901 26.0059 106.188 26.0059H107.79C108.077 26.0059 108.311 26.2391 108.311 26.5266V28.1279C108.311 28.4158 108.077 28.6486 107.79 28.6486Z" fill="#EDEEF7"/>
<path d="M80.9267 80.1373C80.9267 81.3473 79.9457 82.3283 78.7357 82.3283C77.5257 82.3283 76.5447 81.3473 76.5447 80.1373C76.5447 78.9273 77.5257 77.9463 78.7357 77.9463C79.9462 77.9463 80.9267 78.9273 80.9267 80.1373Z" stroke="#E3BDFD" stroke-miterlimit="10" stroke-linejoin="round"/>
<path d="M51.6579 29.2311C51.6579 30.4411 50.6769 31.4221 49.4669 31.4221C48.2569 31.4221 47.2759 30.4411 47.2759 29.2311C47.2759 28.0211 48.2569 27.04 49.4669 27.04C50.6769 27.04 51.6579 28.0211 51.6579 29.2311Z" stroke="#E3BDFD" stroke-miterlimit="10" stroke-linejoin="round"/>
<path d="M298.84 53.5592C298.84 54.7692 297.859 55.7502 296.649 55.7502C295.439 55.7502 294.458 54.7692 294.458 53.5592C294.458 52.3492 295.439 51.3682 296.649 51.3682C297.859 51.3677 298.84 52.3487 298.84 53.5592Z" stroke="#E3BDFD" stroke-miterlimit="10" stroke-linejoin="round"/>
<path d="M65.9985 26.9145C65.9985 27.5419 65.4897 28.0507 64.8623 28.0507C64.2349 28.0507 63.7261 27.5424 63.7261 26.9145C63.7261 26.2872 64.2349 25.7783 64.8623 25.7783C65.4897 25.7783 65.9985 26.2872 65.9985 26.9145Z" stroke="#E3BDFD" stroke-miterlimit="10" stroke-linejoin="round"/>
<path d="M9.49437 83.1533C10.1219 83.1533 10.6306 82.6446 10.6306 82.0171C10.6306 81.3896 10.1219 80.8809 9.49437 80.8809C8.86685 80.8809 8.35815 81.3896 8.35815 82.0171C8.35815 82.6446 8.86685 83.1533 9.49437 83.1533Z" stroke="#E3BDFD" stroke-miterlimit="10" stroke-linejoin="round"/>
<path d="M115.464 22.7383C115.464 23.3656 114.955 23.8745 114.328 23.8745C113.7 23.8745 113.191 23.3661 113.191 22.7383C113.191 22.1109 113.7 21.6025 114.328 21.6025C114.955 21.6025 115.464 22.1109 115.464 22.7383Z" stroke="#E3BDFD" stroke-miterlimit="10" stroke-linejoin="round"/>
<path d="M277.086 39.9726C277.713 39.9726 278.222 39.4642 278.222 38.8369C278.222 38.2097 277.713 37.7012 277.086 37.7012C276.459 37.7012 275.95 38.2097 275.95 38.8369C275.95 39.4642 276.459 39.9726 277.086 39.9726Z" stroke="#E3BDFD" stroke-miterlimit="10" stroke-linejoin="round"/>
<path d="M253.822 113.25C254.449 113.25 254.958 112.741 254.958 112.114C254.958 111.486 254.449 110.978 253.822 110.978C253.194 110.978 252.685 111.486 252.685 112.114C252.685 112.741 253.194 113.25 253.822 113.25Z" stroke="#E3BDFD" stroke-miterlimit="10" stroke-linejoin="round"/>
<path d="M30.0591 48.1445H35.9196" stroke="#E3BDFD" stroke-miterlimit="10" stroke-linejoin="round"/>
<path d="M21.7952 45.252H32.9893" stroke="#E3BDFD" stroke-miterlimit="10" stroke-linejoin="round"/>
<path d="M129.469 10.1826H137.709" stroke="#E3BDFD" stroke-miterlimit="10" stroke-linejoin="round"/>
<path d="M137.178 13.0732H143.039" stroke="#E3BDFD" stroke-miterlimit="10" stroke-linejoin="round"/>
<path d="M298.593 74.1133H306.011" stroke="#E3BDFD" stroke-miterlimit="10" stroke-linejoin="round"/>
<path d="M308.278 74.1133H311.905" stroke="#E3BDFD" stroke-miterlimit="10" stroke-linejoin="round"/>
<path d="M126.831 33.5088H132.692" stroke="#E3BDFD" stroke-miterlimit="10" stroke-linejoin="round"/>
<path d="M32.5032 64.2754V66.6349" stroke="#E3BDFD" stroke-miterlimit="10" stroke-linecap="round" stroke-linejoin="round"/>
<path d="M33.6833 65.4551H31.3237" stroke="#E3BDFD" stroke-miterlimit="10" stroke-linecap="round" stroke-linejoin="round"/>
<path d="M228.164 26.8711V29.2306" stroke="#E3BDFD" stroke-miterlimit="10" stroke-linecap="round" stroke-linejoin="round"/>
<path d="M229.344 28.0508H226.985" stroke="#E3BDFD" stroke-miterlimit="10" stroke-linecap="round" stroke-linejoin="round"/>
<path d="M148.246 24.8809V27.2399" stroke="#E3BDFD" stroke-miterlimit="10" stroke-linecap="round" stroke-linejoin="round"/>
<path d="M149.425 26.0605H147.066" stroke="#E3BDFD" stroke-miterlimit="10" stroke-linecap="round" stroke-linejoin="round"/>
<path d="M311.905 126.675V129.034" stroke="#E3BDFD" stroke-miterlimit="10" stroke-linecap="round" stroke-linejoin="round"/>
<path d="M313.085 127.854H310.726" stroke="#E3BDFD" stroke-miterlimit="10" stroke-linecap="round" stroke-linejoin="round"/>
<path d="M232.761 131.318L232.761 33.416L85.9355 33.416L85.9355 131.318L232.761 131.318Z" fill="white" stroke="#9936DB" stroke-miterlimit="10" stroke-linejoin="round"/>
<path d="M228.001 38.1768H90.6953V126.559H228.001V38.1768Z" stroke="#9936DB" stroke-miterlimit="10" stroke-linejoin="round"/>
<path d="M139.125 82.4094C139.125 71.2405 148.179 62.1865 159.348 62.1865C170.517 62.1865 179.571 71.2405 179.571 82.4094C179.571 86.8614 178.131 90.9764 175.693 94.317C172.807 98.6667 165.306 103.578 165.306 106.52V109.882C165.306 110.553 164.762 111.096 164.091 111.096H160.841H157.854H154.604C153.933 111.096 153.39 110.552 153.39 109.882V106.52C153.39 103.578 145.889 98.6667 143.003 94.317C140.565 90.9769 139.125 86.8614 139.125 82.4094Z" fill="white" stroke="#9936DB" stroke-miterlimit="10" stroke-linejoin="round"/>
<path d="M161.645 110.762C161.621 110.255 161.259 102.137 161.909 95.0226C161.112 95.1168 160.259 95.1673 159.348 95.1673C158.436 95.1673 157.584 95.1173 156.787 95.0226C157.437 102.137 157.075 110.255 157.051 110.762L156.695 110.745C156.7 110.62 157.075 102.223 156.411 94.974C150.413 94.1401 147.728 90.7419 147.246 87.5351C146.964 85.6606 147.604 83.7956 148.768 83.0997C149.474 82.6775 150.327 82.5923 151.235 82.8527C152.663 83.2625 154.021 84.4934 154.866 86.1452C155.843 88.053 156.419 91.2203 156.753 94.6584C157.557 94.7574 158.421 94.8098 159.348 94.8098C160.275 94.8098 161.139 94.757 161.943 94.6584C162.275 91.2198 162.853 88.0525 163.829 86.1452C164.674 84.4934 166.032 83.2625 167.46 82.8527C168.368 82.5923 169.222 82.6775 169.927 83.0997C171.091 83.7956 171.731 85.6611 171.449 87.5351C170.967 90.7419 168.282 94.1401 162.284 94.974C161.62 102.223 161.995 110.62 162.001 110.745L161.645 110.762ZM168.461 83.0626C168.172 83.0626 167.87 83.1069 167.559 83.1959C166.224 83.579 164.948 84.7424 164.147 86.3075C163.208 88.142 162.647 91.2322 162.32 94.608C168.065 93.7797 170.637 90.5405 171.097 87.4818C171.354 85.7725 170.773 84.0203 169.745 83.4058C169.362 83.1778 168.928 83.0626 168.461 83.0626ZM150.235 83.0626C149.768 83.0626 149.334 83.1778 148.952 83.4063C147.924 84.0208 147.343 85.7729 147.6 87.4822C148.059 90.5405 150.631 93.7797 156.377 94.6084C156.049 91.2322 155.488 88.1425 154.549 86.308C153.747 84.7424 152.472 83.579 151.137 83.1963C150.827 83.1069 150.525 83.0626 150.235 83.0626Z" fill="#9936DB"/>
<path d="M176.204 83.5699C175.564 83.5699 175.044 83.0506 175.044 82.4094C175.044 75.2137 170.179 68.9562 163.213 67.1931C162.592 67.0361 162.216 66.4049 162.373 65.7832C162.53 65.162 163.161 64.7855 163.783 64.9431C171.779 66.9675 177.364 74.1499 177.364 82.4094C177.364 83.0501 176.845 83.5699 176.204 83.5699Z" fill="#EDEEF7"/>
<path d="M160.119 66.6823C160.76 66.6823 161.279 66.1627 161.279 65.5218C161.279 64.8809 160.76 64.3613 160.119 64.3613C159.478 64.3613 158.958 64.8809 158.958 65.5218C158.958 66.1627 159.478 66.6823 160.119 66.6823Z" fill="#EDEEF7"/>
<path d="M165.784 107.956H152.912V114.091C152.912 115.092 153.197 116.074 153.734 116.92C154.749 118.518 156.511 119.487 158.405 119.487H160.292C162.185 119.487 163.947 118.518 164.962 116.92C165.499 116.074 165.784 115.093 165.784 114.091V107.956Z" fill="white" stroke="#9936DB" stroke-miterlimit="10" stroke-linejoin="round"/>
<path d="M165.271 117.68C165.234 117.682 165.197 117.681 165.16 117.678L152.959 116.626C152.519 116.589 152.212 116.199 152.273 115.756C152.334 115.313 152.741 114.985 153.179 115.024L165.38 116.075C165.82 116.113 166.127 116.503 166.066 116.945C166.01 117.35 165.666 117.659 165.271 117.68Z" fill="white" stroke="#9936DB" stroke-miterlimit="10" stroke-linejoin="round"/>
<path d="M165.785 112.204C165.749 112.206 165.711 112.205 165.674 112.202L152.802 111.093C152.362 111.055 152.055 110.666 152.116 110.223C152.177 109.78 152.584 109.452 153.022 109.49L165.894 110.599C166.334 110.637 166.641 111.027 166.58 111.47C166.524 111.874 166.18 112.184 165.785 112.204Z" fill="white" stroke="#9936DB" stroke-miterlimit="10" stroke-linejoin="round"/>
<path d="M165.785 115.013C165.749 115.014 165.711 115.014 165.674 115.011L152.802 113.902C152.362 113.864 152.055 113.474 152.116 113.031C152.177 112.589 152.584 112.261 153.022 112.299L165.894 113.408C166.334 113.446 166.641 113.835 166.58 114.278C166.524 114.683 166.18 114.992 165.785 115.013Z" fill="white" stroke="#9936DB" stroke-miterlimit="10" stroke-linejoin="round"/>
<path d="M159.385 52.1035V59.076" stroke="#9936DB" stroke-miterlimit="10" stroke-linejoin="round"/>
<path d="M180.913 61.0518L175.983 65.9822" stroke="#9936DB" stroke-miterlimit="10" stroke-linejoin="round"/>
<path d="M137.834 60.999L142.765 65.9299" stroke="#9936DB" stroke-miterlimit="10" stroke-linejoin="round"/>
<path d="M147.725 54.4082L150.393 60.8499" stroke="#9936DB" stroke-miterlimit="10" stroke-linejoin="round"/>
<path d="M171.039 54.4355L168.371 60.8777" stroke="#9936DB" stroke-miterlimit="10" stroke-linejoin="round"/>
<path d="M187.505 70.9414L181.063 73.6094" stroke="#9936DB" stroke-miterlimit="10" stroke-linejoin="round"/>
<path d="M131.219 70.874L137.661 73.5425" stroke="#9936DB" stroke-miterlimit="10" stroke-linejoin="round"/>
<path opacity="0.35" d="M107.264 59.9141H98.3208V67.1183H107.264V59.9141Z" fill="#8826C9"/>
<path opacity="0.35" d="M111.374 59.9141H117.557" stroke="#8826C9" stroke-miterlimit="10"/>
<path opacity="0.35" d="M111.374 67.1182H123.878" stroke="#8826C9" stroke-miterlimit="10"/>
<path opacity="0.35" d="M111.374 64.7998H123.878" stroke="#8826C9" stroke-miterlimit="10"/>
<path opacity="0.35" d="M111.374 62.543H123.878" stroke="#8826C9" stroke-miterlimit="10"/>
<path opacity="0.35" d="M107.264 74.2578H98.3208V81.4621H107.264V74.2578Z" fill="#8826C9"/>
<path opacity="0.35" d="M111.374 74.2578H117.557" stroke="#8826C9" stroke-miterlimit="10"/>
<path opacity="0.35" d="M111.374 81.4619H123.878" stroke="#8826C9" stroke-miterlimit="10"/>
<path opacity="0.35" d="M111.374 79.1436H123.878" stroke="#8826C9" stroke-miterlimit="10"/>
<path opacity="0.35" d="M111.374 76.8867H123.878" stroke="#8826C9" stroke-miterlimit="10"/>
<path opacity="0.35" d="M107.264 88.6006H98.3208V95.8048H107.264V88.6006Z" fill="#8826C9"/>
<path opacity="0.35" d="M111.374 88.6006H117.557" stroke="#8826C9" stroke-miterlimit="10"/>
<path opacity="0.35" d="M111.374 95.8047H123.878" stroke="#8826C9" stroke-miterlimit="10"/>
<path opacity="0.35" d="M111.374 93.4863H123.878" stroke="#8826C9" stroke-miterlimit="10"/>
<path opacity="0.35" d="M111.374 91.2295H123.878" stroke="#8826C9" stroke-miterlimit="10"/>
<path opacity="0.35" d="M107.264 102.943H98.3208V110.148H107.264V102.943Z" fill="#8826C9"/>
<path opacity="0.35" d="M111.374 102.943H117.557" stroke="#8826C9" stroke-miterlimit="10"/>
<path opacity="0.35" d="M111.374 110.147H123.878" stroke="#8826C9" stroke-miterlimit="10"/>
<path opacity="0.35" d="M111.374 107.83H123.878" stroke="#8826C9" stroke-miterlimit="10"/>
<path opacity="0.35" d="M111.374 105.572H123.878" stroke="#8826C9" stroke-miterlimit="10"/>
<path opacity="0.35" d="M203.762 59.9141H194.818V67.1183H203.762V59.9141Z" fill="#8826C9"/>
<path opacity="0.35" d="M207.872 59.9141H214.055" stroke="#8826C9" stroke-miterlimit="10"/>
<path opacity="0.35" d="M207.872 67.1182H220.376" stroke="#8826C9" stroke-miterlimit="10"/>
<path opacity="0.35" d="M207.872 64.7998H220.376" stroke="#8826C9" stroke-miterlimit="10"/>
<path opacity="0.35" d="M207.872 62.543H220.376" stroke="#8826C9" stroke-miterlimit="10"/>
<path opacity="0.35" d="M203.762 74.2578H194.818V81.4621H203.762V74.2578Z" fill="#8826C9"/>
<path opacity="0.35" d="M207.872 74.2578H214.055" stroke="#8826C9" stroke-miterlimit="10"/>
<path opacity="0.35" d="M207.872 81.4619H220.376" stroke="#8826C9" stroke-miterlimit="10"/>
<path opacity="0.35" d="M207.872 79.1436H220.376" stroke="#8826C9" stroke-miterlimit="10"/>
<path opacity="0.35" d="M207.872 76.8867H220.376" stroke="#8826C9" stroke-miterlimit="10"/>
<path opacity="0.35" d="M203.762 88.6006H194.818V95.8048H203.762V88.6006Z" fill="#8826C9"/>
<path opacity="0.35" d="M207.872 88.6006H214.055" stroke="#8826C9" stroke-miterlimit="10"/>
<path opacity="0.35" d="M207.872 95.8047H220.376" stroke="#8826C9" stroke-miterlimit="10"/>
<path opacity="0.35" d="M207.872 93.4863H220.376" stroke="#8826C9" stroke-miterlimit="10"/>
<path opacity="0.35" d="M207.872 91.2295H220.376" stroke="#8826C9" stroke-miterlimit="10"/>
<path opacity="0.35" d="M203.762 102.943H194.818V110.148H203.762V102.943Z" fill="#8826C9"/>
<path opacity="0.35" d="M207.872 102.943H214.055" stroke="#8826C9" stroke-miterlimit="10"/>
<path opacity="0.35" d="M207.872 110.147H220.376" stroke="#8826C9" stroke-miterlimit="10"/>
<path opacity="0.35" d="M207.872 107.83H220.376" stroke="#8826C9" stroke-miterlimit="10"/>
<path opacity="0.35" d="M207.872 105.572H220.376" stroke="#8826C9" stroke-miterlimit="10"/>
<path d="M219.765 33.4165V16.4775" stroke="#9936DB" stroke-miterlimit="10" stroke-linejoin="round"/>
<path d="M219.765 16.4772C220.511 16.4772 221.115 15.8728 221.115 15.1273C221.115 14.3817 220.511 13.7773 219.765 13.7773C219.019 13.7773 218.415 14.3817 218.415 15.1273C218.415 15.8728 219.019 16.4772 219.765 16.4772Z" stroke="#9936DB" stroke-miterlimit="10" stroke-linejoin="round"/>
<path d="M98.9314 33.4165V16.4775" stroke="#9936DB" stroke-miterlimit="10" stroke-linejoin="round"/>
<path d="M98.9315 16.4772C99.677 16.4772 100.281 15.8728 100.281 15.1273C100.281 14.3817 99.677 13.7773 98.9315 13.7773C98.1859 13.7773 97.5815 14.3817 97.5815 15.1273C97.5815 15.8728 98.1859 16.4772 98.9315 16.4772Z" stroke="#9936DB" stroke-miterlimit="10" stroke-linejoin="round"/>
<path opacity="0.35" d="M139.452 42.752H179.245" stroke="#8826C9" stroke-width="2" stroke-miterlimit="10" stroke-linecap="round" stroke-linejoin="round"/>
<path opacity="0.35" d="M128.019 47.084H190.678" stroke="#8826C9" stroke-width="2" stroke-miterlimit="10" stroke-linecap="round" stroke-linejoin="round"/>
<path d="M261.354 159.289C258.58 151.577 251.725 134.925 257.998 110.83C268.883 124.288 269.58 143.726 268.463 161.274" fill="white"/>
<path d="M261.354 159.289C258.58 151.577 251.725 134.925 257.998 110.83C268.883 124.288 269.58 143.726 268.463 161.274" stroke="#E3BDFD" stroke-miterlimit="10" stroke-linejoin="round"/>
<path d="M257.998 110.83C257.998 110.83 260.347 141.503 264.636 160.863" stroke="#E3BDFD" stroke-miterlimit="10" stroke-linejoin="round"/>
<path d="M257.998 110.83C257.998 110.83 255.475 132.731 262.652 160.47" stroke="#E3BDFD" stroke-miterlimit="10" stroke-linejoin="round"/>
<path d="M265.912 160.615C265.912 160.615 262.718 122.157 257.998 110.83" stroke="#E3BDFD" stroke-miterlimit="10" stroke-linejoin="round"/>
<path d="M267.099 160.668C267.099 160.668 267.545 124.482 257.998 110.83" stroke="#E3BDFD" stroke-miterlimit="10" stroke-linejoin="round"/>
<path d="M255.733 162.971C251.59 157.478 241.791 145.739 243.58 126.453C256.771 135.181 261.005 149.921 263.106 163.477" fill="white"/>
<path d="M255.733 162.971C251.59 157.478 241.791 145.739 243.58 126.453C256.771 135.181 261.005 149.921 263.106 163.477" stroke="#E3BDFD" stroke-miterlimit="10" stroke-linejoin="round"/>
<path d="M243.58 126.453C243.58 126.453 248.091 149.49 257.399 162.927" stroke="#E3BDFD" stroke-miterlimit="10" stroke-linejoin="round"/>
<path d="M259.177 163.477C259.177 163.477 247.443 131.665 243.58 126.453" stroke="#E3BDFD" stroke-miterlimit="10" stroke-linejoin="round"/>
<path d="M261.373 163.477C261.373 163.477 254.366 134.832 243.58 126.453" stroke="#E3BDFD" stroke-miterlimit="10" stroke-linejoin="round"/>
<path d="M274.883 158.893C278.427 150.929 287.045 133.767 281.389 108.25C268.439 121.892 266.556 142.233 266.812 160.671" fill="white"/>
<path d="M274.883 158.893C278.427 150.929 287.045 133.767 281.389 108.25C268.439 121.892 266.556 142.233 266.812 160.671" stroke="#E3BDFD" stroke-miterlimit="10" stroke-linejoin="round"/>
<path d="M281.39 108.25C281.39 108.25 277.02 140.295 271.121 160.403" stroke="#E3BDFD" stroke-miterlimit="10" stroke-linejoin="round"/>
<path d="M281.39 108.25C281.39 108.25 282.972 131.31 273.364 160.075" stroke="#E3BDFD" stroke-miterlimit="10" stroke-linejoin="round"/>
<path d="M269.706 160.089C269.706 160.089 275.462 119.92 281.389 108.25" stroke="#E3BDFD" stroke-miterlimit="10" stroke-linejoin="round"/>
<path d="M268.374 160.094C268.374 160.094 269.926 122.152 281.389 108.25" stroke="#E3BDFD" stroke-miterlimit="10" stroke-linejoin="round"/>
<path d="M277.073 168.523C281.41 162.163 291.527 148.648 292.036 124.993C279.194 134.561 273.759 152.186 270.376 168.54" fill="white"/>
<path d="M277.073 168.523C281.41 162.163 291.527 148.648 292.036 124.993C279.194 134.561 273.759 152.186 270.376 168.54" stroke="#E3BDFD" stroke-miterlimit="10" stroke-linejoin="round"/>
<path d="M292.035 124.993C292.035 124.993 285.439 152.71 275.577 168.333" stroke="#E3BDFD" stroke-miterlimit="10" stroke-linejoin="round"/>
<path d="M273.916 168.859C273.916 168.859 287.983 131.032 292.035 124.993" stroke="#E3BDFD" stroke-miterlimit="10" stroke-linejoin="round"/>
<path d="M271.937 168.68C271.937 168.68 281.399 134.33 292.036 124.993" stroke="#E3BDFD" stroke-miterlimit="10" stroke-linejoin="round"/>
<path d="M284.398 158.845V166.134C284.398 182.272 277.827 192.658 277.827 192.658H257.478C257.478 192.658 250.906 182.272 250.906 166.134V158.845H284.398Z" fill="#E5EAF9"/>
<path d="M18.5612 158.679C16.1141 147.842 9.96088 124.473 17.3651 90.0449C27.7233 108.726 27.5486 136.282 25.6322 161.225" fill="white"/>
<path d="M18.5612 158.679C16.1141 147.842 9.96088 124.473 17.3651 90.0449C27.7233 108.726 27.5486 136.282 25.6322 161.225" stroke="#E3BDFD" stroke-miterlimit="10" stroke-linejoin="round"/>
<path d="M17.365 90.0449C17.365 90.0449 18.3479 133.478 21.7951 160.787" stroke="#E3BDFD" stroke-miterlimit="10" stroke-linejoin="round"/>
<path d="M17.3651 90.0449C17.3651 90.0449 13.837 121.218 19.8146 160.305" stroke="#E3BDFD" stroke-miterlimit="10" stroke-linejoin="round"/>
<path d="M23.0917 160.387C23.0917 160.387 21.609 105.938 17.365 90.0449" stroke="#E3BDFD" stroke-miterlimit="10" stroke-linejoin="round"/>
<path d="M24.2851 160.417C24.2851 160.417 26.3666 109.053 17.365 90.0449" stroke="#E3BDFD" stroke-miterlimit="10" stroke-linejoin="round"/>
<path d="M13.3691 162.85C9.22557 156.048 -0.573369 141.511 1.21592 117.629C14.4073 128.436 18.6413 146.69 20.7419 163.476" fill="white"/>
<path d="M13.3691 162.85C9.22557 156.048 -0.573369 141.511 1.21592 117.629C14.4073 128.436 18.6413 146.69 20.7419 163.476" stroke="#E3BDFD" stroke-miterlimit="10" stroke-linejoin="round"/>
<path d="M1.21582 117.629C1.21582 117.629 5.72687 146.156 15.0351 162.796" stroke="#E3BDFD" stroke-miterlimit="10" stroke-linejoin="round"/>
<path d="M16.8124 163.476C16.8124 163.476 5.07856 124.083 1.21582 117.629" stroke="#E3BDFD" stroke-miterlimit="10" stroke-linejoin="round"/>
<path d="M19.0092 163.476C19.0092 163.476 12.002 128.004 1.21582 117.629" stroke="#E3BDFD" stroke-miterlimit="10" stroke-linejoin="round"/>
<path d="M33.1849 158.544C36.5293 149.008 44.6751 128.465 39.1254 97.834C26.8175 114.137 25.1305 138.525 25.4771 160.64" fill="white"/>
<path d="M33.1849 158.544C36.5293 149.008 44.6751 128.465 39.1254 97.834C26.8175 114.137 25.1305 138.525 25.4771 160.64" stroke="#E3BDFD" stroke-miterlimit="10" stroke-linejoin="round"/>
<path d="M39.1255 97.834C39.1255 97.834 35.1252 136.248 29.5955 160.338" stroke="#E3BDFD" stroke-miterlimit="10" stroke-linejoin="round"/>
<path d="M39.1253 97.834C39.1253 97.834 40.7661 125.499 31.7388 159.955" stroke="#E3BDFD" stroke-miterlimit="10" stroke-linejoin="round"/>
<path d="M28.2407 159.955C28.2407 159.955 33.5224 111.804 39.1254 97.834" stroke="#E3BDFD" stroke-miterlimit="10" stroke-linejoin="round"/>
<path d="M26.9675 159.955C26.9675 159.955 28.2408 114.455 39.126 97.834" stroke="#E3BDFD" stroke-miterlimit="10" stroke-linejoin="round"/>
<path d="M35.6612 168.522C39.9976 162.162 50.1145 148.647 50.6238 124.992C37.7818 134.56 32.3473 152.185 28.9644 168.539" fill="white"/>
<path d="M35.6612 168.522C39.9976 162.162 50.1145 148.647 50.6238 124.992C37.7818 134.56 32.3473 152.185 28.9644 168.539" stroke="#E3BDFD" stroke-miterlimit="10" stroke-linejoin="round"/>
<path d="M50.6232 124.992C50.6232 124.992 44.0268 152.709 34.165 168.332" stroke="#E3BDFD" stroke-miterlimit="10" stroke-linejoin="round"/>
<path d="M32.5034 168.858C32.5034 168.858 46.5706 131.031 50.6233 124.992" stroke="#E3BDFD" stroke-miterlimit="10" stroke-linejoin="round"/>
<path d="M30.5251 168.679C30.5251 168.679 39.9866 134.329 50.6238 124.992" stroke="#E3BDFD" stroke-miterlimit="10" stroke-linejoin="round"/>
<path d="M42.9865 158.844V166.133C42.9865 182.271 36.4148 192.657 36.4148 192.657H16.0663C16.0663 192.657 9.49463 182.271 9.49463 166.133V158.844H42.9865Z" fill="#E5EAF9"/>
<path d="M205.659 168.708C203.995 163.096 199.698 150.869 206.736 135.207C214.74 146.618 213.622 159.114 211.322 170.954" fill="white"/>
<path d="M205.659 168.708C203.995 163.096 199.698 150.869 206.736 135.207C214.74 146.618 213.622 159.114 211.322 170.954" stroke="#E3BDFD" stroke-miterlimit="10" stroke-linejoin="round"/>
<path d="M206.736 135.207C206.736 135.207 204.018 150.021 207.704 169.855" stroke="#E3BDFD" stroke-miterlimit="10" stroke-linejoin="round"/>
<path d="M208.209 170.005C208.209 170.005 209.707 143.531 206.736 135.207" stroke="#E3BDFD" stroke-miterlimit="10" stroke-linejoin="round"/>
<path d="M209.177 170.19C209.177 170.19 213.476 145.723 206.736 135.207" stroke="#E3BDFD" stroke-miterlimit="10" stroke-linejoin="round"/>
<path d="M200.12 172.429C196.78 169.444 189.024 163.241 188.04 149.701C197.69 153.206 202.124 162.506 205.023 171.394" fill="white"/>
<path d="M200.12 172.429C196.78 169.444 189.024 163.241 188.04 149.701C197.69 153.206 202.124 162.506 205.023 171.394" stroke="#E3BDFD" stroke-miterlimit="10" stroke-linejoin="round"/>
<path d="M188.039 149.701C188.039 149.701 191.42 161.112 201.659 172.64" stroke="#E3BDFD" stroke-miterlimit="10" stroke-linejoin="round"/>
<path d="M203.274 171.791C203.274 171.791 191.99 155.446 188.039 149.701" stroke="#E3BDFD" stroke-miterlimit="10" stroke-linejoin="round"/>
<path d="M204.036 171.482C204.036 171.482 196.231 155.057 188.039 149.701" stroke="#E3BDFD" stroke-miterlimit="10" stroke-linejoin="round"/>
<path d="M203.291 169.083C200.641 165.185 192.909 153.453 195.272 140.997C204.199 147.688 207.79 160.961 208.527 169.969" fill="white"/>
<path d="M203.291 169.083C200.641 165.185 192.909 153.453 195.272 140.997C204.199 147.688 207.79 160.961 208.527 169.969" stroke="#E3BDFD" stroke-miterlimit="10" stroke-linejoin="round"/>
<path d="M195.272 140.997C195.272 140.997 198.593 159.707 204.483 169.18" stroke="#E3BDFD" stroke-miterlimit="10" stroke-linejoin="round"/>
<path d="M205.721 169.673C205.721 169.673 197.737 144.69 195.272 140.997" stroke="#E3BDFD" stroke-miterlimit="10" stroke-linejoin="round"/>
<path d="M207.29 169.838C207.29 169.838 202.502 147.28 195.272 140.997" stroke="#E3BDFD" stroke-miterlimit="10" stroke-linejoin="round"/>
<path d="M216.052 168.863C218.319 163.813 223.84 152.934 220.078 136.712C211.737 145.346 210.594 158.261 210.829 169.973" fill="white"/>
<path d="M216.052 168.863C218.319 163.813 223.84 152.934 220.078 136.712C211.737 145.346 210.594 158.261 210.829 169.973" stroke="#E3BDFD" stroke-miterlimit="10" stroke-linejoin="round"/>
<path d="M220.078 136.712C220.078 136.712 216.137 155.483 213.192 169.447" stroke="#E3BDFD" stroke-miterlimit="10" stroke-linejoin="round"/>
<path d="M220.078 136.712C220.078 136.712 220.975 151.363 214.857 169.611" stroke="#E3BDFD" stroke-miterlimit="10" stroke-linejoin="round"/>
<path d="M211.838 169.611C211.838 169.611 213.542 147.605 220.078 136.712" stroke="#E3BDFD" stroke-miterlimit="10" stroke-linejoin="round"/>
<path d="M216.302 174.147C219.241 170.779 226.79 162.372 227.394 151.095C218.691 156.162 215.008 165.496 212.716 174.156" fill="white"/>
<path d="M216.302 174.147C219.241 170.779 226.79 162.372 227.394 151.095C218.691 156.162 215.008 165.496 212.716 174.156" stroke="#E3BDFD" stroke-miterlimit="10" stroke-linejoin="round"/>
<path d="M227.394 151.095C227.394 151.095 221.99 165.375 215.306 173.649" stroke="#E3BDFD" stroke-miterlimit="10" stroke-linejoin="round"/>
<path d="M213.687 173.649C213.687 173.649 221.818 156.523 227.394 151.095" stroke="#E3BDFD" stroke-miterlimit="10" stroke-linejoin="round"/>
<path d="M222.883 167.929V173.259C222.883 185.061 217.151 192.656 217.151 192.656H199.4C199.4 192.656 193.667 185.061 193.667 173.259V167.929H222.883Z" fill="#E5EAF9"/>
<path d="M3.3147 192.959H315.382" stroke="#9936DB" stroke-miterlimit="10" stroke-linejoin="round"/>
<path d="M291.6 74.8946L292.263 80.579C292.263 80.579 290.14 82.8728 286.929 82.8728C283.718 82.8728 283.718 80.7318 283.718 80.7318L284.329 75.8385L289.266 70.6572L291.6 74.8946Z" fill="#FFCBC2"/>
<path d="M282.748 71.1359C282.735 70.9303 282.483 70.8203 282.279 70.8479C281.988 70.8875 281.746 71.1078 281.614 71.3696C281.482 71.6314 281.446 71.9313 281.438 72.2245C281.43 72.4968 281.446 72.78 281.572 73.0223C281.795 73.4526 282.377 73.654 282.818 73.4531" fill="#F9BBAF"/>
<path d="M283 67.2758C283 67.2758 281.303 73.7475 282.236 75.0746C283.632 77.0624 286.955 77.2156 288.355 76.2979C289.529 75.5282 290.494 71.4046 290.494 70.3341C290.493 67.4286 284.529 65.7464 283 67.2758Z" fill="#FFCBC2"/>
<path d="M292.623 72.1498C292.674 71.9356 292.733 71.7238 292.81 71.5096C292.992 71.0022 293.27 70.5543 293.469 70.0554C293.867 69.0587 293.536 67.8192 292.695 67.1528C292.546 67.0343 292.382 66.9324 292.249 66.7953C291.951 66.4873 291.848 66.047 291.675 65.6548C291.534 65.3345 291.328 65.0246 291.019 64.8604C290.309 64.482 289.364 64.9951 288.655 64.6162C288.501 64.5343 288.371 64.4153 288.233 64.3106C287.216 63.5414 286.061 63.7208 284.953 64.1216C284.434 64.3092 284.264 64.5138 283.832 64.8499C283.36 65.2169 282.707 65.1921 282.232 65.552C281.735 65.9295 281.609 66.622 281.604 67.2466C281.602 67.4727 281.613 67.7064 281.709 67.9115C281.832 68.1752 282.083 68.3594 282.347 68.4799C282.983 68.7693 283.698 68.6579 284.372 68.607C285.031 68.5575 285.796 68.0934 286.44 68.3337C287.068 68.5684 287.229 69.3391 288.003 69.399C288.308 69.4228 288.679 69.3671 288.861 69.6128C289.066 69.8903 288.958 70.3467 289.121 70.6676C289.274 70.9703 289.542 71.2435 289.739 71.5225C290.13 72.0775 290.684 72.4583 290.486 73.1823C290.348 73.6854 289.789 74.4941 290.019 75.0273C290.172 75.3785 290.945 75.3728 291.531 74.9273C292.134 74.4684 292.313 73.594 292.461 72.8972C292.515 72.642 292.564 72.395 292.623 72.1498Z" fill="black"/>
<path d="M284.227 76.6523C284.227 76.6523 286.455 77.0916 287.99 76.2677C289.2 75.6179 289.636 74.1133 289.636 74.1133" stroke="#F7A794" stroke-width="0.75" stroke-miterlimit="10"/>
<path d="M288.88 71.999C289.021 71.7606 289.492 71.4507 289.751 71.4783C290.01 71.5059 290.247 71.6615 290.428 71.8653C291.278 72.8211 290.353 74.6456 289.051 74.4442C288.573 74.37 288.704 73.7379 288.704 73.7379" fill="#FFCBC2"/>
<path d="M284.088 70.6572C284.088 70.6572 283.098 72.1814 283.192 72.605C283.285 73.0291 284.294 73.0786 284.294 73.0786" stroke="#F7A794" stroke-width="0.5" stroke-miterlimit="10"/>
<path d="M283.189 73.6016L285.942 73.9857C285.942 73.9857 285.417 75.4061 283.92 75.0919C282.852 74.8672 283.189 73.6016 283.189 73.6016Z" fill="white"/>
<path d="M282.967 70.1832C282.919 70.298 282.879 70.4146 282.845 70.5341C282.777 70.7663 283.145 70.8677 283.207 70.634C283.239 70.5136 283.265 70.3932 283.283 70.2704C283.314 70.0604 283.049 69.9886 282.967 70.1832Z" fill="black"/>
<path d="M283.851 69.5301C283.851 69.5301 283.428 68.9622 282.818 69.4082" stroke="black" stroke-width="0.5" stroke-miterlimit="10" stroke-linecap="round" stroke-linejoin="round"/>
<path d="M286.1 70.9149C286.059 71.0316 286.026 71.1501 285.999 71.271C285.944 71.5071 286.312 71.6071 286.361 71.371C286.389 71.2343 286.41 71.0973 286.422 70.9587C286.439 70.7645 286.159 70.7512 286.1 70.9149Z" fill="black"/>
<path d="M285.967 69.8464C285.967 69.8464 286.64 69.616 287.339 70.4114" stroke="black" stroke-width="0.5" stroke-miterlimit="10" stroke-linecap="round" stroke-linejoin="round"/>
<path d="M281.687 173.977L280.378 187.107L280.488 191.237L264.296 191.154C263.901 191.152 263.582 190.83 263.584 190.435C263.586 190.139 263.769 189.874 264.046 189.769L271.03 186.558L271.7 172.896" fill="#FFCBC2"/>
<path d="M262.876 190.981C263.042 190.462 263.346 189.88 263.652 189.748L271.056 186.56C275.138 188.214 280.421 186.949 280.421 186.949L281.363 192.524C281.362 192.709 281.212 192.858 281.027 192.857H263C262.638 192.854 262.871 190.997 262.876 190.981Z" fill="#2F2E38"/>
<path d="M269.454 186.878C269.869 187.419 270.219 188.008 270.497 188.631" stroke="#BC6CF2" stroke-width="0.75" stroke-miterlimit="10"/>
<path d="M268.521 187.435C268.951 188.03 269.123 188.373 269.379 188.925" stroke="#BC6CF2" stroke-width="0.75" stroke-miterlimit="10"/>
<path d="M267.733 187.842C268.025 188.234 268.311 188.776 268.538 189.209" stroke="#BC6CF2" stroke-width="0.75" stroke-miterlimit="10"/>
<path d="M281.268 191.652L262.8 191.558" stroke="#BC6CF2" stroke-width="0.75" stroke-miterlimit="10"/>
<path d="M280.755 188.926C280.755 188.926 276.417 189.014 276.043 191.628" stroke="#BC6CF2" stroke-width="0.75" stroke-miterlimit="10"/>
<path d="M265.169 189.094C265.169 189.094 266.365 190.794 266.601 191.578" stroke="#BC6CF2" stroke-width="0.75" stroke-miterlimit="10"/>
<path d="M274.111 117.588C271.328 137.586 268.833 184.824 268.833 184.824H282.775C282.775 184.824 285.65 155.293 288.092 133.93C294.227 123.778 293.749 112.783 294.441 111.321" fill="#2ADE8D"/>
<path d="M280.871 184.825C280.871 184.825 284.317 152.207 286.76 130.844" stroke="#36EB9A" stroke-width="0.75" stroke-miterlimit="10"/>
<path d="M304.08 173.977L304.675 187.107L304.786 191.237L288.594 191.154C288.198 191.152 287.88 190.83 287.882 190.435C287.883 190.139 288.067 189.874 288.344 189.769L295.327 186.558L294.093 172.896" fill="#FFCBC2"/>
<path d="M287.173 190.981C287.339 190.462 287.643 189.88 287.949 189.748L295.353 186.56C299.434 188.214 304.718 186.949 304.718 186.949L305.66 192.524C305.659 192.709 305.509 192.858 305.324 192.857H287.297C286.935 192.854 287.168 190.997 287.173 190.981Z" fill="#2F2E38"/>
<path d="M293.751 186.878C294.166 187.419 294.517 188.008 294.795 188.631" stroke="#BC6CF2" stroke-width="0.75" stroke-miterlimit="10"/>
<path d="M292.819 187.435C293.248 188.03 293.42 188.373 293.677 188.925" stroke="#BC6CF2" stroke-width="0.75" stroke-miterlimit="10"/>
<path d="M292.031 187.842C292.323 188.234 292.609 188.776 292.835 189.209" stroke="#BC6CF2" stroke-width="0.75" stroke-miterlimit="10"/>
<path d="M305.565 191.652L287.097 191.558" stroke="#BC6CF2" stroke-width="0.75" stroke-miterlimit="10"/>
<path d="M305.052 188.926C305.052 188.926 300.714 189.014 300.341 191.628" stroke="#BC6CF2" stroke-width="0.75" stroke-miterlimit="10"/>
<path d="M289.467 189.094C289.467 189.094 290.663 190.794 290.898 191.578" stroke="#BC6CF2" stroke-width="0.75" stroke-miterlimit="10"/>
<path d="M303.652 115.737C304.026 120.277 303.995 125.886 303.305 131.364C304.496 155.442 306.142 184.824 306.142 184.824H292.204C292.204 184.824 285.492 131.5 285.179 115.338" fill="#2ADE8D"/>
<path d="M301.272 115.737C301.646 120.277 301.615 125.886 300.925 131.364C302.116 155.442 303.762 184.824 303.762 184.824" stroke="#36EB9A" stroke-width="0.75" stroke-miterlimit="10"/>
<path d="M287.241 141.535C287.241 141.535 285.305 124.812 285.137 118.675" stroke="#36EB9A" stroke-width="0.75" stroke-miterlimit="10"/>
<path d="M305.989 182.066H291.862" stroke="#36EB9A" stroke-width="0.75" stroke-miterlimit="10"/>
<path d="M283.049 182.026H269.014" stroke="#36EB9A" stroke-width="0.75" stroke-miterlimit="10"/>
<path d="M301.427 125.417C301.427 125.417 297.421 125.728 295.209 120.049" stroke="#36EB9A" stroke-width="0.75" stroke-miterlimit="10"/>
<path d="M285.755 125.42C285.755 125.42 284.358 125.022 284.227 124.586C284.097 124.149 283.718 118.975 283.718 118.975" stroke="#36EB9A" stroke-width="0.75" stroke-miterlimit="10"/>
<path d="M278.602 120.049C278.602 120.049 278.286 124.713 273.169 125.42" stroke="#36EB9A" stroke-width="0.75" stroke-miterlimit="10"/>
<path d="M259.716 89.0943C259.716 89.0943 253.092 82.0852 252.685 82.1495C252.277 82.2142 253.177 83.5132 252.832 83.5037C252.488 83.4942 250.407 80.6087 250.017 80.7819C249.488 81.0166 251.449 83.5656 251.449 83.5656C251.449 83.5656 250.93 83.1019 250.53 83.438C250.247 83.676 250.639 84.4795 250.639 84.4795C250.639 84.4795 250.122 84.2315 249.834 84.4847C249.547 84.7361 249.913 85.4243 249.913 85.4243C249.913 85.4243 249.382 84.885 249.089 85.3925C248.813 85.8675 250.758 89.8545 253.933 94.129" fill="#FFCBC2"/>
<path d="M283.875 79.4707C280.558 79.7687 276.981 81.3828 274.788 84.214C271.097 88.9812 266.415 95.015 266.415 95.015L258.74 87.1705L251.516 93.1904C251.516 93.1904 261.518 107.295 266.477 107.329C270.935 107.358 278.467 100.96 280.649 97.5149C285.04 90.5839 283.875 79.4707 283.875 79.4707Z" fill="#66F9B7"/>
<path d="M292.049 78.7764C292.049 78.7764 291.126 80.1372 287.389 80.5219C284.566 80.8127 283.875 79.4704 283.875 79.4704C283.875 79.4704 277.057 83.1023 275.035 98.1462C273.013 113.19 272.815 121.066 272.815 121.066H304.825C304.825 121.066 304.932 109.622 303.996 99.7827C303.033 89.6672 300.908 81.1183 292.049 78.7764Z" fill="#520D80"/>
<path d="M253.29 84.1475C253.29 84.1475 253.644 85.6331 254.19 86.8197" stroke="#F7958B" stroke-width="0.5" stroke-miterlimit="10"/>
<path d="M249.302 86.3323C249.58 86.6513 249.867 86.9626 250.171 87.2539C250.323 87.4 250.48 87.5409 250.646 87.6656C250.728 87.7284 250.816 87.7865 250.904 87.8294C250.991 87.885 251.088 87.8841 251.114 87.8551C251.144 87.8103 251.124 87.6932 251.098 87.6028C251.07 87.5066 251.032 87.4105 250.991 87.3153C250.906 87.1258 250.808 86.9407 250.705 86.7579C250.499 86.3923 250.269 86.0382 250.039 85.6878L250.207 85.5717C250.487 85.9525 250.782 86.3276 251.094 86.6812C251.251 86.8569 251.412 87.0297 251.586 87.1782C251.672 87.2501 251.766 87.3229 251.85 87.3567C251.895 87.3776 251.922 87.3691 251.914 87.3705C251.905 87.3833 251.925 87.3524 251.92 87.3034C251.872 86.8921 251.644 86.4342 251.45 86.0148C251.244 85.5888 251.02 85.168 250.786 84.7563L250.967 84.6454C251.229 85.0533 251.511 85.4517 251.803 85.8382C251.951 86.0301 252.103 86.219 252.271 86.388C252.354 86.4713 252.443 86.5518 252.536 86.607C252.581 86.6322 252.63 86.6474 252.653 86.6408C252.67 86.6403 252.684 86.617 252.689 86.5632C252.695 86.35 252.606 86.1067 252.528 85.883C252.445 85.6555 252.354 85.4294 252.256 85.2056C252.061 84.7587 251.847 84.3184 251.623 83.8838C251.872 84.305 252.109 84.733 252.331 85.1709C252.538 85.6169 252.789 86.0367 252.834 86.5737C252.834 86.637 252.803 86.7545 252.694 86.785C252.596 86.8093 252.523 86.7726 252.461 86.7441C252.342 86.6779 252.246 86.5937 252.154 86.508C251.972 86.3352 251.811 86.1472 251.654 85.9563C251.341 85.5741 251.062 85.1709 250.789 84.7606L250.97 84.6497C251.212 85.0652 251.441 85.4851 251.655 85.9154C251.761 86.131 251.864 86.349 251.956 86.5737C252.044 86.8031 252.14 87.0202 252.154 87.3039C252.152 87.37 252.156 87.4747 252.046 87.5618C251.934 87.6313 251.828 87.5956 251.766 87.5704C251.629 87.5119 251.536 87.4305 251.439 87.35C251.252 87.1863 251.09 87.0073 250.93 86.8259C250.615 86.4609 250.323 86.0815 250.042 85.6907L250.21 85.575C250.444 85.932 250.656 86.3 250.856 86.6765C250.955 86.8655 251.049 87.0573 251.131 87.2567C251.171 87.3572 251.208 87.4585 251.236 87.5666C251.253 87.6751 251.303 87.787 251.222 87.9317C251.094 88.0578 250.933 87.9879 250.851 87.9379C250.75 87.8855 250.665 87.8175 250.583 87.7484C250.418 87.6099 250.268 87.459 250.123 87.3034C249.832 86.9935 249.562 86.6665 249.302 86.3323Z" fill="#F7958B"/>
<path d="M283.875 79.4707C277.313 92.079 276.877 123.146 276.877 123.146H271.858C271.858 123.146 272.092 103.007 275.885 89.8727C277.498 84.2921 281.637 79.8686 283.875 79.4707Z" fill="#66F9B7"/>
<path d="M273.119 104.643C273.119 104.643 274.234 92.4541 276.419 88.291" stroke="#2ADE8D" stroke-width="0.75" stroke-miterlimit="10" stroke-linejoin="round"/>
<path d="M279.134 96.4667L278.131 86.8201L279.814 85.9147L278.131 84.8585C278.131 84.8585 279.596 82.0377 280.87 80.0918" stroke="#2ADE8D" stroke-width="0.75" stroke-miterlimit="10" stroke-linejoin="round"/>
<path d="M291.928 78.7734C287.99 87.26 291.482 123.145 291.482 123.145H306.72C306.72 123.145 305.999 109.999 305.368 104.896C304.737 99.7936 300.589 83.4273 300.589 83.4273L291.928 78.7734Z" fill="#66F9B7"/>
<path d="M301.466 112.756L286.759 112.962L286.771 113.862L302.302 113.644C302.295 113.147 301.921 112.75 301.466 112.756Z" fill="#DCDDEF"/>
<path d="M268.85 114.113L289.513 113.823L285.367 100.012C285.155 99.304 284.545 98.8285 283.864 98.838L265.183 99.1003C264.768 99.106 264.479 99.5492 264.608 99.98L268.85 114.113Z" fill="#DCDDEF"/>
<path d="M267.922 114.126L288.585 113.836L284.439 100.025C284.227 99.3167 283.617 98.8412 282.936 98.8507L264.254 99.113C263.84 99.1187 263.55 99.5619 263.679 99.9922L267.922 114.126Z" fill="#F2F5F9"/>
<path d="M273.915 106.736C274.045 107.382 274.771 107.896 275.536 107.885C276.3 107.874 276.815 107.343 276.684 106.697C276.554 106.052 275.829 105.537 275.064 105.548C274.299 105.558 273.785 106.091 273.915 106.736Z" fill="#DCDDEF"/>
<path d="M297.461 96.8923C297.461 96.8923 301.502 103.972 301.265 105.607C301.087 106.841 290.074 109.668 290.074 109.668L290.572 116.604C290.572 116.604 308.997 115.038 311.138 111.343C314.069 106.284 305.954 93.1904 305.954 93.1904" fill="#FFCBC2"/>
<path d="M292.213 109.251C290.702 109.517 282.746 111.131 282.841 111.534C282.933 111.921 285.269 111.846 285.199 112.066C285.1 112.379 283.372 112.799 282.381 112.944C281.498 113.074 280.1 113.427 280.107 113.818C280.12 114.564 284.959 113.79 284.959 113.79C284.959 113.79 279.6 113.649 279.546 114.273C279.469 115.173 285.146 115.11 285.346 115.306C285.346 115.306 280.408 113.995 280.35 114.661C280.293 115.328 284.673 116.608 286.026 116.513C284.902 116.382 281.47 114.711 281.444 115.325C281.419 115.939 284.389 116.805 284.865 116.841C288.77 117.136 292.312 116.29 292.312 116.29" fill="#FFCBC2"/>
<path d="M280.65 114.106C281.281 113.988 281.912 113.937 282.545 113.895C283.178 113.861 283.81 113.84 284.45 113.866C284.14 113.949 283.824 113.999 283.509 114.042C283.193 114.088 282.876 114.111 282.559 114.133C281.924 114.165 281.288 114.174 280.65 114.106Z" fill="#F7958B"/>
<path d="M281.22 114.935C282.611 114.929 283.965 115.08 285.346 115.137C285.008 115.223 284.659 115.249 284.312 115.265C283.965 115.282 283.618 115.268 283.272 115.249C282.581 115.199 281.894 115.11 281.22 114.935Z" fill="#F7958B"/>
<path d="M282.103 115.726C282.724 115.737 283.333 115.808 283.941 115.88C284.549 115.96 285.15 116.048 285.762 116.154C285.453 116.199 285.142 116.199 284.833 116.191C284.524 116.185 284.217 116.152 283.911 116.116C283.3 116.034 282.693 115.92 282.103 115.726Z" fill="#F7958B"/>
<path d="M291.929 78.7734C296.234 79.4703 301.586 80.8131 303.762 83.6505C307.1 88.004 316.008 106.231 312.71 110.7C309.905 114.5 294.34 117.379 294.34 117.379L290.146 108.796L300.785 104.827L294.165 90.3888" fill="#66F9B7"/>
<path d="M290.146 108.797L300.785 104.828L295.45 93.1904" stroke="#2ADE8D" stroke-width="0.75" stroke-miterlimit="10"/>
<path d="M294.34 117.38L306.142 114.5" stroke="#2ADE8D" stroke-width="0.75" stroke-miterlimit="10"/>
<path d="M291.523 108.282L295.946 116.988" stroke="#2ADE8D" stroke-width="0.75" stroke-miterlimit="10"/>
<path d="M290.074 96.8837C290.756 92.4084 293.637 88.7627 293.637 88.7627L291.856 86.8206L294.34 85.9153C294.34 85.9153 295.49 81.1715 296.314 79.6982" stroke="#2ADE8D" stroke-width="0.75" stroke-miterlimit="10" stroke-linejoin="round"/>
<path d="M245.255 90.7949C245.255 90.7949 247.728 96.4136 248.366 100.624C249.004 104.834 243.154 116.72 243.154 116.72L238.146 113.779C238.146 113.779 239.671 104.919 239.671 101.765C239.671 98.6113 236.799 94.2245 236.799 94.2245" fill="#FFCBC2"/>
<path d="M238.393 113.115C237.749 115.064 234.958 120.401 235.244 120.709C235.53 121.017 236.537 119.152 236.724 119.448C236.912 119.745 235.558 122.719 235.926 122.95C236.424 123.264 237.648 120.143 237.648 120.143C237.648 120.143 236.478 123.628 236.989 123.774C237.351 123.878 238.367 121.26 238.88 120.308C238.455 121.41 237.978 123.278 238.356 123.378C238.731 123.477 239.46 121.709 240.091 120.385C239.774 121.248 239.283 122.85 239.628 122.959C239.972 123.067 242.045 118.892 243.843 114.885" fill="#FFCBC2"/>
<path d="M235.035 138.181C234.428 152.278 238.307 187.552 238.307 187.552L233.952 190.325C233.952 190.325 247.349 190.948 247.738 190.556C248.127 190.164 247.247 187.479 247.247 187.479C247.247 187.479 247.636 145.811 248.025 139.64C248.414 133.469 235.641 124.084 235.035 138.181Z" fill="#FFCBC2"/>
<path d="M244.404 190.522L247.614 188.769L247.361 187.849L243.195 190.526L241.876 190.531L237.23 188.238L232.187 191.394C231.604 191.759 231.865 192.66 232.552 192.657L239.331 192.632L241.494 191.127L242.109 191.124L242.114 192.621L247.956 192.605L247.949 190.513L244.404 190.522Z" fill="#2F2E38"/>
<path d="M217.154 140.588C216.186 160.398 216.544 187.533 216.544 187.533L212.198 190.321C212.198 190.321 225.597 190.902 225.985 190.509C226.373 190.115 225.484 187.434 225.484 187.434C225.484 187.434 229.208 153.045 230.546 140.184C231.884 127.323 218.122 120.778 217.154 140.588Z" fill="#FFCBC2"/>
<path d="M222.651 190.481L225.855 188.722L225.6 187.803L221.442 190.49L220.124 190.499L215.47 188.222L210.438 191.397C209.857 191.764 210.12 192.663 210.808 192.657L217.586 192.609L219.744 191.097L220.359 191.092L220.369 192.589L226.212 192.558L226.197 190.466L222.651 190.481Z" fill="#2F2E38"/>
<path d="M241.417 108.25C242.569 109.046 245.151 112.708 246.22 116.31C248.733 124.776 248.771 143.488 248.771 143.488H216.458C216.458 143.488 216.648 125.507 217.904 117.673C218.573 113.501 220.41 109.873 221.535 108.282" fill="#520D80"/>
<path d="M223.347 108.017C222.378 108.832 220.749 111.865 220.288 115.301C218.729 126.91 219.058 143.488 219.058 143.488" stroke="#64129A" stroke-width="0.75" stroke-miterlimit="10"/>
<path d="M233.533 78.958C243.201 79.572 246.399 91.6482 246.399 91.6482L239.571 96.3625" fill="#BC6CF2"/>
<path d="M242.489 92.3639L245.881 90.0967" stroke="#64129A" stroke-width="0.75" stroke-miterlimit="10"/>
<path d="M215.934 84.749C215.934 84.749 208.721 90.3092 207.566 90.3354C206.371 90.3625 197.064 81.6836 197.064 81.6836L192.169 87.3942C192.169 87.3942 201.985 100.776 207.248 100.776C214.234 100.776 221.669 93.11 221.669 93.11" fill="#FFCBC2"/>
<path d="M226.414 78.9788C226.414 78.9788 227.532 79.8294 229.697 79.5752C231.862 79.321 233.608 78.8564 233.608 78.8564C233.629 78.9117 242.328 82.8967 242.606 87.93C242.917 93.5463 242.898 96.884 241.433 108.283C237.712 108.283 220.945 108.283 221.535 108.283C221.535 108.283 218.442 94.3317 218.442 88.9891C218.442 83.6455 226.414 78.9788 226.414 78.9788Z" fill="#BC6CF2"/>
<path d="M226.414 78.9792C226.414 78.9792 223.456 78.8569 220.919 80.2844C216.558 82.7382 212.897 86.6523 212.897 86.6523L218.69 96.8839L224.775 92.5799" fill="#BC6CF2"/>
<path d="M242.767 94.1549C242.912 89.4506 242.195 86.2305 242.195 86.2305" stroke="#64129A" stroke-width="0.75" stroke-miterlimit="10"/>
<path d="M214.362 85.2129L220.288 96.0024" stroke="#64129A" stroke-width="0.75" stroke-miterlimit="10"/>
<path d="M219.299 96.7037L224.389 93.0918" stroke="#64129A" stroke-width="0.75" stroke-miterlimit="10"/>
<path d="M200.62 84.9103C200.62 84.9103 192.39 77.3028 191.88 77.4804C191.371 77.6579 192.83 79.1207 192.384 79.1883C191.938 79.2554 188.67 75.7987 188.208 76.1119C187.582 76.5365 190.401 79.4006 190.401 79.4006C190.401 79.4006 189.656 78.8969 189.22 79.422C188.911 79.7937 189.788 80.9509 189.788 80.9509C189.788 80.9509 188.931 80.3821 188.618 80.7748C188.308 81.1646 189.072 82.3341 189.072 82.3341C189.072 82.3341 188.462 81.8834 188.26 82.3013C187.937 82.9672 192.007 87.722 195.789 91.906" fill="#FFCBC2"/>
<path d="M233.118 73.8428L233.857 79.3806C233.857 79.3806 230.25 83.0967 226.414 78.9779L226.199 75.872L233.118 73.8428Z" fill="#FFCBC2"/>
<path d="M227.069 66.5981C227.069 66.5981 221.862 72.4876 223.766 74.9205C224.756 76.1852 229.027 77.7351 230.566 76.7736C231.708 76.06 233.855 71.0739 233.367 70.1005C231.503 66.3801 227.069 66.5981 227.069 66.5981Z" fill="#FFCBC2"/>
<path d="M227.304 67.666C226.98 71.0955 227.994 72.8415 227.994 72.8415C227.994 72.8415 225.727 80.0153 226.222 80.6993C226.718 81.3833 234.051 82.4458 237.621 80.9202C237.621 80.9202 238.188 70.0826 234.912 67.3313C231.796 64.7143 227.764 64.9494 225.565 66.317C225.565 66.317 225.761 66.9672 226.554 67.3156C226.944 67.487 227.381 67.6807 227.381 67.6807" fill="#2F2E38"/>
<path d="M227.289 71.9696C227.925 71.1633 228.44 71.2918 228.72 71.7345C229.095 72.3247 228.344 73.5518 227.994 73.7613C227.284 74.1854 226.71 74.1411 226.656 73.5652" fill="#FFCBC2"/>
<path d="M226.221 76.4056C226.971 76.4056 227.212 75.7764 227.212 75.7764" stroke="#E88872" stroke-width="0.5" stroke-miterlimit="10" stroke-linejoin="round"/>
<path d="M225.699 69.9287C225.481 70.1105 225.277 70.4399 225.398 70.6817C225.432 70.7502 225.498 70.7831 225.572 70.7755C226.062 70.7274 226.155 69.5493 225.699 69.9287Z" fill="#2FE593"/>
<path d="M225.761 69.0322C226.066 69.1403 226.561 69.4178 226.742 69.8033" stroke="#2FE593" stroke-width="0.75" stroke-miterlimit="10"/>
<path d="M225.117 72.5936L224.045 72.0205C224.045 72.0205 223.341 73.3371 223.84 73.6151C224.391 73.9221 225.117 72.5936 225.117 72.5936Z" fill="white"/>
<path d="M233.086 66.3113C232.626 66.1942 232.306 65.7144 232.318 65.2403C232.331 64.7662 232.643 64.3269 233.062 64.1041C233.48 63.8814 233.988 63.8599 234.445 63.987C234.619 64.0356 234.79 64.1055 234.936 64.2131C235.529 64.652 235.513 65.6002 235.093 66.2066C234.921 66.4546 234.682 66.6721 234.389 66.7412C234.095 66.8102 233.746 66.6945 233.612 66.4246" fill="#2F2E38"/>
<path d="M158.806 176.996C149.969 174.326 144.117 171.304 139.287 166.494C134.155 161.384 132.34 156.416 130.948 149.464C129.008 139.772 126.905 124.311 116.414 120.611C106.661 117.172 97.9776 124.927 93.0038 132.885C86.6102 143.116 84.6748 153.358 84.6643 165.379C84.6558 175.107 87.1581 192.959 117.911 192.959C117.911 192.959 138.908 192.959 154.454 192.959C174.645 192.958 171.501 180.832 158.806 176.996Z" fill="white" stroke="#8826C9" stroke-miterlimit="10" stroke-linejoin="round"/>
<path d="M156.085 176.343C154.275 172.628 146.591 173.743 138.298 165.053C133.496 160.021 131.499 155.672 130.137 149.123C128.986 143.584 124.673 125.08 117.004 124.352C113.915 124.058 110.757 124.446 108.038 125.939C104.266 128.01 101.336 131.396 99.2612 135.163C97.1873 138.929 95.9135 143.081 94.8801 147.254C93.4455 153.047 92.4425 157.147 93.1703 163.07C94.406 173.127 100.723 182.001 110.55 184.353C120.455 186.723 129.406 185.902 141.123 185.793C145.606 185.751 159.826 184.021 156.085 176.343Z" fill="#EDEEF7"/>
<path d="M104.968 127.876C100.866 131.421 97.9843 136.216 95.968 141.203C93.7179 146.767 92.4732 152.815 92.4879 158.824C92.5017 164.402 93.6251 170.172 96.6139 174.955C99.9925 180.361 105.36 183.361 111.422 184.937C121.038 187.437 131.326 186.792 141.123 185.949C141.318 185.933 141.325 185.635 141.123 185.64C132.553 185.873 123.925 186.617 115.414 185.182C108.775 184.063 102.192 181.64 98.06 176.067C91.2708 166.91 92.0514 153.689 95.5695 143.425C97.5269 137.715 100.588 132.103 105.159 128.067C105.291 127.951 105.099 127.763 104.968 127.876Z" fill="#8826C9"/>
<path d="M159.833 178.271L172.293 187.559L174.634 191.154L188.014 182.034C188.341 181.811 188.425 181.365 188.202 181.039C188.035 180.794 187.735 180.677 187.447 180.745L179.861 181.986L167.509 171.791" fill="#995037"/>
<path d="M189.094 181.096C188.667 180.758 188.089 180.445 187.762 180.507L179.84 182.002C177.38 185.655 172.293 187.56 172.293 187.56L174.628 192.71C174.732 192.862 174.94 192.901 175.092 192.798L190.039 182.72C190.339 182.516 189.107 181.107 189.094 181.096Z" fill="#FFE1CC"/>
<path d="M181.347 181.37C181.305 182.05 181.343 182.736 181.461 183.407" stroke="#A5634C" stroke-width="0.75" stroke-miterlimit="10"/>
<path d="M182.432 181.312C182.408 182.045 182.458 182.426 182.554 183.027" stroke="#A5634C" stroke-width="0.75" stroke-miterlimit="10"/>
<path d="M183.312 181.208C183.289 181.696 183.356 182.306 183.41 182.792" stroke="#A5634C" stroke-width="0.75" stroke-miterlimit="10"/>
<path d="M174.22 191.933L189.48 181.531" stroke="#A5634C" stroke-width="0.75" stroke-miterlimit="10"/>
<path d="M173.121 189.386C173.121 189.386 176.768 187.033 178.538 188.992" stroke="#A5634C" stroke-width="0.75" stroke-miterlimit="10"/>
<path d="M186.138 180.813C186.138 180.813 186.097 182.892 186.339 183.673" stroke="#A5634C" stroke-width="0.75" stroke-miterlimit="10"/>
<path d="M141.819 173.977L147.146 186.948L147.078 191.237L163.27 191.154C163.665 191.152 163.984 190.83 163.982 190.435C163.981 190.139 163.797 189.874 163.52 189.769L156.537 186.558L151.805 172.896" fill="#995037"/>
<path d="M164.691 190.98C164.525 190.461 164.221 189.879 163.915 189.747L156.511 186.559C152.429 188.213 147.146 186.948 147.146 186.948L146.204 192.523C146.205 192.708 146.355 192.857 146.54 192.856H164.567C164.929 192.853 164.696 190.996 164.691 190.98Z" fill="#FFE1CC"/>
<path d="M158.113 186.877C157.699 187.418 157.347 188.007 157.069 188.63" stroke="#A5634C" stroke-width="0.75" stroke-miterlimit="10"/>
<path d="M159.046 187.435C158.616 188.03 158.444 188.373 158.188 188.925" stroke="#A5634C" stroke-width="0.75" stroke-miterlimit="10"/>
<path d="M159.833 187.842C159.542 188.234 159.255 188.776 159.029 189.209" stroke="#A5634C" stroke-width="0.75" stroke-miterlimit="10"/>
<path d="M146.299 191.651L164.767 191.557" stroke="#A5634C" stroke-width="0.75" stroke-miterlimit="10"/>
<path d="M146.812 188.926C146.812 188.926 151.15 189.014 151.523 191.628" stroke="#A5634C" stroke-width="0.75" stroke-miterlimit="10"/>
<path d="M162.398 189.094C162.398 189.094 161.202 190.794 160.966 191.578" stroke="#A5634C" stroke-width="0.75" stroke-miterlimit="10"/>
<path d="M118.718 119.562C118.718 119.562 122.247 125.127 120.741 127.526C119.958 128.772 117.016 129.614 115.522 128.883C114.413 128.34 111.984 123.997 112.337 123.064C113.684 119.495 118.718 119.562 118.718 119.562Z" fill="#995037"/>
<path d="M112.059 127.375L111.726 131.688C111.726 131.688 114.471 138.544 119.436 132.367L119.216 127.608L112.059 127.375Z" fill="#995037"/>
<path d="M110.544 126.084C110.033 124.843 109.605 124.198 109.393 122.683C109.171 121.101 110.461 120.638 110.461 120.638C110.461 120.638 110.241 120.817 110.936 119.444C111.593 118.147 113.797 118.205 115.123 117.993C116.864 117.715 119.441 116.167 120.471 116.854C120.92 117.153 120.918 119.843 119.5 120.633C118.689 121.085 117.358 120.829 116.421 120.977C114.675 121.253 114.268 121.621 114.054 122.736C113.935 123.354 112.786 123.242 113.436 124.511C113.537 124.708 113.56 124.884 113.594 125.031L112.901 125.528C112.017 126.127 113.941 127.673 113.798 128.415C113.723 128.804 112.941 128.971 112.25 128.653C111.56 128.335 111.099 127.434 110.544 126.084Z" fill="black"/>
<path d="M113.347 125.597C112.561 124.789 112.013 124.987 111.756 125.503C111.413 126.19 112.374 127.446 112.781 127.635C113.604 128.018 114.226 127.905 114.22 127.269" fill="#995037"/>
<path d="M119.277 128.871C116.617 129.462 115.244 128.689 115.244 128.689" stroke="#6D221D" stroke-width="0.75" stroke-miterlimit="10" stroke-linejoin="round"/>
<path d="M118.378 122.902C118.378 122.902 119.652 124.28 119.631 124.728C119.611 125.176 118.593 125.403 118.593 125.403" stroke="#6D221D" stroke-width="0.75" stroke-miterlimit="10"/>
<path d="M120.129 125.577L117.395 126.45C117.395 126.45 118.177 127.804 119.646 127.222C120.693 126.806 120.129 125.577 120.129 125.577Z" fill="white"/>
<path d="M119.125 122.339C119.17 122.474 119.224 122.608 119.285 122.737C119.388 122.955 119.712 122.765 119.609 122.547C119.555 122.432 119.493 122.32 119.424 122.213C119.328 122.062 119.066 122.155 119.125 122.339Z" fill="black"/>
<path d="M118.422 121.714C118.422 121.714 118.753 121.062 119.452 121.41" stroke="black" stroke-width="0.5" stroke-miterlimit="10" stroke-linecap="round" stroke-linejoin="round"/>
<path d="M116.064 123.632C116.097 123.755 116.137 123.876 116.185 123.994C116.274 124.215 116.637 124.119 116.547 123.894C116.494 123.761 116.434 123.631 116.364 123.506C116.272 123.343 116.017 123.454 116.064 123.632Z" fill="black"/>
<path d="M116.325 122.405C116.325 122.405 115.599 122.288 115.027 123.22" stroke="black" stroke-width="0.5" stroke-miterlimit="10" stroke-linecap="round" stroke-linejoin="round"/>
<path d="M132.206 141.086C132.206 141.086 136.433 149.242 137.661 149.399C139.144 149.588 150.84 140.944 150.84 140.944L155.564 146.666C155.564 146.666 144.617 159.955 137.25 159.955C129.883 159.955 123.036 146.663 123.036 146.663" fill="#995037"/>
<path d="M111.725 131.688C111.725 131.688 112.797 133.62 115.95 133.477C118.355 133.368 119.436 132.367 119.436 132.367C119.436 132.367 126.633 134.24 128.038 143.715C129.347 152.541 130.991 167.62 130.991 167.62L103.656 169.457C103.656 169.457 102.99 159.541 103.997 148.018C104.751 139.397 111.725 131.688 111.725 131.688Z" fill="#403F3F"/>
<path d="M111.084 161.485L125.791 161.692L125.779 162.591L110.248 162.373C110.254 161.877 110.629 161.479 111.084 161.485Z" fill="#DCDDEF"/>
<path d="M143.699 162.843L123.037 162.553L127.182 148.742C127.395 148.034 128.004 147.558 128.686 147.568L147.367 147.829C147.781 147.835 148.071 148.278 147.942 148.709L143.699 162.843Z" fill="#DCDDEF"/>
<path d="M144.628 162.856L123.965 162.566L128.11 148.755C128.323 148.046 128.932 147.571 129.614 147.58L148.295 147.842C148.71 147.848 148.999 148.291 148.87 148.722L144.628 162.856Z" fill="#F2F5F9"/>
<path d="M138.634 154.601C138.504 155.247 137.779 155.761 137.014 155.75C136.25 155.739 135.735 155.208 135.865 154.562C135.995 153.917 136.721 153.402 137.486 153.413C138.25 153.424 138.765 153.956 138.634 154.601Z" fill="#DCDDEF"/>
<path d="M119.436 132.367C122.156 132.184 125.654 132.866 127.581 134.117C132.689 137.435 134.832 144.54 134.832 144.54L127.792 146.332" fill="#403F3F"/>
<path d="M109.285 147.826C109.285 147.826 107.218 155.084 107.695 156.665C108.056 157.858 118.497 159.354 118.497 159.354L119.041 166.286C119.041 166.286 100.588 167.49 97.9191 164.156C94.2658 159.592 98.4218 145.722 98.4218 145.722" fill="#995037"/>
<path d="M116.32 159.262C117.854 159.299 125.961 159.707 125.927 160.119C125.895 160.516 123.574 160.79 123.675 160.998C123.82 161.293 125.592 161.449 126.593 161.445C127.486 161.441 128.921 161.582 128.972 161.97C129.071 162.708 124.171 162.666 124.171 162.666C124.171 162.666 129.448 161.726 129.595 162.336C129.806 163.214 124.183 163.999 124.015 164.223C124.015 164.223 128.702 162.189 128.858 162.839C129.014 163.49 124.874 165.41 123.523 165.519C124.615 165.221 127.759 163.056 127.876 163.659C127.993 164.263 125.184 165.563 124.72 165.669C120.903 166.544 117.274 166.236 117.274 166.236" fill="#995037"/>
<path d="M128.479 162.335C127.858 162.498 127.228 162.584 126.595 162.647C126.278 162.673 125.961 162.697 125.642 162.699C125.324 162.703 125.004 162.701 124.685 162.665C125.315 162.545 125.942 162.471 126.573 162.41C127.205 162.356 127.838 162.313 128.479 162.335Z" fill="#6D221D"/>
<path d="M128.038 163.239C127.398 163.514 126.732 163.705 126.057 163.856C125.718 163.927 125.377 163.992 125.031 164.027C124.686 164.064 124.337 164.09 123.989 164.056C125.346 163.793 126.662 163.441 128.038 163.239Z" fill="#6D221D"/>
<path d="M127.284 164.153C126.729 164.434 126.146 164.637 125.554 164.81C125.257 164.891 124.958 164.969 124.653 165.021C124.349 165.075 124.042 165.122 123.73 165.124C124.319 164.927 124.9 164.751 125.49 164.581C126.08 164.418 126.671 164.258 127.284 164.153Z" fill="#6D221D"/>
<path d="M111.725 131.688C111.725 131.688 106.195 132.059 104.091 133.643C98.4579 137.884 97.167 146.179 97.167 146.179L109.522 149.399L111.742 142.58" fill="#403F3F"/>
<path d="M109.022 149.433C109.668 146.271 110.712 143.715 110.712 143.715" stroke="#B5B4B4" stroke-width="0.75" stroke-miterlimit="10"/>
<path d="M128.433 146.122C127.534 141.386 126.396 138.483 126.396 138.483" stroke="#B5B4B4" stroke-width="0.75" stroke-miterlimit="10"/>
<path d="M97.604 144.253L109.415 147.742" stroke="#B5B4B4" stroke-width="0.75" stroke-miterlimit="10"/>
<path d="M134.211 142.868L128.104 144.51" stroke="#B5B4B4" stroke-width="0.75" stroke-miterlimit="10"/>
<path d="M110.546 131.802C110.546 131.802 112.026 134.697 116.345 134.407C120.663 134.117 120.845 132.342 120.845 132.342" stroke="#B5B4B4" stroke-width="0.75" stroke-miterlimit="10"/>
<path d="M147.714 143.34C147.714 143.34 155.871 137.004 156.281 137.133C156.691 137.262 155.565 138.462 155.921 138.505C156.277 138.548 158.862 135.896 159.237 136.134C159.745 136.457 157.087 138.986 157.087 138.986C157.087 138.986 160.177 136.389 160.537 136.797C160.792 137.086 157.76 139.985 157.76 139.985C157.76 139.985 160.826 137.746 161.084 138.052C161.34 138.354 158.632 140.93 158.632 140.93C158.632 140.93 160.759 139.063 161.101 139.376C161.443 139.689 156.923 145.469 152.999 149.383" fill="#995037"/>
<path d="M155.345 138.859C155.345 138.859 154.752 140.335 154.009 141.473" stroke="#6D221D" stroke-width="0.75" stroke-miterlimit="10" stroke-linejoin="round"/>
<path d="M155.006 142.164C155.876 141.275 157.032 141.12 158.117 141.171" stroke="#6D221D" stroke-width="0.75" stroke-miterlimit="10" stroke-linejoin="round"/>
<path d="M115.595 179.993C115.595 179.993 114.857 184.417 119.352 184.115C130.279 183.381 147.699 170.362 147.699 170.362L168.869 186.748L177.578 177.458C177.578 177.458 163.247 165.497 159.033 162.264C157.276 160.916 153.638 157.867 149.561 158.14C145.485 158.414 122.426 167.397 122.426 167.397" fill="#2FE593"/>
<path d="M119.192 181.74C128.615 181.107 142.831 170.853 146.603 168.564C147.172 168.219 147.892 168.261 148.419 168.668L170.012 185.53" stroke="#2FE593" stroke-width="0.75" stroke-miterlimit="10"/>
<path d="M104.604 169.394C104.604 169.394 102.769 185.575 116.238 184.67C125.732 184.032 137.661 170.521 137.661 170.521L144.992 187.109L157.46 183.413C157.46 183.413 151.329 168.013 149.226 162.784C147.436 158.334 144.206 154.838 140.984 154.416C137.762 153.995 134.362 155.468 130.339 157.801C127.095 159.682 116.997 168.562 116.997 168.562" fill="#66F9B7"/>
<path d="M108.174 169.154C108.174 169.154 107.375 182.529 117.01 181.882C122.786 181.494 134.137 170.024 137.353 167.248C137.781 166.88 138.442 167.031 138.669 167.548L147.002 186.512" stroke="#2ADE8D" stroke-width="0.75" stroke-miterlimit="10"/>
<path d="M108.284 172.496C108.284 172.496 112.107 172.026 112.402 168.87" stroke="#2ADE8D" stroke-width="0.75" stroke-miterlimit="10"/>
<path d="M143.973 184.804L156.512 181.032" stroke="#2ADE8D" stroke-width="0.75" stroke-miterlimit="10"/>
<path d="M166.843 185.18L175.583 175.797" stroke="#2FE593" stroke-width="0.75" stroke-miterlimit="10"/>
<path d="M62.4044 71.135C62.4173 70.9293 62.6691 70.8194 62.8733 70.847C63.1641 70.8865 63.4069 71.1069 63.5388 71.3687C63.6706 71.6305 63.7063 71.9303 63.7149 72.2236C63.7225 72.4958 63.7063 72.7791 63.5806 73.0213C63.3574 73.4516 62.7757 73.653 62.3345 73.4521" fill="#F9BBAF"/>
<path d="M62.1521 67.2748C62.1521 67.2748 63.8491 73.7465 62.9166 75.0736C61.52 77.0614 58.198 77.2146 56.7976 76.2969C55.6233 75.5272 54.6589 71.4036 54.6589 70.3331C54.6589 67.4276 60.6227 65.7454 62.1521 67.2748Z" fill="#FFCBC2"/>
<path d="M53.5527 74.8946L52.8896 80.579C52.8896 80.579 55.0126 82.8728 58.2242 82.8728C61.4358 82.8728 61.4353 80.7318 61.4353 80.7318L60.8236 75.8385L55.8865 70.6572L53.5527 74.8946Z" fill="#FFCBC2"/>
<path d="M56.541 70.1464C56.5348 69.7747 56.5262 69.4024 56.5162 69.0307C56.5143 68.9564 56.4796 68.1591 56.4043 68.1444C57.9909 68.4619 59.6188 68.5709 61.2334 68.4685C61.7475 68.4361 62.2825 68.3747 62.7152 68.0949C63.1074 67.8412 63.0255 64.1369 58.3131 63.9579C57.413 63.9237 56.4772 63.9498 55.6823 64.3744C54.8878 64.799 53.6688 65.6144 53.6488 66.515C52.4935 66.9025 51.2607 69.1911 51.929 71.6144C52.3046 72.9767 52.5507 74.3838 53.5522 74.895C54.8264 74.3752 55.6965 72.9439 55.9179 72.6345C56.3939 71.9705 56.5548 70.9399 56.541 70.1464Z" fill="black"/>
<path d="M60.9249 76.6523C60.9249 76.6523 58.6967 77.0916 57.1621 76.2677C55.9516 75.6179 55.5156 74.1133 55.5156 74.1133" stroke="#F7A794" stroke-width="0.75" stroke-miterlimit="10"/>
<path d="M56.2716 71.999C56.1307 71.7606 55.6595 71.4507 55.4005 71.4783C55.1416 71.5059 54.905 71.6615 54.7237 71.8653C53.874 72.8211 54.7989 74.6456 56.1007 74.4442C56.5786 74.37 56.4482 73.7379 56.4482 73.7379" fill="#FFCBC2"/>
<path d="M61.064 70.6572C61.064 70.6572 62.0541 72.1814 61.9603 72.605C61.8666 73.0291 60.8579 73.0786 60.8579 73.0786" stroke="#F7A794" stroke-width="0.5" stroke-miterlimit="10"/>
<path d="M61.9632 73.6006L59.2109 73.9847C59.2109 73.9847 59.7355 75.4051 61.2325 75.0909C62.2997 74.8663 61.9632 73.6006 61.9632 73.6006Z" fill="white"/>
<path d="M61.8693 70.2695C61.8874 70.3923 61.9135 70.5132 61.9454 70.6332C62.0073 70.8664 62.3753 70.766 62.3077 70.5332C62.2729 70.4137 62.2329 70.2971 62.1849 70.1824C62.1035 69.9877 61.8379 70.0591 61.8693 70.2695Z" fill="black"/>
<path d="M61.301 69.5301C61.301 69.5301 61.7237 68.9622 62.3339 69.4082" stroke="black" stroke-width="0.5" stroke-miterlimit="10" stroke-linecap="round" stroke-linejoin="round"/>
<path d="M58.73 70.9577C58.7424 71.0962 58.7634 71.2338 58.7914 71.3699C58.8395 71.6055 59.2079 71.5065 59.1537 71.2699C59.1261 71.149 59.0927 71.0305 59.0518 70.9139C58.9942 70.7516 58.7124 70.762 58.73 70.9577Z" fill="black"/>
<path d="M59.1855 69.8455C59.1855 69.8455 58.5125 69.6151 57.8132 70.4105" stroke="black" stroke-width="0.5" stroke-miterlimit="10" stroke-linecap="round" stroke-linejoin="round"/>
<path d="M63.4653 173.976L64.7739 187.106L64.6634 191.236L80.8555 191.153C81.2506 191.152 81.5695 190.829 81.5676 190.434C81.5662 190.138 81.3824 189.873 81.1054 189.768L74.122 186.557L73.4518 172.895" fill="#FFCBC2"/>
<path d="M82.2759 190.98C82.1103 190.461 81.8066 189.879 81.5005 189.747L74.0959 186.559C70.0147 188.213 64.7315 186.948 64.7315 186.948L63.7891 192.523C63.79 192.708 63.9404 192.857 64.1251 192.856H82.1522C82.5144 192.853 82.2812 190.996 82.2759 190.98Z" fill="#2F2E38"/>
<path d="M75.6982 186.877C75.2831 187.418 74.9323 188.007 74.6543 188.63" stroke="#BC6CF2" stroke-width="0.75" stroke-miterlimit="10"/>
<path d="M76.6304 187.434C76.2006 188.029 76.0288 188.372 75.7722 188.924" stroke="#BC6CF2" stroke-width="0.75" stroke-miterlimit="10"/>
<path d="M77.4182 187.841C77.1264 188.233 76.8399 188.775 76.6133 189.208" stroke="#BC6CF2" stroke-width="0.75" stroke-miterlimit="10"/>
<path d="M63.8843 191.651L82.3521 191.557" stroke="#BC6CF2" stroke-width="0.75" stroke-miterlimit="10"/>
<path d="M64.397 188.925C64.397 188.925 68.7352 189.013 69.1084 191.627" stroke="#BC6CF2" stroke-width="0.75" stroke-miterlimit="10"/>
<path d="M79.9826 189.093C79.9826 189.093 78.7864 190.793 78.5508 191.577" stroke="#BC6CF2" stroke-width="0.75" stroke-miterlimit="10"/>
<path d="M71.0406 117.587C73.8238 137.585 76.3181 184.823 76.3181 184.823H62.377C62.377 184.823 59.5019 155.292 57.0596 133.929C50.9249 123.777 51.4023 112.782 50.7102 111.32" fill="#BC6CF2"/>
<path d="M64.2812 184.824C64.2812 184.824 60.8344 152.206 58.3921 130.843" stroke="#64129A" stroke-width="0.75" stroke-miterlimit="10"/>
<path d="M41.0724 173.976L40.4769 187.106L40.3665 191.236L56.5585 191.153C56.9536 191.152 57.2725 190.829 57.2706 190.434C57.2687 190.138 57.0855 189.873 56.8084 189.768L49.825 186.557L51.0588 172.895" fill="#FFCBC2"/>
<path d="M57.9783 190.98C57.8127 190.461 57.509 189.879 57.2029 189.747L49.7983 186.559C45.7171 188.213 40.4339 186.948 40.4339 186.948L39.4915 192.523C39.4924 192.708 39.6428 192.857 39.8275 192.856H57.8546C58.2173 192.853 57.9836 190.996 57.9783 190.98Z" fill="#2F2E38"/>
<path d="M51.401 186.877C50.9865 187.418 50.6352 188.007 50.3572 188.63" stroke="#BC6CF2" stroke-width="0.75" stroke-miterlimit="10"/>
<path d="M52.3331 187.434C51.9033 188.029 51.7314 188.372 51.4749 188.924" stroke="#BC6CF2" stroke-width="0.75" stroke-miterlimit="10"/>
<path d="M53.1213 187.841C52.8295 188.233 52.543 188.775 52.3169 189.208" stroke="#BC6CF2" stroke-width="0.75" stroke-miterlimit="10"/>
<path d="M39.5867 191.651L58.0545 191.557" stroke="#BC6CF2" stroke-width="0.75" stroke-miterlimit="10"/>
<path d="M40.0999 188.925C40.0999 188.925 44.4381 189.013 44.8113 191.627" stroke="#BC6CF2" stroke-width="0.75" stroke-miterlimit="10"/>
<path d="M55.6855 189.093C55.6855 189.093 54.4893 190.793 54.2537 191.577" stroke="#BC6CF2" stroke-width="0.75" stroke-miterlimit="10"/>
<path d="M41.4992 115.736C41.1251 120.276 41.156 125.885 41.8462 131.363C40.6562 155.441 39.0098 184.823 39.0098 184.823H52.947C52.947 184.823 59.6596 131.499 59.9728 115.337" fill="#BC6CF2"/>
<path d="M43.8791 115.736C43.505 120.276 43.5359 125.885 44.2261 131.363C43.0361 155.441 41.3896 184.823 41.3896 184.823" stroke="#64129A" stroke-width="0.75" stroke-miterlimit="10"/>
<path d="M57.9109 141.534C57.9109 141.534 59.8463 124.811 60.0143 118.674" stroke="#64129A" stroke-width="0.75" stroke-miterlimit="10"/>
<path d="M39.1636 182.065H53.2903" stroke="#64129A" stroke-width="0.75" stroke-miterlimit="10"/>
<path d="M62.1025 182.025H76.1379" stroke="#64129A" stroke-width="0.75" stroke-miterlimit="10"/>
<path d="M43.7241 125.416C43.7241 125.416 47.7306 125.727 49.9426 120.048" stroke="#64129A" stroke-width="0.75" stroke-miterlimit="10"/>
<path d="M59.3972 125.419C59.3972 125.419 60.7943 125.021 60.9247 124.585C61.0551 124.148 61.4345 118.974 61.4345 118.974" stroke="#64129A" stroke-width="0.75" stroke-miterlimit="10"/>
<path d="M66.5498 120.048C66.5498 120.048 66.8659 124.712 71.9824 125.419" stroke="#64129A" stroke-width="0.75" stroke-miterlimit="10"/>
<path d="M74.3933 90.7743C74.3933 90.7743 77.6258 95.3077 78.6664 95.5124C79.7069 95.717 88.7157 85.6582 88.7157 85.6582L94.203 89.8941C94.203 89.8941 86.0349 106.402 78.3655 106.845C71.7472 107.227 65.3384 96.8828 65.3384 96.8828" fill="#FFCBC2"/>
<path d="M53.1024 78.7764C53.1024 78.7764 54.0258 80.1372 57.7624 80.5219C60.586 80.8127 61.2772 79.4704 61.2772 79.4704C61.2772 79.4704 68.0949 83.1023 70.117 98.1462C72.139 113.19 72.3366 121.066 72.3366 121.066H40.327C40.327 121.066 40.2194 109.622 41.1557 99.7827C42.1187 89.6672 44.244 81.1183 53.1024 78.7764Z" fill="#520D80"/>
<path d="M63.5014 124.018L48.7682 121.183L48.2922 120.707L53.5663 98.8691L69.251 102.657L69.727 103.133L63.5014 124.018Z" fill="#EDEEF7"/>
<path d="M63.5014 124.018L48.7682 121.183L48.2922 120.707L53.5663 98.8691L54.0423 99.3451L63.5014 124.018Z" fill="#CCD2ED"/>
<path d="M69.737 103.134L54.0513 99.3467L48.7787 121.185L64.4644 124.972L69.737 103.134Z" fill="#BC6CF2"/>
<path d="M64.6029 125.418L48.9182 121.63C48.9182 121.63 52.2912 107.396 52.8866 105.199C52.8866 105.199 53.8938 102.695 55.755 101.763C56.8098 101.235 58.1964 100.937 59.3978 101.05L69.877 103.581L64.6029 125.418Z" fill="white"/>
<path d="M63.0701 123.082L51.3557 120.376" stroke="#EDEEF7" stroke-miterlimit="10"/>
<path d="M63.3884 121.804L51.6741 119.099" stroke="#EDEEF7" stroke-miterlimit="10"/>
<path d="M63.7065 120.527L51.9922 117.821" stroke="#EDEEF7" stroke-miterlimit="10"/>
<path d="M64.0249 119.249L52.3105 116.543" stroke="#EDEEF7" stroke-miterlimit="10"/>
<path d="M64.3433 117.972L52.6289 115.267" stroke="#EDEEF7" stroke-miterlimit="10"/>
<path d="M64.6614 116.694L52.947 113.988" stroke="#EDEEF7" stroke-miterlimit="10"/>
<path d="M64.9797 115.417L53.2654 112.711" stroke="#EDEEF7" stroke-miterlimit="10"/>
<path d="M65.2979 114.14L53.584 111.434" stroke="#EDEEF7" stroke-miterlimit="10"/>
<path d="M65.6162 112.862L53.9019 110.156" stroke="#EDEEF7" stroke-miterlimit="10"/>
<path d="M65.9346 111.584L54.2202 108.879" stroke="#EDEEF7" stroke-miterlimit="10"/>
<path d="M66.2527 110.307L54.5388 107.602" stroke="#EDEEF7" stroke-miterlimit="10"/>
<path d="M66.5711 109.029L54.8567 106.323" stroke="#EDEEF7" stroke-miterlimit="10"/>
<path d="M66.8894 107.752L55.175 105.046" stroke="#EDEEF7" stroke-miterlimit="10"/>
<path d="M67.208 106.475L55.4937 103.769" stroke="#EDEEF7" stroke-miterlimit="10"/>
<path d="M65.3564 104.037L58.9661 102.595" stroke="#EDEEF7" stroke-miterlimit="10"/>
<path d="M55.7546 101.764C53.8934 102.695 52.8862 105.199 52.8862 105.199C52.8862 105.199 55.2296 102.816 57.5382 102.978C57.5786 101.763 59.3974 101.05 59.3974 101.05C58.196 100.937 56.8094 101.236 55.7546 101.764Z" fill="#EDEEF7"/>
<path d="M61.2776 79.4697C64.5944 79.7677 68.26 81.032 70.1678 83.4272C73.924 88.1434 76.7947 93.4375 76.7947 93.4375L67.8059 99.7816L61.2776 79.4697Z" fill="#520D80"/>
<path d="M70.1674 98.0455C69.6376 93.831 68.4875 88.4346 68.4875 88.4346" stroke="#8826C9" stroke-width="0.75" stroke-miterlimit="10"/>
<path d="M69.8752 95.9731L75.9452 91.7695" stroke="#8826C9" stroke-width="0.75" stroke-miterlimit="10"/>
<path d="M45.8362 98.9621C45.8362 98.9621 42.7084 105.83 42.9445 107.465C43.1225 108.698 53.2232 111.737 53.2232 111.737L52.7258 118.673C52.7258 118.673 34.3003 117.108 32.1593 113.412C29.2285 108.354 35.4094 95.2598 35.4094 95.2598" fill="#FFCBC2"/>
<path d="M51.0851 111.32C52.5959 111.586 60.5518 113.201 60.4566 113.603C60.3647 113.991 58.029 113.915 58.0985 114.135C58.1975 114.449 59.9258 114.867 60.9164 115.013C61.7999 115.143 63.1974 115.496 63.1907 115.888C63.1779 116.633 58.3393 115.859 58.3393 115.859C58.3393 115.859 63.6981 115.719 63.7514 116.343C63.829 117.243 58.1523 117.179 57.9523 117.376C57.9523 117.376 62.8899 116.065 62.9475 116.731C63.0046 117.397 58.6249 118.677 57.2717 118.583C58.396 118.452 61.8279 116.781 61.8536 117.395C61.8793 118.009 58.9086 118.875 58.4331 118.911C54.528 119.206 50.9861 118.359 50.9861 118.359" fill="#FFCBC2"/>
<path d="M62.6481 116.175C62.0102 116.243 61.3738 116.235 60.7393 116.202C60.4223 116.18 60.1048 116.157 59.7897 116.111C59.4741 116.068 59.1585 116.019 58.8481 115.935C59.4884 115.91 60.12 115.931 60.7531 115.964C61.3852 116.007 62.0174 116.058 62.6481 116.175Z" fill="#F7958B"/>
<path d="M62.0774 117.004C61.4039 117.18 60.7165 117.269 60.0258 117.318C59.6803 117.338 59.3337 117.352 58.9863 117.334C58.6397 117.318 58.2903 117.293 57.9519 117.207C59.3323 117.15 60.6865 116.998 62.0774 117.004Z" fill="#F7958B"/>
<path d="M61.1944 117.795C60.6042 117.99 59.9973 118.103 59.3866 118.186C59.0805 118.221 58.7735 118.254 58.4641 118.26C58.1552 118.269 57.8443 118.269 57.5359 118.224C58.1471 118.118 58.7487 118.03 59.3566 117.95C59.9649 117.877 60.5732 117.807 61.1944 117.795Z" fill="#F7958B"/>
<path d="M53.2232 78.7731C49.449 78.7126 45.7695 79.4195 43.4142 81.1693C39.0103 84.4408 34.801 95.2593 34.801 95.2593L47.0333 99.9946L52.3602 89.6292" fill="#520D80"/>
<path d="M46.1846 99.7825L50.3072 92.6387" stroke="#8826C9" stroke-width="0.75" stroke-miterlimit="10"/>
<path d="M47.3475 97.7666L35.8735 92.998" stroke="#8826C9" stroke-width="0.75" stroke-miterlimit="10"/>
<path d="M51.5945 78.7822C51.5945 78.7822 53.6636 81.4897 57.8134 81.4897C61.9632 81.4897 62.4111 79.6086 62.4111 79.6086" stroke="#8826C9" stroke-width="0.75" stroke-miterlimit="10"/>
<path d="M86.4114 88.3143C86.4114 88.3143 92.4218 80.7726 92.8336 80.8026C93.2453 80.8326 92.4575 82.203 92.8002 82.1644C93.143 82.1259 94.9732 79.0757 95.3764 79.2156C95.9228 79.4051 94.184 82.1097 94.184 82.1097C94.184 82.1097 94.6619 81.6037 95.0884 81.9055C95.3906 82.1192 95.0674 82.9522 95.0674 82.9522C95.0674 82.9522 95.5615 82.6614 95.8705 82.8894C96.177 83.116 95.8709 83.8323 95.8709 83.8323C95.8709 83.8323 96.3545 83.2502 96.6896 83.7309C97.0038 84.1812 95.4016 88.3177 92.5975 92.8444" fill="#FFCBC2"/>
<path d="M92.3984 82.8447C92.3984 82.8447 92.1704 84.3546 91.7268 85.5832" stroke="#F7958B" stroke-width="0.5" stroke-miterlimit="10"/>
<path d="M96.5563 84.6867C96.3254 85.0414 96.0845 85.3898 95.8218 85.7235C95.6909 85.8905 95.5538 86.0533 95.4015 86.2057C95.3253 86.2813 95.2463 86.3561 95.1502 86.417C95.0716 86.4736 94.9174 86.557 94.7793 86.4422C94.6865 86.3051 94.7265 86.1895 94.7346 86.08C94.7532 85.9705 94.7817 85.8658 94.8131 85.7625C94.8779 85.5569 94.9555 85.3579 95.0383 85.1613C95.2063 84.7691 95.3862 84.385 95.589 84.0094L95.7661 84.1108C95.5186 84.524 95.2601 84.9262 94.9764 85.317C94.8331 85.5112 94.6861 85.703 94.5133 85.8825C94.4243 85.971 94.3371 86.0595 94.2062 86.1295C94.1467 86.16 94.0439 86.2042 93.9268 86.1443C93.8102 86.0667 93.8054 85.9624 93.7974 85.8963C93.7869 85.6126 93.8654 85.3879 93.933 85.1518C94.0063 84.9205 94.0896 84.6944 94.1777 84.4706C94.3548 84.0237 94.5475 83.5862 94.7536 83.1516L94.9436 83.2468C94.7056 83.6786 94.4614 84.1041 94.182 84.5111C94.042 84.7144 93.8973 84.9152 93.7302 85.1028C93.6455 85.1961 93.5575 85.2875 93.4437 85.3636C93.3847 85.3969 93.3152 85.4398 93.2157 85.4241C93.1038 85.4026 93.0634 85.2879 93.0586 85.2251C93.0572 84.6867 93.2728 84.2469 93.4418 83.7852C93.6255 83.3306 93.8264 82.8841 94.0382 82.4434C93.8511 82.8951 93.676 83.352 93.5184 83.8138C93.4399 84.0446 93.368 84.2779 93.3047 84.5116C93.2462 84.741 93.1771 84.9909 93.2009 85.2027C93.2105 85.2556 93.2271 85.2779 93.2442 85.277C93.2671 85.2817 93.3152 85.2627 93.358 85.2337C93.4461 85.1708 93.5275 85.0833 93.6036 84.9933C93.7564 84.811 93.8921 84.6096 94.023 84.4064C94.2814 83.997 94.529 83.5758 94.7555 83.1474L94.9455 83.243C94.747 83.6729 94.5594 84.1113 94.3895 84.553C94.2319 84.9876 94.043 85.4626 94.0296 85.8767C94.0292 85.9258 94.0515 85.9548 94.0406 85.9429C94.032 85.942 94.0606 85.9481 94.1029 85.9239C94.1843 85.8829 94.2719 85.803 94.3509 85.724C94.5118 85.5612 94.658 85.375 94.7993 85.187C95.0807 84.8086 95.3424 84.4097 95.5895 84.007L95.7666 84.1084C95.5671 84.4768 95.3677 84.8495 95.1935 85.2308C95.1064 85.4212 95.024 85.6145 94.9555 85.8101C94.9221 85.9082 94.8917 86.0072 94.8722 86.1052C94.8536 86.1976 94.8431 86.3156 94.8774 86.3575C94.905 86.3842 95.0021 86.377 95.0849 86.3142C95.1687 86.2637 95.2506 86.199 95.3272 86.1295C95.4824 85.9915 95.6271 85.8377 95.7656 85.6792C96.0465 85.3617 96.3064 85.0276 96.5563 84.6867Z" fill="#F7958B"/>
</svg>
