<svg width="28" height="28" viewBox="0 0 28 28" fill="none" xmlns="http://www.w3.org/2000/svg">
<g clip-path="url(#clip0_309_1562)">
<path d="M26.2478 19.25H1.7478C1.26437 19.25 0.872803 18.8584 0.872803 18.375V2.625C0.872803 2.14156 1.26437 1.75 1.7478 1.75H26.2478C26.7312 1.75 27.1228 2.14156 27.1228 2.625V18.375C27.1228 18.8584 26.7312 19.25 26.2478 19.25Z" fill="url(#paint0_linear_309_1562)"/>
<path opacity="0.3" d="M26.2478 19.25H1.7478C1.26437 19.25 0.872803 18.8584 0.872803 18.375V2.625C0.872803 2.14156 1.26437 1.75 1.7478 1.75H26.2478C26.7312 1.75 27.1228 2.14156 27.1228 2.625V18.375C27.1228 18.8584 26.7312 19.25 26.2478 19.25Z" fill="url(#paint1_linear_309_1562)"/>
<path opacity="0.3" d="M26.2522 19.25H1.7522C1.26876 19.25 0.877197 18.8584 0.877197 18.375V2.625C0.877197 2.14156 1.26876 1.75 1.7522 1.75H26.2522C26.7356 1.75 27.1272 2.14156 27.1272 2.625V18.375C27.1272 18.8584 26.7334 19.25 26.2522 19.25Z" fill="url(#paint2_linear_309_1562)"/>
<path d="M2.6228 3.5H7.8728V4.375H2.6228V3.5Z" fill="#9936DB"/>
<path d="M18.8103 3.5H22.3103V4.375H18.8103V3.5Z" fill="#9936DB"/>
<path d="M23.6228 3.5H25.3728V4.375H23.6228V3.5Z" fill="#9936DB"/>
<path d="M4.3728 6.125H6.1228V7H4.3728V6.125Z" fill="#9936DB"/>
<path d="M2.6228 8.75H6.1228V9.625H2.6228V8.75Z" fill="#9936DB"/>
<path d="M2.6228 11.375H4.3728V12.25H2.6228V11.375Z" fill="#9936DB"/>
<path d="M21.4353 11.375H24.0603V12.25H21.4353V11.375Z" fill="#9936DB"/>
<path d="M22.7478 8.75H25.3728V9.625H22.7478V8.75Z" fill="#9936DB"/>
<path d="M2.6228 14H6.1228V14.875H2.6228V14Z" fill="#9936DB"/>
<path d="M20.9978 14H25.3728V14.875H20.9978V14Z" fill="#9936DB"/>
<path d="M21.8728 6.125H24.4978V7H21.8728V6.125Z" fill="#9936DB"/>
<path d="M1.66909 27.121H4.47565C4.72065 27.1013 4.91534 26.8629 4.91534 26.5697V26.4275C4.91534 25.6444 4.56315 24.9597 4.03596 24.5791C4.03596 24.6119 4.03815 24.6447 4.03815 24.6775C4.03815 25.5744 3.60502 26.3007 3.07346 26.3007C2.5419 26.3007 2.10877 25.5744 2.10877 24.6775C2.10877 24.6447 2.11096 24.6119 2.11096 24.5791C1.58377 24.9619 1.23159 25.6444 1.23159 26.4275V26.5697C1.2294 26.865 1.42409 27.1013 1.66909 27.121Z" fill="url(#paint3_linear_309_1562)"/>
<path d="M3.07126 26.3021C5.04001 26.3021 4.03595 25.5759 4.03595 24.679C4.03595 24.6462 4.03376 24.6134 4.03376 24.5806C3.75376 24.3771 3.42345 24.2568 3.07126 24.2568C2.71907 24.2568 2.38876 24.3771 2.10876 24.5806C2.10657 24.6134 2.10657 24.6462 2.10657 24.679C2.10439 25.5759 1.09376 26.3021 3.07126 26.3021Z" fill="#7600B3"/>
<path d="M6.12059 23.3602C6.09652 22.7389 5.63277 21.4571 5.02684 21.3499C5.0089 21.3475 4.99165 21.3415 4.9762 21.332C4.96075 21.3226 4.94745 21.3101 4.93715 21.2952C4.8409 21.1486 4.53246 20.7549 3.96809 21.0655C3.75809 21.1814 3.68371 21.2843 3.71871 21.433C3.69246 21.4636 3.64434 21.5008 3.57434 21.4724C3.34684 21.2186 3.06684 21.1661 2.7409 21.4199C2.37121 21.7086 2.37121 21.9143 2.43684 22.1177L2.43465 22.1199C2.43465 22.1199 2.41934 22.2621 2.31215 22.2511C2.20059 22.1549 2.06715 22.1549 1.85496 22.308C1.28621 22.7193 1.52027 23.1086 1.61652 23.3383C1.6034 23.3602 1.58152 23.3755 1.54652 23.3733C1.47215 23.3339 1.37809 23.3339 1.25121 23.4061C0.949337 23.5789 0.993087 24.1477 1.0784 24.3336C1.17246 24.5371 1.6909 25.2502 1.86809 25.4514C1.90965 25.4974 1.95996 25.5302 2.01465 25.5521C2.00869 25.5502 2.00284 25.5481 1.99715 25.5455C2.15246 25.6418 2.42371 25.7577 2.6884 25.5936C2.6884 25.5936 2.85684 25.4711 2.87215 25.3421C3.15871 25.5018 3.55465 25.2043 3.55465 25.2043C3.74059 25.0621 3.78871 24.9024 3.78215 24.7646C3.87621 24.8214 3.97902 24.8433 4.07746 24.8455C4.37496 24.8543 4.6484 24.6793 4.6484 24.6793C5.07496 24.4364 5.16027 24.1827 5.15809 24.0143C5.37902 24.1521 5.65246 24.0493 5.65246 24.0493C6.1359 23.8305 6.12059 23.3602 6.12059 23.3602Z" fill="url(#paint4_linear_309_1562)"/>
<path d="M23.6141 27.1206H26.4228C26.4228 27.1206 26.5453 24.979 23.1066 24.8762C19.6678 24.7756 23.6141 27.1206 23.6141 27.1206Z" fill="url(#paint5_linear_309_1562)"/>
<path d="M21.7569 24.4217C21.781 23.8005 22.2447 22.5186 22.8506 22.4114C22.8878 22.4048 22.9206 22.3873 22.9403 22.3567C23.0366 22.2102 23.345 21.8164 23.9094 22.127C24.1194 22.243 24.1938 22.3458 24.1588 22.4945C24.185 22.5252 24.2331 22.5623 24.3031 22.5339C24.5306 22.2802 24.8106 22.2277 25.1366 22.4814C25.5063 22.7702 25.5063 22.9758 25.4406 23.1792L25.4428 23.1814C25.4428 23.1814 25.4581 23.3236 25.5653 23.3127C25.6769 23.2164 25.8103 23.2164 26.0225 23.3695C26.5913 23.7808 26.3572 24.1702 26.261 24.3998C26.2741 24.4217 26.2938 24.437 26.331 24.4348C26.4053 24.3955 26.4994 24.3955 26.6263 24.4677C26.9281 24.6405 26.8844 25.2092 26.7991 25.3952C26.705 25.5986 26.1888 26.3117 26.0094 26.513C25.9678 26.5589 25.9175 26.5917 25.8628 26.6136C25.8694 26.6114 25.876 26.6092 25.8803 26.607C25.725 26.7033 25.4538 26.8192 25.1891 26.6552C25.1891 26.6552 25.0206 26.5327 25.0053 26.4036C24.7188 26.5633 24.3228 26.2658 24.3228 26.2658C24.1369 26.1236 24.0888 25.9639 24.0953 25.8261C24.0013 25.883 23.8985 25.9048 23.8 25.907C23.5025 25.9158 23.2291 25.7408 23.2291 25.7408C22.8025 25.498 22.7172 25.2442 22.7194 25.0758C22.4985 25.2136 22.225 25.1108 22.225 25.1108C21.7416 24.892 21.7569 24.4217 21.7569 24.4217Z" fill="url(#paint6_linear_309_1562)"/>
<path d="M25.4253 26.589C25.3881 26.5694 25.3531 26.5475 25.3203 26.519C25.3159 26.5147 25.3093 26.5103 25.305 26.5037C25.2437 26.4359 25.2262 26.3265 25.3859 26.1078C25.8234 25.5281 25.9962 25.095 25.9962 25.095C26.1165 24.7909 26.0728 24.7406 26.0728 24.7406C26.0312 24.6728 25.9459 24.8697 25.9459 24.8697C25.5128 25.6506 25.2153 25.9919 25.0862 26.1187C25.0796 26.1231 25.0731 26.1275 25.0665 26.1297C25.0425 26.145 25.0162 26.1603 24.9878 26.1712C24.9768 26.1756 24.9637 26.18 24.9528 26.1844C24.9287 26.1931 24.9025 26.1975 24.8762 26.2019C24.8631 26.204 24.85 26.2062 24.8346 26.2062C24.8062 26.2062 24.7778 26.204 24.7471 26.1975C24.734 26.1953 24.7209 26.1953 24.7078 26.1909C24.6361 26.1718 24.5691 26.1384 24.5109 26.0925C24.5021 26.0837 24.4912 26.075 24.4825 26.0662C24.4737 26.0575 24.4628 26.0487 24.454 26.04C24.4431 26.0269 24.4321 26.0115 24.4212 25.9984C24.4168 25.9919 24.4103 25.9853 24.4059 25.9765C24.395 25.959 24.3862 25.9415 24.3775 25.9219C24.3753 25.9153 24.3709 25.9087 24.3687 25.9022C24.36 25.8825 24.3556 25.8606 24.3512 25.8387L24.3446 25.819C24.3403 25.7972 24.3403 25.7731 24.3381 25.7512C24.3381 25.7425 24.3359 25.7359 24.3359 25.7294C24.3359 25.7053 24.3403 25.6812 24.3446 25.6572C24.3468 25.6484 24.3468 25.6397 24.349 25.6287C24.3534 25.6047 24.3643 25.5806 24.3731 25.5544C24.3775 25.5434 24.3796 25.5325 24.384 25.5237C24.8828 24.8194 25.1409 24.2047 25.1409 24.2047C25.224 24.034 25.2546 23.8547 25.2546 23.8547C25.2 23.754 25.1125 23.9006 25.1125 23.9006C24.5437 24.9594 24.2068 25.3837 24.2068 25.3837C24.2068 25.3837 23.9421 25.8453 23.3625 25.4997C23.3625 25.4997 23.0759 25.3159 23.0278 25.1869C22.9862 25.0797 22.96 24.8894 23.1065 24.6181C23.1065 24.6181 23.4543 23.9072 24.0275 23.0125C24.0275 23.0125 24.0646 22.8725 23.9356 22.9512C23.835 23.0125 23.7628 23.1394 23.7278 23.1787C23.7278 23.1787 23.3887 23.6315 22.8965 24.535C22.8965 24.535 22.7871 24.7428 22.6603 24.8456C22.5356 24.8981 22.3781 24.8784 22.2053 24.7494C21.8312 24.4694 21.9712 24.0778 22.179 23.6753C22.2928 23.4565 22.5531 22.9644 22.8003 22.5706C22.8243 22.5619 22.8484 22.5531 22.8725 22.5487C22.9512 22.5356 23.0146 22.494 23.054 22.4328C23.2509 22.1331 23.0956 21.8619 22.82 22.2797C22.1287 22.3978 21.6387 23.7497 21.6146 24.4169C21.6146 24.4409 21.6037 24.9834 22.1637 25.2328C22.1812 25.2394 22.3846 25.3137 22.6034 25.2634C22.6581 25.445 22.8068 25.6572 23.1546 25.8562C23.1612 25.8606 23.4653 26.0465 23.7978 26.0422C23.859 26.04 23.9203 26.0334 23.9771 26.0181C24.0121 26.1319 24.0865 26.2565 24.2353 26.3703C24.2528 26.3834 24.594 26.6394 24.9221 26.5737C24.9856 26.6744 25.0775 26.7444 25.1015 26.7619C25.2021 26.8253 25.3093 26.8581 25.4187 26.8669H25.5171C25.6571 26.8581 25.8037 26.81 25.9481 26.7203C25.9503 26.7203 25.9503 26.7181 25.9525 26.7181C26.2915 26.4862 26.7793 25.5172 26.7793 25.4187C26.7815 25.4187 26.0443 26.6962 25.4253 26.589Z" fill="#BA8F63"/>
<path d="M6.21911 23.2401C6.19286 22.5729 5.70286 21.221 5.0138 21.1029C4.74036 20.6851 4.58286 20.9564 4.77974 21.256C4.81911 21.3173 4.88474 21.3567 4.9613 21.372C4.98536 21.3763 5.00942 21.3851 5.03349 21.3939C5.28067 21.7876 5.54099 22.282 5.65474 22.4985C5.86255 22.8989 6.00036 23.2904 5.62849 23.5726C5.45567 23.7017 5.30036 23.7213 5.17349 23.6688C5.0488 23.566 4.93724 23.3582 4.93724 23.3582C4.44505 22.4548 4.10599 22.002 4.10599 22.002C4.07099 21.9626 4.00099 21.8379 3.89817 21.7745C3.76911 21.6957 3.8063 21.8357 3.8063 21.8357C4.37942 22.7282 4.72724 23.4414 4.72724 23.4414C4.87599 23.7126 4.84974 23.9029 4.80599 24.0101C4.75786 24.1392 4.4713 24.3229 4.4713 24.3229C3.8938 24.6685 3.62692 24.207 3.62692 24.207C3.62692 24.207 3.28786 23.7826 2.7213 22.7238C2.7213 22.7238 2.63161 22.5773 2.57911 22.6779C2.57911 22.6779 2.60974 22.8573 2.69286 23.0279C2.69286 23.0279 2.95099 23.6404 3.44974 24.347C3.45411 24.3579 3.4563 24.3689 3.46067 24.3776C3.46942 24.4017 3.47817 24.4279 3.48474 24.452C3.48692 24.4607 3.48692 24.4695 3.48911 24.4804C3.49349 24.5045 3.49786 24.5285 3.49786 24.5526C3.49786 24.5614 3.49567 24.5679 3.49567 24.5745C3.49567 24.5985 3.49349 24.6204 3.48911 24.6423C3.48692 24.6489 3.48474 24.6554 3.48474 24.662C3.48036 24.6839 3.4738 24.7057 3.46505 24.7254C3.46286 24.732 3.45849 24.7385 3.4563 24.7451C3.44755 24.7626 3.4388 24.7823 3.42786 24.7998C3.42349 24.8064 3.41692 24.8129 3.41255 24.8217C3.40161 24.837 3.39067 24.8501 3.37974 24.8632C3.37099 24.872 3.36005 24.8807 3.3513 24.8895C3.34255 24.8982 3.3338 24.907 3.32286 24.9157C3.30317 24.931 3.2813 24.9463 3.26161 24.9573C3.21349 24.9835 3.16755 25.0032 3.12599 25.0142C3.11286 25.0185 3.09974 25.0185 3.08442 25.0207C3.0538 25.0251 3.02536 25.0295 2.99692 25.0295C2.9838 25.0295 2.96849 25.0273 2.95536 25.0251C2.92911 25.0207 2.90286 25.0164 2.8788 25.0076C2.86786 25.0032 2.85474 24.9989 2.8438 24.9945C2.81755 24.9835 2.7913 24.9682 2.76505 24.9529C2.75849 24.9485 2.75192 24.9463 2.74536 24.942C2.6163 24.8151 2.3188 24.4739 1.88567 23.6929C1.88567 23.6929 1.80036 23.496 1.7588 23.5639C1.7588 23.5639 1.71505 23.6163 1.83536 23.9182C1.83536 23.9182 2.00817 24.3514 2.44567 24.931C2.60536 25.1498 2.58786 25.2592 2.52661 25.327C2.52224 25.3314 2.51567 25.3357 2.5113 25.3423C2.48067 25.3707 2.44349 25.3926 2.4063 25.4123C1.78724 25.5195 1.05005 24.2398 1.05005 24.2398C1.05005 24.3404 1.53786 25.3095 1.87692 25.5392C1.87911 25.5392 1.87911 25.5414 1.8813 25.5414C2.02567 25.631 2.17005 25.6792 2.31224 25.6879H2.41067C2.52224 25.6792 2.62942 25.6463 2.72786 25.5829C2.75192 25.5654 2.8438 25.4932 2.90724 25.3948C3.23536 25.4604 3.5788 25.2045 3.59411 25.1914C3.74286 25.0776 3.81724 24.9529 3.85224 24.8392C3.90911 24.8545 3.96817 24.8632 4.03161 24.8632C4.36411 24.8698 4.66817 24.6817 4.67474 24.6773C5.02255 24.4804 5.1713 24.266 5.22599 24.0845C5.44474 24.1326 5.64817 24.0604 5.66567 24.0539C6.23005 23.8067 6.21911 23.262 6.21911 23.2401Z" fill="#BA8F63"/>
<path d="M14.1247 0.62793C5.15378 0.62793 5.22597 8.92293 5.22597 9.05418C5.22597 14.4267 5.63722 22.0151 7.78753 25.0011C8.64066 26.1845 10.2878 26.2501 10.2878 26.2501L14 26.2457L17.7122 26.2501C17.7122 26.2501 19.3616 26.1845 20.2125 25.0011C22.3628 22.0151 22.7741 14.4267 22.7741 9.05418C22.7719 8.92293 23.0957 0.62793 14.1247 0.62793Z" fill="#AB872F"/>
<path d="M14.1247 0.62793C5.15378 0.62793 5.22597 8.92293 5.22597 9.05418C5.22597 14.4267 5.63722 22.0151 7.78753 25.0011C8.64066 26.1845 10.2878 26.2501 10.2878 26.2501L14 26.2457L17.7122 26.2501C17.7122 26.2501 19.3616 26.1845 20.2125 25.0011C22.3628 22.0151 22.7741 14.4267 22.7741 9.05418C22.7719 8.92293 23.0957 0.62793 14.1247 0.62793Z" fill="url(#paint7_radial_309_1562)"/>
<path d="M13.9978 3.48926C10.2353 3.48926 6.75061 6.28707 6.75061 12.2196C6.75061 16.9861 9.70155 19.8036 12.2697 20.7136C12.8822 20.9302 13.4728 21.0396 13.9978 21.0396C14.5184 21.0396 15.1069 20.9324 15.715 20.718C18.2875 19.8124 21.245 16.9927 21.245 12.2218C21.245 6.28488 17.7603 3.48926 13.9978 3.48926Z" fill="#E0BB95"/>
<path d="M14.8313 14.8661C14.8094 14.8574 14.7853 14.8508 14.7613 14.8486H13.2322C13.2081 14.8508 13.1863 14.8574 13.1622 14.8661C13.0244 14.923 12.9478 15.0652 13.0134 15.2183C13.0791 15.3714 13.3831 15.8002 13.9956 15.8002C14.6081 15.8002 14.9122 15.3714 14.9778 15.2183C15.0456 15.0652 14.9713 14.923 14.8313 14.8661Z" fill="#C48E6A"/>
<path d="M10.4431 13.9609C11.0315 13.9609 11.5084 13.4673 11.5084 12.8584C11.5084 12.2495 11.0315 11.7559 10.4431 11.7559C9.85476 11.7559 9.37781 12.2495 9.37781 12.8584C9.37781 13.4673 9.85476 13.9609 10.4431 13.9609Z" fill="#5D4037"/>
<path d="M17.5525 13.9609C18.1408 13.9609 18.6178 13.4673 18.6178 12.8584C18.6178 12.2495 18.1408 11.7559 17.5525 11.7559C16.9641 11.7559 16.4872 12.2495 16.4872 12.8584C16.4872 13.4673 16.9641 13.9609 17.5525 13.9609Z" fill="#5D4037"/>
<path d="M12.0247 10.8762C11.8212 10.6071 11.3531 10.2178 10.4431 10.2178C9.53312 10.2178 9.0628 10.6093 8.86155 10.8762C8.77187 10.9943 8.79374 11.1321 8.85718 11.2153C8.91405 11.2918 9.08468 11.364 9.2728 11.3006C9.46093 11.2371 9.82843 11.0468 10.4431 11.0425C11.0578 11.0468 11.4253 11.2371 11.6134 11.3006C11.8016 11.364 11.9722 11.294 12.0291 11.2153C12.0925 11.1321 12.1144 10.9965 12.0247 10.8762Z" fill="#AB872F"/>
<path d="M19.1341 10.8762C18.9306 10.6071 18.4625 10.2178 17.5525 10.2178C16.6425 10.2178 16.1722 10.6093 15.9709 10.8762C15.8812 10.9943 15.9031 11.1321 15.9666 11.2153C16.0234 11.2918 16.1941 11.364 16.3822 11.3006C16.5703 11.2371 16.9378 11.0468 17.5525 11.0425C18.1672 11.0468 18.5347 11.2371 18.7228 11.3006C18.9109 11.364 19.0816 11.294 19.1384 11.2153C19.2019 11.1321 19.2237 10.9965 19.1341 10.8762Z" fill="#AB872F"/>
<path d="M24.0603 27.1205V17.7559C24.0603 16.9727 23.4216 16.334 22.6384 16.334H5.35718C4.57405 16.334 3.9353 16.9727 3.9353 17.7559V27.1227H24.0603V27.1205Z" fill="url(#paint8_linear_309_1562)"/>
<path d="M17.2791 27.1207C17.1456 26.6985 16.9706 26.2216 16.8219 25.7141C16.5222 24.6947 16.3975 22.9929 16.345 21.805C16.3122 21.0547 15.6909 20.4619 14.9341 20.4619H13.0638C12.3069 20.4619 11.6856 21.0525 11.6528 21.805C11.6003 22.9929 11.4756 24.6947 11.1759 25.7141C11.0272 26.2216 10.8544 26.6985 10.7188 27.1207H17.2791Z" fill="url(#paint9_linear_309_1562)"/>
<path d="M14.1247 0.62793C5.15378 0.62793 5.22597 8.92293 5.22597 9.05418C5.22597 10.7517 5.26753 12.6701 5.39003 14.5929L6.86003 14.5886C6.84691 13.9498 7.29535 10.0014 8.62753 9.70168C13.5188 8.60137 16.286 6.00699 16.286 6.00699C17.0057 7.57762 19.2566 9.11105 20.0638 9.69512C20.7266 10.1742 20.9913 13.7529 20.9803 14.5907H22.6035C22.6035 14.5798 22.6078 14.5689 22.6078 14.5557C22.7303 12.6417 22.7697 10.7364 22.7697 9.0498C22.7719 8.92293 23.0957 0.62793 14.1247 0.62793Z" fill="#AB872F"/>
<path d="M14.1247 0.62793C5.15378 0.62793 5.22597 8.92293 5.22597 9.05418C5.22597 10.7517 5.26753 12.6701 5.39003 14.5929L6.86003 14.5886C6.84691 13.9498 7.29535 10.0014 8.62753 9.70168C13.5188 8.60137 16.286 6.00699 16.286 6.00699C17.0057 7.57762 19.2566 9.11105 20.0638 9.69512C20.7266 10.1742 20.9913 13.7529 20.9803 14.5907H22.6035C22.6035 14.5798 22.6078 14.5689 22.6078 14.5557C22.7303 12.6417 22.7697 10.7364 22.7697 9.0498C22.7719 8.92293 23.0957 0.62793 14.1247 0.62793Z" fill="url(#paint10_radial_309_1562)"/>
</g>
<defs>
<linearGradient id="paint0_linear_309_1562" x1="13.9987" y1="1.86113" x2="13.9987" y2="19.2655" gradientUnits="userSpaceOnUse">
<stop offset="0.003" stop-color="#424242"/>
<stop offset="0.271" stop-color="#353535"/>
<stop offset="0.764" stop-color="#131313"/>
<stop offset="1"/>
</linearGradient>
<linearGradient id="paint1_linear_309_1562" x1="13.9987" y1="1.86113" x2="13.9987" y2="19.2655" gradientUnits="userSpaceOnUse">
<stop offset="0.001" stop-color="#BFBEBE"/>
<stop offset="0.15" stop-color="#212121" stop-opacity="0"/>
<stop offset="0.776" stop-color="#212121" stop-opacity="0"/>
<stop offset="1" stop-color="#BFBEBE"/>
</linearGradient>
<linearGradient id="paint2_linear_309_1562" x1="1.04367" y1="10.4996" x2="27.1502" y2="10.4996" gradientUnits="userSpaceOnUse">
<stop offset="0.001" stop-color="#BFBEBE"/>
<stop offset="0.1" stop-color="#212121" stop-opacity="0"/>
<stop offset="0.9" stop-color="#212121" stop-opacity="0"/>
<stop offset="1" stop-color="#BFBEBE"/>
</linearGradient>
<linearGradient id="paint3_linear_309_1562" x1="1.22918" y1="25.8507" x2="4.91337" y2="25.8507" gradientUnits="userSpaceOnUse">
<stop stop-color="#AA00FF"/>
<stop offset="0.987" stop-color="#9500E0"/>
</linearGradient>
<linearGradient id="paint4_linear_309_1562" x1="4.46727" y1="24.7" x2="2.34956" y2="21.6863" gradientUnits="userSpaceOnUse">
<stop stop-color="#CCA47A"/>
<stop offset="0.5" stop-color="#E0BB95"/>
</linearGradient>
<linearGradient id="paint5_linear_309_1562" x1="21.6994" y1="25.9975" x2="26.4235" y2="25.9975" gradientUnits="userSpaceOnUse">
<stop stop-color="#AA00FF"/>
<stop offset="0.987" stop-color="#9500E0"/>
</linearGradient>
<linearGradient id="paint6_linear_309_1562" x1="23.4089" y1="25.76" x2="25.5266" y2="22.7463" gradientUnits="userSpaceOnUse">
<stop stop-color="#CCA47A"/>
<stop offset="0.5" stop-color="#E0BB95"/>
</linearGradient>
<radialGradient id="paint7_radial_309_1562" cx="0" cy="0" r="1" gradientUnits="userSpaceOnUse" gradientTransform="translate(14 12.7831) scale(10.3976 12.3742)">
<stop offset="0.794" stop-color="#BFA055" stop-opacity="0"/>
<stop offset="1" stop-color="#BFA055"/>
</radialGradient>
<linearGradient id="paint8_linear_309_1562" x1="13.9987" y1="16.3018" x2="13.9987" y2="31.2674" gradientUnits="userSpaceOnUse">
<stop stop-color="#4DD0E1"/>
<stop offset="1" stop-color="#00BCD4"/>
</linearGradient>
<linearGradient id="paint9_linear_309_1562" x1="13.9985" y1="20.255" x2="13.9985" y2="28.847" gradientUnits="userSpaceOnUse">
<stop stop-color="#00BCD4"/>
<stop offset="1" stop-color="#0097A7"/>
</linearGradient>
<radialGradient id="paint10_radial_309_1562" cx="0" cy="0" r="1" gradientUnits="userSpaceOnUse" gradientTransform="translate(14.0729 13.6645) scale(10.8911 13.2164)">
<stop offset="0.794" stop-color="#BFA055" stop-opacity="0"/>
<stop offset="1" stop-color="#BFA055"/>
</radialGradient>
<clipPath id="clip0_309_1562">
<rect width="28" height="28" fill="white"/>
</clipPath>
</defs>
</svg>
