<svg width="40" height="40" viewBox="0 0 40 40" fill="none" xmlns="http://www.w3.org/2000/svg">
<g clip-path="url(#clip0_32_1752)">
<path fill-rule="evenodd" clip-rule="evenodd" d="M39.2 20.4542C39.2 19.036 39.0727 17.6724 38.8364 16.3633H20V24.0996H30.7636C30.3 26.5996 28.8909 28.7178 26.7727 30.136V35.1542H33.2364C37.0182 31.6724 39.2 26.5451 39.2 20.4542Z" fill="#4285F4"/>
<path fill-rule="evenodd" clip-rule="evenodd" d="M20 39.9998C25.4 39.9998 29.9273 38.2089 33.2363 35.1544L26.7727 30.1362C24.9818 31.3362 22.6909 32.0453 20 32.0453C14.7909 32.0453 10.3818 28.5271 8.80908 23.7998H2.12726V28.9816C5.41817 35.518 12.1818 39.9998 20 39.9998Z" fill="#34A853"/>
<path fill-rule="evenodd" clip-rule="evenodd" d="M8.80909 23.8004C8.40909 22.6004 8.18182 21.3186 8.18182 20.0004C8.18182 18.6822 8.40909 17.4004 8.80909 16.2004V11.0186H2.12727C0.772727 13.7186 0 16.7731 0 20.0004C0 23.2276 0.772727 26.2822 2.12727 28.9822L8.80909 23.8004Z" fill="#FBBC05"/>
<path fill-rule="evenodd" clip-rule="evenodd" d="M20 7.95455C22.9363 7.95455 25.5727 8.96364 27.6454 10.9455L33.3818 5.20909C29.9182 1.98182 25.3909 0 20 0C12.1818 0 5.41817 4.48182 2.12726 11.0182L8.80908 16.2C10.3818 11.4727 14.7909 7.95455 20 7.95455Z" fill="#EA4335"/>
</g>
<defs>
<clipPath id="clip0_32_1752">
<rect width="40" height="40" fill="white"/>
</clipPath>
</defs>
</svg>
