<svg width="43" height="37" viewBox="0 0 43 37" fill="none" xmlns="http://www.w3.org/2000/svg">
<path d="M39.375 0.625H3.625C2.76305 0.625 1.9364 0.96741 1.3269 1.5769C0.71741 2.1864 0.375 3.01305 0.375 3.875V33.125C0.375 33.987 0.71741 34.8136 1.3269 35.4231C1.9364 36.0326 2.76305 36.375 3.625 36.375H39.375C40.237 36.375 41.0636 36.0326 41.6731 35.4231C42.2826 34.8136 42.625 33.987 42.625 33.125V3.875C42.625 3.01305 42.2826 2.1864 41.6731 1.5769C41.0636 0.96741 40.237 0.625 39.375 0.625ZM39.375 33.125H3.625V3.875H39.375V33.125ZM32.875 12C32.875 12.431 32.7038 12.8443 32.399 13.149C32.0943 13.4538 31.681 13.625 31.25 13.625H11.75C11.319 13.625 10.9057 13.4538 10.601 13.149C10.2962 12.8443 10.125 12.431 10.125 12C10.125 11.569 10.2962 11.1557 10.601 10.851C10.9057 10.5462 11.319 10.375 11.75 10.375H31.25C31.681 10.375 32.0943 10.5462 32.399 10.851C32.7038 11.1557 32.875 11.569 32.875 12ZM32.875 18.5C32.875 18.931 32.7038 19.3443 32.399 19.649C32.0943 19.9538 31.681 20.125 31.25 20.125H11.75C11.319 20.125 10.9057 19.9538 10.601 19.649C10.2962 19.3443 10.125 18.931 10.125 18.5C10.125 18.069 10.2962 17.6557 10.601 17.351C10.9057 17.0462 11.319 16.875 11.75 16.875H31.25C31.681 16.875 32.0943 17.0462 32.399 17.351C32.7038 17.6557 32.875 18.069 32.875 18.5ZM32.875 25C32.875 25.431 32.7038 25.8443 32.399 26.149C32.0943 26.4538 31.681 26.625 31.25 26.625H11.75C11.319 26.625 10.9057 26.4538 10.601 26.149C10.2962 25.8443 10.125 25.431 10.125 25C10.125 24.569 10.2962 24.1557 10.601 23.851C10.9057 23.5462 11.319 23.375 11.75 23.375H31.25C31.681 23.375 32.0943 23.5462 32.399 23.851C32.7038 24.1557 32.875 24.569 32.875 25Z" fill="#F7F7F7"/>
</svg>
