<svg width="224" height="216" viewBox="0 0 224 216" fill="none" xmlns="http://www.w3.org/2000/svg">
<path d="M223.445 3.15758C223.346 1.86874 222.412 0.852182 221.137 0.642433C219.781 0.421055 217.813 0.172022 215.379 0.0598435C212.946 -0.0523347 210.045 -0.0260994 206.823 0.306039C197.444 1.27168 185.344 4.82805 174.142 15.1131C168.562 20.2352 163.535 27.3191 159.807 34.1321C153.739 31.4028 145.001 33.3209 134.295 43.15L134.292 43.147C133.619 43.7645 133.607 44.8466 134.267 45.566C134.444 45.7568 134.704 45.9126 135.017 46C135.332 46.0859 135.699 46.102 136.088 46.013C147.704 43.3669 153.1 45.1115 154.611 45.7873C154.381 46.4907 154.176 47.1679 154.001 47.816C153.909 48.1582 153.991 48.5092 154.217 48.7568L154.402 48.9578L152.743 52.1006C152.543 52.4982 152.602 52.9613 152.889 53.2744L157.045 57.8024C153.135 62.103 150.844 65.4804 151.846 66.5713C152.813 67.6243 156.377 65.6349 161.008 62.119L165.183 66.6673C165.47 66.9804 165.928 67.0766 166.34 66.9119L169.667 65.5866L169.798 65.7279C170.026 65.9755 170.368 66.0877 170.717 66.0236C171.377 65.9056 172.07 65.7585 172.79 65.5896C173.335 67.1523 174.612 72.6793 170.985 84.026C170.863 84.4047 170.849 84.7731 170.908 85.0935C170.968 85.4138 171.101 85.6863 171.275 85.877C171.935 86.5965 173.016 86.678 173.687 86.0605L173.684 86.0575C184.391 76.2284 187.048 67.6853 184.846 61.4067C191.954 58.2755 199.44 53.8685 205.018 48.7479C210.621 43.604 214.565 38.0959 217.33 32.7145C220.096 27.3332 221.679 22.08 222.56 17.4472C223.773 11.0876 223.655 5.89552 223.445 3.15758ZM204.392 33.1503C199.952 37.2281 193.046 36.9326 188.969 32.492C184.891 28.0499 185.187 21.1452 189.628 17.0674C194.07 12.991 200.974 13.2867 205.052 17.7271C209.129 22.1677 208.835 29.0739 204.392 33.1503Z" fill="url(#paint0_linear_1148_3380)"/>
<path d="M153.653 73.2567C139.311 88.6883 126.6 105.392 114.206 122.779C109.768 129.051 105.36 135.619 101.245 142.085C93.1564 154.797 84.2766 170.096 77.2149 183.814C76.1504 185.882 74.0216 187.183 71.6949 187.183H58.9467C57.3589 187.183 55.8307 186.573 54.677 185.48C49.3414 180.42 43.0171 174.424 38.7995 170.89C37.5417 169.885 34.671 167.502 33.44 166.551C32.1361 165.538 30.2125 164.049 28.9132 163.039C26.4216 161.175 23.1508 158.765 20.6161 156.998C16.9782 154.438 13.1189 151.872 9.34127 149.52C7.59449 148.43 4.31041 146.576 1.79938 145.177C-0.0039832 144.172 -0.552535 141.835 0.616047 140.133L21.5171 109.688C22.7361 107.911 25.253 107.647 26.817 109.129C29.6298 111.797 33.7002 115.706 35.7057 117.82C43.6652 126.173 51.1907 135.178 58.1572 144.374C58.9496 145.449 61.5141 148.916 62.3228 150.015C63.5032 151.669 64.6777 153.346 65.8402 155.032C70.2898 148.33 74.8911 141.739 79.6291 135.254C80.7947 133.702 82.4983 131.408 83.6683 129.851C101.878 105.819 122.867 84.5706 145.438 64.6523C144.847 67.1024 145.414 69.4899 146.997 71.2144C148.296 72.6282 150.115 73.4072 152.117 73.4072C152.621 73.4069 153.133 73.3564 153.653 73.2567Z" fill="url(#paint1_linear_1148_3380)"/>
<path d="M217.634 43.5206C215.135 46.9577 212.262 50.1705 209.04 53.129C206.629 55.3426 203.808 57.5117 200.695 59.5647V176.357C200.695 188.474 190.837 198.332 178.72 198.332H45.8938C33.776 198.332 23.9179 188.474 23.9179 176.357V166.732C21.9942 165.305 19.3776 163.384 17.2146 161.875L17.1938 161.86C13.8443 159.504 10.3269 157.161 6.96997 155.051V175.52C6.96997 186.14 11.1058 196.125 18.6149 203.635C26.1258 211.145 36.1102 215.28 46.7308 215.28H177.882C188.503 215.28 198.487 211.145 205.998 203.635C213.507 196.125 217.643 186.141 217.643 175.52V44.3681C217.643 44.0856 217.64 43.8031 217.634 43.5206ZM23.9181 102.233V43.5311C23.9181 31.4133 33.7762 21.5553 45.894 21.5553H160.697C163.692 17.3837 166.899 13.6893 170.121 10.7324C172.583 8.47126 175.177 6.42709 177.886 4.60742C177.884 4.60742 177.884 4.60742 177.883 4.60742H46.7308C36.1101 4.60742 26.1258 8.74327 18.6151 16.2524C11.106 23.7629 6.97011 33.7474 6.97011 44.3681V120.369L16.614 106.322C18.2851 103.89 20.9878 102.385 23.9181 102.233Z" fill="url(#paint2_linear_1148_3380)"/>
<defs>
<linearGradient id="paint0_linear_1148_3380" x1="154.56" y1="64.0735" x2="220.068" y2="-1.43467" gradientUnits="userSpaceOnUse">
<stop stop-color="#389C6F"/>
<stop offset="1" stop-color="#B9FF96"/>
</linearGradient>
<linearGradient id="paint1_linear_1148_3380" x1="25.7337" y1="170.55" x2="133.827" y2="62.4572" gradientUnits="userSpaceOnUse">
<stop stop-color="#B9FF96"/>
<stop offset="1" stop-color="#389C6F"/>
</linearGradient>
<linearGradient id="paint2_linear_1148_3380" x1="112.307" y1="4.60742" x2="112.307" y2="215.28" gradientUnits="userSpaceOnUse">
<stop stop-color="#2FE593"/>
<stop offset="1" stop-color="#7209B7"/>
</linearGradient>
</defs>
</svg>
