<svg width="14" height="12" viewBox="0 0 14 12" fill="none" xmlns="http://www.w3.org/2000/svg">
<path d="M1.5 0.5H12.5C12.7652 0.5 13.0196 0.605357 13.2071 0.792893C13.3946 0.98043 13.5 1.23478 13.5 1.5V10.5C13.5 10.7652 13.3946 11.0196 13.2071 11.2071C13.0196 11.3946 12.7652 11.5 12.5 11.5H11.6631C11.5685 11.5 11.4758 11.4732 11.3958 11.4226C11.3158 11.3721 11.2518 11.2999 11.2113 11.2144C10.9681 10.701 10.5842 10.2673 10.1043 9.96355C9.62432 9.6598 9.068 9.49856 8.5 9.49856C7.932 9.49856 7.37568 9.6598 6.89572 9.96355C6.41576 10.2673 6.03189 10.701 5.78875 11.2144C5.74818 11.2999 5.68418 11.3721 5.60419 11.4226C5.5242 11.4732 5.4315 11.5 5.33687 11.5H1.5C1.23478 11.5 0.98043 11.3946 0.792893 11.2071C0.605357 11.0196 0.5 10.7652 0.5 10.5V1.5C0.5 1.23478 0.605357 0.98043 0.792893 0.792893C0.98043 0.605357 1.23478 0.5 1.5 0.5ZM10 7C10 6.70333 9.91203 6.41332 9.7472 6.16665C9.58238 5.91997 9.34811 5.72771 9.07403 5.61418C8.79994 5.50065 8.49834 5.47094 8.20736 5.52882C7.91639 5.5867 7.64912 5.72956 7.43934 5.93934C7.22956 6.14912 7.0867 6.41639 7.02882 6.70736C6.97094 6.99834 7.00065 7.29994 7.11418 7.57403C7.22771 7.84811 7.41997 8.08238 7.66664 8.2472C7.91332 8.41203 8.20333 8.5 8.5 8.5C8.89782 8.5 9.27936 8.34196 9.56066 8.06066C9.84196 7.77936 10 7.39782 10 7ZM1.5 10.5H5.03563C5.45317 9.78214 6.08256 9.21103 6.8375 8.865C6.45901 8.52799 6.19188 8.0839 6.07152 7.59161C5.95117 7.09932 5.98327 6.58208 6.16357 6.10845C6.34388 5.63482 6.66387 5.22717 7.08113 4.93954C7.49839 4.65191 7.99321 4.49789 8.5 4.49789C9.00679 4.49789 9.50161 4.65191 9.91887 4.93954C10.3361 5.22717 10.6561 5.63482 10.8364 6.10845C11.0167 6.58208 11.0488 7.09932 10.9285 7.59161C10.8081 8.0839 10.541 8.52799 10.1625 8.865C10.9174 9.21103 11.5468 9.78214 11.9644 10.5H12.5V1.5H1.5V10.5ZM11.5 4V3C11.5 2.86739 11.4473 2.74021 11.3536 2.64645C11.2598 2.55268 11.1326 2.5 11 2.5H3C2.86739 2.5 2.74021 2.55268 2.64645 2.64645C2.55268 2.74021 2.5 2.86739 2.5 3V9C2.5 9.13261 2.55268 9.25979 2.64645 9.35355C2.74021 9.44732 2.86739 9.5 3 9.5H4C4.13261 9.5 4.25979 9.44732 4.35355 9.35355C4.44732 9.25979 4.5 9.13261 4.5 9C4.5 8.86739 4.44732 8.74021 4.35355 8.64645C4.25979 8.55268 4.13261 8.5 4 8.5H3.5V3.5H10.5V4C10.5 4.13261 10.5527 4.25979 10.6464 4.35355C10.7402 4.44732 10.8674 4.5 11 4.5C11.1326 4.5 11.2598 4.44732 11.3536 4.35355C11.4473 4.25979 11.5 4.13261 11.5 4Z" fill="black"/>
</svg>
