<svg width="60" height="60" viewBox="0 0 60 60" fill="none" xmlns="http://www.w3.org/2000/svg">
<path fill-rule="evenodd" clip-rule="evenodd" d="M9.375 8.4375H55.3125V14.0625H9.375V8.4375Z" fill="#3E4F59"/>
<path fill-rule="evenodd" clip-rule="evenodd" d="M9.375 14.0625H55.3125V51.5625H9.375V14.0625Z" fill="#ACBEC2"/>
<path fill-rule="evenodd" clip-rule="evenodd" d="M9.375 14.0625V51.5625H37.2839C42.6982 46.6761 47.2264 40.5376 50.324 33.8851C53.4216 27.2325 54.9568 20.3491 54.7449 14.0625H9.375Z" fill="#E8EDEE"/>
<path fill-rule="evenodd" clip-rule="evenodd" d="M11.25 7.5C9.7078 7.5 8.4375 8.77031 8.4375 10.3125V47.8125C8.4375 48.3303 8.85724 48.75 9.375 48.75C9.89277 48.75 10.3125 48.3303 10.3125 47.8125V10.3125C10.3125 9.78363 10.7211 9.375 11.25 9.375H53.4375C53.9664 9.375 54.375 9.78363 54.375 10.3125V13.125H15C14.4822 13.125 14.0625 13.5447 14.0625 14.0625C14.0625 14.5803 14.4822 15 15 15H54.375V49.6875C54.375 50.2164 53.9664 50.625 53.4375 50.625H7.5C6.98224 50.625 6.5625 51.0447 6.5625 51.5625C6.5625 52.0803 6.98224 52.5 7.5 52.5H53.4375C54.9797 52.5 56.25 51.2297 56.25 49.6875C56.25 36.5625 56.25 23.4375 56.25 10.3125C56.25 8.77031 54.9797 7.5 53.4375 7.5H11.25Z" fill="black"/>
<path fill-rule="evenodd" clip-rule="evenodd" d="M51.5625 10.3125C51.0447 10.3125 50.625 10.7322 50.625 11.25C50.625 11.7678 51.0447 12.1875 51.5625 12.1875C52.0803 12.1875 52.5 11.7678 52.5 11.25C52.5 10.7322 52.0803 10.3125 51.5625 10.3125Z" fill="#ED7161"/>
<path fill-rule="evenodd" clip-rule="evenodd" d="M47.8125 10.3125C47.2947 10.3125 46.875 10.7322 46.875 11.25C46.875 11.7678 47.2947 12.1875 47.8125 12.1875C48.3303 12.1875 48.75 11.7678 48.75 11.25C48.75 10.7322 48.3303 10.3125 47.8125 10.3125Z" fill="#ECBA16"/>
<path fill-rule="evenodd" clip-rule="evenodd" d="M44.0625 10.3125C43.5447 10.3125 43.125 10.7322 43.125 11.25C43.125 11.7678 43.5447 12.1875 44.0625 12.1875C44.5803 12.1875 45 11.7678 45 11.25C45 10.7322 44.5803 10.3125 44.0625 10.3125Z" fill="#42B05C"/>
<path fill-rule="evenodd" clip-rule="evenodd" d="M4.6875 50.625C4.43886 50.625 4.20039 50.7238 4.02457 50.8996C3.84876 51.0754 3.75 51.3139 3.75 51.5625C3.75 51.8111 3.84876 52.0496 4.02457 52.2254C4.20039 52.4012 4.43886 52.5 4.6875 52.5C4.93614 52.5 5.17458 52.4012 5.3504 52.2254C5.52621 52.0496 5.625 51.8111 5.625 51.5625C5.625 51.3139 5.52621 51.0754 5.3504 50.8996C5.17458 50.7238 4.93614 50.625 4.6875 50.625Z" fill="black"/>
<path fill-rule="evenodd" clip-rule="evenodd" d="M12.1875 13.125C11.6697 13.125 11.25 13.5447 11.25 14.0625C11.25 14.5803 11.6697 15 12.1875 15C12.7053 15 13.125 14.5803 13.125 14.0625C13.125 13.5447 12.7053 13.125 12.1875 13.125Z" fill="black"/>
<path fill-rule="evenodd" clip-rule="evenodd" d="M22.5 44.0625H42.1874V40.3125H22.5V44.0625Z" fill="#FFA221"/>
<path fill-rule="evenodd" clip-rule="evenodd" d="M22.5 44.0625V42.2754C22.6888 42.2078 22.8873 42.1713 23.0878 42.1674H39.0692C39.3126 42.1673 39.5535 42.2152 39.7784 42.3083C40.0032 42.4015 40.2075 42.538 40.3796 42.71C40.5516 42.8821 40.6881 43.0864 40.7812 43.3112C40.8744 43.5361 40.9223 43.777 40.9222 44.0204V44.0625H22.5Z" fill="#FFC343"/>
<path fill-rule="evenodd" clip-rule="evenodd" d="M32.2986 37.125L26.7186 30.9365H29.9999V21.5615H34.6874V30.9365H37.9686L32.2986 37.125Z" fill="#0075D3"/>
<path fill-rule="evenodd" clip-rule="evenodd" d="M28.6047 33.0312L26.7188 30.9384H30V21.5634H34.0833C34.1309 22.0546 34.156 22.551 34.1584 23.0483C34.1581 25.5363 33.5897 27.9354 32.5635 29.78C31.5373 31.6247 30.1264 32.7834 28.6047 33.0312Z" fill="#0588E2"/>
<path fill-rule="evenodd" clip-rule="evenodd" d="M32.2943 38.0644C32.0303 38.0634 31.7791 37.9509 31.6022 37.7549L26.023 31.566C25.4791 30.963 25.9068 30.0008 26.7188 30.0004H29.0625C29.0625 27.1879 29.0625 24.3754 29.0625 21.5629C29.0626 21.0452 29.4823 20.6255 30 20.6254H34.6875C35.2053 20.6255 35.625 21.0452 35.625 21.5629V30.0004H37.9688C38.7841 30.0012 39.2099 30.9704 38.6591 31.5715L36.4984 33.9317C36.1482 34.3139 35.5544 34.3393 35.1728 33.9885C34.7918 33.6385 34.7664 33.046 35.1159 32.6647L35.8393 31.8754H34.6875C34.1698 31.8754 33.7501 31.4557 33.75 30.9379V22.5004H30.9375C30.9375 25.3129 30.9375 28.1254 30.9375 30.9379C30.9375 31.4557 30.5178 31.8754 30 31.8754H28.8263L32.3053 35.7316L33.0597 34.9076C33.4098 34.5267 34.0022 34.5013 34.3836 34.8509C34.7651 35.2004 34.7913 35.7929 34.4422 36.1748L32.9901 37.7605C32.8114 37.9554 32.5588 38.0657 32.2943 38.0644Z" fill="black"/>
<path fill-rule="evenodd" clip-rule="evenodd" d="M22.5 45C22.2514 45 22.0129 44.9012 21.8371 44.7254C21.6613 44.5496 21.5625 44.3111 21.5625 44.0625V40.3125C21.5625 40.0639 21.6613 39.8254 21.8371 39.6496C22.0129 39.4738 22.2514 39.375 22.5 39.375H36.5387C36.7873 39.375 37.0258 39.4738 37.2016 39.6496C37.3774 39.8254 37.4762 40.0639 37.4762 40.3125C37.4762 40.5611 37.3774 40.7996 37.2016 40.9754C37.0258 41.1512 36.7873 41.25 36.5387 41.25H23.4375V43.125H24.3439C24.5925 43.125 24.831 43.2238 25.0068 43.3996C25.1826 43.5754 25.2814 43.8139 25.2814 44.0625C25.2814 44.3111 25.1826 44.5496 25.0068 44.7254C24.831 44.9012 24.5925 45 24.3439 45H22.5ZM28.125 45C27.8764 45 27.6379 44.9012 27.4621 44.7254C27.2863 44.5496 27.1875 44.3111 27.1875 44.0625C27.1875 43.8139 27.2863 43.5754 27.4621 43.3996C27.6379 43.2238 27.8764 43.125 28.125 43.125H41.25V41.25H40.2905C40.0419 41.25 39.8034 41.1512 39.6276 40.9754C39.4518 40.7996 39.353 40.5611 39.353 40.3125C39.353 40.0639 39.4518 39.8254 39.6276 39.6496C39.8034 39.4738 40.0419 39.375 40.2905 39.375H42.1875C42.4361 39.375 42.6746 39.4738 42.8504 39.6496C43.0262 39.8254 43.125 40.0639 43.125 40.3125V44.0625C43.125 44.3111 43.0262 44.5496 42.8504 44.7254C42.6746 44.9012 42.4361 45 42.1875 45H28.125Z" fill="black"/>
</svg>
