<svg width="60" height="60" viewBox="0 0 60 60" fill="none" xmlns="http://www.w3.org/2000/svg">
<g clip-path="url(#clip0_997_2783)">
<path d="M30 0C13.458 0 0 13.4582 0 30C0 46.5422 13.458 60 30 60C46.542 60 60 46.5422 60 30C60 13.4582 46.542 0 30 0Z" fill="#5B699C"/>
<path d="M30 0V60C46.542 60 60 46.5422 60 30C60 13.4582 46.542 0 30 0Z" fill="#2D4175"/>
<path d="M39.8073 37.924C38.7421 36.8589 37.0154 36.8589 35.9504 37.9238C32.5842 41.29 27.1069 41.29 23.741 37.9238C22.1102 36.293 21.2121 34.1251 21.2121 31.819C21.2121 29.5129 22.1102 27.3448 23.741 25.7142C25.2482 24.2072 27.1965 23.3791 29.189 23.2288L28.0913 26.4622C27.7366 27.5067 28.0464 28.6621 28.8755 29.3894C29.3837 29.8351 30.0257 30.0663 30.6745 30.0663C31.0845 30.0663 31.4969 29.9739 31.8803 29.785L39.0854 26.2315C40.4363 25.5653 40.9912 23.9302 40.325 22.5794L36.7721 15.3745C36.2842 14.3854 35.2497 13.7874 34.1477 13.8594C33.0469 13.9313 32.0981 14.6594 31.7434 15.7041L31.0379 17.7821C30.6024 17.7458 30.1639 17.7277 29.7225 17.7317C26.0061 17.764 22.5121 19.2291 19.8841 21.8572C17.223 24.5183 15.7576 28.056 15.7576 31.8192C15.7576 35.5823 17.2232 39.1201 19.8841 41.7808C22.6306 44.5276 26.2375 45.9008 29.8457 45.9004C33.4529 45.9001 37.0613 44.5267 39.8074 41.7808C40.8723 40.7162 40.8725 38.9894 39.8073 37.924Z" fill="#D4CBF6"/>
<path d="M30.6744 30.0663C31.0844 30.0663 31.4968 29.9739 31.8803 29.785L39.0853 26.2315C40.4362 25.5653 40.9911 23.9302 40.3249 22.5794L36.772 15.3745C36.2842 14.3854 35.2496 13.7874 34.1476 13.8594C33.0469 13.9313 32.098 14.6594 31.7433 15.7041L31.0378 17.7821C30.694 17.7534 30.3475 17.7401 29.9998 17.7359V29.9801C30.2205 30.0363 30.4467 30.0663 30.6744 30.0663Z" fill="#AB99EC"/>
<path d="M39.8073 37.9239C38.7422 36.8588 37.0154 36.8587 35.9504 37.9236C34.3064 39.5674 32.1592 40.4061 30.0001 40.4446V45.8964C33.5556 45.8575 37.1006 44.4874 39.8074 41.7804C40.8723 40.716 40.8725 38.9892 39.8073 37.9239Z" fill="#AB99EC"/>
</g>
<defs>
<clipPath id="clip0_997_2783">
<rect width="60" height="60" fill="white"/>
</clipPath>
</defs>
</svg>
