<svg width="33" height="42" viewBox="0 0 33 42" fill="none" xmlns="http://www.w3.org/2000/svg">
<path d="M25.5 40.5009C25.5 40.8987 25.342 41.2802 25.0607 41.5615C24.7794 41.8429 24.3978 42.0009 24 42.0009H9C8.60218 42.0009 8.22065 41.8429 7.93934 41.5615C7.65804 41.2802 7.5 40.8987 7.5 40.5009C7.5 40.1031 7.65804 39.7215 7.93934 39.4402C8.22065 39.1589 8.60218 39.0009 9 39.0009H24C24.3978 39.0009 24.7794 39.1589 25.0607 39.4402C25.342 39.7215 25.5 40.1031 25.5 40.5009ZM33 16.5009C33.0065 19.0015 32.4416 21.4705 31.3484 23.7195C30.2553 25.9685 28.6628 27.938 26.6925 29.4778C26.3241 29.7602 26.0251 30.123 25.8184 30.5387C25.6118 30.9543 25.5028 31.4117 25.5 31.8759V33.0009C25.5 33.7965 25.1839 34.5596 24.6213 35.1222C24.0587 35.6848 23.2957 36.0009 22.5 36.0009H10.5C9.70435 36.0009 8.94129 35.6848 8.37868 35.1222C7.81607 34.5596 7.5 33.7965 7.5 33.0009V31.8759C7.49969 31.4173 7.39424 30.9648 7.19173 30.5533C6.98923 30.1418 6.69508 29.7822 6.33188 29.5021C4.3665 27.9715 2.77509 26.0138 1.67809 23.7772C0.581084 21.5407 0.00724418 19.0839 1.20222e-06 16.5928C-0.0487488 7.65651 7.17375 0.214633 16.1025 0.000882851C18.3025 -0.0521334 20.4909 0.335483 22.5389 1.14092C24.5869 1.94635 26.4531 3.15333 28.0276 4.6908C29.6021 6.22828 30.8532 8.0652 31.7071 10.0934C32.5611 12.1217 33.0006 14.3002 33 16.5009ZM30 16.5009C30.0005 14.7002 29.6408 12.9177 28.9421 11.2582C28.2433 9.59864 27.2197 8.09567 25.9313 6.83772C24.643 5.57977 23.116 4.59226 21.4402 3.93333C19.7645 3.27441 17.9739 2.95737 16.1738 3.00088C8.86125 3.17338 2.96063 9.26151 3 16.574C3.00685 18.6114 3.47699 20.6205 4.37485 22.4493C5.27271 24.2782 6.57476 25.8789 8.1825 27.1303C8.90521 27.6921 9.48978 28.4118 9.89147 29.2344C10.2932 30.0569 10.5013 30.9605 10.5 31.8759V33.0009H22.5V31.8759C22.5021 30.9579 22.7138 30.0525 23.119 29.2287C23.5242 28.405 24.1122 27.6847 24.8381 27.1228C26.4508 25.8624 27.7542 24.2503 28.6488 22.4094C29.5434 20.5686 30.0056 18.5476 30 16.5009ZM26.9794 14.7496C26.5904 12.5771 25.5452 10.5758 23.9843 9.01532C22.4235 7.45482 20.422 6.41 18.2494 6.02151C18.0551 5.98876 17.8563 5.9946 17.6643 6.03869C17.4722 6.08278 17.2908 6.16426 17.1303 6.27847C16.9697 6.39269 16.8333 6.53741 16.7287 6.70436C16.6241 6.87131 16.5534 7.05723 16.5206 7.25151C16.4879 7.44578 16.4937 7.64461 16.5378 7.83662C16.5819 8.02864 16.6634 8.2101 16.7776 8.37063C16.8918 8.53115 17.0365 8.66761 17.2035 8.77222C17.3704 8.87682 17.5564 8.94751 17.7506 8.98026C20.8575 9.50338 23.4938 12.1396 24.0206 15.2521C24.08 15.6015 24.2611 15.9185 24.5319 16.1471C24.8027 16.3757 25.1456 16.501 25.5 16.5009C25.5848 16.5004 25.6694 16.4935 25.7531 16.4803C26.1452 16.4133 26.4946 16.1934 26.7246 15.8689C26.9546 15.5443 27.0462 15.1417 26.9794 14.7496Z" fill="#9936DB"/>
</svg>
