<svg width="34" height="40" viewBox="0 0 34 40" fill="none" xmlns="http://www.w3.org/2000/svg">
<path d="M30.5 0.5H3.5C2.70435 0.5 1.94129 0.81607 1.37868 1.37868C0.81607 1.94129 0.5 2.70435 0.5 3.5V36.5C0.5 37.2957 0.81607 38.0587 1.37868 38.6213C1.94129 39.1839 2.70435 39.5 3.5 39.5H30.5C31.2956 39.5 32.0587 39.1839 32.6213 38.6213C33.1839 38.0587 33.5 37.2957 33.5 36.5V3.5C33.5 2.70435 33.1839 1.94129 32.6213 1.37868C32.0587 0.81607 31.2956 0.5 30.5 0.5ZM21.5 23H30.5V27.5H14V23H21.5ZM23 20V15.5H30.5V20H23ZM30.5 3.5V12.5H21.5C21.1022 12.5 20.7206 12.658 20.4393 12.9393C20.158 13.2206 20 13.6022 20 14V20H12.5C12.1022 20 11.7206 20.158 11.4393 20.4393C11.158 20.7206 11 21.1022 11 21.5V27.5H3.5V3.5H30.5ZM30.5 36.5H3.5V30.5H30.5V36.5Z" fill="#9936DB"/>
</svg>
