<svg width="40" height="40" viewBox="0 0 40 40" fill="none" xmlns="http://www.w3.org/2000/svg">
<path d="M37.6006 11.5913C39.6821 15.9447 40.0772 20.9148 38.7098 25.5424C37.3423 30.1699 34.3092 34.127 30.1957 36.6497C26.0823 39.1725 21.1802 40.0821 16.4356 39.2031C11.6909 38.3241 7.44001 35.7187 4.50333 31.8898C1.56665 28.0609 0.15235 23.2799 0.533398 18.4696C0.914447 13.6593 3.06383 9.16058 6.56671 5.84179C10.0696 2.52301 14.6777 0.619389 19.5015 0.498336C24.3254 0.377283 29.0232 2.04738 32.6881 5.18629L36.9387 0.933793C37.2202 0.652332 37.6019 0.494209 38 0.494209C38.398 0.494209 38.7798 0.652332 39.0612 0.933793C39.3427 1.21525 39.5008 1.597 39.5008 1.99504C39.5008 2.39309 39.3427 2.77483 39.0612 3.05629L21.0612 21.0563C20.7798 21.3378 20.398 21.4959 20 21.4959C19.6019 21.4959 19.2202 21.3378 18.9387 21.0563C18.6573 20.7748 18.4991 20.3931 18.4991 19.995C18.4991 19.597 18.6573 19.2153 18.9387 18.9338L24.1362 13.7363C22.7276 12.8047 21.0459 12.3758 19.3632 12.5189C17.6805 12.6621 16.0953 13.369 14.8644 14.5251C13.6334 15.6813 12.8287 17.2191 12.5804 18.8895C12.3322 20.5599 12.655 22.2653 13.4966 23.7294C14.3381 25.1936 15.6492 26.3308 17.2176 26.9571C18.7859 27.5834 20.5197 27.6621 22.1384 27.1803C23.757 26.6986 25.1656 25.6847 26.1363 24.3028C27.107 22.9208 27.5828 21.2517 27.4868 19.5657C27.4758 19.3687 27.5036 19.1714 27.5687 18.9852C27.6339 18.799 27.7351 18.6274 27.8665 18.4803C27.998 18.3332 28.1571 18.2134 28.3349 18.1278C28.5126 18.0421 28.7055 17.9924 28.9025 17.9813C29.3003 17.9589 29.6907 18.0955 29.9879 18.361C30.135 18.4924 30.2548 18.6516 30.3404 18.8293C30.426 19.0071 30.4758 19.1999 30.4868 19.3969C30.6236 21.7834 29.942 24.1451 28.5546 26.0917C27.1673 28.0382 25.1573 29.4532 22.8568 30.1026C20.5564 30.7521 18.1032 30.5972 15.9027 29.6635C13.7022 28.7298 11.8862 27.0732 10.7548 24.9676C9.62332 22.8619 9.24421 20.4333 9.68009 18.083C10.116 15.7327 11.3407 13.6014 13.152 12.0415C14.9632 10.4816 17.2525 9.58642 19.6414 9.50387C22.0304 9.42133 24.376 10.1564 26.2906 11.5875L30.5562 7.32192C27.4302 4.72654 23.4555 3.3776 19.3956 3.53418C15.3356 3.69077 11.4766 5.34185 8.55982 8.17029C5.64302 10.9987 3.87405 14.8051 3.59268 18.8583C3.31131 22.9116 4.53738 26.9259 7.0354 30.1302C9.53342 33.3345 13.1272 35.503 17.1266 36.219C21.126 36.9351 25.249 36.1483 28.7036 34.0097C32.1582 31.8711 34.7009 28.5316 35.8433 24.6326C36.9858 20.7335 36.6474 16.5498 34.8931 12.885C34.7215 12.526 34.6996 12.1135 34.8322 11.7383C34.9648 11.3631 35.2409 11.056 35.6 10.8844C35.959 10.7129 36.3715 10.6909 36.7467 10.8235C37.1219 10.9561 37.429 11.2323 37.6006 11.5913Z" fill="#9936DB"/>
</svg>
